<svg id="Слой_1" data-name="Слой 1" xmlns="http://www.w3.org/2000/svg" viewBox="0 0 108.95 552.55"><defs><style>.cls-1{fill:#9d9d9d}.cls-2{fill:#fff}.cls-3{fill:#f8f8f8}.cls-4{fill:#ebebeb}.cls-5{fill:#878787}.cls-6{fill:#f2f2f2}.cls-7{fill:#e4e4e4}.cls-8{fill:#ddd}.cls-9{fill:#d5d5d5}.cls-10{fill:#cdcdcd}.cls-11{fill:#c4c4c4}.cls-12{fill:#bdbdbd}.cls-13{fill:#b3b3b3}.cls-14{fill:#acacac}.cls-15{fill:#a1a1a1}.cls-16{fill:#9a9a9a}.cls-17{fill:#8f8f8f}.cls-18{fill:#838383}.cls-19{fill:#909090}.cls-20{fill:#a0a0a0}.cls-22{fill:silver}.cls-23{fill:gray}.cls-24{fill:#6f6f6f}.cls-25{fill:#949494}.cls-26{fill:#a4a4a4}.cls-28{fill:#c5c5c5}.cls-29{fill:#c3c3c3}.cls-30{fill:#d1d1d1}.cls-31{fill:#cecece}.cls-32{fill:#dcdcdc}.cls-33{fill:#e8e8e8}.cls-35{fill:#b9b9b9}.cls-36{fill:#e0e0e0}.cls-37{fill:#afafaf}.cls-38{fill:#b2b2b2}.cls-39{fill:#7c7c7c}.cls-40{fill:#b8b8b8}.cls-41{fill:#e5e5e5}.cls-42{fill:#ededed}.cls-43{fill:#f5f5f5}.cls-44{fill:#bbb}.cls-45{fill:#c2c2c2}.cls-46{fill:#c9c9c9}.cls-47{fill:#cfcfcf}.cls-48{fill:#f7f7f7}.cls-49{fill:#d7d7d7}.cls-50{fill:#d9d9d9}.cls-51{fill:#dadada}.cls-52{fill:#d4d4d4}.cls-53{fill:#ececec}.cls-54{fill:#f0f0f0}.cls-55{fill:#eaeaea}.cls-56{fill:#e7e7e7}.cls-57{fill:#dfdfdf}.cls-58{fill:#c6c6c6}.cls-59{fill:#efefef}.cls-60{fill:#cacaca}.cls-61{fill:#fafafa}.cls-62{fill:#bcbcbc}.cls-63{fill:#dedede}.cls-64{fill:#bebebe}.cls-65{fill:#ababab}.cls-66{fill:#858585}.cls-67{fill:#989898}.cls-68{fill:#7d7d7d}.cls-69{fill:#bababa}.cls-70{fill:#aeaeae}.cls-71{fill:#eee}.cls-72{fill:#d3d3d3}.cls-73{fill:#d0d0d0}.cls-74{fill:#adadad}.cls-75{fill:#aaa}.cls-76{fill:#c8c8c8}.cls-77{fill:#d2d2d2}.cls-78{fill:#b1b1b1}.cls-79{fill:#bfbfbf}.cls-80{fill:#e1e1e1}.cls-81{fill:#f1f1f1}.cls-82{fill:#fdfdfd}.cls-83{fill:#d6d6d6}.cls-84{fill:#e9e9e9}.cls-86{fill:#e2e2e2}.cls-87{fill:#c7c7c7}.cls-88{fill:#959595}.cls-91{fill:#a3a3a3}.cls-92{fill:#fbfbfb}.cls-94{fill:#979797}.cls-95{fill:#f3f3f3}.cls-96{fill:#d8d8d8}.cls-97{fill:#929292}.cls-99{fill:#f4f4f4}.cls-100{fill:#cbcbcb}.cls-101{fill:#fcfcfc}.cls-102{fill:#b5b5b5}.cls-103{fill:#c1c1c1}.cls-105{fill:#e6e6e6}.cls-106{fill:#969696}.cls-108{fill:#727272}.cls-110{fill:#a8a8a8}.cls-111{fill:#9e9e9e}.cls-112{fill:#8c8c8c}.cls-113{fill:#757575}.cls-115{fill:#ccc}.cls-116{fill:#8e8e8e}.cls-117{fill:#7e7e7e}.cls-119{fill:#e3e3e3}.cls-120{fill:#f6f6f6}.cls-127{fill:#888}.cls-128{fill:none;stroke:#000;stroke-miterlimit:10;stroke-width:.16px}</style></defs><path class="cls-1" d="m11.4 117.9.49 2.04 2.04 1.99 1.58.96 1.96.91 2.3.87 2.62.83 2.93.76 3.18.7 3.45.61 3.64.54 3.83.45 3.98.36 4.06.25 2.98.12-1.32.87 2.14 1.1 2.48.15 2.23-.25.01-1.45 3.86-.35 4.04-.15 3.96-.24 3.81-.34 3.62-.44 3.41-.52 3.16-.59 2.88-.69 2.58-.74 2.24-.83 1.91-.86 1.53-.9 1.92-1.94.51-6.34 1.33-.27-.1 4.28-1.3.56 2.19 1.06 2.43.13 2.17-.23-.12-1.38.04-4.1 1.43.96 1.57 1.43 1.02 1.83.09 1.53-.51 1.28-1.35 1.56-2.17 1.52-1.63.86-1.32.57-2.05.8-1.6.52-3.22.89-3.59.83-3.89.72-2.24.36-1.67.23-1.59.2-2 .24-1.47.15-2.46.22-1.72.13-1.92.14-2.2.13-1.59.09-2.64.1-2.01.05-3.27.03h-3.38l-3.54-.06-3.46-.12-3.4-.17-1.99-.13-2.29-.17-1.61-.14-2.58-.25-2.16-.24-1.53-.18-2.55-.34-2-.3-1.42-.22-2.37-.42-1.84-.36-3.88-.84-3.57-.93-3.2-.99-2.83-1.06-1.9-.86-1.64-.88-1.43-.94-1.38-1.16-1.18-1.6-.35-1.25.1-1.23.71-1.4 1.53-1.52 1.46-.99.46 3.79-1.25.54 1.99 1.05 2.39.15 2.19-.26.15-1.36-.13-6.45 1.33-.41-.1 7.4z"/><path class="cls-2" d="m81.84 127.08-3.16.59 3.25-74.86-.09 74.27z"/><path class="cls-3" d="m84.72 126.39-2.88.69 3.19-74.64-.31 73.95z"/><path class="cls-4" d="m87.3 125.65-2.58.74 3.11-74.34-.53 73.6z"/><path class="cls-5" d="m95.27 120.07 1.67-69.8-1.53 64.43-.14 5.37z"/><path class="cls-2" d="m81.84 127.08.21-74.28 2.98-.36-3.19 74.64zM81.93 52.81l-3.25 74.86-.02-74.54 3.27-.32zM78.66 53.13l.02 74.54-3.41.52 3.29-75.04.1-.02zM78.56 53.15l-3.29 75.04-.22-74.75 3.51-.29z"/><path class="cls-2" d="m75.05 53.44.22 74.75-3.62.44 3.29-75.19h.11z"/><path class="cls-2" d="m74.94 53.44-3.29 75.19-.42-74.96 3.62-.22.09-.01z"/><path class="cls-2" d="m71.23 53.67.42 74.96-3.81.34 3.27-75.3h.12z"/><path class="cls-2" d="m71.11 53.67-3.27 75.3-.6-75.13 3.16-.12.71-.05zM67.24 53.84l.6 75.13-3.96.24 3.24-75.37h.12z"/><path class="cls-2" d="m67.12 53.84-3.24 75.37-.77-75.25 2.71-.07 1.3-.05z"/><path class="cls-2" d="m63.11 53.96.77 75.25-4.04.15 3.15-75.4h.12z"/><path class="cls-2" d="m62.99 53.96-3.15 75.4-.93-75.37h2.24l1.84-.03zM58.91 53.99l.93 75.37-3.99.03.1-5.75 2.85-69.65h.11z"/><path class="cls-2" d="m58.8 53.99-2.85 69.65 1.38-69.65h1.47z"/><path class="cls-6" d="m84.72 126.39.43-73.97 1.99-.26-2.42 74.23z"/><path class="cls-7" d="m87.3 125.65.63-73.61 2.36-.39-2.99 74z"/><path class="cls-8" d="m87.3 125.65 2.99-74-.75 73.17-2.24.83z"/><path class="cls-9" d="m89.54 124.82.85-73.19 2.02-.37-2.87 73.56z"/><path class="cls-10" d="m89.54 124.82 2.87-73.56-.96 72.7-1.91.86z"/><path class="cls-11" d="m91.45 123.96 1.04-72.71 1.6-.31-2.64 73.02z"/><path class="cls-12" d="m91.45 123.96 2.68-73.04-1.15 72.14-1.53.9z"/><path class="cls-13" d="m92.98 123.06 1.23-72.15 1.26-.29-2.49 72.44z"/><path class="cls-14" d="m92.98 123.06 2.49-72.44-1.34 71.47-1.15.97z"/><path class="cls-15" d="m1079.1 342.31 1.42-71.49Z" transform="translate(-984.98 -220.22)"/><path class="cls-16" d="m94.13 122.09 2.29-71.69-1.52 70.72-.77.97z"/><path class="cls-17" d="m1079.88 341.34 1.57-70.73Z" transform="translate(-984.98 -220.22)"/><path class="cls-2" d="m1088.47 268.21-1.28.64Z" transform="translate(-984.98 -220.22)"/><path class="cls-18" d="m1093.53 263.56.32-11.83Z" transform="translate(-984.98 -220.22)"/><path class="cls-19" d="m1093.31 264.52.23-11.84Z" transform="translate(-984.98 -220.22)"/><path class="cls-20" d="m1092.7 265.48.15-11.88Z" transform="translate(-984.98 -220.22)"/><path style="fill:#b0b0b0" d="m106.7 46.21-1.42.91 1.5-12.82-.08 11.91z"/><path class="cls-22" d="m105.28 47.12-1.78.87 1.78-12.82v11.95z"/><path class="cls-20" d="m5.28 46.19-1.6-.94.46-11.86 1.14 12.8z"/><path class="cls-19" d="m3.68 45.25-1.21-.96.35-11.85.86 12.81z"/><path class="cls-23" d="m987.45 264.51-.54-12.78Z" transform="translate(-984.98 -220.22)"/><path class="cls-24" d="m986.62 263.55-.22-12.76Z" transform="translate(-984.98 -220.22)"/><path class="cls-1" d="m1080.91 244.2 2.17.46 2.56.79 2.23.84 1.88.88 1.52.89 1.92 1.85.35 1.88-1.24 1.85-1.22.89-1.61.86-2 .84-2.34.8-2.72.74-3 .69-3.35.62-3.62.56-3.88.49-4.11.42-4.31.33-4.47.27-4.58.17-4.67.1h-4.73l-4.74-.07-4.71-.16-4.64-.24-4.55-.34-4.41-.4-4.25-.47-4-.56-3.8-.62-3.53-.68-3.24-.72-2.93-.79-2.59-.83-2.25-.86-1.87-.89-1.48-.91-1.8-1.87-.22-1.87 1.36-1.82 1.25-.88 1.62-.84 2-.81 2.31-.77 2.63-.71 2.37-.54v3.44l5.14 1.13 3.77.82-.15 2.23.54 1.31 2.07.47 1.39.14 1.5.05h1.49l1.4-.1 2.14-.39.73-1.24 12.13 2.67-.15 2.23.57 1.36 2.12.47 1.42.14 1.51.07h1.52l1.42-.1 1.21-.19 1.52-.5 12.36 1.72 1.81.4 23.09-4.48ZM992.2 249l-1.67.3 1.65.93 1.57.09 1.77-.14 1.28-.39-1.26-.69-2.21-.15Zm46.2 10.28-1.67.32 1.65 1 1.75.1 1.67-.12 1.37-.4-1.33-.76-2.28-.15Zm46.69-9-1.6.3 1.56.91 1.87.12 1.49-.1 1.24-.25-1.21-.88-2.24-.15Z" transform="translate(-984.98 -220.22)"/><path class="cls-19" d="m1093.31 264.52.23-11.84Z" transform="translate(-984.98 -220.22)"/><path class="cls-25" d="m1092.7 265.48.15-11.88Z" transform="translate(-984.98 -220.22)"/><path class="cls-26" d="m1091.67 266.43.09-11.92Z" transform="translate(-984.98 -220.22)"/><path style="fill:#b4b4b4" d="M105.28 47.12V35.17l1.5-.87-1.5 12.82z"/><path class="cls-28" d="m1091.76 254.51-1.5.88Z" transform="translate(-984.98 -220.22)"/><path class="cls-29" d="m105.28 35.17-1.78 12.82-.09-11.98 1.87-.84z"/><path class="cls-30" d="m1090.26 255.39-1.87.84Z" transform="translate(-984.98 -220.22)"/><path class="cls-31" d="m103.41 36.01.09 11.98-2.2.85 2.11-12.83zM101.3 48.84l2.2-.85-1.29.64-.91.21z"/><path class="cls-2" d="m1086.28 269.05-1.48.63ZM1086.28 269.05l-1.48.63Z" transform="translate(-984.98 -220.22)"/><path class="cls-7" d="m1083.75 269.85-1.65.6Z" transform="translate(-984.98 -220.22)"/><path class="cls-2" d="m98.78 49.63-1.65.6-1.23.14 2.88-.74z"/><path class="cls-32" d="m101.3 48.84-2.52.79.18-2.93 2.19-9.88.15 12.02z"/><path class="cls-33" d="m98.78 49.63-2.88.74 1.71-2.32 1.17 1.58z"/><path class="cls-30" d="m101.3 48.84-.15-12.02 2.26-.81-2.11 12.83z"/><path class="cls-32" d="m103.41 36.01-2.26.81 1.35-.81h.91z"/><path class="cls-25" d="m3.68 45.25-.86-12.81 1.32.95-.46 11.86z"/><path class="cls-14" d="m989.12 253.6-1.32-.94Z" transform="translate(-984.98 -220.22)"/><path class="cls-18" d="m987.45 264.51-.54-12.78Z" transform="translate(-984.98 -220.22)"/><path d="m986.62 263.55-.22-12.76Z" transform="translate(-984.98 -220.22)" style="fill:#737373"/><path class="cls-15" d="m5.28 46.19-1.14-12.8 1.16 6.4v1.79l-.02 4.61z"/><path class="cls-33" d="m1083.75 269.85-1.16-1.59Z" transform="translate(-984.98 -220.22)"/><path class="cls-17" d="m97.61 48.05-1.71 2.32 1.49-2.56.22.24z"/><path class="cls-32" d="m98.96 46.7-.18 2.93.05-2.44.13-.49z"/><path class="cls-15" d="m5.3 39.79-1.16-6.4 1.19 5.71-.03.69z"/><path class="cls-26" d="m5.33 39.1-1.19-5.71 1.68.89-.39 3.99-.1.83z"/><path class="cls-35" d="m990.8 254.5-1.68-.9Z" transform="translate(-984.98 -220.22)"/><path class="cls-26" d="m5.43 38.27.39-3.99-.25 3.39-.14.6zM5.57 37.67l.25-3.39-.03 2.64-.22.75z"/><path class="cls-36" d="m5.79 36.92.03-2.64.29 1.99-.32.65z"/><path class="cls-37" d="m990.77 257.14 1.28-.79Z" transform="translate(-984.98 -220.22)"/><path class="cls-37" d="m6.11 36.27-.29-1.99.59 1.57-.3.42z"/><path class="cls-38" d="m991.39 256.06-.59-1.56Z" transform="translate(-984.98 -220.22)"/><path class="cls-39" d="m991.39 256.06 1.38-.43Z" transform="translate(-984.98 -220.22)"/><path class="cls-40" d="m7.27 35.37-1.45-1.09 2.06.89-.61.2z"/><path class="cls-28" d="m7.88 35.17-2.06-.89 1.22.18.84.71z"/><path class="cls-33" d="m1083.75 269.85-.89-1.5Z" transform="translate(-984.98 -220.22)"/><path class="cls-41" d="m1083.75 269.85-.72-1.54ZM1083.75 269.85l-.37-1.74Z" transform="translate(-984.98 -220.22)"/><path class="cls-4" d="m97.39 47.81-1.49 2.56 1.31-3 .18.44z"/><path class="cls-17" d="m97.21 47.37-1.31 3 1.26-3.59.05.59z"/><path class="cls-42" d="m97.16 46.78-1.26 3.59-.29-12.06 1.55 8.47z"/><path class="cls-43" d="m95.61 38.31.29 12.06-3.21.67 2.92-12.73z"/><path class="cls-43" d="m92.69 51.04 3.21-.67-1.69.54-1.52.13z"/><path class="cls-9" d="m92.69 51.04 1.4-.1-1.6.31-1.73.33 1.93-.54z"/><path class="cls-44" d="m92.69 51.04-1.93.54-1.55.09 3.48-.63z"/><path class="cls-7" d="m89.21 51.67 1.55-.09-2.83.46 1.28-.37z"/><path class="cls-45" d="m89.21 51.67-2.07.49-1.71.06 3.78-.55z"/><path class="cls-2" d="m85.43 52.22 1.71-.06-1.99.26-1.89.24 2.17-.44z"/><path class="cls-46" d="m85.43 52.22-2.17.44-1.84.04 4.01-.48z"/><path class="cls-2" d="m81.42 52.7 1.84-.04-1.33.15-2.78.29 2.27-.4z"/><path class="cls-47" d="m81.42 52.7-2.27.4-1.96-.02 4.23-.38z"/><path class="cls-2" d="m77.19 53.08 1.96.02-4.1.34 2.14-.36zM92.69 51.04l-3.48.63 3.13-12.71.35 12.08zM89.21 51.67l-3.78.55 3.36-12.68.42 12.13z"/><path class="cls-2" d="m85.43 52.22-4.01.48 3.52-12.64.49 12.16zM81.42 52.7l-4.23.38 3.69-12.57.54 12.19z"/><path class="cls-48" d="m92.69 51.04-.35-12.08 3.27-.65-2.92 12.73z"/><path class="cls-2" d="m89.21 51.67-.42-12.13 3.55-.58-3.13 12.71z"/><path class="cls-2" d="m85.43 52.22-.49-12.16 3.85-.52-3.36 12.68zM81.42 52.7l-.54-12.19 4.06-.45-3.52 12.64z"/><path class="cls-2" d="m80.88 40.51-3.69 12.57-.57-12.21 4.26-.36z"/><path class="cls-2" d="m76.62 40.87.57 12.21-4.39.31 3.82-12.52zM72.8 53.39l4.39-.31-2.14.36-2.25-.05zM72.8 53.39l2.05.06-3.62.22 1.57-.28z"/><path class="cls-49" d="m72.8 53.39-2.4.33-2.15-.1 4.55-.23z"/><path class="cls-2" d="m68.25 53.62 2.15.1-3.16.12-1.42.05 2.43-.27z"/><path class="cls-50" d="m68.25 53.62-2.43.27-2.22-.13 4.65-.14z"/><path class="cls-2" d="m63.6 53.76 2.22.13-2.71.07-1.96.03 2.45-.23z"/><path class="cls-51" d="m63.6 53.76-2.45.23-2.29-.18 4.74-.05z"/><path class="cls-2" d="m58.86 53.81 2.29.18H57.33l1.53-.18zM72.8 53.39l-4.55.23 3.92-12.45.63 12.22zM68.25 53.62l-4.65.14 3.99-12.39.66 12.25zM63.6 53.76l-4.74.05 4.06-12.32.68 12.27z"/><path class="cls-2" d="m72.8 53.39-.63-12.22 4.45-.3-3.82 12.52zM68.25 53.62l-.66-12.25 4.58-.2-3.92 12.45zM63.6 53.76l-.68-12.27 4.67-.12-3.99 12.39zM62.92 41.49l-4.06 12.32-.67-12.29 4.73-.03z"/><path class="cls-2" d="m58.19 41.52.67 12.29-4.75-.04 4.08-12.25zM54.11 53.77l4.75.04-2.32.2-2.43-.24zM54.11 53.77l2.33.24-1.84-.03-1.94-.04 1.45-.17z"/><path class="cls-2" d="m58.19 41.52-4.08 12.25-.69-12.3 4.77.05z"/><path class="cls-41" d="m58.19 41.52-4.77-.05 3.27-.27 1.5.32z"/><path class="cls-2" d="m53.42 41.47.69 12.3-4.73-.11 4.04-12.19z"/><path class="cls-2" d="m49.38 53.66 4.73.11-2.26.15-2.47-.26zM49.38 53.66l2.34.26-1.3-.05-3.4-.11 2.36-.1z"/><path class="cls-49" d="m49.38 53.66-2.36.1-2.36-.32 4.72.22z"/><path class="cls-2" d="m44.66 53.44 2.36.32-4.65-.26 2.29-.06z"/><path class="cls-52" d="m44.66 53.44-2.29.06-2.33-.35 4.62.29z"/><path class="cls-2" d="m40.04 53.15 2.33.35-4.25-.32 1.92-.03zM49.38 53.66l-4.72-.22 4.01-12.1.71 12.32zM44.66 53.44l-4.62-.29 3.93-12.03.69 12.32z"/><path class="cls-2" d="m49.38 53.66-.71-12.32 4.75.13-4.04 12.19z"/><path class="cls-2" d="m53.42 41.47-4.75-.13 3.28-.2 1.47.33zM44.66 53.44l-.69-12.32 4.7.22-4.01 12.1zM43.97 41.12l-3.93 12.03-.67-12.35 4.6.32z"/><path class="cls-2" d="m39.37 40.8.67 12.35-1.46-5.63.79-6.72z"/><path class="cls-42" d="m97.16 46.78-1.55-8.47 1.63 7.95-.08.52z"/><path class="cls-53" d="m97.24 46.26-1.63-7.95 2.95-.71-1.32 8.66z"/><path class="cls-54" d="m98.56 37.6-2.95.71 1.84-.76 1.11.05z"/><path class="cls-53" d="m97.24 46.26 1.32-8.66-1.18 8.29-.14.37zM97.38 45.89l1.18-8.29-.93 7.88-.25.41z"/><path class="cls-55" d="m97.63 45.48.93-7.88-.63 7.61-.3.27z"/><path class="cls-36" d="m97.93 45.21.63-7.61-.34 7.5-.29.11z"/><path class="cls-56" d="m98.22 45.1.34-7.5-.12 7.53-.22-.03z"/><path class="cls-36" d="m98.44 45.13.12-7.53.17 7.73-.29-.2z"/><path class="cls-7" d="m98.73 45.33-.17-7.73.32 8.02-.15-.29z"/><path class="cls-7" d="m98.88 45.62-.32-8.02.42 8.52-.1-.5z"/><path class="cls-57" d="m98.98 46.12-.42-8.52 2.59-.78-2.17 9.3z"/><path class="cls-56" d="m101.15 36.82-2.59.78 1.6-.79.99.01z"/><path class="cls-57" d="m98.98 46.12 2.17-9.3-2.19 9.88.02-.58z"/><path class="cls-58" d="m98.83 47.19-.05 2.44-.17-1.97.22-.47z"/><path class="cls-59" d="m38.64 46.78-.22 1.35-.13-1.38.35.03z"/><path class="cls-2" d="m38.58 47.52 1.46 5.63-1.68-4.78.22-.85z"/><path class="cls-2" d="m38.36 48.37 1.68 4.78-1.94-4.18.26-.6z"/><path class="cls-2" d="m38.1 48.97 1.94 4.18-2.34-3.49.4-.69z"/><path class="cls-2" d="m37.7 49.66 2.34 3.49-3-2.73.66-.76zM37.04 50.42l3 2.73-4.5-.39 1.5-2.34zM35.54 52.76l4.5.39-1.92.03-2.58-.42z"/><path class="cls-2" d="m35.54 52.76 2.3.41-3.53-.34 1.23-.07z"/><path class="cls-60" d="m35.54 52.76-2.1-.01-2.24-.44 4.34.45z"/><path class="cls-61" d="m31.2 52.31 2.24.44-2.71-.33-1.52-.16 1.99.05z"/><path class="cls-11" d="m31.2 52.31-1.99-.05-2.16-.48 4.15.53z"/><path class="cls-53" d="m27.05 51.78 2.16.48-1.85-.26-2.18-.32 1.87.1z"/><path class="cls-62" d="m27.05 51.78-1.87-.1-2.07-.5 3.94.6z"/><path class="cls-63" d="m23.11 51.18 2.07.5-3.67-.6 1.6.1z"/><path class="cls-2" d="m35.54 52.76-4.34-.45 2.05-.32 2.29.77zM31.2 52.31l-4.15-.53 2.99-.7 1.16 1.23z"/><path class="cls-2" d="m27.05 51.78-3.94-.6 3.34-11.74.6 12.34z"/><path class="cls-2" d="m26.45 39.44-3.34 11.74-.57-12.35 3.91.61z"/><path class="cls-48" d="m22.54 38.83.57 12.35-3.69-.68 3.12-11.67z"/><path class="cls-48" d="m19.42 50.5 3.69.68-1.6-.1-2.09-.58z"/><path class="cls-64" d="m19.42 50.5 1.97.56-2.32-.47.35-.09z"/><path class="cls-65" d="m19.42 50.5-1.57-.15-1.82-.57 3.39.72z"/><path class="cls-14" d="m16.03 49.78 1.82.57-2.59-.6.77.03z"/><path class="cls-19" d="m1001 270-1.41-.17Z" transform="translate(-984.98 -220.22)"/><path class="cls-4" d="m19.42 50.5-3.39-.72 2.88-11.61.51 12.33z"/><path class="cls-7" d="m1001 270 .15-12.18Z" transform="translate(-984.98 -220.22)"/><path class="cls-66" d="m1000.34 269.83-3-.79Z" transform="translate(-984.98 -220.22)"/><path class="cls-66" d="m12.33 48.82 2.29.79-1.64-.45-1.28-.36.63.02z"/><path class="cls-67" d="m997.3 269-2.69-.84Z" transform="translate(-984.98 -220.22)"/><path class="cls-68" d="m9.63 47.98 2.07.82-1.53-.5-.54-.32z"/><path class="cls-2" d="m994.61 268.2-2.36-.88Z" transform="translate(-984.98 -220.22)"/><path class="cls-69" d="m7.27 47.1 1.86.84-1.88-.72.02-.12z"/><path class="cls-39" d="m992.25 267.32-1.42-.61Z" transform="translate(-984.98 -220.22)"/><path class="cls-32" d="m15.36 49.61-3.03-.79.76-12 2.27 12.79z"/><path class="cls-10" d="m12.33 48.82-2.7-.84.94-2.95 1.76 3.79z"/><path class="cls-69" d="m994.61 268.2-2.36-.88Z" transform="translate(-984.98 -220.22)"/><path class="cls-70" d="m7.27 47.1-1.99-.91 1.32-.5.67 1.41z"/><path class="cls-43" d="m19.42 50.5-.51-12.33 3.63.66-3.12 11.67z"/><path class="cls-55" d="m16.03 49.78.15-12.18 2.73.57-2.88 11.61z"/><path class="cls-71" d="m18.91 38.17-2.73-.57 1.86.07.87.5z"/><path class="cls-57" d="m15.36 49.61-2.27-12.79 3.09.78-.82 12.01z"/><path class="cls-13" d="m992.25 267.32-.67-1.42Z" transform="translate(-984.98 -220.22)"/><path class="cls-70" d="m6.6 45.69-1.32.5.93-1.25.39.75z"/><path class="cls-69" d="m994.61 268.2-1.32-1Z" transform="translate(-984.98 -220.22)"/><path class="cls-47" d="m997.3 269-1.75-3.79Z" transform="translate(-984.98 -220.22)"/><path class="cls-10" d="m10.57 45.03-.94 2.95.56-2.19.38-.76z"/><path class="cls-72" d="m13.09 36.82-.76 12-1.23-6.69 1.99-5.31z"/><path class="cls-2" d="m27.05 51.78-.6-12.34.69 5.83-.02 1.53-.02 1.45-.05 3.53z"/><path class="cls-2" d="m1016.17 272.53-1.17-1.23Z" transform="translate(-984.98 -220.22)"/><path class="cls-2" d="m30.04 51.08-2.99.7 2.14-1.36.85.66z"/><path class="cls-2" d="m1020.52 273-2.29-.77ZM1018.23 272.21l-2.06.32Z" transform="translate(-984.98 -220.22)"/><path class="cls-2" d="m37.04 50.42-1.5 2.34.71-1.72.79-.62z"/><path class="cls-73" d="m997.3 269-1.46-4.7ZM997.3 269l-1.3-5.67Z" transform="translate(-984.98 -220.22)"/><path class="cls-41" d="m11.05 43.11-.48 1.92-.75 1.21-1.89-.64-1.11-1.21-.76-1.47-.35-1.23-.16-1.45.14-1.45.71-1.87 1.66-1.28 1.71 1.52.79 1.68-1.64-.82-1.55 1.48-.03 1.96.86 1.7 1.35.64 1.53-1.42-.03.73z"/><path class="cls-2" d="m10.19 45.79-.56 2.19.1-1.62.46-.57z"/><path class="cls-58" d="m9.73 46.36-.1 1.62-.42-1.23.52-.39z"/><path class="cls-29" d="m994.19 267 .42 1.23Z" transform="translate(-984.98 -220.22)"/><path class="cls-65" d="m992.81 267.05 1.77-.37Z" transform="translate(-984.98 -220.22)"/><path class="cls-2" d="m992.3 266.75 1.37-.47Z" transform="translate(-984.98 -220.22)"/><path class="cls-73" d="m992.05 266.51 1.46-.32Z" transform="translate(-984.98 -220.22)"/><path class="cls-74" d="m6.21 44.94-.93 1.25.58-2.17.35.92z"/><path class="cls-65" d="m5.86 44.02-.58 2.17.31-3.17.27 1z"/><path class="cls-75" d="m5.4 41.95-.12 4.24.02-4.61.1.37z"/><path class="cls-76" d="m995.28 256.23-1.51-.06Z" transform="translate(-984.98 -220.22)"/><path class="cls-30" d="m10.3 36.01-2.42-.84 1.4.15 1.02.69z"/><path class="cls-41" d="m10.19 37.92.11-1.91.26 2.83-.37-.92z"/><path class="cls-60" d="m10.56 38.84-.26-2.83.54 3.86-.28-1.03z"/><path class="cls-77" d="m10.84 39.87-.54-3.86 2.79.81-2.25 3.05zM10.84 39.87l2.25-3.05-2.06 4.11-.19-1.06z"/><path class="cls-41" d="m10.84 39.87.26 2.19-1.86-1.98.71-1.56.89 1.35z"/><path class="cls-72" d="m11.03 40.93 2.06-4.11-1.99 5.24-.07-1.13z"/><path class="cls-2" d="m36.25 51.04-.71 1.72-.18-1.23.89-.49z"/><path class="cls-2" d="m1020.34 271.75.18 1.23Z" transform="translate(-984.98 -220.22)"/><path class="cls-14" d="m1018.23 272.21 1.7-.51Z" transform="translate(-984.98 -220.22)"/><path class="cls-78" d="m1017.37 272.15 2.56-.45Z" transform="translate(-984.98 -220.22)"/><path class="cls-79" d="m1016.48 272 2.21-.69Z" transform="translate(-984.98 -220.22)"/><path class="cls-77" d="m1015.67 271.67 1.92-1.13Z" transform="translate(-984.98 -220.22)"/><path class="cls-80" d="m1015 271.3 2.51-.83Z" transform="translate(-984.98 -220.22)"/><path class="cls-2" d="m29.19 50.42-2.14 1.36 1.37-2.24.77.88z"/><path class="cls-81" d="m1014.17 270.64 2.49-1.25Z" transform="translate(-984.98 -220.22)"/><path class="cls-2" d="m28.42 49.54-1.37 2.24.84-3.06.53.82z"/><path class="cls-82" d="m1013.4 269.76 2.62-1.65Z" transform="translate(-984.98 -220.22)"/><path class="cls-2" d="m27.89 48.72-.84 3.06.39-4.16.45 1.1z"/><path class="cls-2" d="m1012.87 268.94 3.1-.95Z" transform="translate(-984.98 -220.22)"/><path class="cls-2" d="m27.44 47.62-.39 4.16.1-2.49.05-1.3.24-.37z"/><path class="cls-2" d="m1012.42 267.84 3.2-1.25Z" transform="translate(-984.98 -220.22)"/><path class="cls-2" d="m27.14 45.27-.69-5.83.8 4.97-.11.86z"/><path class="cls-81" d="m1012.11 265.48 3.41-.5Z" transform="translate(-984.98 -220.22)"/><path class="cls-7" d="m1012.23 264.62 3.49-1Z" transform="translate(-984.98 -220.22)"/><path class="cls-2" d="m27.44 43.73-.99-4.29 1.34 3.47-.35.82z"/><path class="cls-83" d="m1012.42 264 3.79-1.6Z" transform="translate(-984.98 -220.22)"/><path class="cls-2" d="m27.79 42.91-1.34-3.47 1.85 2.72-.51.75z"/><path class="cls-45" d="m1012.77 263.12 3.47-.84Z" transform="translate(-984.98 -220.22)"/><path class="cls-2" d="m28.3 42.16-1.85-2.72 2.51 2.05-.66.67z"/><path class="cls-75" d="m1013.28 262.38 3.79-1.13Z" transform="translate(-984.98 -220.22)"/><path class="cls-2" d="m28.96 41.49-2.51-2.05 3.15 1.61-.64.44zM29.6 41.05l-3.15-1.61 4.11.52-.96 1.09z"/><path class="cls-25" d="m1013.93 261.71 3.14-.46Z" transform="translate(-984.98 -220.22)"/><path class="cls-2" d="m31.94 40.43-1.38-.47 2.29.52-.91-.05z"/><path class="cls-62" d="m1091.08 254.53 1.22-.89Z" transform="translate(-984.98 -220.22)"/><path class="cls-58" d="m1089.47 255.39 1.61-.86Z" transform="translate(-984.98 -220.22)"/><path class="cls-47" d="m1087.48 256.23 2-.84Z" transform="translate(-984.98 -220.22)"/><path class="cls-50" d="m100.16 36.81 2.34-.8-1.35.81-.99-.01z"/><path class="cls-80" d="m97.45 37.55 2.71-.74-1.6.79-1.11-.05z"/><path class="cls-84" d="m94.41 38.24 3.04-.69-1.84.76-1.2-.07z"/><path class="cls-81" d="m91.06 38.86 3.35-.62-2.07.72-1.28-.1z"/><path class="cls-48" d="m87.44 39.42 3.62-.56-2.27.68-1.35-.12z"/><path class="cls-3" d="m95.68 34.16-23.1 4.48.5-22.56 23.15-4.26-.3 12.16-.25 10.18z"/><path class="cls-82" d="m83.56 39.91 3.88-.49-2.5.64-1.38-.15z"/><path class="cls-41" d="m20.26 27.12-5.14-1.13.05-3.44.26-18.46 5.15 1.06-.32 21.97zM70.77 38.24l-12.26-2.7-.56-13.93-.59-3.34-3.1-.65-4.26.16-1.2 3.1-1.53 12.19-12.13-2.68-.61-13.77-.59-3.28-3.01-.64-4.22.15-1.23 3.08-1.44 12.01-3.66-.79.3-21.92L71.26 15.7l-.49 22.54zM72.58 38.64l-1.7-.38.48-22.48 1.72.3-.5 22.56z"/><path class="cls-2" d="m56.89 37.03-1.21.18 1.21-.67v.49zM55.68 37.21l-1.42.1 1.42-.61v.51zM79.45 40.33l4.11-.42-2.68.6-1.43-.18zM54.26 37.31l-1.51.02 1.51-.52v.5z"/><path class="cls-2" d="m75.14 40.66 4.31-.33-2.83.54-1.48-.21zM52.75 37.33l-1.52-.07 1.52-.44v.51zM70.67 40.93l4.47-.27-2.97.51-1.5-.24zM51.23 37.26l-1.42-.13 1.42-.36v.49zM66.09 41.1l4.58-.17-3.08.44-1.5-.27zM61.42 41.2l4.67-.1-3.17.39-1.5-.29zM56.69 41.2h4.73l-3.23.32-1.5-.32z"/><path class="cls-2" d="m51.95 41.14 4.74.06-3.27.27-1.47-.33zM47.24 40.97l4.71.17-3.28.2-1.43-.37zM42.6 40.73l4.64.24-3.27.15-1.37-.39zM38.05 40.4l4.55.33-3.23.07-1.32-.4zM33.64 39.99l4.41.41-3.16.03-1.25-.44zM29.39 39.52l4.25.47-3.08-.03-1.17-.44z"/><path style="fill:#f9f9f9" d="m25.37 38.96 4.02.56-2.94-.08-1.08-.48z"/><path class="cls-6" d="m21.58 38.34 3.79.62-2.83-.13-.96-.49z"/><path class="cls-4" d="m18.04 37.67 3.54.67-2.67-.17-.87-.5z"/><path class="cls-86" d="m14.8 36.94 3.24.73-1.86-.07-1.38-.66z"/><path class="cls-51" d="m11.87 36.15 2.93.79-1.71-.12-1.22-.67z"/><path class="cls-30" d="m9.28 35.32 2.59.83-1.57-.14-1.02-.69z"/><path class="cls-87" d="m7.04 34.46 2.24.86-1.4-.15-.84-.71z"/><path class="cls-2" d="m32.27 32.02-1.39.1 1.39-.59v.49zM30.88 32.12l-1.5.02 1.5-.51v.49zM29.38 32.14l-1.5-.05 1.5-.44v.49zM27.88 32.09l-1.38-.14 1.39-.35-.01.49z"/><path class="cls-13" d="m988.66 252.88 1.48.91Z" transform="translate(-984.98 -220.22)"/><path class="cls-12" d="m5.17 33.57 1.87.89-1.22-.18-.65-.71z"/><path class="cls-2" d="m30.56 39.96 4.33.47-1.96.05-2.37-.52z"/><path class="cls-2" d="m32.93 40.48 1.96-.05-1.38.17-.58-.12z"/><path class="cls-2" d="m1018.48 260.82 1.38-.17Z" transform="translate(-984.98 -220.22)"/><path class="cls-41" d="m1018.48 260.82 1.49.55 2.12 1.64.91 2.49.1 1.25-.15 1.63-.44 1.25-1.53 1.62-2 .11-1.28-.79-1.37-1.75-.52-1.4-.27-1.47v-1.44l.31-1.34 1.33-1.95Zm1.12 8.2 1.24-.71.46-1.39v-1.37l-.61-1.3-1.65-1.08-1.25.71-.5 1.75.45 2 1.2 1.26Z" transform="translate(-984.98 -220.22)"/><path class="cls-2" d="m36.2 41.93-1.31-1.5 4.48.37-3.17 1.13z"/><path class="cls-2" d="m36.2 41.93 3.17-1.13-2.26 1.99-.91-.86z"/><path class="cls-2" d="m37.11 42.79 2.26-1.99-1.67 2.78-.59-.79zM37.7 43.58l1.67-2.78-1.2 3.67-.47-.89zM38.17 44.47l1.2-3.67-.89 4.53-.31-.86zM38.63 46.16l.74-5.36-.73 5.88-.01-.52z"/><path class="cls-78" d="m9.6 46.46-2.28.07 1.4-.46.88.39z"/><path class="cls-59" d="m991.19 265.16 1.23.21Z" transform="translate(-984.98 -220.22)"/><path class="cls-88" d="m991.39 256.06 1.48-.4Z" transform="translate(-984.98 -220.22)"/><path class="cls-25" d="m1018.23 272.21 1.7-.51Z" transform="translate(-984.98 -220.22)"/><path class="cls-78" d="m34.95 51.48-3.45.27 2.24-.67 1.21.4z"/><path class="cls-77" d="m33.71 51.06-3.02.39 1.97-1.08 1.05.69z"/><path class="cls-82" d="m31.69 49.17-3.27.37 2.68-1.53.59 1.16z"/><path class="cls-53" d="m1014.17 270.64 2.56-1.15Z" transform="translate(-984.98 -220.22)"/><path class="cls-2" d="m31 47.77-3.56-.15 3.22-1.16.34 1.31zM30.64 46.38l-3.39.49 3.37-.58.02.09zM30.62 46.29l-3.47-.15 3.39-1.2.08 1.35z"/><path class="cls-61" d="m27.14 45.27 3.4-.41-3.39 1.28-.01-.87z"/><path class="cls-81" d="m30.54 44.76-3.29-.35 3.48-.95-.19 1.3z"/><path class="cls-50" d="m30.74 43.39-3.3.34 3.76-1.53-.46 1.19z"/><path class="cls-35" d="m1013.28 262.38 3.77-1.11Z" transform="translate(-984.98 -220.22)"/><path style="fill:#7a7a7a" d="m32.12 40.43-1.68.25 1.5-.25h.18z"/><path d="m1014.57 261.27 2.78-.61Z" transform="translate(-984.98 -220.22)" style="fill:#939393"/><path class="cls-2" d="m58.61 35.71-1.72.83-1.21.16-1.42.11-1.51.01-1.52-.05-1.4-.15-2.12-.47 1.3.3 1.29.21 1.49.11 1.55.04 1.51-.07 1.35-.14 1.85-.47.56-.42zM35.02 30.24l-1.53 1.12-2.61.27-1.5.02-1.49-.05-1.39-.15-2.08-.46 1.28.29 1.27.2 1.46.12 1.52.02 1.5-.05 1.35-.14 1.87-.45.35-.74z"/><path class="cls-41" d="m1005.36 247.27.2-21.9Z" transform="translate(-984.98 -220.22)"/><path class="cls-1" d="m20.58 5.15-5.15-1.06L38.49.08l5.17 1.06-23.08 4.01z"/><path class="cls-1" d="m1028.64 221.36-23 4Z" transform="translate(-984.98 -220.22)"/><path class="cls-41" d="m1055.85 258.37.39-22.46Z" transform="translate(-984.98 -220.22)"/><path class="cls-1" d="m1056.24 235.91-50.58-10.51 23-4 50.75 10.28Zm-31.89-7.31 1.34.81 1.45.15h1.25l1.35-.07 1.31-.22-1.7-1.09h-2.44l-2 .25Zm18.26-4.24-1.85-.32-2.41-.06-2 .24 1.34 1.06 1.39.09h1.92l1.56-.25Zm23.18 4.85-1.28-.42-2.29-.21h-1.23l-2 .25 1.38 1.08 1.45.09h1.94l1.43-.23Zm-23.1-.81-1.24.08 1.24.12Zm-3.23 2.07h-1.23l-2 .25 1.73 1.13 1.79.07 1.21-.05 1.49-.24-1.76-1.11Z" transform="translate(-984.98 -220.22)"/><path class="cls-1" d="m96.23 11.82-23.15 4.26-1.72-.37 23.05-4.21 1.82.32z"/><path class="cls-91" d="m58.42 35.83-.79-13.97.78 13.53.01.44z"/><path class="cls-72" d="m1043 256.35-1-14.05Z" transform="translate(-984.98 -220.22)"/><path class="cls-92" d="m1042.27 256.62-1.27-14.15Z" transform="translate(-984.98 -220.22)"/><path class="cls-2" d="m56.2 36.6-1.35.14-.01-14.37L56.2 36.6z"/><path class="cls-2" d="m54.85 36.74-1.51.07.2-14.39 1.3-.05.01 14.37z"/><path class="cls-2" d="m53.34 36.81-1.55-.04.4-14.39 1.35.04-.2 14.39zM51.79 36.77l-1.49-.11.61-14.36 1.28.08-.4 14.39z"/><path class="cls-2" d="m50.3 36.66-1.29-.21.77-14.32.52 14.53z"/><path class="cls-63" d="m1034 256.67-.1-14.54Z" transform="translate(-984.98 -220.22)"/><path class="cls-37" d="m1033 256.42.34-14.54Z" transform="translate(-984.98 -220.22)"/><path class="cls-39" d="m47.34 35.9-.07-2.83.84-11.66-.77 14.49z"/><path class="cls-91" d="m35.04 30.67-.84-13.8.82 13.37.02.43z"/><path class="cls-72" d="m1019.65 251.2-1.15-13.89Z" transform="translate(-984.98 -220.22)"/><path class="cls-92" d="m1018.87 251.45-1.31-14Z" transform="translate(-984.98 -220.22)"/><path class="cls-2" d="m32.8 31.43-1.35.14-.03-14.21 1.38 14.07z"/><path class="cls-2" d="m31.45 31.57-1.5.05.17-14.21 1.3-.05.03 14.21zM29.95 31.62l-1.52-.02.36-14.22 1.33.03-.17 14.21zM28.43 31.6l-1.46-.12.55-14.18 1.27.08-.36 14.22zM26.97 31.48l-1.27-.2.73-14.15.54 14.35z"/><path class="cls-63" d="m1010.68 251.5-.13-14.36Z" transform="translate(-984.98 -220.22)"/><path class="cls-37" d="m1009.71 251.26.28-14.37Z" transform="translate(-984.98 -220.22)"/><path class="cls-39" d="m24.09 30.74-.05-2.8.77-11.52-.72 14.32z"/><path class="cls-1" d="m1079.39 231.67-23.05 4.26Z" transform="translate(-984.98 -220.22)"/><path class="cls-1" d="m57.31 21-1.29 1.25-2.48.17-1.35-.04-1.28-.08-2-.39 2.98.36 4.26-.17 1.16-1.1zM33.91 16.03l-1.33 1.23-2.46.15-1.33-.03-1.27-.08-1.95-.37 2.93.33 4.21-.17 1.2-1.06z"/><path class="cls-41" d="m51.89 22.27-3.1-.66.05-3 3.1.66-.05 3z"/><path class="cls-2" d="m56.15 22.1-4.26.17.05-3 4.28-.17-.07 3z"/><path class="cls-26" d="m57.3 21.27-1.08-2.17 1.09 1.9-.01.27z"/><path class="cls-41" d="m28.5 17.26-3.03-.64.05-2.96 3.02.64-.04 2.96z"/><path class="cls-2" d="m32.71 17.09-4.21.17.04-2.96 4.22-.17-.05 2.96z"/><path class="cls-26" d="m33.91 16.29-1.15-2.16 1.15 1.9v.26z"/><path class="cls-1" d="m51.94 19.27-3.1-.66 5.42-.99 3.1.65-5.42 1zM28.54 14.3l-3.02-.64 5.41-.96 3.01.64-5.4.96z"/><path class="cls-2" d="m1023.4 265.42-.65-1.42Z" transform="translate(-984.98 -220.22)"/><path class="cls-1" d="m993.88 263.46 1.32-.47Z" transform="translate(-984.98 -220.22)"/><path class="cls-2" d="m7.66 41.12 1.58-1.04.98 2.69-2.02.25-.25-1.29-.29-.61z"/><path class="cls-2" d="m993.18 263.38 2-.39Z" transform="translate(-984.98 -220.22)"/><path class="cls-46" d="m8.18 38.76 1.35-.35-.29 1.67-1.92.26.78-1.31.08-.27z"/><path class="cls-46" d="m992.22 260.68 2-.39Z" transform="translate(-984.98 -220.22)"/><path d="m1017.62 767.44 6-365Z" transform="translate(-984.98 -220.22)" style="fill:#787878"/><path class="cls-68" d="m1017.62 767.44 6-365Z" transform="translate(-984.98 -220.22)"/><path class="cls-94" d="m33.3 548.15 5.8-365.57-5.73 362.21-.07 3.36z"/><path class="cls-3" d="m33.3 548.15.07-3.36 1.8-.75-.06 4.19-1.44.2-.37-.28z"/><path class="cls-1" d="m1018.35 765 5.73-362.21Z" transform="translate(-984.98 -220.22)"/><path class="cls-95" d="m1018.35 765 1.8-.76Z" transform="translate(-984.98 -220.22)"/><path class="cls-1" d="m33.4 544.14 6.47-361.07-6.4 360.61-.07.46z"/><path class="cls-33" d="m1018.38 764.35 1.84-1.07Z" transform="translate(-984.98 -220.22)"/><path class="cls-1" d="m33.47 543.68 6.4-360.61-6.25 360.04-.15.57z"/><path class="cls-50" d="m1018.45 763.9 1.9-1.26Z" transform="translate(-984.98 -220.22)"/><path class="cls-14" d="m33.62 543.11 6.25-360.04-6.03 359.58-.22.46z"/><path class="cls-29" d="m1018.6 763.33 1.5-1Z" transform="translate(-984.98 -220.22)"/><path class="cls-62" d="m1019.14 762.55 5.71-359.26Z" transform="translate(-984.98 -220.22)"/><path class="cls-29" d="m1019.54 762.37 6.46-358.58Z" transform="translate(-984.98 -220.22)"/><path class="cls-31" d="m34.57 542.15 6.45-358.58-5.93 358.58h-.52z"/><path class="cls-96" d="m35.09 542.15 5.93-358.58 1.45.49-7.38 358.09z"/><path class="cls-50" d="m35.09 542.15 7.38-358.09-6.81 358.22-.57-.13z"/><path class="cls-86" d="m35.66 542.28 6.81-358.22-6.42 358.39-.39-.17z"/><path class="cls-55" d="m36.05 542.45 6.42-358.39-5.8 358.76-.62-.37z"/><path class="cls-97" d="m1050.34 403-7.66 364.25Z" transform="translate(-984.98 -220.22)"/><path style="fill:#9f9f9f" d="M65.37 182.8 57.35 548l7.51-364.83.51-.37z"/><path class="cls-78" d="M64.86 183.17 57.35 548l-.63-2.47 8.14-362.36z"/><path class="cls-64" d="m64.86 183.17-8.14 362.36 7.25-361.89.89-.47z"/><path class="cls-81" d="m36.67 542.82 5.8-358.76 1.75.44-7.55 358.32z"/><path class="cls-99" d="m36.67 542.82 7.55-358.32-6.82 358.88-.73-.56z"/><path class="cls-82" d="m37.4 543.38 6.82-358.88-6.15 359.54-.67-.66z"/><path class="cls-2" d="m38.07 544.04 6.15-359.54-5.63 360.16-.52-.62zM38.59 544.66l5.63-360.16 1.97.34-7.6 359.82zM38.59 544.66l7.6-359.82-7.17 360.44-.43-.62zM39.02 545.28l7.17-360.44-6.75 361.22-.42-.78z"/><path class="cls-2" d="m39.71 546.87 6.48-362.03-6.35 362.85-.13-.82zM39.84 547.69l6.35-362.85 2.14.27-8.49 362.58z"/><path class="cls-2" d="m39.86 548.03 8.47-362.92-6.55 366.66-1.99-.37.07-3.37zM41.78 551.77l6.55-366.66 2.24.17-8.79 366.49zM41.78 551.77l8.79-366.49L43.87 552l-2.09-.23zM43.87 552l6.7-366.72 2.31.05L43.87 552z"/><path class="cls-2" d="m43.87 552 9.01-366.67-6.91 366.74-2.1-.07z"/><path class="cls-2" d="m45.97 552.07 6.91-366.74 2.26-.05-9.17 366.79zM45.97 552.07l9.17-366.79-7.08 366.69-2.09.1z"/><path class="cls-2" d="m48.06 551.97 7.08-366.69 2.19-.15-9.27 366.84zM48.06 551.97l9.27-366.84-7.18 362.91-.08 3.68-2.01.25zM39.79 551.4l1.99.37-1.62-.09-.37-.28z"/><path class="cls-76" d="m1026.76 772 2.09.23Z" transform="translate(-984.98 -220.22)"/><path class="cls-100" d="m1028.85 772.22 2.1.07ZM1031 772.29l2.09-.1Z" transform="translate(-984.98 -220.22)"/><path class="cls-2" d="m1033 772.19 2-.25Z" transform="translate(-984.98 -220.22)"/><path class="cls-2" d="m50.15 548.04 7.18-362.91-7.01 362.04-.17.87zM50.32 547.17l7.01-362.04-6.72 361.35-.29.69z"/><path class="cls-2" d="m50.61 546.48 6.72-361.35-6.34 360.62-.38.73zM50.99 545.75l6.34-360.62 2.02-.26-8.36 360.88zM50.99 545.75l8.36-360.88-7.82 360.16-.54.72z"/><path class="cls-2" d="m51.53 545.03 7.82-360.16-7.21 359.52-.61.64zM52.14 544.39l7.21-359.52-6.55 358.96-.66.56z"/><path class="cls-2" d="m52.8 543.83 6.55-358.96 1.82-.33-8.37 359.29z"/><path class="cls-2" d="m52.8 543.83 8.37-359.29-7.68 358.82-.69.47z"/><path class="cls-101" d="m53.49 543.36 7.68-358.82-6.97 358.47-.71.35z"/><path class="cls-95" d="m54.2 543.01 6.97-358.47-6.39 358.28-.58.19zM54.78 542.82l6.39-358.28 1.55-.43-7.94 358.71z"/><path class="cls-55" d="m54.78 542.82 7.94-358.71-7.41 358.66-.53.05z"/><path class="cls-36" d="m55.31 542.77 7.41-358.66-6.92 358.78-.49-.12z"/><path class="cls-51" d="m55.8 542.89 6.92-358.78 1.25-.47-8.17 359.25z"/><path class="cls-83" d="m55.8 542.89 8.17-359.25-7.82 359.49-.35-.24zM56.15 543.13l7.82-359.49-7.62 359.77-.2-.28z"/><path class="cls-47" d="m56.35 543.41 7.62-359.77-7.42 360.24-.2-.47z"/><path class="cls-102" d="m1041.33 763.63-1.58-.49Z" transform="translate(-984.98 -220.22)"/><path class="cls-46" d="m56.55 543.88 7.42-360.24-7.3 360.85-.12-.61z"/><path class="cls-76" d="m1041.53 764.1-1.67-.45Z" transform="translate(-984.98 -220.22)"/><path class="cls-49" d="m1041.65 764.71-1.74-.37Z" transform="translate(-984.98 -220.22)"/><path class="cls-80" d="m1041.7 765.2-1.79-.86Z" transform="translate(-984.98 -220.22)"/><path class="cls-41" d="m56.72 545.53-.06 3.37-1.81-.05.07-2.96.02-1.23 1.78.87z"/><path class="cls-79" d="m40.16 551.68 1.62.09-1.28.17-.34-.26z"/><path class="cls-44" d="m1025.48 772.16 1.28-.17Z" transform="translate(-984.98 -220.22)"/><path class="cls-103" d="m1029.89 772.69-2.26-.18Z" transform="translate(-984.98 -220.22)"/><path class="cls-29" d="M1032.15 772.66h-2.26Z" transform="translate(-984.98 -220.22)"/><path class="cls-22" d="m1034.32 772.43-2.17.23Z" transform="translate(-984.98 -220.22)"/><path class="cls-80" d="m1039.91 764.88 1.79.87Z" transform="translate(-984.98 -220.22)"/><path class="cls-28" d="m1039.86 763.65 1.67.45Z" transform="translate(-984.98 -220.22)"/><path class="cls-78" d="m1039.75 763.14 1.58.49Z" transform="translate(-984.98 -220.22)"/><path class="cls-8" d="m1020.35 762.64-1.9 1.26Z" transform="translate(-984.98 -220.22)"/><path class="cls-29" d="m35.12 542.15-1.28.5 1.25-.5h.03z"/><path class="cls-6" d="m35.17 544.04-1.77.1 1.84-1.08-.07.98z"/><path class="cls-83" d="m54.89 543.43 1.78 1.06-1.73-.37-.05-.69z"/><path style="fill:#7b7b7b" d="m28.91 170.47.28-18.38.19 19.19-.47-.81z"/><path class="cls-97" d="m29.38 171.28.3-19.11.56 19.91-.86-.8z"/><path class="cls-75" d="m30.24 172.08.32-19.79 1.24.17-.33 20.4-1.23-.78z"/><path class="cls-103" d="m31.47 172.86.33-20.4 1.59.2-.34 20.94-1.58-.74z"/><path class="cls-83" d="m33.05 173.6.34-20.94 1.92.2-.37 21.42-1.89-.68z"/><path class="cls-55" d="m34.94 174.28.37-21.42 1.28.15.54 21.87-2.19-.6z"/><path class="cls-92" d="m37.13 174.88.37-21.78 2.46.21-.39 22.11-1.67-.37-.77-.17z"/><path class="cls-2" d="m39.57 175.42.39-22.11 2.68.21-.41 22.36-1.23-.21-1.4-.23-.03-.02z"/><path class="cls-2" d="m42.23 175.88.41-22.36 2.84.17-.42 22.54-2.36-.29-.47-.06zM45.06 176.23l.42-22.54 2.97.13-.42 22.66-2.97-.25zM48.03 176.48l.42-22.66 1.89.08.71 22.73-1.89-.08-1.13-.07z"/><path class="cls-2" d="m51.05 176.63.43-22.71 3.07.05-.46 22.71-2.52-.03-.52-.02zM54.09 176.68l.46-22.71h3.01l-.45 22.65-3.02.06z"/><path class="cls-2" d="m57.11 176.62.45-22.65 2.11-.01.39 22.49-1.42.08-1.53.09zM60.06 176.45l.45-22.51 1.25 1.57-.5 11.59-1.2 9.35z"/><path class="cls-3" d="m70.03 174.78-2.14.56.98-3.54 1.16 2.98z"/><path class="cls-48" d="m1055 395-1.16-3Z" transform="translate(-984.98 -220.22)"/><path class="cls-101" d="m68.87 171.8-.98 3.54.44-3.44.54-.1z"/><path class="cls-105" d="m71.87 174.16-1.84.62.9-3.12.94 2.5z"/><path class="cls-105" d="m70.93 171.66-.9 3.12.68-3.18.22.06z"/><path class="cls-77" d="m73.39 173.47-1.52.69.42-2.11 1.1 1.42z"/><path class="cls-77" d="m72.29 172.05-.42 2.11.19-2.18.23.07z"/><path class="cls-63" d="m72.06 171.98-.19 2.18-.17-2.28.36.1z"/><path class="cls-4" d="m70.71 171.6-.68 3.18.32-3.28.36.1z"/><path class="cls-54" d="m70.35 171.5-.32 3.28-.13-3.3.45.02z"/><path class="cls-99" d="m69.9 171.48.13 3.3-.64-3.12.51-.18z"/><path class="cls-1" d="M1054.88 391.7h-1.89ZM1054.37 391.88l-1.38-.22Z" transform="translate(-984.98 -220.22)"/><path class="cls-2" d="m68.33 171.9-.44 3.44-.23-3.41.67-.03z"/><path class="cls-17" d="m1053.31 392.12-1.57-.17Z" transform="translate(-984.98 -220.22)"/><path class="cls-2" d="m67.66 171.93.23 3.41-.87-3.42.64.01z"/><path class="cls-2" d="m67.02 171.92.87 3.42-1.68.32.81-3.74z"/><path class="cls-2" d="m67.02 171.92-1.54 3.89.98-3.96.56.07z"/><path class="cls-2" d="m66.46 171.85-.98 3.96v-4.18l.98.22z"/><path class="cls-2" d="M65.48 171.63v4.18l-.81-4.47.81.29z"/><path class="cls-2" d="m64.67 171.34.81 4.47-1.36.18-1.26.19 1.81-4.84zM64.67 171.34l-1.81 4.84.64-5.43 1.17.59z"/><path class="cls-3" d="m64.67 171.34-1.98-1.11-.41-2.58 6.03 3.26-1.88.74-1.37-.17-.39-.14z"/><path class="cls-2" d="M62.25 167.62v2.27l-2.19 6.56 1.33-9.29.86.46z"/><path class="cls-2" d="m60.06 176.45 2.19-6.56.61 6.29-2.14.2-.66.07z"/><path class="cls-2" d="m1047.83 396.4-.6-6.29Z" transform="translate(-984.98 -220.22)"/><path class="cls-2" d="m63.5 170.75-.64 5.43-.17-5.95.81.52z"/><path class="cls-2" d="m1046.74 375.72-.14-1.6ZM1051.41 391.87l-1.37-.17Z" transform="translate(-984.98 -220.22)"/><path class="cls-106" d="m1053 391.66-1.58.21Z" transform="translate(-984.98 -220.22)"/><path class="cls-74" d="m1054.81 391.56-1.82.1Z" transform="translate(-984.98 -220.22)"/><path style="fill:#707070" d="m37.52 180.64.1-5.64.16 6.32-.26-.68z"/><path class="cls-17" d="m37.78 181.32.12-6.27.56 6.92-.68-.65z"/><path class="cls-70" d="m38.46 181.97.1-6.77.93 7.4-1.03-.63z"/><path class="cls-108" d="m38.46 181.97 1.63 1.23-1.41-1.01-.22-.22z"/><path class="cls-100" d="m39.49 182.6.11-7.16 1.4.23-.13 7.5-1.38-.57z"/><path d="m1024.46 402.82 1.39.57Z" transform="translate(-984.98 -220.22)" style="fill:#868686"/><path class="cls-41" d="m40.87 183.17.13-7.5 1.23.21.34 7.8-1.7-.51z"/><path class="cls-67" d="m1025.85 403.39 1.7.5Z" transform="translate(-984.98 -220.22)"/><path class="cls-101" d="m42.57 183.68.13-7.74 1.98.24-.16 7.93-1.95-.43z"/><path class="cls-110" d="m42.57 183.68 1.95.43-1.5.12-.45-.55z"/><path class="cls-2" d="m44.52 184.11.16-7.93 2.17.2-.15 8.07-2.18-.34z"/><path class="cls-102" d="m44.52 184.11 2.18.34-1.8.19-.38-.53z"/><path class="cls-2" d="m46.7 184.45.15-8.07 2.31.17-.15 8.14-2.31-.24z"/><path class="cls-79" d="m46.7 184.45 2.31.24-2.06.27-.25-.51z"/><path class="cls-2" d="m49.01 184.69.15-8.14 1.89.08.36 8.19-2.4-.13z"/><path class="cls-28" d="m49.01 184.69 2.4.13-2.25.37-.15-.5z"/><path class="cls-2" d="m51.41 184.82.16-8.17 2.42.03-.15 8.16-2.43-.02z"/><path class="cls-76" d="m51.41 184.82 2.43.02-2.41.47-.02-.49z"/><path class="cls-2" d="m53.84 184.84.15-8.16 2.38-.05-.15 8.12-2.38.09z"/><path class="cls-87" d="m53.84 184.84 2.38-.09-2.48.58.1-.49z"/><path class="cls-2" d="m56.22 184.75.15-8.12 2.27-.1-.16 8.02-2.26.2z"/><path class="cls-45" d="m56.22 184.75 2.26-.2-2.48.69.22-.49z"/><path class="cls-2" d="m58.48 184.55.16-8.02 1.42-.08.5 7.78-2.08.32z"/><path class="cls-35" d="m58.48 184.55 2.08-.32-2.42.83.34-.51z"/><path class="cls-2" d="m60.56 184.23.16-7.85 1.85-.17-.17 7.63-1.84.39z"/><path class="cls-74" d="m60.56 184.23 1.84-.39-1.23.7-.61-.31z"/><path class="cls-42" d="m62.4 183.84.17-7.63 1.55-.22-.15 7.37-1.57.48z"/><path class="cls-111" d="m62.4 183.84 1.57-.48-1.25.75-.32-.27z"/><path class="cls-52" d="m63.97 183.36.15-7.37 1.23-.17-.15 6.98-1.23.56z"/><path class="cls-112" d="m63.97 183.36 1.23-.56-1.23.84v-.28z"/><path class="cls-40" d="m65.2 182.8.15-6.98.72 6.36-.87.62z"/><path class="cls-16" d="m66.07 182.18.14-6.52.35 5.88-.49.64zM66.56 181.54l.14-5.97-.04 5.29-.1.68z"/><path class="cls-3" d="m1083.38 390.23-7.27 7.51-7-3.82.27-11.42 7.35-7.53 7 3.89Zm-8.67-11-1.7 1.68-1.07 1.65-.64 1.45-.4 1.38-.27 1.54-.05 1.38.22 2 .44 1.31 1.45 1.95 2 .86 2.26-.38 2.17-1.55 1.75-2.5.63-1.48.44-1.57.21-1.6v-1.55l-.22-1.46-.44-1.32-1.43-2-2-.86-2.25.36Z" transform="translate(-984.98 -220.22)"/><path class="cls-41" d="m84.36 162.28-.28 11.42-22.82-6.6.23-11.31 22.87 6.49z"/><path class="cls-113" d="m84.08 173.7 7.05 3.83-16.56-4.81-1.29-.38-1.22-.36-1.35-.38-1.76-.51-6.67-3.44 21.8 6.05z"/><path class="cls-9" d="m91.7 154.75-7.34 7.53-22.87-6.49 1.91-1.94 5.39-.25 4.39-.34 4.23-.43 4.03-.54 10.26 2.46z"/><path class="cls-5" d="m106.09 132.14-.39 1.73-1.97 2.24-1.55 1.08-1.94 1.03-2.31.98-2.64.92-2.97.85-3.28.79-3.56.69-3.82.62-4.05.52-4.22.44-4.4.32-4.52.24-4.61.12-4.67.03-4.68-.08-4.66-.21-4.61-.28-4.5-.39-4.36-.49-4.22-.59-4.01-.66-3.79-.76-3.52-.82-3.23-.89-2.93-.96-2.6-1.02-2.26-1.04-1.88-1.09-1.52-1.13-1.89-2.3-.33-1.63.67 1.99 1.33 1.5 1.94 1.52 1.8 1.06 1.79.86 1.92.79 3.01 1.06 3.37.98 3.73.91 4.02.82 1.54.27 1.68.29 2.01.32 1.46.2 2.51.32 2.01.24 1.62.16 2.45.22 1.74.16 2.09.15 2.29.13 1.94.1 3.15.12 2.93.07 3.03.03 3.32-.01 2.11-.06 1.67-.05 2.59-.1 1.8-.08 1.72-.12 2.21-.15 1.55-.14 2.41-.21 2.07-.24 1.45-.17 2.28-.32 4.11-.66 3.81-.76 3.47-.85 3.13-.95 2-.72 1.91-.81 1.85-.96 1.57-1.05 1.36-1.18 1.4-2.29.07-.65z"/><path class="cls-1" d="m92.8 140.75-3.47.85 1.8-.57 1.67-.28z"/><path class="cls-2" d="M1044.53 364.87h-3.32ZM1035.25 364.79l-3.15-.12ZM1030.16 364.57l-2.29-.13Z" transform="translate(-984.98 -220.22)"/><path class="cls-92" d="m1025.78 364.28-1.74-.15Z" transform="translate(-984.98 -220.22)"/><path class="cls-83" d="m1021.58 363.91-1.61-.17ZM1020 363.74l-2-.23Z" transform="translate(-984.98 -220.22)"/><path class="cls-13" d="M1015.45 363.19 1014 363Z" transform="translate(-984.98 -220.22)"/><path class="cls-5" d="m1090.68 354.09.13 7.92Z" transform="translate(-984.98 -220.22)"/><path class="cls-94" d="m1089.89 355.22.54 7.95Z" transform="translate(-984.98 -220.22)"/><path class="cls-110" d="m1088.71 356.33.93 8Z" transform="translate(-984.98 -220.22)"/><path style="fill:#b7b7b7" d="m102.18 137.19 1.55-1.08-.23 9.12-1.57 1.09.25-9.13z"/><path class="cls-58" d="m100.24 138.22 1.94-1.03-.25 9.13-1.94 1.05.25-9.15z"/><path class="cls-52" d="m97.93 139.2 2.31-.98-.25 9.15-2.29.99.23-9.16z"/><path class="cls-86" d="m95.29 140.12 2.64-.92-.23 9.16-2.65.93.24-9.17z"/><path class="cls-71" d="m92.32 140.97 2.97-.85-.24 9.17-2.96.87.23-9.19z"/><path class="cls-61" d="m89.04 141.76 3.28-.79-.23 9.19-3.27.8.22-9.2z"/><path class="cls-2" d="m85.48 142.45 3.56-.69-.22 9.2-3.56.7.22-9.21zM81.66 143.07l3.82-.62-.22 9.21-2.89.48-.71-9.07zM77.61 143.59l4.05-.52-.22 9.22-4.03.54.2-9.24z"/><path class="cls-2" d="m73.39 144.03 4.22-.44-.2 9.24-4.23.43.21-9.23z"/><path class="cls-2" d="m68.99 144.35 4.4-.32-.21 9.23-4.39.34.2-9.25zM64.47 144.59l4.52-.24-.2 9.25-4.52.24.2-9.25z"/><path class="cls-2" d="m59.86 144.71 4.61-.12-.2 9.25-1.68.05-2.08.05-.65-9.23zM55.19 144.74l4.67-.03-.19 9.25-2.11.01-2.56.02.19-9.25z"/><path class="cls-2" d="m50.51 144.66 4.68.08-.19 9.25-3.52-.07-.97-9.26z"/><path class="cls-2" d="m45.85 144.45 4.66.21-.17 9.24-1.89-.08-2.78-.12.18-9.25z"/><path class="cls-2" d="m41.24 144.17 4.61.28-.18 9.25-3.03-.18-1.55-.1.15-9.25z"/><path class="cls-2" d="m36.74 143.78 4.5.39-.15 9.25-3.59-.32-.76-9.32zM32.38 143.29l4.36.49-.15 9.23-1.28-.15-1.92-.2-1.01-9.37zM28.16 142.7l4.22.59-.15 9.23-1.67-.23-1.37-.2-1.03-9.39zM24.15 142.04l4.01.66-.15 9.23-3.99-.69.13-9.2z"/><path class="cls-2" d="m20.36 141.28 3.79.76-.13 9.2-3.79-.76.13-9.2z"/><path class="cls-95" d="m16.84 140.46 3.52.82-.13 9.2-3.51-.84.12-9.18z"/><path class="cls-56" d="m13.61 139.57 3.23.89-.12 9.18-3.23-.91.12-9.16z"/><path class="cls-51" d="m10.68 138.61 2.93.96-.12 9.16-2.93-.96.12-9.16z"/><path class="cls-115" d="m8.08 137.59 2.6 1.02-.12 9.16-2.6-1.03.12-9.15z"/><path class="cls-12" d="m5.82 136.55 2.26 1.04-.12 9.15-2.25-1.07.11-9.12z"/><path class="cls-70" d="m3.94 135.46 1.88 1.09-.11 9.12-1.89-1.12.12-9.09z"/><path class="cls-111" d="m2.42 134.33 1.52 1.13-.12 9.09-1.52-1.14.12-9.08z"/><path class="cls-116" d="m986.25 353.4 1 10.23Z" transform="translate(-984.98 -220.22)"/><path class="cls-117" d="m985.51 352.25.64 10.21Z" transform="translate(-984.98 -220.22)"/><path d="m985.16 351.09.25 10.19Z" transform="translate(-984.98 -220.22)" style="fill:#6d6d6d"/><path class="cls-7" d="m1081.73 334.61 1.18-64.39Z" transform="translate(-984.98 -220.22)"/><path class="cls-2" d="m97.93 50-1.66 64.55.81-64.32.85-.23z"/><path class="cls-1" d="m102.75 119.18-1.61 1.3-2.41.05-2.21-.32-.1-1.38 1.89 1.33 2.02.03 1.41-.34 1.01-.67z"/><path class="cls-2" d="m1083.28 340.38 1-70.53ZM1084.29 340.44l.83-70.86ZM1085.3 340.41l.86-71.19ZM1086.15 340.27l1-71.42Z" transform="translate(-984.98 -220.22)"/><path class="cls-32" d="m1086.72 340.07 1.33-71.59Z" transform="translate(-984.98 -220.22)"/><path class="cls-67" d="m101.91 119.62 1.72-71.59-1.58 66.8-.12 4.08-.02.71z"/><path class="cls-117" d="m96.84 119.77-.1-5.26 1.67-64.65-1.57 69.91z"/><path class="cls-58" d="m1082.41 340.21 1.21-70.19Z" transform="translate(-984.98 -220.22)"/><path class="cls-60" d="m1087.11 345.16 1.35-.42Z" transform="translate(-984.98 -220.22)"/><path class="cls-9" d="m1085.47 346 1.27-.25Z" transform="translate(-984.98 -220.22)"/><path class="cls-96" d="m1084.16 346.59 1.31-.57Z" transform="translate(-984.98 -220.22)"/><path class="cls-57" d="m1083 347.05 1.66-.29Z" transform="translate(-984.98 -220.22)"/><path class="cls-105" d="m1080.5 347.91 1.6-.53Z" transform="translate(-984.98 -220.22)"/><path class="cls-56" d="m1077.29 348.8 3.21-.89Z" transform="translate(-984.98 -220.22)"/><path class="cls-54" d="m1073.7 349.62 3.59-.82Z" transform="translate(-984.98 -220.22)"/><path class="cls-3" d="m1069.8 350.35 3.9-.73Z" transform="translate(-984.98 -220.22)"/><path class="cls-2" d="m1067.56 350.7 2.24-.35Z" transform="translate(-984.98 -220.22)"/><path class="cls-2" d="m80.92 130.72 1.67-.23-2.16.62.49-.39z"/><path class="cls-2" d="m1064.31 351.14 1.59-.2Z" transform="translate(-984.98 -220.22)"/><path class="cls-1" d="m1062.31 351.38 2-.24Z" transform="translate(-984.98 -220.22)"/><path class="cls-2" d="m1060.84 351.53 1.47-.15Z" transform="translate(-984.98 -220.22)"/><path class="cls-2" d="m71.68 131.66 1.72-.13-1.43.44-.29-.31z"/><path class="cls-2" d="m1054.74 352 1.92-.14Z" transform="translate(-984.98 -220.22)"/><path class="cls-2" d="m67.56 131.93 2.2-.13-2.25.45.05-.32z"/><path class="cls-2" d="m1051 352.24 1.58-.09ZM1046.3 352.39l2-.05Z" transform="translate(-984.98 -220.22)"/><path class="cls-2" d="m58.05 132.2 3.27-.03-3.05.35-.22-.32z"/><path class="cls-1" d="m57.11 130.3-2.17 1.03-2.48.07-2.22-.34.03-1.45.93 1.23 1.9.23 1.92-.16.81-1.22 1.28.61z"/><path class="cls-2" d="m1037.05 351.23.59-77.07ZM1038.08 351.29l.45-77.11ZM1039.12 351.26l.46-77.07ZM1040 351.12l.62-76.91Z" transform="translate(-984.98 -220.22)"/><path class="cls-32" d="m1040.59 350.91.93-76.68Z" transform="translate(-984.98 -220.22)"/><path class="cls-67" d="m55.81 130.44 1.32-76.45-1.18 69.65-.1 5.75-.04 1.05z"/><path class="cls-117" d="m50.61 130.6-.17-1.31.62-33.31.79-42.06-1.24 76.68z"/><path class="cls-58" d="m1036.17 351.06.88-76.92Z" transform="translate(-984.98 -220.22)"/><path class="cls-2" d="m1036.11 352.35 3.54.07Z" transform="translate(-984.98 -220.22)"/><path class="cls-2" d="m47.67 132.02 3.46.12-2.26.25-1.2-.37z"/><path class="cls-2" d="m1027.26 351.93 2 .14ZM1023.35 351.63l1.62.13Z" transform="translate(-984.98 -220.22)"/><path class="cls-1" d="m35.8 131.16 2.58.25h-3.22l.64-.25z"/><path class="cls-2" d="m1018.62 351.14 2.15.24Z" transform="translate(-984.98 -220.22)"/><path class="cls-2" d="m29.56 130.4 2.55.34-1.28.15-1.27-.49z"/><path class="cls-1" d="m27.56 130.1 2 .3-2.88-.12.88-.18z"/><path class="cls-2" d="m1011.12 350.1 1.42.22Z" transform="translate(-984.98 -220.22)"/><path class="cls-1" d="m1008.74 349.68 2.38.42Z" transform="translate(-984.98 -220.22)"/><path class="cls-48" d="m1006.91 349.32 1.83.36Z" transform="translate(-984.98 -220.22)"/><path class="cls-42" d="m18.05 128.26 3.88.84-2.88-.27-1-.57z"/><path class="cls-7" d="m14.48 127.33 3.57.93-2.42-.27-1.15-.66z"/><path class="cls-1" d="m11.35 117.92-2.21.97-2.41.05-2.15-.3.17-1.38 1.63 1.31 2 .04 1.47-.32 1.5-.37z"/><path class="cls-2" d="M991.36 338.79v-71.74ZM992.35 338.86l-.12-71.42ZM993.36 338.83l-.12-71ZM994.24 338.71v-70.48Z" transform="translate(-984.98 -220.22)"/><path class="cls-32" d="m994.83 338.51.32-70Z" transform="translate(-984.98 -220.22)"/><path class="cls-67" d="m10.09 118.03.67-69.55-.59 62.43-.08 6.4v.72z"/><path class="cls-117" d="m4.98 118.2-.1-5.03.81-66.69-.71 71.72z"/><path class="cls-58" d="m990.51 338.64.32-71.86Z" transform="translate(-984.98 -220.22)"/><path class="cls-8" d="m11.28 126.34 3.2.99-2.76-.48-.44-.51z"/><path class="cls-72" d="m8.45 125.28 2.83 1.06-2.46-.54-.37-.52z"/><path class="cls-60" d="m6.55 124.42 1.21.56-1.36-.26.15-.3z"/><path class="cls-10" d="m102.13 124.94 1.35-.42-1.72 1.03.37-.61z"/><path class="cls-96" d="m100.5 125.8 1.26-.25-2.07.99.81-.74z"/><path class="cls-119" d="m98.02 126.83 1.67-.29-2.45.93.78-.64z"/><path class="cls-42" d="m95.53 127.69 1.71-.22-2.76.87 1.05-.65z"/><path class="cls-120" d="m92.31 128.58 2.17-.24-3.05.8.88-.56z"/><path class="cls-2" d="m88.72 129.41 2.71-.27-3.4.74.69-.47zM84.83 130.13l3.2-.25-3.67.65.47-.4z"/><path class="cls-1" d="m82.59 130.49 1.77.04-3.93.58 2.16-.62z"/><path class="cls-2" d="m77.33 131.16 3.1-.05-4.13.47 1.03-.42z"/><path class="cls-1" d="m69.76 131.8 2.21.17-4.46.28 2.25-.45zM38.38 131.41l1.26.42-4.48-.42h3.22zM29.56 130.4l1.27.49-4.15-.61 2.88.12z"/><path class="cls-2" d="m23.77 129.46 2.91.82-3.94-.69 1.03-.13z"/><path class="cls-1" d="m1006.91 349.32-2.88-.27ZM1003 348.48l-2.42-.27Z" transform="translate(-984.98 -220.22)"/><path class="cls-51" d="m996.26 346.56-2.46-.56Z" transform="translate(-984.98 -220.22)"/><path class="cls-41" d="m996.7 347.06 2.76.49Z" transform="translate(-984.98 -220.22)"/><path class="cls-47" d="m992.74 345.19-1.37-.25Z" transform="translate(-984.98 -220.22)"/><path class="cls-29" d="m990.73 344.22-1.39-.37Z" transform="translate(-984.98 -220.22)"/><path style="fill:#6e6e6e" d="m.33 119.03-.02 12.21.02-1.8v-10.41z"/><path class="cls-23" d="m985.7 340.41.15 12.2Z" transform="translate(-984.98 -220.22)"/><path class="cls-19" d="m1.53 121.35 1.21 1.15-.93 11.02-.28-12.17z"/><path class="cls-20" d="m2.74 122.5 1.62 1.13-1.25 11-.37-12.13z"/><path class="cls-78" d="m4.36 123.63 2.04 1.09-1.64 10.99-.4-12.08z"/><path class="cls-103" d="m6.4 124.72 2.42 1.08-2.04 10.97-.38-12.05z"/><path class="cls-73" d="m8.82 125.8 2.9 1.05-2.59 10.93-.31-11.98z"/><path class="cls-57" d="m11.72 126.85 3.24.96-3.16 10.93-.08-11.89z"/><path class="cls-56" d="m999.93 348-.17 11.87Z" transform="translate(-984.98 -220.22)"/><path class="cls-71" d="m15.63 127.99 3.42.84-.89 11.71-2.53-12.55z"/><path class="cls-61" d="m19.05 128.83 3.69.76-.96 11.75-2.73-12.51z"/><path class="cls-2" d="m22.74 129.59 3.94.69-1.01 11.78-2.93-12.47zM26.68 130.28l4.15.61-1.06 11.81-3.09-12.42zM30.83 130.89l4.33.52-1.11 11.83-3.22-12.35zM35.16 131.41l4.48.42-1.15 11.86-3.33-12.28zM39.64 131.83l4.58.32-1.18 11.9-3.4-12.22zM44.22 132.15l4.65.24-1.18 11.91-3.47-12.15zM48.87 132.39l4.7.12-1.19 11.94-3.51-12.06zM53.57 132.51l4.7.01-1.21 11.97-3.49-11.98zM58.27 132.52l4.65-.08-1.19 11.98-3.46-11.9zM62.92 132.44l4.59-.19-1.2 12-3.39-11.81z"/><path class="cls-2" d="m67.51 132.25 4.46-.28-1.18 12.01-3.28-11.73zM71.97 131.97l4.33-.39-1.16 12.03-3.17-11.64zM76.3 131.58l4.13-.47-1.11 12.03-3.02-11.56zM80.43 131.11l3.93-.58-1.08 12.05-2.85-11.47z"/><path class="cls-2" d="m84.36 130.53 3.67-.65L87 141.93l-2.64-11.4zM88.03 129.88l3.4-.74-.98 12.04-2.42-11.3z"/><path class="cls-95" d="m91.43 129.14 3.05-.8-.22 11.85-3.13.84.3-11.89z"/><path class="cls-56" d="m94.48 128.34 2.76-.87-2.98 12.72.22-11.85z"/><path class="cls-51" d="m97.24 127.47 2.45-.93-2.61 12.74.16-11.81z"/><path class="cls-115" d="m99.69 126.54 2.07-.99-2.23 12.75.16-11.76z"/><path class="cls-12" d="m101.76 125.55 1.72-1.03-1.86 12.74.14-11.71z"/><path class="cls-70" d="m103.48 124.52 1.33-1.08-1.48 12.76.15-11.68z"/><path class="cls-111" d="m1089.79 343.66-.19 11.64Z" transform="translate(-984.98 -220.22)"/><path class="cls-116" d="m1090.73 342.57-.24 11.6Z" transform="translate(-984.98 -220.22)"/><path class="cls-1" d="m985.19 349.93.1 1.53Z" transform="translate(-984.98 -220.22)"/><path d="m985.85 352.61-.15-12.2Z" transform="translate(-984.98 -220.22)" style="fill:#767676"/><path class="cls-66" d="m986.79 353.74-.29-12.17Z" transform="translate(-984.98 -220.22)"/><path class="cls-88" d="m3.11 134.63-1.3-1.11.93-11.02.37 12.13z"/><path style="fill:#a5a5a5" d="m4.76 135.71-1.65-1.08 1.25-11 .4 12.08z"/><path class="cls-102" d="m6.4 124.72.38 12.05-2.02-1.06 1.64-10.99z"/><path class="cls-102" d="m989.74 355.93 2 1.06Z" transform="translate(-984.98 -220.22)"/><path class="cls-29" d="m8.82 125.8.31 11.98-2.35-1.01 2.04-10.97zM6.78 136.77l2.35 1.01-1.4-.45-.95-.56z"/><path class="cls-77" d="m11.72 126.85.08 11.89-2.67-.96 2.59-10.93z"/><path class="cls-77" d="m9.13 137.78 2.67.96-2.15-.62-.52-.34z"/><path class="cls-57" d="m14.96 127.81-.17 11.86-2.99-.93 3.16-10.93z"/><path class="cls-57" d="m11.8 138.74 2.99.93-2.13-.49-.86-.44z"/><path class="cls-4" d="m15.63 127.99 2.53 12.55-3.37-.87.84-11.68zM14.79 139.67l3.37.87-2.13-.38-1.24-.49z"/><path class="cls-48" d="m19.05 128.83 2.73 12.51-3.62-.8.89-11.71z"/><path class="cls-48" d="m18.16 140.54 3.62.8-2.02-.27-1.6-.53z"/><path class="cls-2" d="m22.74 129.59 2.93 12.47-3.89-.72.96-11.75z"/><path class="cls-2" d="m21.78 141.34 3.89.72-1.89-.17-2-.55zM26.68 130.28l3.09 12.42-4.1-.64 1.01-11.78z"/><path class="cls-2" d="m25.67 142.06 4.1.64-2.77-.25-1.33-.39z"/><path class="cls-2" d="m30.83 130.89 3.22 12.35-4.28-.54 1.06-11.81z"/><path class="cls-2" d="m1014.74 362.92 4.28.54Z" transform="translate(-984.98 -220.22)"/><path class="cls-2" d="m35.16 131.41 3.33 12.28-4.44-.45 1.11-11.83zM34.05 143.24l4.44.45h-1.88l-2.56-.45zM39.64 131.83l3.4 12.22-4.55-.36 1.15-11.86z"/><path class="cls-2" d="m38.49 143.69 4.55.36-2.24.02-2.31-.38zM44.22 132.15l3.47 12.15-4.65-.25 1.18-11.9zM43.04 144.05l4.65.25-2.51.05-2.14-.3zM48.87 132.39l3.51 12.06-4.69-.15 1.18-11.91zM47.69 144.3l4.69.15-2.11.12-2.58-.27zM53.57 132.51l3.49 11.98-4.68-.04 1.19-11.94zM52.38 144.45l4.68.04-3.86.15-.82-.19zM58.27 132.52l3.46 11.9-4.67.07 1.21-11.97z"/><path class="cls-2" d="m57.06 144.49 4.67-.07-2.18.24-2.49-.17zM62.92 132.44l3.39 11.81-4.58.17 1.19-11.98z"/><path class="cls-2" d="m61.73 144.42 4.58-.17-2.98.3-1.6-.13zM67.51 132.25l3.28 11.73-4.48.27 1.2-12z"/><path class="cls-2" d="m66.31 144.25 4.48-.27-3.07.39-1.41-.12zM71.97 131.97l3.17 11.64-4.35.37 1.18-12.01z"/><path class="cls-2" d="m70.79 143.98 4.35-.37-1.94.35-2.41.02z"/><path class="cls-2" d="m76.3 131.58 3.02 11.56-4.18.47 1.16-12.03zM75.14 143.61l4.18-.47-1.64.37-2.54.1zM80.43 131.11l2.85 11.47-3.96.56 1.11-12.03z"/><path class="cls-2" d="m79.32 143.14 3.96-.56-1.87.44-2.09.12zM84.36 130.53l2.64 11.4-3.72.65 1.08-12.05zM83.28 142.58l3.72-.65-1.48.43-2.24.22zM88.03 129.88l2.42 11.3-3.45.75 1.03-12.05z"/><path class="cls-2" d="m1072 362.14 3.45-.74Z" transform="translate(-984.98 -220.22)"/><path class="cls-61" d="m1076.41 349.36-.3 11.89Z" transform="translate(-984.98 -220.22)"/><path class="cls-95" d="m91.13 141.03 3.13-.84-1.46.56-1.67.28z"/><path class="cls-105" d="m97.24 127.47-.16 11.81-2.82.91 2.98-12.72z"/><path class="cls-105" d="m1079.24 360.41 2.81-.91Z" transform="translate(-984.98 -220.22)"/><path class="cls-50" d="m99.69 126.54-.16 11.76-2.45.98 2.61-12.74z"/><path class="cls-50" d="m97.08 139.28 2.45-.98-1.6.78-.85.2z"/><path class="cls-100" d="m101.76 125.55-.14 11.71-2.09 1.04 2.23-12.75zM99.53 138.3l2.09-1.04-1.78 1.01-.31.03z"/><path class="cls-62" d="m103.48 124.52-.15 11.68-1.71 1.06 1.86-12.74z"/><path class="cls-62" d="m1086.6 357.48 1.7-1.06Z" transform="translate(-984.98 -220.22)"/><path class="cls-14" d="m104.81 123.44-.19 11.64-1.29 1.12 1.48-12.76z"/><path class="cls-14" d="m1088.3 356.42 1.3-1.12Z" transform="translate(-984.98 -220.22)"/><path d="m1090.49 354.17.24-11.6Z" transform="translate(-984.98 -220.22)" style="fill:#9c9c9c"/><path d="m1091 353 .29-11.57Z" transform="translate(-984.98 -220.22)" style="fill:#8b8b8b"/><path class="cls-1" d="m994.1 358-1.4-.46ZM996.78 359l-2.15-.62Z" transform="translate(-984.98 -220.22)"/><path class="cls-1" d="m14.79 139.67 1.24.49-3.37-.98 2.13.49zM18.16 140.54l1.6.53-3.73-.91 2.13.38zM21.78 141.34l2 .55-4.02-.82 2.02.27z"/><path class="cls-1" d="m1010.65 362.28-1.89-.17ZM1014.74 362.92l-2.76-.25Z" transform="translate(-984.98 -220.22)"/><path class="cls-28" d="m1015.45 363.19 2.51.32Z" transform="translate(-984.98 -220.22)"/><path class="cls-55" d="M1023.47 363.91Z" transform="translate(-984.98 -220.22)"/><path class="cls-2" d="m42.89 144.22-2.09-.15 2.24-.02-.15.17zM47.12 144.45l-1.94-.1 2.51-.05-.57.15z"/><path class="cls-2" d="m1037.35 364.67-2.1.12Z" transform="translate(-984.98 -220.22)"/><path class="cls-1" d="m1042 364.7-3.86.16Z" transform="translate(-984.98 -220.22)"/><path class="cls-2" d="m1046.7 364.64-2.17.23Z" transform="translate(-984.98 -220.22)"/><path class="cls-1" d="m1051.29 364.47-3 .3Z" transform="translate(-984.98 -220.22)"/><path class="cls-1" d="m70.79 143.98-1.35.27-1.72.12 3.07-.39z"/><path class="cls-77" d="m1058.18 364.18 1.94-.35Z" transform="translate(-984.98 -220.22)"/><path class="cls-10" d="m1060.59 364 2.07-.23Z" transform="translate(-984.98 -220.22)"/><path class="cls-108" d="m11.43 118.78.98-69.79-.52 70.95-.46-1.16z"/><path class="cls-113" d="m996.87 340.16.55-70.94Z" transform="translate(-984.98 -220.22)"/><path style="fill:#848484" d="m11.89 119.94 1.03-70.8-.21 71.81-.82-1.01z"/><path class="cls-5" d="m997.69 341.17.27-71.8Z" transform="translate(-984.98 -220.22)"/><path class="cls-106" d="m12.71 120.95 1.13-71.56.09 72.54-1.22-.98z"/><path class="cls-16" d="M13.93 121.93V49.41l1.24.32-1.24 72.2z"/><path class="cls-110" d="m13.93 121.93 1.24-72.2.34 73.16-1.58-.96z"/><path class="cls-14" d="m15.51 122.89-.25-73.14 1.62.38-1.37 72.76z"/><path class="cls-69" d="m15.51 122.89 1.37-72.76.59 73.67-1.96-.91z"/><path class="cls-64" d="m17.47 123.8-.49-73.65 1.98.42-1.49 73.23z"/><path class="cls-100" d="m17.47 123.8 1.49-73.23.81 74.1-2.3-.87z"/><path class="cls-31" d="m19.77 124.67-.7-74.08 2.32.47-1.62 73.61z"/><path class="cls-51" d="m19.77 124.67 1.62-73.61 1 74.44-2.62-.83z"/><path class="cls-63" d="m22.39 125.5-.88-74.42 2.66.44-1.78 73.98z"/><path class="cls-84" d="m22.39 125.5 1.78-73.98 1.15 74.74-2.93-.76z"/><path class="cls-53" d="m25.32 126.26-1.05-74.73 2.98.46-1.93 74.27z"/><path class="cls-120" d="m25.32 126.26 1.93-74.27 1.25 74.97-3.18-.7z"/><path class="cls-61" d="M28.5 126.96 27.36 52l1.85.26 1.4.16-2.11 74.54z"/><path class="cls-2" d="m28.5 126.96 2.11-74.54 1.34 75.15-3.45-.61zM31.95 127.57l-1.22-75.15 2.71.33-1.49 74.82zM31.95 127.57l2.26-74.74 1.38 75.28-3.64-.54zM35.59 128.11l-1.28-75.28 3.53.34-2.25 74.94zM35.59 128.11l2.43-74.93 1.4 75.38-3.83-.45zM39.42 128.56l-1.3-75.38 3.88.29-2.58 75.09z"/><path class="cls-2" d="M39.42 128.56 42 53.47l1.4 75.45-3.98-.36zM43.4 128.92l-1.28-75.43 3.99.22-2.71 75.21zM43.4 128.92l2.71-75.21 1.35 75.46-4.06-.25zM47.46 129.17l-1.23-75.46 4.07.16-2.84 75.3z"/><path class="cls-2" d="m47.46 129.17 2.84-75.3.76 42.11-.62 33.31-2.98-.12zM51.06 95.98l-.64-42.11 1.3.05-.66 42.06z"/><path class="cls-13" d="m1080.87 270.59-1.68.54Z" transform="translate(-984.98 -220.22)"/><path class="cls-2" d="m27.15 49.29-.1 2.49.04-2.51.06.02z"/><path class="cls-72" d="m8.54 45.97-1.94-.28h1.38l.56.28z"/><path class="cls-41" d="m1023 265.5.1 1.25Z" transform="translate(-984.98 -220.22)"/><path class="cls-5" d="m1080.39 334.92 1.56-64.43Z" transform="translate(-984.98 -220.22)"/><path class="cls-2" d="m7.21 29.98.01-1.23 1.11 1.3-1.12-.07z"/><path class="cls-2" d="M992.2 249v1.23Z" transform="translate(-984.98 -220.22)"/><path class="cls-2" d="m8.33 30.05.02-1.35 1.15 1.33-1.17.02zM9.5 30.03l.01-1.29.39 1.28-.4.01zM53.4 40.31l.02-1.28 1.13 1.37-1.15-.09z"/><path class="cls-2" d="M1038.4 259.25v1.28Z" transform="translate(-984.98 -220.22)"/><path class="cls-2" d="m54.55 40.4.03-1.42 1.16 1.42h-1.19zM55.74 40.4l.02-1.39 1.06 1.28-1.08.11zM100.07 31.26l.04-1.21 1.08 1.3-1.12-.09z"/><path class="cls-2" d="M1085.09 250.27v1.21Z" transform="translate(-984.98 -220.22)"/><path class="cls-2" d="m101.19 31.35.03-1.35 1.15 1.36-1.18-.01zM102.37 31.36l.03-1.33 1.03 1.25-1.06.08zM41.93 7.93l1.23-.02-1.23.2v-.18z"/><path class="cls-1" d="m1025.34 229.06 1.57-.73h1.23l1.85.19-1.31.89h-2Zm3.1-.53-1.53.05 1.48.59 1.23-.22Z" transform="translate(-984.98 -220.22)"/><path class="cls-2" d="m53.37 3.77 1.21-.02-1.21.2v-.18z"/><path class="cls-1" d="m1036.66 224.51 1.69-.34h1.21l1.84.18-1.28.89-1.92-.06-1.39-.27Zm1.55-.09 1.62.58 1.21-.37-1.23-.26h-1.48Z" transform="translate(-984.98 -220.22)"/><path class="cls-2" d="m77.24 8.37 1.23.06-1.23.12v-.18zM76.02 8.38l1.22-.01-1.22.2v-.19z"/><path class="cls-1" d="m1059.32 229.12 1.67-.33h1.23l1.22.08 1.26.26-1.84.74h-1.95l-1.4-.29Zm1.57-.06 1.64.57 1.24-.22-1.23-.42h-1.55Z" transform="translate(-984.98 -220.22)"/><path class="cls-1" d="m75.93 9.58 1.62.05-1.69.03.07-.08z"/><path class="cls-2" d="m53.25 10.27 1.23-.02-1.25.22.02-.2zM54.48 10.25l1.22.07-1.22.12v-.19z"/><path class="cls-1" d="m1036.68 231.42 1.53-.73h1.25l1.21.08 1.23.27-1.87.74-2-.05Zm3.1-.53-1.68.05 1.63.59 1.23-.22Z" transform="translate(-984.98 -220.22)"/><path class="cls-31" d="m53.07 11.65 1.68-.02-1.23.07-.45-.05z"/><path class="cls-1" d="m1018.94 268.45 1.3-.49Z" transform="translate(-984.98 -220.22)"/><path class="cls-2" d="m32.7 46.09 1.56-1.06 1 2.71-2.02.25-.26-1.29-.28-.61z"/><path class="cls-2" d="m1018.21 268.36 2-.4Z" transform="translate(-984.98 -220.22)"/><path class="cls-46" d="m33.22 43.7 1.4-.36-.36 1.69-1.92.27.79-1.32.09-.28z"/><path class="cls-46" d="m1017.24 265.63 2-.38Z" transform="translate(-984.98 -220.22)"/><path class="cls-41" d="m35.02 43.46 1.01 1.27.34 1.61-.42 1.35-1.69-2.66.76-1.58v.01z"/><path class="cls-2" d="m1081.51 381.08.44 1.32ZM1082 382.4l.22 1.46ZM1082.17 383.86v1.55Z" transform="translate(-984.98 -220.22)"/><path class="cls-2" d="m97.18 165.19-.22 1.6-.85-1.61 1.07.01z"/><path class="cls-2" d="m96.96 166.79-.44 1.57-.64-1.58 1.08.01zM96.52 168.36l-.62 1.48-.49-1.5 1.11.02z"/><path class="cls-2" d="m95.9 169.84-.81 1.35-.37-1.4 1.18.05z"/><path class="cls-2" d="m1080.06 391.41-1.24-.12ZM1079.12 392.56l-1.31-.22ZM1078.06 393.47l-1.35-.38Z" transform="translate(-984.98 -220.22)"/><path class="cls-120" d="m1077 394.11-1.38-.59Z" transform="translate(-984.98 -220.22)"/><path class="cls-7" d="m1075.8 394.46-1.36-.84Z" transform="translate(-984.98 -220.22)"/><path class="cls-77" d="m1074.69 394.49-1.31-1.13Z" transform="translate(-984.98 -220.22)"/><path class="cls-3" d="m1071.24 391.68-.44-1.31Z" transform="translate(-984.98 -220.22)"/><path class="cls-94" d="m1075.84 378.61-1.42 1.06Z" transform="translate(-984.98 -220.22)"/><path class="cls-75" d="m1077 378.27-1.41.81Z" transform="translate(-984.98 -220.22)"/><path class="cls-79" d="m1078.09 378.25-1.39.56Z" transform="translate(-984.98 -220.22)"/><path class="cls-52" d="m1079.14 378.54-1.33.37Z" transform="translate(-984.98 -220.22)"/><path class="cls-84" d="m1080.08 379.11-1.26.22Z" transform="translate(-984.98 -220.22)"/><path class="cls-127" d="m1078.82 379.33-2.68-.39Z" transform="translate(-984.98 -220.22)"/><path class="cls-26" d="m1079.68 380.07-4.6-.76Z" transform="translate(-984.98 -220.22)"/><path class="cls-2" d="m96.54 160.86-.66 1.32-.49-1.28 1.15-.04z"/><path class="cls-12" d="m95.39 160.9.49 1.28-6.82-2.4 6.33 1.12z"/><path class="cls-2" d="m96.97 162.18-.86 1.45-.23-1.45h1.09z"/><path class="cls-72" d="m95.88 162.18.23 1.45-8.07-2.85 7.84 1.4z"/><path class="cls-2" d="m97.19 163.64-1.08 1.54v-1.55l1.08.01z"/><path class="cls-119" d="M96.11 163.63v1.55l-8.28-2.89 8.28 1.34z"/><path class="cls-2" d="m1081.94 387-.85-1.62Z" transform="translate(-984.98 -220.22)"/><path class="cls-42" d="m96.11 165.18-.23 1.6-8.24-2.78 8.47 1.18z"/><path class="cls-2" d="m1081.5 388.58-.64-1.58Z" transform="translate(-984.98 -220.22)"/><path class="cls-81" d="m95.88 166.78-.47 1.56-8.22-2.66 8.69 1.1z"/><path class="cls-2" d="m1080.87 390.06-.48-1.5Z" transform="translate(-984.98 -220.22)"/><path class="cls-71" d="m95.41 168.34-.69 1.45-8.24-2.52 8.93 1.07z"/><path class="cls-2" d="m95.09 171.19-1.25-.12.88-1.28.37 1.4z"/><path class="cls-41" d="m94.72 169.79-.88 1.28-8.19-2.41 9.07 1.13z"/><path class="cls-2" d="m1079.12 392.56-1.31-.22Z" transform="translate(-984.98 -220.22)"/><path class="cls-83" d="m93.84 171.07-7.87-.89-.32-1.52 8.19 2.41z"/><path class="cls-2" d="m1078.06 393.47-1.35-.38Z" transform="translate(-984.98 -220.22)"/><path class="cls-103" d="m1077.81 392.34-6.79-1.71Z" transform="translate(-984.98 -220.22)"/><path class="cls-2" d="m1077 394.11-1.38-.59Z" transform="translate(-984.98 -220.22)"/><path class="cls-110" d="m1076.71 393.09-4.88-1Z" transform="translate(-984.98 -220.22)"/><path class="cls-55" d="m1075.8 394.46-1.36-.84Z" transform="translate(-984.98 -220.22)"/><path class="cls-112" d="m1075.57 393.52-2.55-.37Z" transform="translate(-984.98 -220.22)"/><path class="cls-9" d="m1074.69 394.49-1.31-1.13Z" transform="translate(-984.98 -220.22)"/><path class="cls-24" d="m1074.44 393.62-1.22-.34Z" transform="translate(-984.98 -220.22)"/><path class="cls-127" d="m1078.82 379.33-1.91-.51Z" transform="translate(-984.98 -220.22)"/><path class="cls-38" d="m90.1 159.09 5.29 1.81-6.12-1.3.83-.51z"/><path class="cls-57" d="m96.11 163.63-8.28-1.34.21-1.51 8.07 2.85z"/><path class="cls-4" d="M96.11 165.18 87.64 164l.19-1.71 8.28 2.89z"/><path class="cls-2" d="m87.83 162.29-.19 1.71-1.31-.19.57-1.36.93-.16z"/><path class="cls-81" d="m95.88 166.78-8.69-1.1.45-1.68 8.24 2.78z"/><path class="cls-2" d="m87.64 164-.45 1.68-1.27-.49.36-1.26 1.36.07z"/><path class="cls-59" d="m95.41 168.34-8.93-1.07.71-1.59 8.22 2.66z"/><path class="cls-2" d="m87.19 165.68-.71 1.59-.66-1.76 1.37.17z"/><path class="cls-105" d="m86.48 167.27 8.24 2.52-9.07-1.13.83-1.39z"/><path class="cls-79" d="m1076.71 393.09-5.2-1.44Z" transform="translate(-984.98 -220.22)"/><path class="cls-26" d="m1075.57 393.52-3.29-.91Z" transform="translate(-984.98 -220.22)"/><path class="cls-9" d="m1074.44 393.62-1.22-.34Z" transform="translate(-984.98 -220.22)"/><path class="cls-2" d="m85.65 166.73-.01 1.8-.04-1.42.05-.38z"/><path class="cls-100" d="m1080.86 382.4-7.8-1.45Z" transform="translate(-984.98 -220.22)"/><path class="cls-128" d="m1063.65 347.89 3.17-.59m0 0 2.88-.69m0 0 2.58-.74m2 15.95 3.47-.86m-13.66 2.6 2.27-.32m-12 1.23 2.21-.15m0 0 1.55-.14m-7.28.49 1.8-.08m-6.06.23 1.67-.05m-7.1.12h3.32m-12.43-.2 3.15.12m-7.38-.35 2.29.13m-6.12-.44 1.74.15m-5.81-.54 1.61.17m-3.62-.4 2 .23m-6-.75 1.47.2m-5.16-.81 1.69.29m-22-96.31-1.48-.93m102.24 1.69-1.62.89m-8.22-23.81 2.17.46m10.77 7.07-.32 11.83m-107.35-1.95.12-11.76m99.34-4.4-2.56-.79m4.79 1.63-2.23-.84m4.11 1.72-1.88-.88m3.4 1.77-1.52-.89m-89.6-4.4-2.37.54m0 0-2.63.71m0 0-2.31.77m0 0-2 .81m0 0-1.62.84m0 0-1.25.88m12.4-23 23.07-4m0 0 5.17 1.06m.1 0 50.65 10.3m.12 0 1.7.34M1035 238l4.26-.17m0 0 3.1.66m-30.65-5.42 4.22-.16m0 0 3 .64m-1.62 532.93 6.32-364.1m19.06 364.89 7.8-364.37m-25.64 365.35-.07 3.37m10.28.32.06-3.37m-9.63 3.59 2.15.35m0 0 2.26.18m0 0h2.26m0 0 2.17-.23m5.53-6.41.05-1.85m-19.73 1.21v-1.48m-6.41-374 .27-17.57m1.16 20 1.23.78m0 0 1.59.74m0 0 1.89.67m0 0 2.19.61m30.76.45 2.14-.61m0 0 1.84-.62m0 0 1.51-.7m-35.87 7.18.1-5.64m29.05 5.86.1-5.31m24.37 2 7.27-7.51m0 0 .29-11.37m0 0-7-3.89m0 0-9.34-2.62m-82.28-12.23.1-9m2.12 12.54 1.52 1.14m0 0 1.88 1.11m0 0 2.26 1.08m0 0 2.6 1m0 0 2.93 1m0 0 3.23.91m0 0 3.51.84m0 0 3.79.76m0 0 4 .69m36.26 1.91 4.51-.24m0 0 4.4-.34m0 0 4.23-.43m0 0 4-.54m3.82-.63 3.56-.71m0 0 3.27-.79m0 0 3-.87m0 0 2.65-.93m0 0 2.29-1m0 0 1.94-1m0 0 1.56-1.09m2.34-3.44.26-9.07m-94.59-22.22-1.33.41m-10 19.19.19-10.89m105.79 12.42.34-11.54m-65.66 24 2.09.16m2.29.13 1.94.1m28.49-.71 2.07-.23m-56.29-92.45-2.33-.47m10.15 1.67-1.86-.26m6.09.74-2.72-.32m7.11.75-3.52-.34m17.41 1.09-1.3-.05m10.73.12h-2.24m6.91-.1-2.71.07m7.29-.24-3.17.12m7.62-.39-3.62.22m13.8-1.23-1.77.22m10.83-1.72-1.6.3m-77.07-47.15-.25 18.46m0 0v3.44m5.56-20.81 23-4m52 33 .26-10.18m0 0 .3-12.16m-24.87 3.89 23.05-4.21m-39.66.22h-1.23m4.43 9.91.46 13.78m-10.3-14-.84 11.65M1019.6 237l.49 13.61m-10.21-13.81-.78 11.52m24.81-9.33v2.27m8.56-2.61v2.73m-31.79-7.35v2.28m8.46-2.6v2.7m20.94 532.82.07-3m0 0V765m-19.78.57v3m10-372 1.79.15m2.31.17 1.88.08m3 0h2.28m.74 0 1.53-.09m0 0 1.42-.08m2.79-.27 1.27-.19m-19.23 8.64 1.3.21m.76.12 1.38.15m.83.08 1.41.09m.86 0h1.45m.86 0 1.4-.05m.86 0 1.33-.12m.81-.06 1.21-.19m26.57-19.68.35-1.26m0-.12.58-1.36m-45.81-9 1.55.11m3 .18 2.78.12m0 0 1.89.08m4.66.09h2.56m0 0h2.11m22.69-1.82 2.9-.47m-73-102.69-.79 61.53m0 0-.1 7.4m85.67-67.67-1.66 64.47m-85.33 2.61.09-6.4m0 0 .81-62.34m-6.15 68.67.05-4.08m0 0 .81-66.68m96.24 72.43.11-4.08m0 0 1.77-66.89m-7.06 66.45 1.65-64.53m-42.56 79.53.11-5.75m0 0 1.38-69.65m-6.89 75.3.62-33.31m0 0 .79-42.06m-24.6-1.93-2.07-.31m5.43.74-1.4-.16m16.9 1.44-3.74-.2m7.93.37L1032 274m16 .21h-1.84m6-.15-1.3.05m16.11-1.08-2.78.29m8-.95-2 .27m7.27-1.16-1.65.32m-43.49-18.52-.15 2.23m-23.17-7.35-.15 2.23m15.72 145.27 1.4.23m0 0 1.23.2m.47.07 2 .24m6.89.47h2.43m6.72-.3 1.86-.17m1.55-.22 1.23-.17m-32-23.16 1.92.2m0 0 1.28.15m.91.08 2.46.22m2.68.21 2.84.16m6 .24 3.07.05m40.72-33.9.14-5.29m1.23 4 .1-4.28m-79.87-64.38-1.61-.39m8.91 1.77-2.66-.43m20.49 2.39-3.88-.29m40.44 0-3.51.28m15.23-1.78-2.36.39m7.55-1.42-1.26.29m-73.53-45.68-.3 21.82m51-11.27-.49 22.37m-12.08 15.84h-1.46m-26.78 98.3 1.25.16m42.76 20.27 16.57 4.8m-78.42-56.57 1.21 1m1.59 1-1.59-1m3.54 1.87-2-.91m2 .91 2.31.88m0 0 2.61.83m0 0 2.93.75m0 0 3.19.71m0 0 3.45.61m0 0 3.64.54M1024.4 348.78l-3.83-.45m7.8.81-4-.36m4 .36 4.06.25m0 0 3 .12m5.4.1h4m0 0 4-.15m4-.23-4 .23m4-.23 3.81-.34m0 0 3.62-.44m3.4-.52-3.4.52m14.27-3.37-2.24.83m4.15-1.69-1.91.86m1.91-.86 1.53-.91m-.19 17.69 3.14-.94m-10.42 2.56 3.81-.76m-7.92 1.42 4.11-.66m-7.83 1.15 1.45-.17m-5.93.62 2.41-.22m-7.89.63 1.72-.12m-6.11.3 2.59-.1m-6.37.2 2.11-.05m-8.46 0h3m-6-.1 2.93.07m-16.6-.95 2.46.22m-8.59-.94 2.51.32m-6-.84 2 .32m-5.22-.88 1.53.27m-5.56-1.1 4 .83m-7.75-1.74 3.72.91m-7.09-1.88 3.37 1m-6.38-2 3 1.06m48.95 16.57-.24 11.31m1 .55 6 3.25m-4.5-2.42 4.5 2.42m-4.5-2.42 4 2.14m-2.27-1.23 2.27 1.23m-6.39-10.42-.15 6.9m.15-6.9-.13 6.31m.1-5.11-.1 5.11m.1-5.11-.07 3.47m2.09-11-1.9 1.94m1.9-1.94-1.53 1.55m1.53-1.55-1.53 1.55" transform="translate(-984.98 -220.22)"/></svg>