<svg id="Слой_1" data-name="Слой 1" xmlns="http://www.w3.org/2000/svg" viewBox="0 0 1186 528"><defs><style>.cls-3{stroke:#e5e5e5;stroke-miterlimit:10;fill:#e5e5e5}.cls-4{fill:#004e9d}</style></defs><path style="stroke-width:2px;stroke-miterlimit:10;stroke:#e5e5e5;fill:none" d="M1185 0v527H0"/><path style="fill:#e5e5e5" d="M.5 72.5h908v64H.5z"/><path class="cls-3" d="M.5 255.5h1091v147H.5z"/><path class="cls-4" d="M371.66 491.48h-2.34v-12.6h2.34Zm6.69-5.4h-6.89v-2h6.89Zm-.18-7.2h2.34v12.6h-2.34ZM384.06 491.48v-12.6h9.81v1.93h-7.51v3.09h3.73a5.43 5.43 0 0 1 3.45 1 3.32 3.32 0 0 1 1.18 2.74 3.42 3.42 0 0 1-1.31 2.87 5.86 5.86 0 0 1-3.68 1Zm2.3-1.8h3.24a3.42 3.42 0 0 0 2.06-.52 1.79 1.79 0 0 0 .7-1.51q0-1.95-2.76-1.95h-3.24ZM397.29 491.48v-12.6h11.14v12.6h-2.3v-11.19l.54.57h-7.62l.54-.57v11.19ZM411.2 487.41v-1.87h4.95v1.87ZM468.66 491.48h-2.34v-12.6h2.34Zm6.69-5.4h-6.89v-2h6.89Zm-.18-7.2h2.34v12.6h-2.34ZM479.44 491.48l5.67-12.6h2.3l5.69 12.6h-2.45l-4.88-11.36h.94l-4.86 11.36Zm2.61-2.91.63-1.84h6.8l.63 1.84ZM500.82 491.66a7.28 7.28 0 0 1-2.67-.48 6.26 6.26 0 0 1-3.56-3.41 7 7 0 0 1 0-5.18 6.06 6.06 0 0 1 1.43-2.06 6.49 6.49 0 0 1 2.14-1.35 7.26 7.26 0 0 1 2.68-.48 7.43 7.43 0 0 1 2.83.53 5.66 5.66 0 0 1 2.16 1.58l-1.52 1.42a4.55 4.55 0 0 0-1.53-1.11 4.6 4.6 0 0 0-1.83-.37 4.82 4.82 0 0 0-1.81.33 4 4 0 0 0-1.42.92 4.11 4.11 0 0 0-.94 1.4 5 5 0 0 0 0 3.56 4.25 4.25 0 0 0 .94 1.41 4.3 4.3 0 0 0 1.42.92 5 5 0 0 0 1.81.32 4.44 4.44 0 0 0 1.83-.37 4.32 4.32 0 0 0 1.53-1.12l1.52 1.44a5.83 5.83 0 0 1-2.16 1.56 7.27 7.27 0 0 1-2.85.54ZM513.85 491.66a7.42 7.42 0 0 1-2.71-.48 6.67 6.67 0 0 1-2.16-1.36 6.16 6.16 0 0 1-1.43-2.06 6.91 6.91 0 0 1 0-5.16 6 6 0 0 1 1.43-2.05 6.35 6.35 0 0 1 2.16-1.36 7.17 7.17 0 0 1 2.7-.49 7.26 7.26 0 0 1 2.71.49 6.5 6.5 0 0 1 2.15 1.36 6.13 6.13 0 0 1 1.42 2.05 6.93 6.93 0 0 1 0 5.17 6.08 6.08 0 0 1-1.42 2.06 7 7 0 0 1-2.15 1.35 7.4 7.4 0 0 1-2.7.48Zm0-2.05a4.83 4.83 0 0 0 1.76-.32 4.09 4.09 0 0 0 1.4-.93 4.23 4.23 0 0 0 .93-1.41 4.91 4.91 0 0 0 0-3.54A4.44 4.44 0 0 0 517 482a3.92 3.92 0 0 0-1.4-.92 4.86 4.86 0 0 0-3.52 0 4.11 4.11 0 0 0-1.4.92 4.47 4.47 0 0 0-.94 1.41 4.58 4.58 0 0 0-.33 1.77 4.65 4.65 0 0 0 .33 1.77 4.23 4.23 0 0 0 .93 1.41 4.09 4.09 0 0 0 1.4.93 4.84 4.84 0 0 0 1.77.32ZM529 491.66a7.28 7.28 0 0 1-2.67-.48 6.26 6.26 0 0 1-3.56-3.41 7 7 0 0 1 0-5.18 6.17 6.17 0 0 1 1.42-2.06 6.64 6.64 0 0 1 2.15-1.35 7.26 7.26 0 0 1 2.68-.48 7.34 7.34 0 0 1 2.82.53 5.51 5.51 0 0 1 2.16 1.58l-1.51 1.42a4.55 4.55 0 0 0-1.53-1.11 4.6 4.6 0 0 0-1.83-.37 4.78 4.78 0 0 0-1.81.33 4.2 4.2 0 0 0-2.32 2.32 5 5 0 0 0 0 3.56 4.1 4.1 0 0 0 .94 1.41 4.3 4.3 0 0 0 1.42.92 5 5 0 0 0 1.81.32 4.44 4.44 0 0 0 1.83-.37 4.32 4.32 0 0 0 1.53-1.12l1.51 1.44a5.67 5.67 0 0 1-2.16 1.56 7.22 7.22 0 0 1-2.88.54ZM543.5 491.48h-2.34v-12.6h2.34Zm6.7-5.4h-6.9v-2h6.9Zm-.18-7.2h2.34v12.6H550ZM555.9 491.48v-12.6h9.81v1.93h-7.5v3.09h3.72a5.43 5.43 0 0 1 3.45 1 3.29 3.29 0 0 1 1.18 2.74 3.42 3.42 0 0 1-1.31 2.87 5.84 5.84 0 0 1-3.68 1Zm2.31-1.8h3.24a3.39 3.39 0 0 0 2-.52 1.76 1.76 0 0 0 .7-1.51c0-1.3-.92-1.95-2.75-1.95h-3.24ZM569.13 491.48v-12.6h11.14v12.6H578v-11.19l.54.57h-7.64l.54-.57v11.19ZM373.6 551.66a5 5 0 0 1-2.69-.75 5.14 5.14 0 0 1-1.91-2.21 9.45 9.45 0 0 1 0-7 5.11 5.11 0 0 1 1.88-2.2 5.16 5.16 0 0 1 5.39 0 5.18 5.18 0 0 1 1.88 2.2 9.2 9.2 0 0 1 0 7 5.2 5.2 0 0 1-1.88 2.21 4.94 4.94 0 0 1-2.67.75Zm0-2a2.49 2.49 0 0 0 1.53-.48 3.17 3.17 0 0 0 1-1.47 8.66 8.66 0 0 0 0-5 3.19 3.19 0 0 0-1-1.46 2.68 2.68 0 0 0-3 0 3.13 3.13 0 0 0-1 1.46 8.66 8.66 0 0 0 0 5 3.11 3.11 0 0 0 1 1.47 2.49 2.49 0 0 0 1.47.45ZM385.91 551.66a5.59 5.59 0 0 1-2.93-.73 4.65 4.65 0 0 1-1.87-2.11 8.12 8.12 0 0 1-.65-3.42 7.86 7.86 0 0 1 .78-3.66 5.35 5.35 0 0 1 2.18-2.26 6.47 6.47 0 0 1 3.21-.78 8.34 8.34 0 0 1 1.83.2 4.48 4.48 0 0 1 1.49.61l-.87 1.77a3.36 3.36 0 0 0-1.12-.48 5.88 5.88 0 0 0-1.27-.14 3.74 3.74 0 0 0-2.83 1.1 4.55 4.55 0 0 0-1 3.24v.8a4.94 4.94 0 0 0 .12.93l-.72-.79a3.52 3.52 0 0 1 .89-1.24 4 4 0 0 1 1.35-.74 5.46 5.46 0 0 1 1.7-.25 5 5 0 0 1 2.22.47 3.91 3.91 0 0 1 1.55 1.35 3.67 3.67 0 0 1 .57 2.05 3.82 3.82 0 0 1-.61 2.16 4.11 4.11 0 0 1-1.66 1.42 5.36 5.36 0 0 1-2.36.5Zm-.12-1.83a2.93 2.93 0 0 0 1.28-.27 2 2 0 0 0 1.18-1.88 1.91 1.91 0 0 0-.68-1.56 2.74 2.74 0 0 0-1.84-.58 2.91 2.91 0 0 0-1.32.28 2.32 2.32 0 0 0-.9.76 2 2 0 0 0 0 2.18 2.13 2.13 0 0 0 .89.78 3.24 3.24 0 0 0 1.39.29ZM466.34 551.48v-12.6h1.9l5.53 9.2h-1l5.44-9.2h1.91v12.6h-2.23v-9.12h.47l-4.63 7.64h-1l-4.73-7.64h.54v9.12ZM482.05 551.48l5.67-12.6H490l5.69 12.6h-2.45l-4.87-11.36h.93l-4.86 11.36Zm2.61-2.91.63-1.84h6.8l.63 1.84ZM497.64 551.48v-12.6h2.3v12.6Zm1.6-5.31v-2h4.25v2Zm4.57-.72-2.14-.29 4.3-6.28h2.49Zm2.16 6-4.26-6.14 1.89-1.17 5 7.31ZM516.43 551.66a7.28 7.28 0 0 1-2.67-.48 6.19 6.19 0 0 1-3.56-3.41 7 7 0 0 1 0-5.18 6.17 6.17 0 0 1 1.42-2.06 6.64 6.64 0 0 1 2.15-1.35 7.26 7.26 0 0 1 2.68-.48 7.34 7.34 0 0 1 2.82.53 5.58 5.58 0 0 1 2.16 1.58l-1.51 1.42a4.42 4.42 0 0 0-3.36-1.48 4.78 4.78 0 0 0-1.81.33 4.14 4.14 0 0 0-1.43.92 4.09 4.09 0 0 0-.93 1.4 5 5 0 0 0 0 3.56 4.23 4.23 0 0 0 .93 1.41 4.45 4.45 0 0 0 1.43.92 5 5 0 0 0 1.81.32 4.47 4.47 0 0 0 1.83-.37 4.41 4.41 0 0 0 1.53-1.12l1.51 1.44a5.75 5.75 0 0 1-2.16 1.56 7.22 7.22 0 0 1-2.84.54ZM523.63 551.48v-12.6h2.3v9l6.77-9h2.18v12.6h-2.3v-8.93l-6.77 8.93ZM538.43 551.48v-12.6h1.9l5.53 9.2h-1l5.44-9.2h1.91v12.6H550v-9.12h.47l-4.65 7.64h-1l-4.68-7.68h.54v9.12ZM554.14 551.48l5.67-12.6h2.3l5.69 12.6h-2.45l-4.87-11.36h.93l-4.86 11.36Zm2.61-2.91.63-1.84h6.8l.63 1.84ZM569.49 551.66a4.18 4.18 0 0 1-.61 0l-.67-.13.17-2a1.81 1.81 0 0 0 .54.07 1.42 1.42 0 0 0 1.2-.62 4.32 4.32 0 0 0 .65-1.83 25.78 25.78 0 0 0 .27-3l.18-5.22h9.27v12.6h-2.3v-11.24l.54.57h-6l.51-.59-.13 3.74a32.36 32.36 0 0 1-.25 3.3 9.58 9.58 0 0 1-.6 2.38 3.56 3.56 0 0 1-1.07 1.47 2.79 2.79 0 0 1-1.7.5ZM589.85 543.15a5.26 5.26 0 0 1 3.47 1 3.68 3.68 0 0 1 1.23 3 3.89 3.89 0 0 1-1.34 3.21 5.77 5.77 0 0 1-3.74 1.09h-5.41v-12.6h2.3v4.27Zm-.49 6.53a3.15 3.15 0 0 0 2.1-.63 2.26 2.26 0 0 0 .75-1.83 2 2 0 0 0-.74-1.74 3.45 3.45 0 0 0-2.11-.55h-3v4.75ZM599.28 551.48h-2.34v-12.6h2.34Zm6.7-5.4h-6.9v-2H606Zm-.18-7.2h2.34v12.6h-2.34ZM610.06 551.48l5.67-12.6H618l5.69 12.6h-2.45l-4.88-11.36h.94l-4.86 11.36Zm2.61-2.91.63-1.84h6.81l.63 1.84ZM633 551.48v-4l.57.52h-3.69a6.47 6.47 0 0 1-2.72-.53 3.94 3.94 0 0 1-1.76-1.53 4.51 4.51 0 0 1-.61-2.4 4.68 4.68 0 0 1 .65-2.5 4.17 4.17 0 0 1 1.83-1.58 6.58 6.58 0 0 1 2.79-.55h5.24v12.6Zm-8.17 0 3.11-4.5h2.36l-3 4.5Zm8.17-4.79v-6.48l.57.65h-3.43a3.3 3.3 0 0 0-2.21.66 2.43 2.43 0 0 0-.76 2 2.47 2.47 0 0 0 .73 1.92 3 3 0 0 0 2.15.67h3.52ZM643.81 551.48v-12.6H655v12.6h-2.31v-11.19l.54.57h-7.61l.54-.57v11.19ZM658.5 551.48v-12.6h5.19a7 7 0 0 1 2.87.54 4.2 4.2 0 0 1 1.84 1.58 4.74 4.74 0 0 1 0 4.79 4.2 4.2 0 0 1-1.84 1.55 7 7 0 0 1-2.87.54h-3.89l1-1.1v4.73Zm2.34-4.48-1-1.13h3.78a3.54 3.54 0 0 0 2.33-.66 2.58 2.58 0 0 0 0-3.7 3.6 3.6 0 0 0-2.33-.65h-3.82l1-1.15ZM677.29 551.66a7.42 7.42 0 0 1-2.71-.48 6.67 6.67 0 0 1-2.16-1.36 6.16 6.16 0 0 1-1.43-2.06 6.91 6.91 0 0 1 0-5.16 6 6 0 0 1 1.43-2.05 6.35 6.35 0 0 1 2.16-1.36 7.68 7.68 0 0 1 5.4 0 6.44 6.44 0 0 1 2.16 1.36 6.13 6.13 0 0 1 1.42 2.05 6.93 6.93 0 0 1 0 5.17 6.08 6.08 0 0 1-1.42 2.06 6.93 6.93 0 0 1-2.16 1.35 7.31 7.31 0 0 1-2.69.48Zm0-2a4.83 4.83 0 0 0 1.76-.32 4.09 4.09 0 0 0 1.4-.93 4.23 4.23 0 0 0 .93-1.41 4.91 4.91 0 0 0 0-3.54 4.44 4.44 0 0 0-.93-1.41 3.92 3.92 0 0 0-1.4-.92 4.63 4.63 0 0 0-1.76-.33 4.56 4.56 0 0 0-1.76.33 4.11 4.11 0 0 0-1.4.92 4.3 4.3 0 0 0-.94 1.41 4.58 4.58 0 0 0-.33 1.77 4.65 4.65 0 0 0 .33 1.77 4.23 4.23 0 0 0 .93 1.41 4.09 4.09 0 0 0 1.4.93 4.84 4.84 0 0 0 1.76.27ZM686.67 551.48v-12.6H689v9l6.76-9h2.18v12.6h-2.3v-8.93l-6.77 8.93ZM700.21 550.24l.75-1.71a6.22 6.22 0 0 0 1.78.85 6.76 6.76 0 0 0 1.91.32 5.61 5.61 0 0 0 1.74-.22 2.86 2.86 0 0 0 1.25-.7 1.59 1.59 0 0 0 .47-1.17 1.4 1.4 0 0 0-.69-1.27 3.64 3.64 0 0 0-1.88-.42h-2.94v-1.84h2.76a2.71 2.71 0 0 0 1.64-.43 1.48 1.48 0 0 0 .2-2.18 2.45 2.45 0 0 0-1-.59 4.87 4.87 0 0 0-1.48-.19 6.92 6.92 0 0 0-1.7.25 6.67 6.67 0 0 0-1.67.71l-.74-1.89a8.91 8.91 0 0 1 2.49-.88 9.08 9.08 0 0 1 2.53-.14 6.53 6.53 0 0 1 2.2.56 4.35 4.35 0 0 1 1.58 1.17 2.62 2.62 0 0 1 .59 1.72 2.84 2.84 0 0 1-.47 1.6 3.15 3.15 0 0 1-1.31 1.07 4.6 4.6 0 0 1-1.92.38l.09-.58a5.17 5.17 0 0 1 2.16.42 3.42 3.42 0 0 1 1.44 1.16 3.07 3.07 0 0 1 0 3.34 3.77 3.77 0 0 1-1.28 1.19 6.18 6.18 0 0 1-1.85.7 8.36 8.36 0 0 1-2.2.17 9.08 9.08 0 0 1-2.29-.39 8.41 8.41 0 0 1-2.16-1.01ZM713.15 551.48v-12.6h5.63a5.7 5.7 0 0 1 3.32.84 3.06 3.06 0 0 1 0 4.79 5 5 0 0 1-3 .83l.33-.64a5.42 5.42 0 0 1 3.25.84 2.86 2.86 0 0 1 1.22 2.46 3.05 3.05 0 0 1-1.21 2.56 5.76 5.76 0 0 1-3.57.93Zm2.3-7.22h3.13a2.75 2.75 0 0 0 1.73-.46 1.55 1.55 0 0 0 .6-1.32 1.58 1.58 0 0 0-.6-1.35 2.81 2.81 0 0 0-1.73-.45h-3.13Zm0 5.42h3.6a3.11 3.11 0 0 0 1.86-.46 1.61 1.61 0 0 0 .63-1.41 1.6 1.6 0 0 0-.63-1.4 3.27 3.27 0 0 0-1.86-.44h-3.6ZM732.41 551.66a7.47 7.47 0 0 1-2.72-.48 6.67 6.67 0 0 1-2.16-1.36 6.13 6.13 0 0 1-1.42-2.06 6.78 6.78 0 0 1 0-5.16 6 6 0 0 1 1.42-2.05 6.35 6.35 0 0 1 2.16-1.36 7.71 7.71 0 0 1 5.41 0 6.4 6.4 0 0 1 2.15 1.36 6 6 0 0 1 1.42 2.05 6.81 6.81 0 0 1 0 5.17 5.94 5.94 0 0 1-1.42 2.06 6.88 6.88 0 0 1-2.15 1.35 7.35 7.35 0 0 1-2.69.48Zm0-2a4.79 4.79 0 0 0 1.76-.32 4.23 4.23 0 0 0 1.41-.93 4.38 4.38 0 0 0 .93-1.41 4.57 4.57 0 0 0-.93-5 4.05 4.05 0 0 0-1.41-.92 4.6 4.6 0 0 0-1.76-.33 4.51 4.51 0 0 0-1.75.33 4.05 4.05 0 0 0-1.41.92 4.67 4.67 0 0 0-.93 5 4.36 4.36 0 0 0 .92 1.41 4.23 4.23 0 0 0 1.41.93 4.79 4.79 0 0 0 1.74.27ZM740.26 554.16v-4.66h14v4.66h-2.16v-2.68h-9.66v2.68Zm9.88-3.76v-9.54h-4.93l-.09 2.23c0 .84-.09 1.64-.16 2.39a14.23 14.23 0 0 1-.3 2 5.44 5.44 0 0 1-.57 1.53 1.75 1.75 0 0 1-.88.81l-2.52-.36a1.28 1.28 0 0 0 1.12-.47 3.46 3.46 0 0 0 .7-1.4 13.4 13.4 0 0 0 .37-2.12c.09-.81.15-1.68.18-2.63l.15-4h9.23v11.56ZM756.48 551.48v-12.6h2.3v9l6.77-9h2.18v12.6h-2.31v-8.93l-6.77 8.93ZM773.9 551.48v-11.19l.56.57h-4.72v-2h10.66v2h-4.72l.54-.57v11.19ZM784.75 549.52h7.11v2h-9.45v-12.6h9.2v2h-6.86Zm-.18-5.4h6.27v1.93h-6.27ZM794.24 551.66a4.07 4.07 0 0 1-.61 0l-.67-.13.16-2a1.9 1.9 0 0 0 .54.07 1.42 1.42 0 0 0 1.21-.62 4.46 4.46 0 0 0 .65-1.83 25.78 25.78 0 0 0 .27-3l.18-5.22h9.27v12.6h-2.31v-11.24l.54.57h-6l.5-.59-.12 3.74a29.53 29.53 0 0 1-.26 3.3 9.58 9.58 0 0 1-.6 2.38 3.47 3.47 0 0 1-1.07 1.47 2.76 2.76 0 0 1-1.68.5ZM814.6 543.15a5.28 5.28 0 0 1 3.47 1 3.67 3.67 0 0 1 1.22 3 3.86 3.86 0 0 1-1.34 3.21 5.74 5.74 0 0 1-3.73 1.09h-5.42v-12.6h2.3v4.27Zm-.49 6.53a3.17 3.17 0 0 0 2.1-.63 2.26 2.26 0 0 0 .75-1.83 2 2 0 0 0-.74-1.74 3.47 3.47 0 0 0-2.11-.55h-3v4.75ZM824 551.48h-2.34v-12.6H824Zm6.69-5.4h-6.89v-2h6.89Zm-.18-7.2h2.34v12.6h-2.34ZM842.26 551.66a7.51 7.51 0 0 1-2.72-.48 6.89 6.89 0 0 1-2.16-1.36 6.28 6.28 0 0 1-1.42-2.06 6.91 6.91 0 0 1 0-5.16 6.13 6.13 0 0 1 1.42-2.05 6.54 6.54 0 0 1 2.16-1.36 7.26 7.26 0 0 1 2.71-.49 7.17 7.17 0 0 1 2.7.49 6.3 6.3 0 0 1 2.15 1.36 6 6 0 0 1 1.43 2.05 6.93 6.93 0 0 1 0 5.17 6 6 0 0 1-1.43 2.06 6.77 6.77 0 0 1-2.15 1.35 7.35 7.35 0 0 1-2.69.48Zm0-2a4.83 4.83 0 0 0 1.76-.32 4.09 4.09 0 0 0 1.4-.93 4.23 4.23 0 0 0 .93-1.41 4.91 4.91 0 0 0 0-3.54 4.44 4.44 0 0 0-.93-1.41 3.92 3.92 0 0 0-1.4-.92 4.63 4.63 0 0 0-1.76-.33 4.56 4.56 0 0 0-1.76.33 4.11 4.11 0 0 0-1.4.92 4.3 4.3 0 0 0-.94 1.41 4.58 4.58 0 0 0-.33 1.77 4.65 4.65 0 0 0 .33 1.77 4.23 4.23 0 0 0 .93 1.41 4.09 4.09 0 0 0 1.4.93 4.84 4.84 0 0 0 1.76.27ZM857.42 551.66a7.28 7.28 0 0 1-2.67-.48 6.19 6.19 0 0 1-3.56-3.41 7 7 0 0 1 0-5.18 6.17 6.17 0 0 1 1.42-2.06 6.7 6.7 0 0 1 2.14-1.35 7.77 7.77 0 0 1 5.51.05 5.66 5.66 0 0 1 2.16 1.58l-1.51 1.42a4.75 4.75 0 0 0-1.53-1.11 4.65 4.65 0 0 0-1.84-.37 4.73 4.73 0 0 0-1.8.33 4.14 4.14 0 0 0-1.43.92 4.09 4.09 0 0 0-.93 1.4 4.83 4.83 0 0 0 0 3.56 4.23 4.23 0 0 0 .93 1.41 4.45 4.45 0 0 0 1.43.92 4.93 4.93 0 0 0 1.8.32 4.39 4.39 0 0 0 3.37-1.49l1.51 1.44a5.83 5.83 0 0 1-2.16 1.56 7.22 7.22 0 0 1-2.84.54ZM867.25 551.48v-11.19l.55.57h-4.71v-2h10.66v2H869l.54-.57v11.19ZM881.57 543.15a5.31 5.31 0 0 1 3.48 1 3.7 3.7 0 0 1 1.22 3 3.86 3.86 0 0 1-1.34 3.21 5.74 5.74 0 0 1-3.73 1.09h-5.42v-12.6h2.3v4.27Zm-.48 6.53a3.17 3.17 0 0 0 2.1-.63 2.28 2.28 0 0 0 .74-1.83 2 2 0 0 0-.74-1.74 3.43 3.43 0 0 0-2.1-.55h-3v4.75Z" transform="translate(-351.05 -379.84)"/><path d="M470.48 581.57a4.42 4.42 0 0 1-2.56-.77 5.15 5.15 0 0 1-1.75-2.21 9.54 9.54 0 0 1 0-6.82 5.11 5.11 0 0 1 1.75-2.2 4.59 4.59 0 0 1 5.12 0 5.1 5.1 0 0 1 1.74 2.2 9.54 9.54 0 0 1 0 6.82 5.13 5.13 0 0 1-1.78 2.21 4.4 4.4 0 0 1-2.52.77Zm0-.84a3.46 3.46 0 0 0 2.1-.66 4.3 4.3 0 0 0 1.41-1.9 9.22 9.22 0 0 0 0-6 4.33 4.33 0 0 0-1.41-1.89 3.72 3.72 0 0 0-4.2 0 4.18 4.18 0 0 0-1.41 1.89 9 9 0 0 0 0 6 4.16 4.16 0 0 0 1.41 1.9 3.46 3.46 0 0 0 2.1.66ZM482.45 581.57a4.92 4.92 0 0 1-2.79-.75 4.69 4.69 0 0 1-1.7-2.18 9.11 9.11 0 0 1-.57-3.39 8.06 8.06 0 0 1 .7-3.57 5 5 0 0 1 2-2.16 5.73 5.73 0 0 1 2.94-.73 7.66 7.66 0 0 1 1.54.15 3.74 3.74 0 0 1 1.32.5l-.38.74a3.25 3.25 0 0 0-1.13-.44 6.43 6.43 0 0 0-1.35-.14 4.44 4.44 0 0 0-3.41 1.38 5.89 5.89 0 0 0-1.27 4.13c0 .28 0 .63.05 1a6.42 6.42 0 0 0 .23 1.25l-.32-.09a3.52 3.52 0 0 1 .7-1.78 3.67 3.67 0 0 1 1.48-1.12 5.36 5.36 0 0 1 4.18.07 3.53 3.53 0 0 1 1.48 1.3 3.71 3.71 0 0 1 .53 2 3.61 3.61 0 0 1-.55 2 3.67 3.67 0 0 1-1.49 1.32 4.69 4.69 0 0 1-2.19.51Zm0-.79a3.77 3.77 0 0 0 1.73-.37 2.78 2.78 0 0 0 1.16-1 2.94 2.94 0 0 0 .42-1.58 2.74 2.74 0 0 0-.91-2.16 3.62 3.62 0 0 0-2.51-.81 4 4 0 0 0-1.82.4 3 3 0 0 0-1.23 1.08 2.77 2.77 0 0 0-.44 1.53 2.71 2.71 0 0 0 .41 1.41 3.14 3.14 0 0 0 1.22 1.11 4.07 4.07 0 0 0 1.93.39ZM536.67 577.05v-.81h4.63v.81ZM557.71 581.57a4.91 4.91 0 0 1-2.78-.75 4.63 4.63 0 0 1-1.7-2.18 9.1 9.1 0 0 1-.58-3.39 8 8 0 0 1 .71-3.57 4.91 4.91 0 0 1 2-2.16 5.72 5.72 0 0 1 2.93-.73 7.76 7.76 0 0 1 1.55.15 3.68 3.68 0 0 1 1.31.5l-.37.74a3.33 3.33 0 0 0-1.13-.44 6.6 6.6 0 0 0-1.36-.14 4.42 4.42 0 0 0-3.4 1.38 5.89 5.89 0 0 0-1.28 4.13q0 .42.06 1a5.75 5.75 0 0 0 .23 1.25l-.32-.09a3.44 3.44 0 0 1 .7-1.78 3.57 3.57 0 0 1 1.47-1.12 5.38 5.38 0 0 1 4.19.07 3.45 3.45 0 0 1 1.47 1.3 3.63 3.63 0 0 1 .54 2 3.56 3.56 0 0 1-2 3.33 4.66 4.66 0 0 1-2.24.5Zm0-.79a3.73 3.73 0 0 0 1.72-.37 2.72 2.72 0 0 0 1.16-1 2.86 2.86 0 0 0 .43-1.58 2.77 2.77 0 0 0-.91-2.16 3.64 3.64 0 0 0-2.51-.81 3.93 3.93 0 0 0-1.82.4 3 3 0 0 0-1.23 1.08 2.69 2.69 0 0 0-.44 1.53 2.62 2.62 0 0 0 .41 1.41 3.18 3.18 0 0 0 1.21 1.11 4.14 4.14 0 0 0 1.95.39ZM569.07 581.48v-9.4h.9v9.4Zm.61-4.36v-.77h3v.77Zm3.1-.25-.83-.14 3.85-4.65h1Zm3.22 4.61-4-4.7.75-.43 4.36 5.13ZM579.29 581.48v-9.4h6.43v.82h-5.78l.25-.26v8.84ZM585.29 583.28l5.94-16.95h.83l-5.94 16.95ZM593.4 581.48v-9.4h.89l4.44 7.44h-.39l4.46-7.44h.83v9.4h-.83v-8.31l.18.07-4.27 7h-.41l-4.28-7.1h.21v8.33ZM607.52 581.48v-9.4h.9v8l6.69-8h.79v9.4h-.9v-8l-6.69 8ZM619.79 581.48v-9.4h.9v4.29h6.37v-4.29h.9v9.4h-.9v-4.32h-6.37v4.32ZM467.79 611.48v-12.2l.42.43h-3.49v-.83h4v12.6ZM477 611.57a4.92 4.92 0 0 1-2.79-.75 4.69 4.69 0 0 1-1.7-2.18 9.11 9.11 0 0 1-.57-3.39 8.06 8.06 0 0 1 .7-3.57 5 5 0 0 1 2-2.16 5.73 5.73 0 0 1 2.94-.73 7.66 7.66 0 0 1 1.54.15 3.74 3.74 0 0 1 1.32.5l-.38.74a3.25 3.25 0 0 0-1.13-.44 6.43 6.43 0 0 0-1.35-.14 4.44 4.44 0 0 0-3.41 1.38 5.89 5.89 0 0 0-1.27 4.13c0 .28 0 .63.05 1a6.42 6.42 0 0 0 .23 1.25l-.32-.09a3.52 3.52 0 0 1 .7-1.78 3.67 3.67 0 0 1 1.48-1.12 5.36 5.36 0 0 1 4.18.07 3.53 3.53 0 0 1 1.48 1.3 3.71 3.71 0 0 1 .53 2 3.61 3.61 0 0 1-.55 2 3.67 3.67 0 0 1-1.49 1.32 4.69 4.69 0 0 1-2.19.51Zm0-.79a3.77 3.77 0 0 0 1.73-.37 2.78 2.78 0 0 0 1.16-1 2.94 2.94 0 0 0 .42-1.58 2.74 2.74 0 0 0-.91-2.16 3.62 3.62 0 0 0-2.51-.81 4 4 0 0 0-1.82.4 3 3 0 0 0-1.23 1.08 2.77 2.77 0 0 0-.44 1.53 2.71 2.71 0 0 0 .41 1.41 3.14 3.14 0 0 0 1.22 1.11 4.07 4.07 0 0 0 1.89.39ZM536.67 607.05v-.81h4.63v.81ZM554.9 611.48v-12.2l.42.43h-3.49v-.83h4v12.6ZM564.07 611.57a4.92 4.92 0 0 1-2.79-.75 4.69 4.69 0 0 1-1.7-2.18 9.11 9.11 0 0 1-.57-3.39 8.06 8.06 0 0 1 .7-3.57 5 5 0 0 1 2-2.16 5.73 5.73 0 0 1 2.94-.73 7.66 7.66 0 0 1 1.54.15 3.74 3.74 0 0 1 1.32.5l-.38.74a3.25 3.25 0 0 0-1.13-.44 6.43 6.43 0 0 0-1.35-.14 4.44 4.44 0 0 0-3.45 1.4 5.89 5.89 0 0 0-1.27 4.13c0 .28 0 .63.05 1a6.42 6.42 0 0 0 .23 1.25l-.32-.09a3.52 3.52 0 0 1 .7-1.78 3.67 3.67 0 0 1 1.48-1.12 5.36 5.36 0 0 1 4.18.07 3.53 3.53 0 0 1 1.48 1.3 3.71 3.71 0 0 1 .53 2 3.61 3.61 0 0 1-.55 2 3.67 3.67 0 0 1-1.49 1.32 4.69 4.69 0 0 1-2.15.49Zm0-.79a3.77 3.77 0 0 0 1.73-.37 2.78 2.78 0 0 0 1.16-1 2.94 2.94 0 0 0 .42-1.58 2.74 2.74 0 0 0-.91-2.16 3.62 3.62 0 0 0-2.51-.81 4 4 0 0 0-1.82.4 3 3 0 0 0-1.23 1.08 2.77 2.77 0 0 0-.44 1.53 2.71 2.71 0 0 0 .41 1.41 3.14 3.14 0 0 0 1.22 1.11 4.07 4.07 0 0 0 1.9.39ZM575.42 611.48v-9.4h.9v9.4Zm.62-4.36v-.77h3v.77Zm3.09-.25-.83-.14 3.86-4.65h1Zm3.22 4.61-4-4.7.76-.43 4.35 5.13ZM585.65 611.48v-9.4h6.42v.82h-5.77l.25-.26v8.84ZM591.64 613.28l5.94-16.95h.83l-5.94 16.95ZM599.76 611.48v-9.4h.88l4.45 7.44h-.4l4.46-7.44h.85v9.4h-.83v-8.31l.18.07-4.26 7h-.42l-4.28-7.1h.22v8.33ZM613.87 611.48v-9.4h.9v8l6.7-8h.79v9.4h-.9v-8l-6.7 8ZM626.15 611.48v-9.4h.9v4.29h6.37v-4.29h.9v9.4h-.9v-4.32h-6.37v4.32Z" transform="translate(-351.05 -379.84)"/><path class="cls-4" d="M369.34 671.48v-12.6h9.81v1.93h-7.51v3.09h3.73a5.38 5.38 0 0 1 3.44 1 3.29 3.29 0 0 1 1.18 2.74 3.41 3.41 0 0 1-1.3 2.87 5.86 5.86 0 0 1-3.68 1Zm2.3-1.8h3.24a3.39 3.39 0 0 0 2.05-.52 1.76 1.76 0 0 0 .7-1.51c0-1.3-.91-1.95-2.75-1.95h-3.24ZM381.41 671.48v-1.56l5-4.76a6.18 6.18 0 0 0 .93-1 2.69 2.69 0 0 0 .41-.84 3.27 3.27 0 0 0 .1-.73 1.62 1.62 0 0 0-.6-1.34 2.7 2.7 0 0 0-1.74-.47 4.11 4.11 0 0 0-1.67.32 3.41 3.41 0 0 0-1.28 1l-1.64-1.26a4.84 4.84 0 0 1 2-1.54 6.79 6.79 0 0 1 2.8-.55 6 6 0 0 1 2.38.44 3.59 3.59 0 0 1 1.57 1.25 3.42 3.42 0 0 1 .55 1.93 4.53 4.53 0 0 1-.17 1.21 4 4 0 0 1-.61 1.27 9.55 9.55 0 0 1-1.31 1.5l-4.3 4.08-.49-.88h7.36v2ZM397.31 671.66a4.93 4.93 0 0 1-2.69-.75 5.16 5.16 0 0 1-1.89-2.21 9.45 9.45 0 0 1 0-7 5.13 5.13 0 0 1 1.89-2.2 4.86 4.86 0 0 1 2.69-.76 4.91 4.91 0 0 1 2.7.76 5.18 5.18 0 0 1 1.88 2.2 9.32 9.32 0 0 1 0 7 5.2 5.2 0 0 1-1.88 2.21 5 5 0 0 1-2.7.75Zm0-2a2.53 2.53 0 0 0 1.53-.48 3.09 3.09 0 0 0 1-1.47 8.66 8.66 0 0 0 0-5 3.1 3.1 0 0 0-1-1.46 2.53 2.53 0 0 0-1.53-.47 2.49 2.49 0 0 0-1.51.47 3.12 3.12 0 0 0-1 1.46 8.66 8.66 0 0 0 0 5 3.1 3.1 0 0 0 1 1.47 2.49 2.49 0 0 0 1.51.45ZM409.42 671.66a5 5 0 0 1-2.69-.75 5.07 5.07 0 0 1-1.88-2.21 9.32 9.32 0 0 1 0-7 5 5 0 0 1 1.88-2.2 5.16 5.16 0 0 1 5.39 0 5.18 5.18 0 0 1 1.88 2.2 9.32 9.32 0 0 1 0 7 5.2 5.2 0 0 1-1.88 2.21 4.94 4.94 0 0 1-2.7.75Zm0-2a2.49 2.49 0 0 0 1.53-.48 3.17 3.17 0 0 0 1-1.47 8.66 8.66 0 0 0 0-5 3.19 3.19 0 0 0-1-1.46 2.68 2.68 0 0 0-3 0 3.13 3.13 0 0 0-1 1.46 8.66 8.66 0 0 0 0 5 3.11 3.11 0 0 0 1 1.47 2.49 2.49 0 0 0 1.47.45ZM466.34 671.48v-12.6h1.9l5.53 9.2h-1l5.44-9.2h1.91v12.6h-2.23v-9.12h.47l-4.63 7.64h-1l-4.73-7.64h.54v9.12ZM489.5 671.66a7.51 7.51 0 0 1-2.72-.48 6.89 6.89 0 0 1-2.16-1.36 6.28 6.28 0 0 1-1.42-2.06 6.91 6.91 0 0 1 0-5.16 6.13 6.13 0 0 1 1.42-2.05 6.54 6.54 0 0 1 2.16-1.36 7.71 7.71 0 0 1 5.41 0 6.4 6.4 0 0 1 2.15 1.36 6 6 0 0 1 1.43 2.05 6.93 6.93 0 0 1 0 5.17 6 6 0 0 1-1.43 2.06 6.88 6.88 0 0 1-2.15 1.35 7.35 7.35 0 0 1-2.69.48Zm0-2a4.84 4.84 0 0 0 1.77-.32 4.09 4.09 0 0 0 1.4-.93 4.23 4.23 0 0 0 .93-1.41 4.91 4.91 0 0 0 0-3.54 4.44 4.44 0 0 0-.93-1.41 3.92 3.92 0 0 0-1.4-.92 4.65 4.65 0 0 0-1.77-.33 4.55 4.55 0 0 0-1.75.33 4.15 4.15 0 0 0-1.41.92 4.44 4.44 0 0 0-.93 1.41 4.58 4.58 0 0 0-.33 1.77 4.65 4.65 0 0 0 .33 1.77 4.23 4.23 0 0 0 .93 1.41 4.09 4.09 0 0 0 1.4.93 4.83 4.83 0 0 0 1.74.27ZM497.35 674.16v-4.66h14v4.66h-2.16v-2.68h-9.66v2.68Zm9.88-3.76v-9.54h-4.93l-.09 2.23c0 .84-.09 1.64-.15 2.39a15.71 15.71 0 0 1-.31 2 5.44 5.44 0 0 1-.57 1.53 1.75 1.75 0 0 1-.88.81l-2.52-.36a1.31 1.31 0 0 0 1.13-.47 3.59 3.59 0 0 0 .69-1.4 13.32 13.32 0 0 0 .38-2.12c.08-.81.14-1.68.18-2.63l.14-4h9.24v11.56ZM513.57 671.48v-12.6h2.3v9l6.77-9h2.18v12.6h-2.31v-8.93l-6.76 8.93ZM534.75 670.67a11 11 0 0 1-4-.65 5.4 5.4 0 0 1-2.54-1.88 5.47 5.47 0 0 1 0-6 5.38 5.38 0 0 1 2.54-1.87 11 11 0 0 1 4-.65h.6a10.84 10.84 0 0 1 4 .65 5.28 5.28 0 0 1 2.52 1.88 5.57 5.57 0 0 1 0 6 5.28 5.28 0 0 1-2.48 1.89 10.61 10.61 0 0 1-4 .65h-.69Zm.24-1.82h.2a9 9 0 0 0 2.92-.43 3.59 3.59 0 0 0 1.78-1.23 3.38 3.38 0 0 0 .61-2 3.28 3.28 0 0 0-.62-2 3.62 3.62 0 0 0-1.78-1.22 8.59 8.59 0 0 0-2.88-.42H535a9.57 9.57 0 0 0-3 .41 3.61 3.61 0 0 0-1.82 1.22 3.4 3.4 0 0 0-.6 2.06 3.21 3.21 0 0 0 .64 2.06 3.75 3.75 0 0 0 1.84 1.23 9.33 9.33 0 0 0 2.94.32Zm-1 3.14v-13.61h2.16V672ZM545.23 671.48v-12.6h2.3v9l6.77-9h2.18v12.6h-2.31v-8.93l-6.76 8.93ZM560 671.48v-12.6h2.3v12.6Zm1.6-5.31v-2h4.25v2Zm4.57-.72-2.14-.29 4.3-6.28h2.48Zm2.16 6-4.27-6.14 1.89-1.17 5 7.31ZM571.4 671.48l5.67-12.6h2.3l5.69 12.6h-2.45l-4.87-11.36h.93l-4.86 11.36Zm2.61-2.91.63-1.84h6.8l.63 1.84ZM587 671.48v-12.6h2.3v10.62h6.35v-10.62H598v12.6Zm10.69 2.77v-3.34l.52.57h-2.56v-2h4.2v4.75ZM602 671.48v-12.6h2.3v9l6.77-9h2.18v12.6H611v-8.93l-6.76 8.93ZM624.12 671.48v-4l.58.52H621a6.48 6.48 0 0 1-2.73-.53 3.86 3.86 0 0 1-1.75-1.53 4.51 4.51 0 0 1-.62-2.4 4.68 4.68 0 0 1 .65-2.5 4.2 4.2 0 0 1 1.84-1.58 6.52 6.52 0 0 1 2.79-.55h5.24v12.6Zm-8.17 0 3.11-4.5h2.36l-3 4.5Zm8.17-4.79v-6.48l.58.65h-3.44a3.25 3.25 0 0 0-2.2.66 2.41 2.41 0 0 0-.77 2 2.47 2.47 0 0 0 .73 1.92 3.06 3.06 0 0 0 2.15.67h3.53Z" transform="translate(-351.05 -379.84)"/><path d="M466.82 701.48v-12.6h9v.81h-8.06v4.54H472a5.38 5.38 0 0 1 3.36.9 3.14 3.14 0 0 1 1.15 2.64 3.29 3.29 0 0 1-1.21 2.77 5.72 5.72 0 0 1-3.56.94Zm.92-.77h4a4.75 4.75 0 0 0 2.86-.73 2.55 2.55 0 0 0 1-2.17c0-1.88-1.28-2.83-3.84-2.83h-4ZM478.31 701.48v-.65l5.32-5.29a8.48 8.48 0 0 0 1.14-1.32 3.86 3.86 0 0 0 .51-1.05 3.65 3.65 0 0 0 .14-1 2.34 2.34 0 0 0-.81-1.88 3.59 3.59 0 0 0-2.38-.69 5.52 5.52 0 0 0-2.08.36 4 4 0 0 0-1.54 1.1l-.65-.58a4.76 4.76 0 0 1 1.83-1.28 6.64 6.64 0 0 1 2.51-.45 5.22 5.22 0 0 1 2.15.41 3.17 3.17 0 0 1 1.41 1.15 3.14 3.14 0 0 1 .49 1.77 4.06 4.06 0 0 1-.78 2.43 11.28 11.28 0 0 1-1.27 1.49l-5 5-.31-.36h8v.83ZM493.62 701.57a4.39 4.39 0 0 1-2.55-.77 5.07 5.07 0 0 1-1.75-2.21 9.54 9.54 0 0 1 0-6.82 5 5 0 0 1 1.75-2.2 4.59 4.59 0 0 1 5.12 0 5.17 5.17 0 0 1 1.74 2.2 9.54 9.54 0 0 1 0 6.82 5.2 5.2 0 0 1-1.74 2.21 4.41 4.41 0 0 1-2.57.77Zm0-.84a3.46 3.46 0 0 0 2.11-.66 4.21 4.21 0 0 0 1.4-1.9 9 9 0 0 0 0-6 4.24 4.24 0 0 0-1.4-1.89 3.72 3.72 0 0 0-4.2 0 4.27 4.27 0 0 0-1.42 1.89 9.22 9.22 0 0 0 0 6 4.25 4.25 0 0 0 1.42 1.9 3.45 3.45 0 0 0 2.09.66ZM505.47 701.57a4.42 4.42 0 0 1-2.56-.77 5.06 5.06 0 0 1-1.74-2.21 9.54 9.54 0 0 1 0-6.82 5 5 0 0 1 1.74-2.2 4.59 4.59 0 0 1 5.12 0 5.1 5.1 0 0 1 1.74 2.2 9.54 9.54 0 0 1 0 6.82 5.13 5.13 0 0 1-1.77 2.21 4.4 4.4 0 0 1-2.53.77Zm0-.84a3.46 3.46 0 0 0 2.1-.66 4.3 4.3 0 0 0 1.41-1.9 9.22 9.22 0 0 0 0-6 4.33 4.33 0 0 0-1.41-1.89 3.72 3.72 0 0 0-4.2 0 4.18 4.18 0 0 0-1.41 1.89 9 9 0 0 0 0 6 4.16 4.16 0 0 0 1.41 1.9 3.48 3.48 0 0 0 2.1.66ZM536.67 697.05v-.81h4.63v.81ZM553.93 701.48v-12.6h9v.81h-8.06v4.54h4.27a5.38 5.38 0 0 1 3.36.9 3.14 3.14 0 0 1 1.15 2.64 3.29 3.29 0 0 1-1.21 2.77 5.72 5.72 0 0 1-3.56.94Zm.92-.77h4a4.75 4.75 0 0 0 2.86-.73 2.54 2.54 0 0 0 1-2.17c0-1.88-1.27-2.83-3.83-2.83h-4ZM570.36 701.55a4.66 4.66 0 0 1-2.4-.61 4.52 4.52 0 0 1-1.67-1.69 5.23 5.23 0 0 1 0-4.94 4.52 4.52 0 0 1 1.67-1.69 4.76 4.76 0 0 1 2.4-.61 4.86 4.86 0 0 1 2.42.61 4.52 4.52 0 0 1 1.67 1.69 5.31 5.31 0 0 1 0 4.94 4.52 4.52 0 0 1-1.67 1.69 4.76 4.76 0 0 1-2.42.61Zm0-.81a3.87 3.87 0 0 0 1.95-.49 3.57 3.57 0 0 0 1.35-1.4 4.73 4.73 0 0 0 0-4.15 3.58 3.58 0 0 0-1.35-1.38 3.88 3.88 0 0 0-1.95-.5 3.78 3.78 0 0 0-1.93.5 3.58 3.58 0 0 0-1.35 1.38 4.56 4.56 0 0 0 0 4.15 3.57 3.57 0 0 0 1.35 1.4 3.77 3.77 0 0 0 1.93.49ZM583.94 697.4a10.46 10.46 0 0 1-1.76.6 7.15 7.15 0 0 1-1.68.21 4.12 4.12 0 0 1-2.58-.75 2.68 2.68 0 0 1-1-2.24v-3.14h.9v3.08a2 2 0 0 0 .76 1.71 3.18 3.18 0 0 0 2 .58 7.23 7.23 0 0 0 1.61-.2 9.48 9.48 0 0 0 1.72-.59Zm-.09 4.08v-9.4h.9v9.4ZM588.63 701.48v-9.4h.9v9.4Zm.62-4.36v-.77h3v.77Zm3.09-.25-.83-.14 3.86-4.65h1Zm3.22 4.61-4-4.7.76-.43 4.35 5.13ZM601.34 701.55a4.57 4.57 0 0 1-1.81-.33 2.63 2.63 0 0 1-1.17-.94 2.5 2.5 0 0 1-.4-1.41 2.59 2.59 0 0 1 .33-1.3 2.42 2.42 0 0 1 1.11-1 4.92 4.92 0 0 1 2.07-.37h3.45v.8h-3.43a3 3 0 0 0-2 .54 1.86 1.86 0 0 0 .1 2.79 3.06 3.06 0 0 0 1.93.54 3.59 3.59 0 0 0 2-.54 3.22 3.22 0 0 0 1.21-1.57l.25.61a3.24 3.24 0 0 1-1.28 1.63 4.14 4.14 0 0 1-2.36.55Zm3.39-.07v-5.99a2.67 2.67 0 0 0-.71-2 2.87 2.87 0 0 0-2.08-.68 4.89 4.89 0 0 0-1.81.33 5 5 0 0 0-1.43.85l-.45-.64a5.13 5.13 0 0 1 1.69-1A6.25 6.25 0 0 1 602 692a3.74 3.74 0 0 1 2.68.89 3.4 3.4 0 0 1 .94 2.62v6ZM612.66 701.48v-.65l5.33-5.29a9.07 9.07 0 0 0 1.14-1.32 3.86 3.86 0 0 0 .51-1.05 3.63 3.63 0 0 0 .13-1 2.34 2.34 0 0 0-.81-1.88 3.56 3.56 0 0 0-2.37-.69 5.52 5.52 0 0 0-2.08.36 4 4 0 0 0-1.54 1.1l-.65-.58a4.76 4.76 0 0 1 1.83-1.28 6.61 6.61 0 0 1 2.51-.45 5.22 5.22 0 0 1 2.15.41 3.17 3.17 0 0 1 1.41 1.15 3.14 3.14 0 0 1 .49 1.77 4.06 4.06 0 0 1-.78 2.43 11.28 11.28 0 0 1-1.27 1.48l-5 5-.3-.36h8v.83ZM628 701.57a4.39 4.39 0 0 1-2.55-.77 5.07 5.07 0 0 1-1.75-2.21 9.54 9.54 0 0 1 0-6.82 5 5 0 0 1 1.75-2.2 4.59 4.59 0 0 1 5.12 0 5.08 5.08 0 0 1 1.73 2.2 9.54 9.54 0 0 1 0 6.82 5.11 5.11 0 0 1-1.73 2.21 4.43 4.43 0 0 1-2.57.77Zm0-.84a3.46 3.46 0 0 0 2.11-.66 4.21 4.21 0 0 0 1.4-1.9 9 9 0 0 0 0-6 4.24 4.24 0 0 0-1.4-1.89 3.72 3.72 0 0 0-4.2 0 4.27 4.27 0 0 0-1.42 1.89 9.22 9.22 0 0 0 0 6 4.25 4.25 0 0 0 1.42 1.9 3.45 3.45 0 0 0 2.09.66ZM639.83 701.57a4.42 4.42 0 0 1-2.56-.77 5.15 5.15 0 0 1-1.75-2.21 9.54 9.54 0 0 1 0-6.82 5.11 5.11 0 0 1 1.75-2.2 4.59 4.59 0 0 1 5.12 0 5.1 5.1 0 0 1 1.74 2.2 9.54 9.54 0 0 1 0 6.82 5.13 5.13 0 0 1-1.74 2.21 4.4 4.4 0 0 1-2.56.77Zm0-.84a3.46 3.46 0 0 0 2.1-.66 4.3 4.3 0 0 0 1.41-1.9 9.22 9.22 0 0 0 0-6 4.33 4.33 0 0 0-1.41-1.89 3.72 3.72 0 0 0-4.2 0 4.18 4.18 0 0 0-1.41 1.89 9 9 0 0 0 0 6 4.16 4.16 0 0 0 1.41 1.9 3.46 3.46 0 0 0 2.1.66ZM650.46 701.45l.09-.78.23.05h.21a1.17 1.17 0 0 0 1-.46 3.19 3.19 0 0 0 .55-1.23 13 13 0 0 0 .27-1.74c.05-.65.1-1.31.13-2l.16-3.25h6.59v9.4h-.9v-8.87l.25.29h-5.36l.23-.31-.14 2.81c0 .81-.11 1.59-.2 2.34a11.42 11.42 0 0 1-.38 2 3.15 3.15 0 0 1-.72 1.36 1.57 1.57 0 0 1-1.2.49 2.31 2.31 0 0 1-.37 0ZM472.08 731.57a6.87 6.87 0 0 1-2.6-.48 6.05 6.05 0 0 1-2.08-1.34 6 6 0 0 1-1.37-2 6.88 6.88 0 0 1 0-5.1 6 6 0 0 1 1.38-2 6.2 6.2 0 0 1 2.08-1.34 6.82 6.82 0 0 1 2.59-.48 7.23 7.23 0 0 1 2.49.43 5.18 5.18 0 0 1 2 1.32l-.58.59a4.79 4.79 0 0 0-1.79-1.14 5.94 5.94 0 0 0-2.08-.35 6.11 6.11 0 0 0-2.24.41 5.35 5.35 0 0 0-3 2.94 5.95 5.95 0 0 0 0 4.39 5.47 5.47 0 0 0 1.19 1.76 5.19 5.19 0 0 0 1.8 1.17 6.19 6.19 0 0 0 4.32.06 4.72 4.72 0 0 0 1.79-1.16l.58.6a5.18 5.18 0 0 1-2 1.32 7 7 0 0 1-2.48.4ZM479.64 731.48v-12.6h.92v11.77h7.25v.83ZM536.67 727.05v-.81h4.63v.81ZM559.19 731.57a6.87 6.87 0 0 1-2.6-.48 6.05 6.05 0 0 1-2.08-1.34 6 6 0 0 1-1.37-2 6.88 6.88 0 0 1 0-5.1 6 6 0 0 1 1.38-2 6.2 6.2 0 0 1 2.08-1.34 6.82 6.82 0 0 1 2.59-.48 7.23 7.23 0 0 1 2.49.43 5.18 5.18 0 0 1 2 1.32l-.58.59a4.79 4.79 0 0 0-1.8-1.17 5.94 5.94 0 0 0-2.08-.35 6.11 6.11 0 0 0-2.24.41 5.35 5.35 0 0 0-3 2.94 5.95 5.95 0 0 0 0 4.39 5.47 5.47 0 0 0 1.19 1.76 5.19 5.19 0 0 0 1.8 1.17 6.19 6.19 0 0 0 4.32.06 4.72 4.72 0 0 0 1.79-1.16l.58.6a5.18 5.18 0 0 1-2 1.32 7 7 0 0 1-2.47.43ZM569 731.55a4.54 4.54 0 0 1-1.81-.33 2.63 2.63 0 0 1-1.17-.94 2.64 2.64 0 0 1-.07-2.71 2.44 2.44 0 0 1 1.1-1 5 5 0 0 1 2.07-.37h3.46v.8h-3.44a3 3 0 0 0-2 .54 1.84 1.84 0 0 0 .1 2.79 3 3 0 0 0 1.92.54 3.57 3.57 0 0 0 2-.54 3.23 3.23 0 0 0 1.22-1.57l.25.61a3.2 3.2 0 0 1-1.29 1.63 4.13 4.13 0 0 1-2.34.55Zm3.38-.07v-5.99a2.63 2.63 0 0 0-.72-2 2.84 2.84 0 0 0-2.07-.68 4.95 4.95 0 0 0-3.24 1.18l-.45-.64a5 5 0 0 1 1.69-1 6.25 6.25 0 0 1 2.07-.35 3.75 3.75 0 0 1 2.68.89 3.43 3.43 0 0 1 .94 2.62v6ZM588.65 722a4.18 4.18 0 0 1 2 .44 3.09 3.09 0 0 1 1.31 1.34 4.71 4.71 0 0 1 .47 2.2v5.49h-.9v-5.42a3.39 3.39 0 0 0-.78-2.41 2.8 2.8 0 0 0-2.16-.83 3.55 3.55 0 0 0-1.83.45 3 3 0 0 0-1.19 1.26 4.19 4.19 0 0 0-.42 2v5h-.89v-5.42a3.39 3.39 0 0 0-.78-2.41 2.82 2.82 0 0 0-2.16-.83 3.55 3.55 0 0 0-1.83.45 3 3 0 0 0-1.19 1.26 4.19 4.19 0 0 0-.42 2v5H577v-9.4h.87v2.6l-.13-.29a3.56 3.56 0 0 1 1.39-1.74 4.2 4.2 0 0 1 2.34-.64 3.89 3.89 0 0 1 2.36.71 3.2 3.2 0 0 1 1.22 2.12l-.31-.13a3.74 3.74 0 0 1 1.42-2 4.26 4.26 0 0 1 2.49-.8ZM596.1 731.48v-13.36h.9v13.36ZM604.47 731.55a4.66 4.66 0 0 1-2.4-.61 4.52 4.52 0 0 1-1.67-1.69 5.23 5.23 0 0 1 0-4.94 4.52 4.52 0 0 1 1.67-1.69 4.76 4.76 0 0 1 2.4-.61 4.86 4.86 0 0 1 2.42.61 4.52 4.52 0 0 1 1.67 1.69 5.31 5.31 0 0 1 0 4.94 4.52 4.52 0 0 1-1.67 1.69 4.76 4.76 0 0 1-2.42.61Zm0-.81a3.87 3.87 0 0 0 1.95-.49 3.57 3.57 0 0 0 1.35-1.4 4.73 4.73 0 0 0 0-4.15 3.58 3.58 0 0 0-1.35-1.38 3.88 3.88 0 0 0-1.95-.5 3.78 3.78 0 0 0-1.93.5 3.58 3.58 0 0 0-1.35 1.38 4.56 4.56 0 0 0 0 4.15 3.57 3.57 0 0 0 1.35 1.4 3.77 3.77 0 0 0 1.93.49ZM615.69 731.55a4.8 4.8 0 0 1-2.44-.61 4.5 4.5 0 0 1-1.69-1.69 5.25 5.25 0 0 1 0-5 4.4 4.4 0 0 1 1.69-1.68 5.12 5.12 0 0 1 4.5-.17 3.54 3.54 0 0 1 1.5 1.29l-.66.49a3 3 0 0 0-1.26-1.06 4.08 4.08 0 0 0-3.61.15 3.56 3.56 0 0 0-1.37 1.38 4.24 4.24 0 0 0-.5 2.08 4.18 4.18 0 0 0 .5 2.08 3.52 3.52 0 0 0 1.37 1.39 4.17 4.17 0 0 0 3.61.15 3.12 3.12 0 0 0 1.26-1.06l.66.49a3.61 3.61 0 0 1-1.5 1.29 4.81 4.81 0 0 1-2.06.48ZM622 731.48v-13.36h.9v13.36Zm.69-2.59v-1.13l6.21-5.68h1.1l-4.11 3.92-.54.45Zm6.66 2.59-4.11-5.15.61-.66 4.61 5.81ZM472.22 761.57a7 7 0 0 1-2.6-.48 6.05 6.05 0 0 1-2.08-1.34 6.13 6.13 0 0 1-1.37-2 7 7 0 0 1 0-5.1 6.21 6.21 0 0 1 3.46-3.36 6.86 6.86 0 0 1 2.59-.48 7.23 7.23 0 0 1 2.49.43 5.11 5.11 0 0 1 2 1.32l-.57.59a4.87 4.87 0 0 0-1.79-1.14 6.34 6.34 0 0 0-4.32.06 5.49 5.49 0 0 0-1.8 1.17A5.36 5.36 0 0 0 467 753a5.95 5.95 0 0 0 0 4.39 5.32 5.32 0 0 0 1.19 1.76 5.19 5.19 0 0 0 1.8 1.17 5.88 5.88 0 0 0 2.24.42 6 6 0 0 0 2.08-.36 4.8 4.8 0 0 0 1.79-1.16l.57.6a5.11 5.11 0 0 1-2 1.32 7 7 0 0 1-2.45.43ZM479.67 761.48v-12.6H490v12.6h-.92v-12.06l.27.29h-9.07l.27-.29v12.06ZM536.67 757.05v-.81h4.63v.81ZM559.33 761.57a7 7 0 0 1-2.6-.48 6.05 6.05 0 0 1-2.08-1.34 6.13 6.13 0 0 1-1.37-2 7 7 0 0 1 0-5.1 6.21 6.21 0 0 1 3.46-3.36 6.86 6.86 0 0 1 2.59-.48 7.23 7.23 0 0 1 2.49.43 5.11 5.11 0 0 1 2 1.32l-.57.59a4.87 4.87 0 0 0-1.79-1.14 6.34 6.34 0 0 0-4.32.06 5.49 5.49 0 0 0-1.8 1.17 5.36 5.36 0 0 0-1.19 1.77 5.95 5.95 0 0 0 0 4.39 5.32 5.32 0 0 0 1.19 1.76 5.19 5.19 0 0 0 1.8 1.17 5.88 5.88 0 0 0 2.24.42 6 6 0 0 0 2.08-.36 4.8 4.8 0 0 0 1.79-1.16l.57.6a5.11 5.11 0 0 1-2 1.32 7 7 0 0 1-2.49.42ZM564.6 761.45l.1-.78.22.05h.21a1.15 1.15 0 0 0 1-.46 3.19 3.19 0 0 0 .55-1.23 13 13 0 0 0 .27-1.74c.05-.65.1-1.31.13-2l.17-3.25h6.58v9.4h-.9v-8.87l.26.29h-5.37l.23-.31-.14 2.81c0 .81-.11 1.59-.2 2.34a12.5 12.5 0 0 1-.37 2 3.26 3.26 0 0 1-.73 1.36 1.57 1.57 0 0 1-1.2.49h-.37ZM581.58 761.55a5 5 0 0 1-2.51-.61 4.41 4.41 0 0 1-1.71-1.69 4.8 4.8 0 0 1-.62-2.47 5.06 5.06 0 0 1 .58-2.47 4.36 4.36 0 0 1 1.61-1.69 4.5 4.5 0 0 1 2.31-.61 4.42 4.42 0 0 1 2.29.6 4.19 4.19 0 0 1 1.6 1.66 5.11 5.11 0 0 1 .59 2.48.45.45 0 0 1 0 .11.66.66 0 0 0 0 .14h-8.3v-.7h7.81l-.36.34a3.9 3.9 0 0 0-.45-2 3.62 3.62 0 0 0-1.29-1.37 3.56 3.56 0 0 0-5 1.37 4 4 0 0 0-.47 2v.16a4 4 0 0 0 .51 2 3.56 3.56 0 0 0 1.41 1.39 4.57 4.57 0 0 0 3.74.17 3.39 3.39 0 0 0 1.32-1l.52.59a3.81 3.81 0 0 1-1.53 1.15 5.33 5.33 0 0 1-2.05.45ZM586.89 763.82v-3.13h10.6v3.13h-.84v-2.34h-8.9v2.34Zm8.19-2.77v-8.15h-4.9l-.1 2.34c0 .66-.07 1.31-.13 2a13 13 0 0 1-.29 1.8 3.83 3.83 0 0 1-.55 1.32 1.22 1.22 0 0 1-.91.56l-.9-.2a1.07 1.07 0 0 0 .94-.42 3.37 3.37 0 0 0 .56-1.25 12.11 12.11 0 0 0 .29-1.8c.07-.66.12-1.34.16-2l.12-3.1H596v9ZM599.34 761.48l2.62-3.62h.95l-2.58 3.62Zm6.92 0V758l.2.21h-3.34a4.36 4.36 0 0 1-2.74-.76 3.13 3.13 0 0 1 .08-4.62 4.63 4.63 0 0 1 2.81-.78h3.81v9.4Zm0-3.71v-5.16l.2.27h-3.14a3.77 3.77 0 0 0-2.23.56 2 2 0 0 0-.79 1.81q0 2.31 2.91 2.31h3.25ZM617.07 760.69l-.21.27v-8.88h.9V761l-.27-.27H623l-.25.27v-8.88h.9v9.4H611v-9.4h.9V761l-.25-.27Zm7.15 2.92v-2.4l.25.27h-1.83v-.79h2.44v2.92ZM630 761.55a4.54 4.54 0 0 1-1.81-.33 2.63 2.63 0 0 1-1.17-.94 2.5 2.5 0 0 1-.4-1.41 2.59 2.59 0 0 1 .33-1.3 2.42 2.42 0 0 1 1.11-1 4.92 4.92 0 0 1 2.07-.37h3.45v.8h-3.44a3 3 0 0 0-2 .54 1.86 1.86 0 0 0 .1 2.79 3.06 3.06 0 0 0 1.93.54 3.53 3.53 0 0 0 2-.54 3.23 3.23 0 0 0 1.22-1.57l.25.61a3.2 3.2 0 0 1-1.29 1.63 4.09 4.09 0 0 1-2.35.55Zm3.38-.07v-5.99a2.67 2.67 0 0 0-.71-2 2.88 2.88 0 0 0-2.08-.68 4.95 4.95 0 0 0-3.29 1.19l-.45-.64a5.13 5.13 0 0 1 1.69-1 6.25 6.25 0 0 1 2.07-.35 3.75 3.75 0 0 1 2.68.89 3.4 3.4 0 0 1 .94 2.62v6ZM637.07 761.48l2.61-3.62h1l-2.58 3.62Zm6.91 0V758l.2.21h-3.33a4.36 4.36 0 0 1-2.74-.76 2.68 2.68 0 0 1-1-2.26 2.72 2.72 0 0 1 1.06-2.36 4.63 4.63 0 0 1 2.81-.78h3.81v9.4Zm0-3.71v-5.16l.2.27h-3.13a3.77 3.77 0 0 0-2.23.56 2 2 0 0 0-.79 1.81q0 2.31 2.91 2.31h3.24ZM653.33 761.48v-9.4h8.2v9.4h-.9v-8.86l.26.28H654l.26-.28v8.86ZM663.57 761.45l.09-.78.22.05h.21a1.15 1.15 0 0 0 1-.46 3.19 3.19 0 0 0 .55-1.23 10.43 10.43 0 0 0 .27-1.74c.06-.65.1-1.31.14-2l.16-3.25h6.59v9.4h-.9v-8.87l.25.29h-5.37l.24-.31-.15 2.81c0 .81-.11 1.59-.19 2.34a12.45 12.45 0 0 1-.38 2 3.37 3.37 0 0 1-.72 1.36 1.59 1.59 0 0 1-1.21.49H664ZM679.14 761.55a4.54 4.54 0 0 1-1.81-.33 2.63 2.63 0 0 1-1.17-.94 2.64 2.64 0 0 1-.07-2.71 2.44 2.44 0 0 1 1.1-1 5 5 0 0 1 2.07-.37h3.46v.8h-3.44a3 3 0 0 0-2 .54 1.84 1.84 0 0 0 .1 2.79 3 3 0 0 0 1.92.54 3.57 3.57 0 0 0 2-.54 3.23 3.23 0 0 0 1.22-1.57l.25.61a3.2 3.2 0 0 1-1.29 1.63 4.13 4.13 0 0 1-2.34.55Zm3.38-.07v-5.99a2.63 2.63 0 0 0-.72-2 2.84 2.84 0 0 0-2.07-.68 4.95 4.95 0 0 0-3.24 1.18l-.45-.64a5 5 0 0 1 1.69-1 6.25 6.25 0 0 1 2.07-.35 3.75 3.75 0 0 1 2.68.89 3.43 3.43 0 0 1 .94 2.62v6ZM690.84 761.55a4.8 4.8 0 0 1-2.44-.61 4.43 4.43 0 0 1-1.69-1.69 5.25 5.25 0 0 1 0-5 4.33 4.33 0 0 1 1.69-1.68 5.12 5.12 0 0 1 4.5-.17 3.54 3.54 0 0 1 1.5 1.29l-.66.49a3 3 0 0 0-1.26-1.06 4.08 4.08 0 0 0-3.61.15 3.5 3.5 0 0 0-1.37 1.38 4.24 4.24 0 0 0-.5 2.08 4.18 4.18 0 0 0 .5 2.08 3.46 3.46 0 0 0 1.37 1.39 4.17 4.17 0 0 0 3.61.15 3.12 3.12 0 0 0 1.26-1.06l.66.49a3.61 3.61 0 0 1-1.5 1.29 4.81 4.81 0 0 1-2.06.48ZM698.78 761.48v-8.86l.25.28h-3.93v-.82h8.25v.82h-3.93l.26-.28v8.86ZM705.27 761.48v-9.4h.9v8l6.7-8h.79v9.4h-.9v-8l-6.69 8ZM717.55 761.48v-9.4h.9v4.29h6.37v-4.29h.9v9.4h-.9v-4.32h-6.37v4.32ZM732.09 761.55a4.57 4.57 0 0 1-1.81-.33 2.63 2.63 0 0 1-1.17-.94 2.5 2.5 0 0 1-.4-1.41 2.59 2.59 0 0 1 .33-1.3 2.42 2.42 0 0 1 1.11-1 5 5 0 0 1 2.07-.37h3.46v.8h-3.44a3 3 0 0 0-2 .54 1.86 1.86 0 0 0 .1 2.79 3.06 3.06 0 0 0 1.93.54 3.59 3.59 0 0 0 2-.54 3.22 3.22 0 0 0 1.21-1.57l.25.61a3.24 3.24 0 0 1-1.28 1.63 4.14 4.14 0 0 1-2.36.55Zm3.39-.07v-5.99a2.67 2.67 0 0 0-.71-2 2.87 2.87 0 0 0-2.08-.68 4.89 4.89 0 0 0-1.81.33 5 5 0 0 0-1.43.85l-.45-.64a5.13 5.13 0 0 1 1.69-1 6.25 6.25 0 0 1 2.07-.35 3.78 3.78 0 0 1 2.69.89 3.43 3.43 0 0 1 .93 2.62v6Z" transform="translate(-351.05 -379.84)"/><path class="cls-4" d="M367.81 824.16v-4.66h14v4.66h-2.16v-2.68H370v2.68Zm9.88-3.76v-9.54h-4.93l-.09 2.23c0 .84-.09 1.64-.16 2.39a15.8 15.8 0 0 1-.3 2 5.44 5.44 0 0 1-.57 1.53 1.75 1.75 0 0 1-.88.81l-2.52-.36a1.3 1.3 0 0 0 1.12-.47 3.46 3.46 0 0 0 .7-1.4 13.4 13.4 0 0 0 .37-2.12c.09-.81.15-1.68.18-2.63l.15-4H380v11.56ZM466.34 821.48v-12.6h2.3v9l6.77-9h2.18v12.6h-2.31v-8.93l-6.77 8.93ZM486.91 821.66a7.28 7.28 0 0 1-2.67-.48 6.19 6.19 0 0 1-3.56-3.41 7 7 0 0 1 0-5.18 6.17 6.17 0 0 1 1.42-2.06 6.64 6.64 0 0 1 2.15-1.35 7.26 7.26 0 0 1 2.68-.48 7.34 7.34 0 0 1 2.82.53 5.51 5.51 0 0 1 2.16 1.58l-1.51 1.42a4.55 4.55 0 0 0-1.53-1.11 4.6 4.6 0 0 0-1.83-.37 4.78 4.78 0 0 0-1.81.33 4.14 4.14 0 0 0-1.43.92 4.09 4.09 0 0 0-.93 1.4 5 5 0 0 0 0 3.56 4.23 4.23 0 0 0 .93 1.41 4.45 4.45 0 0 0 1.43.92 5 5 0 0 0 1.81.32 4.44 4.44 0 0 0 1.83-.37 4.32 4.32 0 0 0 1.53-1.12l1.51 1.44a5.67 5.67 0 0 1-2.16 1.56 7.22 7.22 0 0 1-2.84.54ZM494.11 821.48v-12.6h11.14v12.6H503v-11.19l.54.57h-7.62l.54-.57v11.19ZM514.65 821.66a7.47 7.47 0 0 1-2.72-.48 6.67 6.67 0 0 1-2.16-1.36 6.13 6.13 0 0 1-1.42-2.06 6.78 6.78 0 0 1 0-5.16 6 6 0 0 1 1.42-2.05 6.35 6.35 0 0 1 2.16-1.36 7.71 7.71 0 0 1 5.41 0 6.4 6.4 0 0 1 2.15 1.36 6 6 0 0 1 1.42 2.05 6.81 6.81 0 0 1 0 5.17 5.94 5.94 0 0 1-1.42 2.06 6.88 6.88 0 0 1-2.15 1.35 7.35 7.35 0 0 1-2.69.48Zm0-2a4.79 4.79 0 0 0 1.76-.32 4.23 4.23 0 0 0 1.41-.93 4.69 4.69 0 0 0 .92-5 4.58 4.58 0 0 0-.92-1.41 4.05 4.05 0 0 0-1.41-.92 4.86 4.86 0 0 0-3.52 0 4.11 4.11 0 0 0-1.4.92 4.64 4.64 0 0 0-.94 1.41 4.58 4.58 0 0 0-.33 1.77 4.65 4.65 0 0 0 .33 1.77 4.55 4.55 0 0 0 .93 1.41 4.23 4.23 0 0 0 1.41.93 4.79 4.79 0 0 0 1.74.32ZM523.77 821.66a4.3 4.3 0 0 1-.61 0l-.66-.13.16-2a1.86 1.86 0 0 0 .54.07 1.42 1.42 0 0 0 1.2-.62 4.32 4.32 0 0 0 .65-1.83 25.78 25.78 0 0 0 .27-3l.18-5.22h9.27v12.6h-2.3v-11.24l.54.57h-6l.51-.59-.13 3.74a32.36 32.36 0 0 1-.25 3.3 9.58 9.58 0 0 1-.6 2.38 3.56 3.56 0 0 1-1.07 1.47 2.79 2.79 0 0 1-1.7.5ZM540.66 821.48h-2.34v-12.6h2.34Zm6.69-5.4h-6.89v-2h6.89Zm-.18-7.2h2.34v12.6h-2.34ZM555.38 819.52h7.11v2H553v-12.6h9.2v2h-6.86Zm-.18-5.4h6.26v1.93h-6.26ZM567.44 821.48h-2.34v-12.6h2.34Zm6.7-5.4h-6.9v-2h6.9Zm-.18-7.2h2.34v12.6H574ZM579.84 821.48v-12.6h2.31v9l6.77-9h2.17v12.6h-2.3v-8.93l-6.79 8.93ZM597 819.52h7.11v2h-9.45v-12.6h9.2v2H597Zm-.18-5.4H603v1.93h-6.26ZM613.59 825a12.92 12.92 0 0 1-1.63-3.79 18.42 18.42 0 0 1-.56-4.63 18.63 18.63 0 0 1 .56-4.65 12.52 12.52 0 0 1 1.63-3.78h2.14a17.1 17.1 0 0 0-1.61 4 19.06 19.06 0 0 0 0 8.76 16.87 16.87 0 0 0 1.61 4ZM619.64 821.48v-8.24l.52.54h-3.9v-1.91h9v1.91h-3.89l.52-.54v8.24ZM631.18 821.61a5.39 5.39 0 0 1-2.63-.64 4.81 4.81 0 0 1-1.82-1.76 5.22 5.22 0 0 1 0-5.08 4.76 4.76 0 0 1 1.82-1.74 5.38 5.38 0 0 1 2.63-.63 5.46 5.46 0 0 1 2.65.63 4.67 4.67 0 0 1 1.82 1.73 5.24 5.24 0 0 1 0 5.09 4.67 4.67 0 0 1-1.82 1.76 5.47 5.47 0 0 1-2.65.64Zm0-1.93a3 3 0 0 0 1.47-.36 2.49 2.49 0 0 0 1-1 3.69 3.69 0 0 0 0-3.22 2.47 2.47 0 0 0-1-1 3.14 3.14 0 0 0-2.92 0 2.59 2.59 0 0 0-1 1 3.6 3.6 0 0 0 0 3.22 2.62 2.62 0 0 0 1 1 2.91 2.91 0 0 0 1.45.36ZM637.12 821.46l.11-1.89H637.66a1.11 1.11 0 0 0 .86-.34 2.14 2.14 0 0 0 .46-.93 7.89 7.89 0 0 0 .22-1.32c0-.48.07-1 .1-1.46l.16-3.71h7.77v9.61H645v-8.31l.53.61h-4.58l.49-.63-.13 2.54a23.14 23.14 0 0 1-.2 2.36 8.38 8.38 0 0 1-.47 1.9 3 3 0 0 1-.86 1.26 2.16 2.16 0 0 1-1.4.45 4 4 0 0 1-.58 0ZM655.08 815a4.21 4.21 0 0 1 2.83.83 2.89 2.89 0 0 1 1 2.34 3 3 0 0 1-1.08 2.43 4.61 4.61 0 0 1-3 .86h-4.5v-9.61h2.25V815Zm-.52 4.8a2.19 2.19 0 0 0 1.51-.41 1.54 1.54 0 0 0 .52-1.26 1.39 1.39 0 0 0-.51-1.2 2.79 2.79 0 0 0-1.52-.39h-2v3.26ZM660.86 821.48v-9.61h2.25v9.61Zm1.58-3.85v-1.87h3.26v1.87Zm3.89-.68-2.1-.26 3.52-4.82h2.42Zm1.42 4.53-3.47-4.61 1.84-1.13 4.28 5.74ZM676.27 821.61a5.39 5.39 0 0 1-2.63-.64 4.81 4.81 0 0 1-1.82-1.76 5.22 5.22 0 0 1 0-5.08 4.76 4.76 0 0 1 1.82-1.74 5.38 5.38 0 0 1 2.63-.63 5.46 5.46 0 0 1 2.65.63 4.67 4.67 0 0 1 1.82 1.73 5.24 5.24 0 0 1 0 5.09 4.67 4.67 0 0 1-1.82 1.76 5.47 5.47 0 0 1-2.65.64Zm0-1.93a3 3 0 0 0 1.47-.36 2.49 2.49 0 0 0 1-1 3.69 3.69 0 0 0 0-3.22 2.47 2.47 0 0 0-1-1 3.14 3.14 0 0 0-2.92 0 2.59 2.59 0 0 0-1 1 3.6 3.6 0 0 0 0 3.22 2.62 2.62 0 0 0 1 1 2.91 2.91 0 0 0 1.45.36ZM693 821.61a5.66 5.66 0 0 1-2.69-.64 4.72 4.72 0 0 1-1.84-1.76 5.15 5.15 0 0 1 0-5.08 4.67 4.67 0 0 1 1.84-1.74 5.65 5.65 0 0 1 2.69-.63 5.22 5.22 0 0 1 2.48.57 3.79 3.79 0 0 1 1.63 1.66l-1.73 1a2.88 2.88 0 0 0-1.05-1 2.94 2.94 0 0 0-1.34-.32 3.11 3.11 0 0 0-1.5.36 2.58 2.58 0 0 0-1 1 3.62 3.62 0 0 0 0 3.23 2.58 2.58 0 0 0 1 1 3.11 3.11 0 0 0 1.5.36 2.94 2.94 0 0 0 1.34-.32 2.81 2.81 0 0 0 1.05-1l1.73 1a3.9 3.9 0 0 1-1.63 1.66 5.11 5.11 0 0 1-2.48.65ZM704 821.48v-9.61h2.25v9.61Zm1.58-3.85v-1.87h3.26v1.87Zm3.89-.68-2.11-.26 3.53-4.82h2.41Zm1.42 4.53-3.47-4.61 1.83-1.13 4.29 5.74ZM719.41 821.61a5.35 5.35 0 0 1-2.62-.64 4.74 4.74 0 0 1-1.82-1.76 5.15 5.15 0 0 1 0-5.08 4.69 4.69 0 0 1 1.82-1.74 5.35 5.35 0 0 1 2.62-.63 5.5 5.5 0 0 1 2.66.63 4.73 4.73 0 0 1 1.82 1.73 5.31 5.31 0 0 1 0 5.09 4.74 4.74 0 0 1-1.82 1.76 5.51 5.51 0 0 1-2.66.64Zm0-1.93a3 3 0 0 0 1.48-.36 2.62 2.62 0 0 0 1-1 3.69 3.69 0 0 0 0-3.22 2.59 2.59 0 0 0-1-1 3.16 3.16 0 0 0-2.93 0 2.63 2.63 0 0 0-1 1 3.6 3.6 0 0 0 0 3.22 2.66 2.66 0 0 0 1 1 2.91 2.91 0 0 0 1.45.36ZM725.41 823.62v-4H737v4h-2.11v-2.14h-7.39v2.14Zm7.94-3.18v-6.66h-3.69l-.06 1.55c0 .55-.06 1.08-.11 1.59a8 8 0 0 1-.23 1.4 3 3 0 0 1-.47 1.06 1.43 1.43 0 0 1-.81.54l-2.23-.35a1.12 1.12 0 0 0 .87-.35 2.35 2.35 0 0 0 .52-1 7.59 7.59 0 0 0 .28-1.42c.06-.54.11-1.09.13-1.67l.13-3.29h7.92v8.57ZM743.32 821.61a5.39 5.39 0 0 1-2.63-.64 4.81 4.81 0 0 1-1.82-1.76 5.22 5.22 0 0 1 0-5.08 4.76 4.76 0 0 1 1.82-1.74 5.38 5.38 0 0 1 2.63-.63 5.46 5.46 0 0 1 2.65.63 4.67 4.67 0 0 1 1.82 1.73 5.24 5.24 0 0 1 0 5.09A4.67 4.67 0 0 1 746 821a5.47 5.47 0 0 1-2.68.61Zm0-1.93a3 3 0 0 0 1.47-.36 2.55 2.55 0 0 0 1-1 3.69 3.69 0 0 0 0-3.22 2.53 2.53 0 0 0-1-1 3.14 3.14 0 0 0-2.92 0 2.59 2.59 0 0 0-1 1 3.6 3.6 0 0 0 0 3.22 2.62 2.62 0 0 0 1 1 2.89 2.89 0 0 0 1.45.36ZM750.66 821.48v-9.61H753l3.87 6.82H756l4.07-6.82h2.11v9.61h-2v-7.2l.36.24-3.6 6h-1l-3.62-6.12.43-.1v7.23ZM770.41 821.48v-12.6h9.81v1.93h-7.51v3.09h3.73a5.38 5.38 0 0 1 3.44 1 3.29 3.29 0 0 1 1.18 2.74 3.41 3.41 0 0 1-1.3 2.87 5.86 5.86 0 0 1-3.68 1Zm2.3-1.8H776a3.37 3.37 0 0 0 2-.52 1.77 1.77 0 0 0 .71-1.51q0-1.95-2.76-1.95h-3.24ZM782.48 821.48v-1.56l5-4.76a6.18 6.18 0 0 0 .93-1 2.69 2.69 0 0 0 .41-.84 2.78 2.78 0 0 0 .1-.73 1.62 1.62 0 0 0-.6-1.34 2.7 2.7 0 0 0-1.74-.47 4.11 4.11 0 0 0-1.67.32 3.49 3.49 0 0 0-1.28 1l-1.63-1.31a4.84 4.84 0 0 1 2-1.54 6.79 6.79 0 0 1 2.8-.55 6 6 0 0 1 2.38.44 3.59 3.59 0 0 1 1.57 1.25 3.42 3.42 0 0 1 .55 1.93 4.53 4.53 0 0 1-.17 1.21 4 4 0 0 1-.61 1.27 9.55 9.55 0 0 1-1.31 1.5l-4.3 4.08-.49-.88h7.36v2ZM798.38 821.66a5 5 0 0 1-2.69-.75 5.07 5.07 0 0 1-1.88-2.21 9.32 9.32 0 0 1 0-7 5 5 0 0 1 1.88-2.2 5.16 5.16 0 0 1 5.39 0 5.18 5.18 0 0 1 1.88 2.2 9.32 9.32 0 0 1 0 7 5.2 5.2 0 0 1-1.88 2.21 4.94 4.94 0 0 1-2.7.75Zm0-2a2.49 2.49 0 0 0 1.53-.48 3.17 3.17 0 0 0 1-1.47 8.9 8.9 0 0 0 0-5 3.19 3.19 0 0 0-1-1.46 2.48 2.48 0 0 0-1.53-.47 2.44 2.44 0 0 0-1.5.47 3.13 3.13 0 0 0-1 1.46 8.66 8.66 0 0 0 0 5 3.11 3.11 0 0 0 1 1.47 2.44 2.44 0 0 0 1.5.45ZM810.49 821.66a5 5 0 0 1-2.69-.75 5.14 5.14 0 0 1-1.88-2.21 9.45 9.45 0 0 1 0-7 5.11 5.11 0 0 1 1.88-2.2 5.16 5.16 0 0 1 5.39 0 5.18 5.18 0 0 1 1.88 2.2 9.2 9.2 0 0 1 0 7 5.2 5.2 0 0 1-1.88 2.21 4.94 4.94 0 0 1-2.7.75Zm0-2a2.49 2.49 0 0 0 1.53-.48 3.17 3.17 0 0 0 1-1.47 8.66 8.66 0 0 0 0-5 3.19 3.19 0 0 0-1-1.46 2.68 2.68 0 0 0-3 0 3.13 3.13 0 0 0-1 1.46 8.66 8.66 0 0 0 0 5 3.11 3.11 0 0 0 1 1.47 2.49 2.49 0 0 0 1.47.45ZM819.1 825H817a15.78 15.78 0 0 0 1.63-4 18.71 18.71 0 0 0 0-8.76 16 16 0 0 0-1.63-4h2.15a12 12 0 0 1 1.63 3.78 18.18 18.18 0 0 1 .56 4.65 18 18 0 0 1-.56 4.63 12.41 12.41 0 0 1-1.68 3.7Z" transform="translate(-351.05 -379.84)"/><path d="M464.73 854.36v-3.71H478v3.71h-.89v-2.88h-11.48v2.88Zm10.44-3.36v-11.29h-6.44l-.11 3.38c0 1-.09 1.95-.18 2.87a17.33 17.33 0 0 1-.38 2.45 5.34 5.34 0 0 1-.69 1.76 1.46 1.46 0 0 1-1.11.72l-1.06-.24a1.34 1.34 0 0 0 1.23-.52 4.25 4.25 0 0 0 .76-1.64 15.16 15.16 0 0 0 .41-2.46c.08-.94.14-1.94.18-3l.12-4.14h8.19V851ZM536.67 847.05v-.81h4.63v.81ZM557.41 851.55a4.78 4.78 0 0 1-2.44-.61 4.52 4.52 0 0 1-1.7-1.69 5.25 5.25 0 0 1 0-5 4.42 4.42 0 0 1 1.7-1.68 5.12 5.12 0 0 1 4.5-.17 3.6 3.6 0 0 1 1.5 1.29l-.67.49a2.93 2.93 0 0 0-1.26-1.06 3.88 3.88 0 0 0-1.63-.35 4 4 0 0 0-2 .5 3.54 3.54 0 0 0-1.36 1.38 4.24 4.24 0 0 0-.5 2.08 4.18 4.18 0 0 0 .5 2.08 3.5 3.5 0 0 0 1.36 1.39 4 4 0 0 0 2 .49 3.87 3.87 0 0 0 1.63-.34 3 3 0 0 0 1.26-1.06l.67.49a3.67 3.67 0 0 1-1.5 1.29 4.81 4.81 0 0 1-2.06.48ZM568.26 851.48v-9.4h.9v4.29h6.37v-4.29h.9v9.4h-.9v-4.32h-6.37v4.32ZM582.8 851.55a4.57 4.57 0 0 1-1.81-.33 2.63 2.63 0 0 1-1.17-.94 2.5 2.5 0 0 1-.4-1.41 2.59 2.59 0 0 1 .33-1.3 2.42 2.42 0 0 1 1.11-1 5 5 0 0 1 2.07-.37h3.46v.8H583a3 3 0 0 0-2.05.54 1.86 1.86 0 0 0 .1 2.79 3.06 3.06 0 0 0 1.93.54 3.59 3.59 0 0 0 2-.54 3.22 3.22 0 0 0 1.21-1.57l.25.61a3.24 3.24 0 0 1-1.28 1.63 4.14 4.14 0 0 1-2.36.55Zm3.39-.07v-5.99a2.67 2.67 0 0 0-.71-2 2.87 2.87 0 0 0-2.08-.68 4.89 4.89 0 0 0-1.81.33 5 5 0 0 0-1.43.85l-.45-.64a5.13 5.13 0 0 1 1.69-1 6.25 6.25 0 0 1 2.07-.35 3.78 3.78 0 0 1 2.69.89 3.43 3.43 0 0 1 .93 2.62v6ZM590.24 851.48h-1.1l3.73-5.13.75.43Zm2.55-4.61-3.36-4.79h1l3.22 4.65Zm3.06.25H593v-.77h2.89Zm.62 4.36h-.9v-9.4h.9Zm-.31-4.36v-.77h2.92v.77Zm3.1-.25-.85-.14 3.22-4.65h1Zm2.55 4.61-3.38-4.7.75-.43 3.71 5.13ZM605.23 851.48v-9.4h.9v8l6.7-8h.79v9.4h-.9v-8l-6.7 8ZM617.51 851.48v-9.4h.88l4.44 7.44h-.39l4.46-7.44h.83v9.4h-.83v-8.31l.18.07-4.26 7h-.42l-4.28-7.1h.21v8.33ZM631.62 851.48v-9.4h.9v4.29h6.37v-4.29h.9v9.4h-.9v-4.32h-6.37v4.32ZM647.39 845.51a4.18 4.18 0 0 1 2.67.76 2.66 2.66 0 0 1 .91 2.19 2.76 2.76 0 0 1-1 2.28 4.3 4.3 0 0 1-2.81.78h-3.51v-9.4h.9v3.39Zm-.24 5.29a3.34 3.34 0 0 0 2.18-.58 2.12 2.12 0 0 0 .74-1.76 2 2 0 0 0-.73-1.69 3.6 3.6 0 0 0-2.19-.58h-2.57v4.59Zm5.55.68v-9.4h.9v9.4ZM657.47 851.48v-9.4h.88l4.44 7.44h-.39l4.46-7.44h.83v9.4h-.83v-8.31l.18.07-4.26 7h-.42l-4.28-7.1h.21v8.33ZM676.1 855.05a3.48 3.48 0 0 1-1.22-.22 2.44 2.44 0 0 1-1-.63l.45-.68a2.37 2.37 0 0 0 .78.55 2.42 2.42 0 0 0 1 .18 1.9 1.9 0 0 0 1.15-.36 3.15 3.15 0 0 0 .92-1.31l.65-1.44.17-.14 4-8.9h.91L679 852.76a5 5 0 0 1-.82 1.36 2.55 2.55 0 0 1-1 .71 3.06 3.06 0 0 1-1.08.22Zm2.71-3.33-4.35-9.64h.95l4 8.84ZM689.83 851.55a4.8 4.8 0 0 1-2.44-.61 4.5 4.5 0 0 1-1.69-1.69 5.25 5.25 0 0 1 0-5 4.4 4.4 0 0 1 1.69-1.68 5.12 5.12 0 0 1 4.5-.17 3.54 3.54 0 0 1 1.5 1.29l-.66.49a3 3 0 0 0-1.26-1.06 4.08 4.08 0 0 0-3.61.15 3.56 3.56 0 0 0-1.37 1.38 4.24 4.24 0 0 0-.49 2.08 4.18 4.18 0 0 0 .49 2.08 3.52 3.52 0 0 0 1.37 1.39 4.17 4.17 0 0 0 3.61.15 3.12 3.12 0 0 0 1.26-1.06l.66.49a3.61 3.61 0 0 1-1.5 1.29 4.78 4.78 0 0 1-2.06.48ZM697.77 851.48v-8.86l.25.28h-3.92v-.82h8.24v.82h-3.92l.25-.28v8.86ZM704.28 855v-12.92h.87v3.08l-.15 1.64.18 1.64V855Zm4.72-3.42a4.44 4.44 0 0 1-2.24-.57 4.12 4.12 0 0 1-1.58-1.65 5.78 5.78 0 0 1 0-5.09 4 4 0 0 1 1.58-1.65A4.45 4.45 0 0 1 709 842a4.67 4.67 0 0 1 2.39.61 4.3 4.3 0 0 1 1.61 1.69 5.45 5.45 0 0 1 0 5 4.3 4.3 0 0 1-1.65 1.68 4.77 4.77 0 0 1-2.35.57Zm0-.81a3.83 3.83 0 0 0 1.94-.49 3.52 3.52 0 0 0 1.36-1.4 4.64 4.64 0 0 0 0-4.15 3.54 3.54 0 0 0-1.36-1.38 4 4 0 0 0-3.88 0 3.58 3.58 0 0 0-1.35 1.38 4.64 4.64 0 0 0 0 4.15 3.57 3.57 0 0 0 1.35 1.4 3.81 3.81 0 0 0 1.94.46ZM720.32 851.55a4.66 4.66 0 0 1-2.4-.61 4.52 4.52 0 0 1-1.67-1.69 5.16 5.16 0 0 1 0-4.94 4.52 4.52 0 0 1 1.67-1.69 5 5 0 0 1 4.81 0 4.47 4.47 0 0 1 1.68 1.69 5.31 5.31 0 0 1 0 4.94 4.47 4.47 0 0 1-1.68 1.69 4.69 4.69 0 0 1-2.41.61Zm0-.81a3.87 3.87 0 0 0 1.95-.49 3.57 3.57 0 0 0 1.35-1.4 4.73 4.73 0 0 0 0-4.15 3.58 3.58 0 0 0-1.35-1.38 3.88 3.88 0 0 0-1.95-.5 3.78 3.78 0 0 0-1.93.5 3.58 3.58 0 0 0-1.39 1.38 4.56 4.56 0 0 0 0 4.15 3.57 3.57 0 0 0 1.35 1.4 3.77 3.77 0 0 0 1.97.49ZM728 851.48v-9.4h.9v8l6.7-8h.79v9.4h-.9v-8l-6.69 8Zm4.16-10.83a2.77 2.77 0 0 1-1.81-.59 2.08 2.08 0 0 1-.74-1.63h.66a1.57 1.57 0 0 0 .57 1.17 2 2 0 0 0 1.32.43 2 2 0 0 0 1.33-.43 1.48 1.48 0 0 0 .54-1.17h.69a2 2 0 0 1-.73 1.63 2.79 2.79 0 0 1-1.88.59ZM744 851.55a4.8 4.8 0 0 1-2.44-.61 4.5 4.5 0 0 1-1.69-1.69 5.25 5.25 0 0 1 0-5 4.4 4.4 0 0 1 1.69-1.68 5.12 5.12 0 0 1 4.5-.17 3.54 3.54 0 0 1 1.5 1.29l-.66.49a3 3 0 0 0-1.26-1.06 4.08 4.08 0 0 0-3.61.15 3.56 3.56 0 0 0-1.37 1.38 4.24 4.24 0 0 0-.5 2.08 4.18 4.18 0 0 0 .5 2.08 3.52 3.52 0 0 0 1.37 1.39 4.17 4.17 0 0 0 3.61.15 3.12 3.12 0 0 0 1.26-1.06l.66.49a3.61 3.61 0 0 1-1.5 1.29 4.81 4.81 0 0 1-2.06.48ZM752 851.48v-8.86l.25.28h-3.93v-.82h8.25v.82h-3.93l.26-.28v8.86ZM758.46 851.48v-9.4h4a4.27 4.27 0 0 1 2.45.62 2 2 0 0 1 .9 1.78 2 2 0 0 1-.87 1.75 4 4 0 0 1-2.26.59l.25-.27a3.87 3.87 0 0 1 2.43.61 2.15 2.15 0 0 1 .78 1.8 2.18 2.18 0 0 1-.88 1.86 4.46 4.46 0 0 1-2.69.66Zm.89-5.11h3a3.21 3.21 0 0 0 1.84-.45 1.67 1.67 0 0 0 0-2.66 3.29 3.29 0 0 0-1.84-.44h-3Zm0 4.37h3.16a3.74 3.74 0 0 0 2-.43 1.51 1.51 0 0 0 .69-1.38 1.63 1.63 0 0 0-.61-1.42 3.33 3.33 0 0 0-1.93-.44h-3.31ZM773 851.55a4.66 4.66 0 0 1-2.4-.61 4.52 4.52 0 0 1-1.67-1.69 5.23 5.23 0 0 1 0-4.94 4.52 4.52 0 0 1 1.67-1.69 4.76 4.76 0 0 1 2.4-.62 4.86 4.86 0 0 1 2.42.61 4.52 4.52 0 0 1 1.67 1.69 5.31 5.31 0 0 1 0 4.94 4.52 4.52 0 0 1-1.67 1.69 4.76 4.76 0 0 1-2.42.62Zm0-.81a3.87 3.87 0 0 0 2-.49 3.57 3.57 0 0 0 1.35-1.4 4.73 4.73 0 0 0 0-4.15 3.58 3.58 0 0 0-1.35-1.38 3.88 3.88 0 0 0-2-.5 3.78 3.78 0 0 0-1.93.5 3.58 3.58 0 0 0-1.35 1.38 4.56 4.56 0 0 0 0 4.15 3.57 3.57 0 0 0 1.35 1.4 3.77 3.77 0 0 0 1.93.49ZM780.68 851.48v-9.4h.88l4.44 7.44h-.39l4.46-7.44h.83v9.4h-.83v-8.31l.18.07-4.26 7h-.42l-4.28-7.1h.21v8.33ZM799.41 851.48v-9.4h.9v8l6.7-8h.79v9.4h-.9v-8l-6.69 8ZM816.21 855.05a3.52 3.52 0 0 1-1.22-.22 2.44 2.44 0 0 1-1-.63l.45-.68a2.37 2.37 0 0 0 .78.55 2.47 2.47 0 0 0 1 .18 1.89 1.89 0 0 0 1.14-.36 3.24 3.24 0 0 0 .93-1.31l.64-1.44.13-.16 4-8.9h.94l-4.83 10.68a5 5 0 0 1-.82 1.36 2.55 2.55 0 0 1-1 .71 3.06 3.06 0 0 1-1.14.22Zm2.72-3.33-4.36-9.64h.95l4 8.84ZM829.94 851.55a4.83 4.83 0 0 1-2.44-.61 4.5 4.5 0 0 1-1.69-1.69 5.25 5.25 0 0 1 0-5 4.4 4.4 0 0 1 1.69-1.68 5.12 5.12 0 0 1 4.5-.17 3.62 3.62 0 0 1 1.51 1.29l-.67.49a3 3 0 0 0-1.26-1.06 4.08 4.08 0 0 0-3.61.15 3.56 3.56 0 0 0-1.37 1.38 4.24 4.24 0 0 0-.49 2.08 4.18 4.18 0 0 0 .49 2.08 3.52 3.52 0 0 0 1.37 1.39 4.17 4.17 0 0 0 3.61.15 3.12 3.12 0 0 0 1.26-1.06l.67.49a3.7 3.7 0 0 1-1.51 1.29 4.78 4.78 0 0 1-2.06.48ZM837.88 851.48v-8.86l.25.28h-3.92v-.82h8.24v.82h-3.92l.25-.28v8.86ZM846.86 851.55a4.57 4.57 0 0 1-1.81-.33 2.63 2.63 0 0 1-1.17-.94 2.5 2.5 0 0 1-.4-1.41 2.59 2.59 0 0 1 .33-1.3 2.42 2.42 0 0 1 1.11-1 4.92 4.92 0 0 1 2.07-.37h3.45v.8H847a3 3 0 0 0-2 .54 1.86 1.86 0 0 0 .1 2.79 3.06 3.06 0 0 0 1.93.54 3.53 3.53 0 0 0 2-.54 3.23 3.23 0 0 0 1.22-1.57l.25.61a3.2 3.2 0 0 1-1.29 1.63 4.09 4.09 0 0 1-2.35.55Zm3.39-.07v-5.99a2.67 2.67 0 0 0-.71-2 2.88 2.88 0 0 0-2.08-.68 4.89 4.89 0 0 0-1.81.33 5 5 0 0 0-1.43.85l-.45-.64a5.13 5.13 0 0 1 1.69-1 6.25 6.25 0 0 1 2.07-.35 3.75 3.75 0 0 1 2.68.89 3.4 3.4 0 0 1 .94 2.62v6ZM854.76 851.48v-9.4h.9v4.29H862v-4.29h.91v9.4H862v-4.32h-6.37v4.32ZM870.57 851.55a4.72 4.72 0 0 1-2.41-.61 4.52 4.52 0 0 1-1.67-1.69 5.23 5.23 0 0 1 0-4.94 4.52 4.52 0 0 1 1.67-1.69 5.07 5.07 0 0 1 4.82 0 4.44 4.44 0 0 1 1.67 1.69 5.23 5.23 0 0 1 0 4.94 4.44 4.44 0 0 1-1.67 1.69 4.72 4.72 0 0 1-2.41.61Zm0-.81a3.81 3.81 0 0 0 1.94-.49 3.44 3.44 0 0 0 1.35-1.4 4.64 4.64 0 0 0 0-4.15 3.45 3.45 0 0 0-1.35-1.38 4 4 0 0 0-3.88 0 3.58 3.58 0 0 0-1.35 1.38 4.64 4.64 0 0 0 0 4.15 3.57 3.57 0 0 0 1.35 1.4 3.81 3.81 0 0 0 1.94.49ZM878.2 851.48v-9.4h4a4.29 4.29 0 0 1 2.45.62 2 2 0 0 1 .9 1.78 2 2 0 0 1-.88 1.75 4 4 0 0 1-2.25.59l.25-.27a3.91 3.91 0 0 1 2.43.61 2.45 2.45 0 0 1-.1 3.66 4.46 4.46 0 0 1-2.69.66Zm.88-5.11h3a3.24 3.24 0 0 0 1.85-.45 1.67 1.67 0 0 0 0-2.66 3.33 3.33 0 0 0-1.85-.44h-3Zm0 4.37h3.17a3.79 3.79 0 0 0 2-.43 1.52 1.52 0 0 0 .68-1.38 1.66 1.66 0 0 0-.6-1.42 3.37 3.37 0 0 0-1.94-.44h-3.31ZM892.78 851.55a4.66 4.66 0 0 1-2.4-.61 4.54 4.54 0 0 1-1.68-1.69 5.23 5.23 0 0 1 0-4.94 4.54 4.54 0 0 1 1.68-1.69 4.76 4.76 0 0 1 2.4-.61 4.82 4.82 0 0 1 2.41.61 4.37 4.37 0 0 1 1.67 1.69 5.23 5.23 0 0 1 0 4.94 4.37 4.37 0 0 1-1.67 1.69 4.72 4.72 0 0 1-2.41.61Zm0-.81a3.81 3.81 0 0 0 1.94-.49 3.44 3.44 0 0 0 1.35-1.4 4.64 4.64 0 0 0 0-4.15 3.45 3.45 0 0 0-1.35-1.38 4 4 0 0 0-3.88 0 3.58 3.58 0 0 0-1.35 1.38 4.64 4.64 0 0 0 0 4.15 3.57 3.57 0 0 0 1.35 1.4 3.81 3.81 0 0 0 1.94.49ZM906.35 847.4a10.36 10.36 0 0 1-1.75.6 7.3 7.3 0 0 1-1.69.21 4.09 4.09 0 0 1-2.57-.75 2.65 2.65 0 0 1-1-2.24v-3.14h.9v3.08a2 2 0 0 0 .75 1.71 3.23 3.23 0 0 0 2 .58 7.14 7.14 0 0 0 1.6-.2 9.84 9.84 0 0 0 1.73-.59Zm-.09 4.08v-9.4h.9v9.4ZM911.05 851.48v-9.4h.9v4.29h6.37v-4.29h.9v9.4h-.9v-4.32H912v4.32ZM926.82 845.51a4.18 4.18 0 0 1 2.67.76 2.66 2.66 0 0 1 .91 2.19 2.79 2.79 0 0 1-1 2.28 4.3 4.3 0 0 1-2.81.78h-3.51v-9.4h.9v3.39Zm-.24 5.29a3.34 3.34 0 0 0 2.18-.58 2.12 2.12 0 0 0 .74-1.76 2 2 0 0 0-.73-1.69 3.6 3.6 0 0 0-2.19-.58h-2.57v4.59Zm5.55.68v-9.4h.9v9.4ZM936.9 851.48v-9.4h.88l4.44 7.44h-.39l4.46-7.44h.83v9.4h-.83v-8.31l.18.07-4.26 7h-.42l-4.28-7.1h.21v8.33ZM955.63 851.48v-9.4h.9v9.4Zm.62-4.36v-.77h3v.77Zm3.09-.25-.83-.14 3.86-4.65h1Zm3.22 4.61-4-4.7.76-.43 4.35 5.13ZM965.88 855v-12.92h.86v3.08l-.14 1.64.18 1.64V855Zm4.71-3.42a4.44 4.44 0 0 1-2.24-.57 4.26 4.26 0 0 1-1.58-1.65 5.78 5.78 0 0 1 0-5.09 4.12 4.12 0 0 1 1.58-1.65 4.45 4.45 0 0 1 2.24-.58 4.65 4.65 0 0 1 2.39.61 4.3 4.3 0 0 1 1.65 1.68 5.37 5.37 0 0 1 0 5A4.3 4.3 0 0 1 973 851a4.74 4.74 0 0 1-2.41.55Zm-.05-.81a3.81 3.81 0 0 0 1.94-.49 3.52 3.52 0 0 0 1.36-1.4 4.56 4.56 0 0 0 0-4.15 3.54 3.54 0 0 0-1.36-1.38 4 4 0 0 0-3.88 0 3.58 3.58 0 0 0-1.35 1.38 4.64 4.64 0 0 0 0 4.15 3.57 3.57 0 0 0 1.35 1.4 3.81 3.81 0 0 0 1.94.46ZM981.92 851.55a4.67 4.67 0 0 1-2.41-.61 4.52 4.52 0 0 1-1.67-1.69 5.23 5.23 0 0 1 0-4.94 4.52 4.52 0 0 1 1.67-1.69 4.77 4.77 0 0 1 2.41-.61 4.85 4.85 0 0 1 2.41.61 4.44 4.44 0 0 1 1.67 1.69 5.31 5.31 0 0 1 0 4.94 4.44 4.44 0 0 1-1.67 1.69 4.75 4.75 0 0 1-2.41.61Zm0-.81a3.86 3.86 0 0 0 1.94-.49 3.57 3.57 0 0 0 1.35-1.4 4.73 4.73 0 0 0 0-4.15 3.58 3.58 0 0 0-1.35-1.38 3.87 3.87 0 0 0-1.94-.5 3.79 3.79 0 0 0-1.94.5 3.58 3.58 0 0 0-1.35 1.38 4.56 4.56 0 0 0 0 4.15 3.57 3.57 0 0 0 1.35 1.4 3.78 3.78 0 0 0 1.94.49ZM989.55 851.48v-9.4h.9v4.29h6.37v-4.29h.9v9.4h-.9v-4.32h-6.37v4.32ZM1007.71 850.69l-.22.27v-8.88h.9V851l-.27-.27h5.47l-.25.27v-8.88h.9v9.4h-12.63v-9.4h.9V851l-.26-.27ZM1019.84 851.48v-8.86l.25.28h-3.92v-.82h8.24v.82h-3.92l.25-.28v8.86ZM1030.23 851.55a5 5 0 0 1-2.51-.61 4.41 4.41 0 0 1-1.71-1.69 4.8 4.8 0 0 1-.63-2.47 5.07 5.07 0 0 1 .59-2.47 4.36 4.36 0 0 1 1.61-1.69 4.67 4.67 0 0 1 4.6 0 4.19 4.19 0 0 1 1.6 1.66 5.11 5.11 0 0 1 .59 2.48s0 .07 0 .11a.66.66 0 0 0 0 .14h-8.3v-.7h7.81l-.36.34a3.9 3.9 0 0 0-.46-2 3.66 3.66 0 0 0-5-1.37 3.62 3.62 0 0 0-1.29 1.37 4.14 4.14 0 0 0-.46 2v.16a4 4 0 0 0 .51 2 3.56 3.56 0 0 0 1.41 1.39 4.21 4.21 0 0 0 2.06.49 4.3 4.3 0 0 0 1.68-.32 3.39 3.39 0 0 0 1.32-1l.52.59a3.84 3.84 0 0 1-1.54 1.15 5.24 5.24 0 0 1-2.04.44ZM1037.3 851.48v-9.4h.9v8l6.7-8h.79v9.4h-.9v-8l-6.7 8Zm4.16-10.83a2.75 2.75 0 0 1-1.81-.59 2.12 2.12 0 0 1-.75-1.63h.67a1.51 1.51 0 0 0 .57 1.17 2.24 2.24 0 0 0 2.64 0 1.46 1.46 0 0 0 .55-1.17h.68a2 2 0 0 1-.72 1.63 2.81 2.81 0 0 1-1.83.59ZM1049.58 851.48v-9.4h.9v4.29h6.37v-4.29h.9v9.4h-.9v-4.32h-6.37v4.32ZM1065.38 851.55a4.56 4.56 0 0 1-4.08-2.3 5.23 5.23 0 0 1 0-4.94 4.62 4.62 0 0 1 1.68-1.69 4.76 4.76 0 0 1 2.4-.61 4.82 4.82 0 0 1 2.41.61 4.47 4.47 0 0 1 1.68 1.69 5.31 5.31 0 0 1 0 4.94 4.47 4.47 0 0 1-1.68 1.69 4.72 4.72 0 0 1-2.41.61Zm0-.81a3.81 3.81 0 0 0 1.94-.49 3.44 3.44 0 0 0 1.35-1.4 4.64 4.64 0 0 0 0-4.15 3.45 3.45 0 0 0-1.35-1.38 4 4 0 0 0-3.87 0 3.58 3.58 0 0 0-1.35 1.38 4.56 4.56 0 0 0 0 4.15 3.57 3.57 0 0 0 1.35 1.4 3.77 3.77 0 0 0 1.93.49ZM1073 851.48v-9.4h.88l4.45 7.44h-.4l4.47-7.44h.83v9.4h-.83v-8.31l.18.07-4.27 7h-.41l-4.29-7.1h.22v8.33ZM472.22 881.57a7 7 0 0 1-2.6-.48 6.05 6.05 0 0 1-2.08-1.34 6.13 6.13 0 0 1-1.37-2 7 7 0 0 1 0-5.1 6.21 6.21 0 0 1 3.46-3.36 6.86 6.86 0 0 1 2.59-.48 7.23 7.23 0 0 1 2.49.43 5.11 5.11 0 0 1 2 1.32l-.57.59a4.87 4.87 0 0 0-1.79-1.14 6.34 6.34 0 0 0-4.32.06 5.49 5.49 0 0 0-1.8 1.17A5.36 5.36 0 0 0 467 873a5.95 5.95 0 0 0 0 4.39 5.32 5.32 0 0 0 1.19 1.76 5.19 5.19 0 0 0 1.8 1.17 5.88 5.88 0 0 0 2.24.42 6 6 0 0 0 2.08-.36 4.8 4.8 0 0 0 1.79-1.16l.57.6a5.11 5.11 0 0 1-2 1.32 7 7 0 0 1-2.45.43ZM536.67 877.05v-.81h4.63v.81ZM557.41 881.55a4.78 4.78 0 0 1-2.44-.61 4.52 4.52 0 0 1-1.7-1.69 5.25 5.25 0 0 1 0-5 4.42 4.42 0 0 1 1.7-1.68 5.12 5.12 0 0 1 4.5-.17 3.66 3.66 0 0 1 1.5 1.29l-.67.49a2.93 2.93 0 0 0-1.26-1.06 3.88 3.88 0 0 0-1.63-.35 4 4 0 0 0-2 .5 3.54 3.54 0 0 0-1.36 1.38 4.24 4.24 0 0 0-.5 2.08 4.18 4.18 0 0 0 .5 2.08 3.5 3.5 0 0 0 1.36 1.39 4 4 0 0 0 2 .49 3.87 3.87 0 0 0 1.63-.34 3 3 0 0 0 1.26-1.06l.67.49a3.73 3.73 0 0 1-1.5 1.29 4.81 4.81 0 0 1-2.06.48ZM565.34 881.48v-8.86l.26.28h-3.93v-.82h8.25v.82H566l.25-.28v8.86ZM574.33 881.55a4.54 4.54 0 0 1-1.81-.33 2.63 2.63 0 0 1-1.17-.94 2.51 2.51 0 0 1-.41-1.41 2.59 2.59 0 0 1 .33-1.3 2.53 2.53 0 0 1 1.11-1 5 5 0 0 1 2.07-.37h3.46v.8h-3.44a3 3 0 0 0-2 .54 1.84 1.84 0 0 0 .1 2.79 3 3 0 0 0 1.92.54 3.59 3.59 0 0 0 2-.54 3.22 3.22 0 0 0 1.21-1.57l.26.61a3.31 3.31 0 0 1-1.29 1.63 4.13 4.13 0 0 1-2.34.55Zm3.38-.07v-5.99a2.63 2.63 0 0 0-.71-2 2.85 2.85 0 0 0-2.08-.68 4.93 4.93 0 0 0-1.81.33 5.16 5.16 0 0 0-1.43.85l-.45-.64a5.18 5.18 0 0 1 1.7-1A6.25 6.25 0 0 1 575 872a3.77 3.77 0 0 1 2.68.89 3.43 3.43 0 0 1 .93 2.62v6ZM582.23 881.48v-9.4h.9v8.61h6.22v-8.61h.91v9.4Zm8.73 2.34v-2.46l.25.12h-1.86v-.79h2.47v3.13ZM594.45 881.48v-9.4h.9v8l6.69-8h.8v9.4h-.9v-8l-6.7 8ZM610.47 881.55a4.66 4.66 0 0 1-2.4-.61 4.54 4.54 0 0 1-1.68-1.69 5.23 5.23 0 0 1 0-4.94 4.54 4.54 0 0 1 1.68-1.69 4.76 4.76 0 0 1 2.4-.61 4.82 4.82 0 0 1 2.41.61 4.37 4.37 0 0 1 1.67 1.69 5.23 5.23 0 0 1 0 4.94 4.37 4.37 0 0 1-1.67 1.69 4.72 4.72 0 0 1-2.41.61Zm0-.81a3.81 3.81 0 0 0 1.94-.49 3.44 3.44 0 0 0 1.35-1.4 4.64 4.64 0 0 0 0-4.15 3.45 3.45 0 0 0-1.35-1.38 4 4 0 0 0-3.88 0 3.58 3.58 0 0 0-1.35 1.38 4.64 4.64 0 0 0 0 4.15 3.57 3.57 0 0 0 1.35 1.4 3.81 3.81 0 0 0 1.94.49ZM618.1 881.48v-9.4h.9v4.29h6.37v-4.29h.9v9.4h-.9v-4.32H619v4.32ZM632.65 881.55a4.54 4.54 0 0 1-1.81-.33 2.63 2.63 0 0 1-1.17-.94 2.51 2.51 0 0 1-.41-1.41 2.59 2.59 0 0 1 .33-1.3 2.47 2.47 0 0 1 1.11-1 5 5 0 0 1 2.07-.37h3.46v.8h-3.44a3 3 0 0 0-2 .54 1.85 1.85 0 0 0 .09 2.79 3.06 3.06 0 0 0 1.93.54 3.59 3.59 0 0 0 2-.54 3.22 3.22 0 0 0 1.21-1.57l.25.61A3.24 3.24 0 0 1 635 881a4.13 4.13 0 0 1-2.35.55Zm3.38-.07v-5.99a2.63 2.63 0 0 0-.71-2 2.87 2.87 0 0 0-2.08-.68 4.89 4.89 0 0 0-1.81.33 5.16 5.16 0 0 0-1.43.86l-.45-.64a5.13 5.13 0 0 1 1.69-1 6.25 6.25 0 0 1 2.07-.35 3.78 3.78 0 0 1 2.69.89 3.43 3.43 0 0 1 .93 2.62v6ZM640.56 885v-12.92h.87v3.08l-.15 1.64.18 1.64V885Zm4.72-3.42A4.44 4.44 0 0 1 643 881a4.19 4.19 0 0 1-1.58-1.65 5.78 5.78 0 0 1 0-5.09 4.06 4.06 0 0 1 1.58-1.65 4.45 4.45 0 0 1 2.24-.58 4.67 4.67 0 0 1 2.39.61 4.3 4.3 0 0 1 1.65 1.68 5.45 5.45 0 0 1 0 5 4.3 4.3 0 0 1-1.65 1.68 4.77 4.77 0 0 1-2.35.55Zm0-.81a3.83 3.83 0 0 0 1.94-.49 3.52 3.52 0 0 0 1.36-1.4 4.64 4.64 0 0 0 0-4.15 3.54 3.54 0 0 0-1.36-1.38 4 4 0 0 0-3.88 0 3.58 3.58 0 0 0-1.35 1.38 4.64 4.64 0 0 0 0 4.15 3.57 3.57 0 0 0 1.35 1.4 3.81 3.81 0 0 0 1.89.46ZM652.86 881.48v-9.4h.9v4.29h6.37v-4.29h.9v9.4h-.9v-4.32h-6.37v4.32ZM668.66 881.55a4.66 4.66 0 0 1-2.4-.61 4.52 4.52 0 0 1-1.67-1.69 5.16 5.16 0 0 1 0-4.94 4.52 4.52 0 0 1 1.67-1.69 5 5 0 0 1 4.81 0 4.47 4.47 0 0 1 1.68 1.69 5.31 5.31 0 0 1 0 4.94 4.47 4.47 0 0 1-1.68 1.69 4.69 4.69 0 0 1-2.41.61Zm0-.81a3.87 3.87 0 0 0 2-.49 3.57 3.57 0 0 0 1.35-1.4 4.73 4.73 0 0 0 0-4.15 3.58 3.58 0 0 0-1.35-1.38 3.88 3.88 0 0 0-2-.5 3.78 3.78 0 0 0-1.93.5 3.58 3.58 0 0 0-1.35 1.38 4.56 4.56 0 0 0 0 4.15 3.57 3.57 0 0 0 1.35 1.4 3.77 3.77 0 0 0 1.93.49ZM680.18 881.55a5 5 0 0 1-2.51-.61 4.55 4.55 0 0 1-1.71-1.69 4.9 4.9 0 0 1-.62-2.47 5.07 5.07 0 0 1 .59-2.47 4.29 4.29 0 0 1 1.61-1.69 4.67 4.67 0 0 1 4.6 0 4.26 4.26 0 0 1 1.6 1.66 5.1 5.1 0 0 1 .58 2.48.45.45 0 0 1 0 .11v.14H676v-.7h7.81l-.36.34a3.9 3.9 0 0 0-.46-2 3.62 3.62 0 0 0-1.29-1.37 3.57 3.57 0 0 0-5 1.37 4.15 4.15 0 0 0-.47 2v.16a3.92 3.92 0 0 0 .52 2 3.56 3.56 0 0 0 1.41 1.39 4.17 4.17 0 0 0 2.05.49 4.26 4.26 0 0 0 1.68-.32 3.35 3.35 0 0 0 1.33-1l.52.59a3.84 3.84 0 0 1-1.54 1.15 5.33 5.33 0 0 1-2.02.44ZM691.88 881.48v-9.4h.9v8l6.7-8h.79v9.4h-.9v-8l-6.7 8ZM708 881.55a4.78 4.78 0 0 1-2.44-.61 4.52 4.52 0 0 1-1.7-1.69 5.25 5.25 0 0 1 0-5 4.42 4.42 0 0 1 1.7-1.68 5.12 5.12 0 0 1 4.5-.17 3.6 3.6 0 0 1 1.5 1.29l-.67.49a2.93 2.93 0 0 0-1.26-1.06 3.88 3.88 0 0 0-1.63-.35 4 4 0 0 0-2 .5 3.54 3.54 0 0 0-1.36 1.38 4.24 4.24 0 0 0-.5 2.08 4.18 4.18 0 0 0 .5 2.08 3.5 3.5 0 0 0 1.36 1.39 4 4 0 0 0 2 .49 3.87 3.87 0 0 0 1.63-.34 3 3 0 0 0 1.26-1.06l.67.49a3.67 3.67 0 0 1-1.5 1.29 4.81 4.81 0 0 1-2.06.48ZM714.18 881.48v-9.4h8.21v9.4h-.9v-8.86l.25.28h-6.91l.25-.28v8.86ZM730 881.55a4.66 4.66 0 0 1-2.4-.61 4.52 4.52 0 0 1-1.67-1.69 5.23 5.23 0 0 1 0-4.94 4.52 4.52 0 0 1 1.67-1.69 4.76 4.76 0 0 1 2.4-.62 4.86 4.86 0 0 1 2.42.61 4.52 4.52 0 0 1 1.67 1.69 5.31 5.31 0 0 1 0 4.94 4.52 4.52 0 0 1-1.67 1.69 4.76 4.76 0 0 1-2.42.62Zm0-.81a3.87 3.87 0 0 0 2-.49 3.57 3.57 0 0 0 1.35-1.4 4.73 4.73 0 0 0 0-4.15 3.58 3.58 0 0 0-1.35-1.38 3.88 3.88 0 0 0-2-.5 3.78 3.78 0 0 0-1.93.5 3.58 3.58 0 0 0-1.35 1.38 4.56 4.56 0 0 0 0 4.15 3.57 3.57 0 0 0 1.35 1.4 3.77 3.77 0 0 0 1.93.49ZM735.8 881.45l.09-.78.23.05h.2a1.17 1.17 0 0 0 1-.46 3 3 0 0 0 .54-1.23 10.43 10.43 0 0 0 .27-1.74c.06-.65.1-1.31.14-2l.16-3.25H745v9.4h-.9v-8.87l.25.29H739l.23-.31-.14 2.81c-.05.81-.12 1.59-.2 2.34a11.42 11.42 0 0 1-.38 2 3.37 3.37 0 0 1-.72 1.36 1.57 1.57 0 0 1-1.2.49 2.31 2.31 0 0 1-.37 0ZM748.89 881.48v-9.4h.9v4.29h6.37v-4.29h.9v9.4h-.9v-4.32h-6.37v4.32ZM764.84 881.55a5.06 5.06 0 0 1-2.52-.61 4.55 4.55 0 0 1-1.71-1.69 4.9 4.9 0 0 1-.62-2.47 5.07 5.07 0 0 1 .59-2.47 4.36 4.36 0 0 1 1.61-1.69 4.67 4.67 0 0 1 4.6 0 4.19 4.19 0 0 1 1.6 1.66 5.11 5.11 0 0 1 .59 2.48s0 .07 0 .11a.66.66 0 0 0 0 .14h-8.3v-.7h7.81l-.36.34a3.9 3.9 0 0 0-.46-2 3.6 3.6 0 0 0-1.28-1.37 3.58 3.58 0 0 0-5 1.37 4.14 4.14 0 0 0-.46 2v.16a4 4 0 0 0 .51 2 3.56 3.56 0 0 0 1.41 1.39 4.2 4.2 0 0 0 2.05.49 4.31 4.31 0 0 0 1.69-.32 3.39 3.39 0 0 0 1.32-1l.52.59a3.84 3.84 0 0 1-1.54 1.15 5.28 5.28 0 0 1-2.05.44ZM771.91 881.48v-9.4h.9v4.29h6.37v-4.29h.9v9.4h-.9v-4.32h-6.37v4.32ZM784 881.48v-9.4h.9v8l6.7-8h.79v9.4h-.9v-8l-6.7 8ZM800.13 881.55a5 5 0 0 1-2.51-.61 4.55 4.55 0 0 1-1.71-1.69 4.9 4.9 0 0 1-.62-2.47 5.07 5.07 0 0 1 .59-2.47 4.29 4.29 0 0 1 1.61-1.69 4.67 4.67 0 0 1 4.6 0 4.26 4.26 0 0 1 1.6 1.66 5.1 5.1 0 0 1 .58 2.48.45.45 0 0 1 0 .11v.13H796v-.7h7.81l-.36.34a3.9 3.9 0 0 0-.46-2 3.62 3.62 0 0 0-1.29-1.37 3.57 3.57 0 0 0-5 1.37 4.15 4.15 0 0 0-.47 2v.16a3.92 3.92 0 0 0 .52 2 3.56 3.56 0 0 0 1.41 1.39 4.17 4.17 0 0 0 2 .49 4.26 4.26 0 0 0 1.68-.32 3.35 3.35 0 0 0 1.33-1l.52.59a3.84 3.84 0 0 1-1.54 1.15 5.33 5.33 0 0 1-2.02.45ZM815.63 881.55a4.83 4.83 0 0 1-2.44-.61 4.5 4.5 0 0 1-1.69-1.69 5.25 5.25 0 0 1 0-5 4.4 4.4 0 0 1 1.69-1.68 5.12 5.12 0 0 1 4.5-.17 3.62 3.62 0 0 1 1.51 1.29l-.67.49a3 3 0 0 0-1.26-1.06 4.08 4.08 0 0 0-3.61.15 3.56 3.56 0 0 0-1.37 1.38 4.24 4.24 0 0 0-.49 2.08 4.18 4.18 0 0 0 .49 2.08 3.52 3.52 0 0 0 1.37 1.39 4.17 4.17 0 0 0 3.61.15 3.12 3.12 0 0 0 1.26-1.06l.67.49a3.7 3.7 0 0 1-1.51 1.29 4.78 4.78 0 0 1-2.06.48ZM826.48 881.48v-9.4h.91v4.29h6.37v-4.29h.9v9.4h-.9v-4.32h-6.37v4.32ZM841 881.55a4.54 4.54 0 0 1-1.81-.33 2.63 2.63 0 0 1-1.17-.94 2.5 2.5 0 0 1-.4-1.41 2.59 2.59 0 0 1 .33-1.3 2.42 2.42 0 0 1 1.11-1 4.92 4.92 0 0 1 2.07-.37h3.45v.8h-3.44a3 3 0 0 0-2 .54 1.86 1.86 0 0 0 .1 2.79 3.06 3.06 0 0 0 1.93.54 3.53 3.53 0 0 0 2-.54 3.23 3.23 0 0 0 1.22-1.57l.25.61a3.2 3.2 0 0 1-1.29 1.63 4.09 4.09 0 0 1-2.35.55Zm3.38-.07v-5.99a2.67 2.67 0 0 0-.71-2 2.88 2.88 0 0 0-2.08-.68 4.95 4.95 0 0 0-3.24 1.18l-.45-.64a5.13 5.13 0 0 1 1.69-1 6.25 6.25 0 0 1 2.07-.35 3.75 3.75 0 0 1 2.68.89 3.4 3.4 0 0 1 .94 2.62v6ZM848.46 881.48h-1.09l3.72-5.13.76.43Zm2.56-4.61-3.37-4.79h1l3.23 4.65Zm3.06.25h-2.9v-.77h2.9Zm.61 4.36h-.9v-9.4h.9Zm-.3-4.36v-.77h2.91v.77Zm3.09-.25-.84-.14 3.22-4.65h1Zm2.56 4.61-3.39-4.7.76-.43 3.71 5.13ZM863.46 881.48v-9.4h.9v8l6.69-8h.79v9.4h-.9v-8l-6.69 8ZM875.73 881.48v-9.4h.89l4.44 7.44h-.39l4.46-7.44h.87v9.4h-.83v-8.31l.18.07-4.27 7h-.41l-4.28-7.1h.21v8.33ZM889.84 881.48v-9.4h.9v4.29h6.38v-4.29h.9v9.4h-.9v-4.32h-6.38v4.32ZM905.65 881.55a4.66 4.66 0 0 1-2.4-.61 4.54 4.54 0 0 1-1.68-1.69 5.23 5.23 0 0 1 0-4.94 4.54 4.54 0 0 1 1.68-1.69 4.76 4.76 0 0 1 2.4-.61 4.82 4.82 0 0 1 2.41.61 4.37 4.37 0 0 1 1.67 1.69 5.23 5.23 0 0 1 0 4.94 4.37 4.37 0 0 1-1.67 1.69 4.72 4.72 0 0 1-2.41.61Zm0-.81a3.81 3.81 0 0 0 1.94-.49 3.44 3.44 0 0 0 1.35-1.4 4.64 4.64 0 0 0 0-4.15 3.45 3.45 0 0 0-1.35-1.38 4 4 0 0 0-3.88 0 3.58 3.58 0 0 0-1.35 1.38 4.64 4.64 0 0 0 0 4.15 3.57 3.57 0 0 0 1.35 1.4 3.81 3.81 0 0 0 1.94.49ZM913.28 881.48v-9.4h.9v8l6.7-8h.79v9.4h-.9v-8l-6.7 8Zm4.16-10.83a2.75 2.75 0 0 1-1.81-.59 2.12 2.12 0 0 1-.75-1.63h.67a1.51 1.51 0 0 0 .57 1.17 2.24 2.24 0 0 0 2.64 0 1.46 1.46 0 0 0 .55-1.17h.69a2.08 2.08 0 0 1-.73 1.63 2.81 2.81 0 0 1-1.83.59ZM930.18 881.48v-9.4h8.21v9.4h-.9v-8.86l.25.28h-6.91l.25-.28v8.86ZM940.42 881.45l.1-.78.22.05h.21a1.17 1.17 0 0 0 1-.46 3.19 3.19 0 0 0 .55-1.23 13 13 0 0 0 .27-1.74c0-.65.1-1.31.13-2l.17-3.25h6.58v9.4h-.9v-8.87l.26.29h-5.37l.23-.31-.14 2.81c-.05.81-.11 1.59-.2 2.34a11.42 11.42 0 0 1-.38 2 3.15 3.15 0 0 1-.72 1.36 1.57 1.57 0 0 1-1.2.49h-.37ZM956 881.55a4.52 4.52 0 0 1-1.8-.33 2.63 2.63 0 0 1-1.17-.94 2.51 2.51 0 0 1-.41-1.41 2.59 2.59 0 0 1 .33-1.3 2.47 2.47 0 0 1 1.11-1 5 5 0 0 1 2.07-.37h3.46v.8h-3.44a3 3 0 0 0-2 .54 1.85 1.85 0 0 0 .09 2.79 3.06 3.06 0 0 0 1.93.54 3.59 3.59 0 0 0 2-.54 3.22 3.22 0 0 0 1.21-1.57l.25.61a3.24 3.24 0 0 1-1.28 1.63 4.14 4.14 0 0 1-2.35.55Zm3.39-.07v-5.99a2.63 2.63 0 0 0-.71-2 2.87 2.87 0 0 0-2.08-.68 4.89 4.89 0 0 0-1.81.33 5.16 5.16 0 0 0-1.43.85l-.45-.64a5.13 5.13 0 0 1 1.69-1 6.25 6.25 0 0 1 2.07-.35 3.78 3.78 0 0 1 2.69.89 3.43 3.43 0 0 1 .93 2.62v6ZM967.69 881.55a4.77 4.77 0 0 1-2.43-.61 4.52 4.52 0 0 1-1.7-1.69 5.25 5.25 0 0 1 0-5 4.42 4.42 0 0 1 1.7-1.68 4.77 4.77 0 0 1 2.43-.61 4.83 4.83 0 0 1 2.07.44 3.66 3.66 0 0 1 1.5 1.29l-.67.49a2.93 2.93 0 0 0-1.26-1.06 3.89 3.89 0 0 0-1.64-.35 4 4 0 0 0-2 .5 3.54 3.54 0 0 0-1.36 1.38 4.24 4.24 0 0 0-.5 2.08 4.18 4.18 0 0 0 .5 2.08 3.5 3.5 0 0 0 1.36 1.39 3.94 3.94 0 0 0 2 .49 3.88 3.88 0 0 0 1.64-.34 3 3 0 0 0 1.26-1.06l.67.49a3.73 3.73 0 0 1-1.5 1.29 4.82 4.82 0 0 1-2.07.48ZM975.63 881.48v-8.86l.25.28H972v-.82h8.25v.82h-3.93l.25-.28v8.86ZM982.13 881.48v-9.4h.9v8l6.7-8h.79v9.4h-.9v-8l-6.7 8ZM994.41 881.48v-9.4h.9v4.29h6.37v-4.29h.9v9.4h-.9v-4.32h-6.37v4.32ZM1010.21 881.55a4.56 4.56 0 0 1-4.08-2.3 5.23 5.23 0 0 1 0-4.94 4.62 4.62 0 0 1 1.68-1.69 4.76 4.76 0 0 1 2.4-.61 4.82 4.82 0 0 1 2.41.61 4.47 4.47 0 0 1 1.68 1.69 5.31 5.31 0 0 1 0 4.94 4.47 4.47 0 0 1-1.68 1.69 4.72 4.72 0 0 1-2.41.61Zm0-.81a3.81 3.81 0 0 0 1.94-.49 3.44 3.44 0 0 0 1.35-1.4 4.64 4.64 0 0 0 0-4.15 3.45 3.45 0 0 0-1.35-1.38 4 4 0 0 0-3.87 0 3.58 3.58 0 0 0-1.35 1.38 4.56 4.56 0 0 0 0 4.15 3.57 3.57 0 0 0 1.35 1.4 3.77 3.77 0 0 0 1.93.49ZM1017.84 881.48v-9.4h.9v8l6.7-8h.79v9.4h-.9v-8l-6.7 8Zm4.16-10.83a2.77 2.77 0 0 1-1.81-.59 2.12 2.12 0 0 1-.75-1.63h.67a1.51 1.51 0 0 0 .57 1.17 2.24 2.24 0 0 0 2.64 0 1.46 1.46 0 0 0 .55-1.17h.69a2.08 2.08 0 0 1-.73 1.63 2.81 2.81 0 0 1-1.83.59Z" transform="translate(-351.05 -379.84)"/><path class="cls-3" d="M816.5.5h91.75v98.86H816.5zM1000 .5h91.75v262.09H1000z"/><path class="cls-4" d="M1303.18 423.18a6.09 6.09 0 0 1-6.09 6.07h-2a6 6 0 0 1-4.2-1.76 5.67 5.67 0 0 1-1.87-4.31V407a5.88 5.88 0 0 1 1.76-4.24 5.73 5.73 0 0 1 4.31-1.82h2a5.91 5.91 0 0 1 4.29 1.77 5.79 5.79 0 0 1 1.8 4.29Zm-2 0V407a4.06 4.06 0 0 0-4.06-4h-2a4 4 0 0 0-4 4v16.18a3.89 3.89 0 0 0 1.22 2.85 3.93 3.93 0 0 0 2.83 1.2h2a4 4 0 0 0 2.85-1.15 3.83 3.83 0 0 0 1.13-2.9ZM1307.2 414.19a14.41 14.41 0 0 1 2.17-7.72 13.19 13.19 0 0 1 6.57-5.45l.42-.08a.84.84 0 0 1 .68.32 1.1 1.1 0 0 1 .27.73.9.9 0 0 1-.13.49 1.39 1.39 0 0 1-.52.43l-.38.15-.45.2-.85.44a11.17 11.17 0 0 0-1.51 1.07 12.14 12.14 0 0 0-2.42 2.77 16.6 16.6 0 0 0-1.28 2.71 8.46 8.46 0 0 0-.55 2.82h6a6 6 0 0 1 6.09 6.07v4a6 6 0 0 1-6.07 6.07h-2a6 6 0 0 1-4.2-1.76 5.69 5.69 0 0 1-1.87-4.3Zm2 .9v8.09a4.15 4.15 0 0 0 4 4.05h2a4 4 0 0 0 4-4.05v-4a3.92 3.92 0 0 0-1.17-2.86 3.86 3.86 0 0 0-2.88-1.19ZM1364.57 413.09h6.09a6 6 0 0 1 4.32 1.76 5.55 5.55 0 0 1 1.34 1.94l.3 1.07.11.65v4.67a6.09 6.09 0 0 1-6.09 6.07h-7.08a.89.89 0 0 1-1-1V402a.89.89 0 0 1 1-1h11.12a1 1 0 0 1 .69.32 1 1 0 0 1 .32.69 1 1 0 0 1-.26.68.9.9 0 0 1-.75.33h-10.11Zm0 14.14h6.07a4 4 0 0 0 2.85-1.15 3.83 3.83 0 0 0 1.21-2.9v-4a3.84 3.84 0 0 0-1.23-2.8 3.92 3.92 0 0 0-2.84-1.23h-6.06ZM1393.86 429.25h-12.1a1.07 1.07 0 0 1-.71-.32 1.18 1.18 0 0 1-.28-.77.83.83 0 0 1 .14-.48l11.11-16.8.42-.79.3-.7a4.54 4.54 0 0 0 .25-1.5 4.42 4.42 0 0 0-1.66-3.46 6 6 0 0 0-1.72-1 5.43 5.43 0 0 0-2-.39 4.76 4.76 0 0 0-2.6.77 5.37 5.37 0 0 0-2 2.65 1 1 0 0 1-.35.48 1.84 1.84 0 0 1-.56.18 1.09 1.09 0 0 1-.74-.27.9.9 0 0 1-.32-.71l.06-.37a7.12 7.12 0 0 1 2.65-3.69 6.41 6.41 0 0 1 3.71-1.1 7.68 7.68 0 0 1 5.17 2 6.38 6.38 0 0 1 2.09 6.91 11 11 0 0 1-1.06 2.18l-10 15.22h10.2a1 1 0 0 1 .68.32 1 1 0 0 1 .33.69 1.08 1.08 0 0 1-.27.69.9.9 0 0 1-.74.26ZM1413.13 423.18a6.09 6.09 0 0 1-6.09 6.07h-2a6 6 0 0 1-4.2-1.76 5.71 5.71 0 0 1-1.87-4.31V407a5.92 5.92 0 0 1 1.76-4.24 5.75 5.75 0 0 1 4.31-1.82h2a5.91 5.91 0 0 1 4.29 1.77 5.79 5.79 0 0 1 1.8 4.29Zm-2 0V407a4.06 4.06 0 0 0-4.07-4h-2a4 4 0 0 0-4 4v16.18a3.85 3.85 0 0 0 1.22 2.85 3.91 3.91 0 0 0 2.82 1.2h2a4 4 0 0 0 2.86-1.15 3.87 3.87 0 0 0 1.15-2.9ZM1431.33 423.18a6.09 6.09 0 0 1-6.08 6.07h-2a6 6 0 0 1-4.19-1.76 5.67 5.67 0 0 1-1.87-4.31V407a5.88 5.88 0 0 1 1.76-4.24 5.73 5.73 0 0 1 4.3-1.82h2a5.88 5.88 0 0 1 4.28 1.77 5.79 5.79 0 0 1 1.8 4.29Zm-2 0V407a4.06 4.06 0 0 0-4.06-4h-2a4 4 0 0 0-4 4v16.18a4.13 4.13 0 0 0 4 4.05h2a4 4 0 0 0 2.85-1.15 3.83 3.83 0 0 0 1.19-2.9ZM1495.76 427.23a.9.9 0 0 1 1 1v2a1 1 0 0 1-.33.69 1 1 0 0 1-.68.32 1.08 1.08 0 0 1-.69-.26.91.91 0 0 1-.32-.75v-1h-12.14v1a1.11 1.11 0 0 1-1 1 1.12 1.12 0 0 1-.69-.26.91.91 0 0 1-.32-.75v-2a.89.89 0 0 1 1-1h1.07l2-25.36a.85.85 0 0 1 .27-.67l.26-.16.48-.1h8.11a.89.89 0 0 1 1 1v25.27Zm-11 0h8V403h-6.17ZM1192.21 413.09v-11.15a1 1 0 0 1 .31-.67.93.93 0 0 1 .7-.34 1.08 1.08 0 0 1 .69.26.92.92 0 0 1 .33.75v26.3a1 1 0 0 1-.29.77 1 1 0 0 1-.73.25 2.07 2.07 0 0 1-.7-.25.9.9 0 0 1-.31-.77v-13.13h-10.13v13.13a.92.92 0 0 1-1 1 2.1 2.1 0 0 1-.71-.25.92.92 0 0 1-.3-.77v-26.3a1.05 1.05 0 0 1 .3-.67 1 1 0 0 1 .71-.34 1.12 1.12 0 0 1 .69.26.94.94 0 0 1 .32.75v11.15ZM1200.28 413.09h6.09a6 6 0 0 1 4.32 1.76 5.55 5.55 0 0 1 1.34 1.94l.31 1.07.1.65v4.67a6.09 6.09 0 0 1-6.09 6.07h-7.08a.9.9 0 0 1-1-1V402a.89.89 0 0 1 1-1h11.13a.92.92 0 0 1 .68.32 1 1 0 0 1 .33.69 1 1 0 0 1-.27.68.88.88 0 0 1-.74.33h-10.12Zm0 14.14h6.07a4 4 0 0 0 2.85-1.15 3.84 3.84 0 0 0 1.22-2.9v-4a3.85 3.85 0 0 0-1.24-2.8 3.91 3.91 0 0 0-2.84-1.23h-6.06ZM1230.64 428.24a1 1 0 0 1-.28.77 1 1 0 0 1-.73.25 2.1 2.1 0 0 1-.71-.25.92.92 0 0 1-.3-.77V403h-10.13v25.28a1 1 0 0 1-.29.77 1 1 0 0 1-.73.25 2.07 2.07 0 0 1-.7-.25.9.9 0 0 1-.31-.77V402a.89.89 0 0 1 1-1h12.16a.89.89 0 0 1 1 1ZM1246.8 420.15h-12.13a1 1 0 0 1-.75-.28 1.11 1.11 0 0 1-.26-.73 1.26 1.26 0 0 1 .25-.62.84.84 0 0 1 .76-.39h12.13a1 1 0 0 1 .69.32 1 1 0 0 1 .32.69 1.12 1.12 0 0 1-.26.69.94.94 0 0 1-.75.32Z" transform="translate(-351.05 -379.84)"/><path style="stroke:#f96900;stroke-miterlimit:10;fill:none" d="M816 .56h369v71.88H816z"/></svg>