<svg xmlns="http://www.w3.org/2000/svg" xml:space="preserve" style="enable-background:new 0 0 120 120" viewBox="0 0 120 120">
  <path d="M34.9 34.5c16.4 0 29.6 11.9 29.6 26.5S51.2 87.5 34.9 87.5c-14.2 0-26-8.9-28.9-20.8-.3-2.2-.5-4.5-.5-6.8 0-.8 0-1.6.1-2.4 1.8-12.9 14.2-23 29.3-23m39.4 10h15.3l-16.3 33-.3.5v-.2c-6.8 9.4-19.9 15.7-32.6 15.7-12.8 0-22.4-4.6-29.4-11.8 7.9 14.6 23.5 24.5 41.5 24.5 22.8 0 41.9-16 46.1-37.2l-10.8-.1 10-21.1c-5.5-19.5-23.7-33.9-45.3-33.9-18.3 0-34.2 10.3-42 25.3 7.1-7.5 17.8-12.3 29.8-12.3 14.7 0 27.5 7.1 34 17.6zM55.6 4.8c24.7 0 45.7 16 52.9 38.2L120 69.2l-9.6-.1c-4.4 26.1-27.3 46.1-54.8 46.1C24.9 115.2 0 90.5 0 60 0 29.5 24.9 4.8 55.6 4.8z" style="fill-rule:evenodd;clip-rule:evenodd;fill:#004e97"/>
</svg>