<svg id="Слой_1" data-name="Слой 1" xmlns="http://www.w3.org/2000/svg" viewBox="0 0 382.26 271.01"><defs><style>.cls-1{fill:#dedede;}.cls-2{fill:#004e97;}.cls-3{fill:#fff;}.cls-4{fill:#cacaca;}.cls-5{fill:#919191;}.cls-6{fill:#f36900;fill-rule:evenodd;}.cls-7{fill:#e4e4e4;stroke:#0070af;}.cls-8{fill:none;stroke:#fff;stroke-miterlimit:22.93;stroke-width:2.25px;}</style></defs><path class="cls-1" d="M1212,654.6c0-.71-.1-1.42-.19-2.12-.06-1-.08-2-.08-2.93a5.06,5.06,0,0,0-3.11-4.33,4.78,4.78,0,0,0-2.57-.59c-1.43.06-2.87.12-4.31.2s-2.86.09-4.29.15l-1.13-.06a10.87,10.87,0,0,1-1.28-.12,1.19,1.19,0,0,1-1-1,20.46,20.46,0,0,1-.12-2.93c0-1.8,0-3.6-.06-5.39q.25-4,.13-8.09c.1-2.69.18-5.39.23-8.08,0-1.32,0-2.65,0-4a6,6,0,0,0-.22-1.09,1.3,1.3,0,0,0-.73-.84,7.62,7.62,0,0,0-1.93-.5,30.17,30.17,0,0,0-4.66-.13c-2.51-.08-5-.09-7.54,0a10.36,10.36,0,0,0-2.61.08,6.52,6.52,0,0,0-3.38,2.22c-.68.68-1.38,1.33-2.11,1.95q-3.55,3.18-7,6.43a12.76,12.76,0,0,0-2.43,3.21,2.82,2.82,0,0,0-.28,1c0,1.35,0,2.68,0,4-.07,2.61-.11,5.21-.11,7.82a40.23,40.23,0,0,1-.21,5.91l-.1.49a.71.71,0,0,1-.39.44,2.57,2.57,0,0,1-1,.32c-.78.09-9.42.33-10.75.28a1.93,1.93,0,0,1-.87-.24,1.39,1.39,0,0,1-.5-.6,8.42,8.42,0,0,1-.46-1.45c-.26-1.23-.58-2.44-.94-3.64a23,23,0,0,0-1.05-2.18c-.28-.7-.57-1.41-.84-2.12a45.77,45.77,0,0,0-5.58-8.69c-19.67-23.95-170.78,20.78-233.32,27.63-5.26-8.6.35-29.36.61-31.46-7.28.29,78.11-21.4,84.67-23.8,20.64-7.57,9.87-13,3.69-13.86-9.71-1.3-36.29-9.4-46.38-5.8-19.86,7.09-19.21,16-42.65,28.07-5.85-5.43-26.53-6.6-33.18-8-5.79,3.53-24,8.67-26.63,15.62a1.57,1.57,0,0,0-.09.43c0,1.16,0,2.32,0,3.48q0,14,0,28-.11,7-.09,14c-.06,1.84-.09,3.68-.09,5.53,0,2.11,0,4.21.07,6.32-.09,1.86-.1,3.72,0,5.59,0,3.08,0,6.17,0,9.25a46,46,0,0,1,0,4.84c0,1.6,0,3.21.05,4.81a25.64,25.64,0,0,0,0,3.82c-.16,5.83-.12,11.68.12,17.51q0,3.23-.09,6.47.08,7.27,0,14.55c0,2.51,0,5,0,7.54a30.58,30.58,0,0,0,0,4.59,12.26,12.26,0,0,0,.14,1.81,1.68,1.68,0,0,0,.5.81,7.5,7.5,0,0,0,2.45,1.55l25.37,7.39,26-8.68,1.91-1,.16-.08a4.21,4.21,0,0,0,1.32-1.61,12.84,12.84,0,0,0,1.33-6.41q-.1-8.45.2-16.88a14.16,14.16,0,0,1,.15-3.05.92.92,0,0,1,.7-.72l.25,0a19.48,19.48,0,0,1,4,.1,13.69,13.69,0,0,0,2.56.06,4.35,4.35,0,0,0,1.9-.77,52.15,52.15,0,0,0,4.4-3.41c3.07-2.6,3.65-3,6.84-5.45l12.32,1.24c3.42.17,23.29.27,25.34.33,2.7-.13,5.39-.15,8.09-.07q5.65.18,11.32.11,6.06,0,12.12.15a39.25,39.25,0,0,1,4.34.09h.44l30.55.3,14.53,0c1.71,0,3.41,0,5.12,0,2.43,0,4.85,0,7.28,0,1.33.07,2.67.11,4,.15l11,.34a16.69,16.69,0,0,1,2.22-.22q4.73,0,9.43,0a4.53,4.53,0,0,0,.74,0h4.25c-.43.73-.88,1.45-1.33,2.16a4.64,4.64,0,0,0-.89,2.69l0,4.54.85,4.65c.51.1,1,.23,1.51.37l.24.06a.78.78,0,0,1,.48.88l-.08.2a12.09,12.09,0,0,1-1.46,2.32,2.2,2.2,0,0,1-1.6.84,10.89,10.89,0,0,1-2.21-.11l.16,1.63.69.13a1.32,1.32,0,0,1,.8.56,1.4,1.4,0,0,1,.09.17l.06.24a23.76,23.76,0,0,1,.11,2.92c0,1.88,0,3.75,0,5.63a5.43,5.43,0,0,0,.25,1,7.47,7.47,0,0,0,.29.79,1.6,1.6,0,0,0,.79.79,8,8,0,0,0,1.41.47,9.77,9.77,0,0,0,1.85.3c.59.1,1.18.22,1.77.38a8.12,8.12,0,0,0,1.48.09c2.22.21,4.44.44,6.66.71q3.84.38,7.66.87a48.4,48.4,0,0,1,5.37.57q4.78.57,9.55,1.27c3.28.43,6.58.81,9.87,1.12a4.57,4.57,0,0,0,.74,0,3.05,3.05,0,0,0,1-.25l.12-.07.19-.15a8.71,8.71,0,0,0,.78-.83l1.08-1.07.24-.26.18-.15.07,0a.34.34,0,0,1,.37.08l.11.13a9.13,9.13,0,0,1,1,2l.62,1.53c.38,1,.76,1.94,1.13,2.92s1,2.22,1.53,3.31a4,4,0,0,0,.32.48.86.86,0,0,0,.75.31,2.53,2.53,0,0,0,1-.32c.77-.38,1.52-.79,2.27-1.21a3.93,3.93,0,0,1,.56-.24,1.74,1.74,0,0,1,1.45.24c.42.29.83.6,1.23.92a48.34,48.34,0,0,1,6.17,5.16q2.05,2.13,4,4.32a12,12,0,0,1,1.79,2,34.61,34.61,0,0,1,2.58,3.09c.51.65,1,1.28,1.6,1.89a31.1,31.1,0,0,0,2.4,2.72,3.72,3.72,0,0,0,1,.61,1,1,0,0,0,.33.09,1.27,1.27,0,0,0,.34,0,9.33,9.33,0,0,0,2.49-1.28,33.61,33.61,0,0,1,3.57-2.09c1.34-.79,2.64-1.65,3.89-2.56a2.62,2.62,0,0,0,.62-.71l9.44-10.31a.34.34,0,0,0,.28,0l.15-.1a1.47,1.47,0,0,0,.47-.55,14,14,0,0,0,1.12-2.9,19.28,19.28,0,0,0,.9-5.74c0-.39,0-.79,0-1.18q0-3.87.17-7.74c.05-1.64.07-3.28.07-4.93a27.83,27.83,0,0,1,.12-4.28,2.54,2.54,0,0,1,.19-.61,1.25,1.25,0,0,1,.51-.6,5.52,5.52,0,0,1,2.09-.64,17.8,17.8,0,0,0,4.72-1.45,6.92,6.92,0,0,0,1.34-1.07,9.6,9.6,0,0,0,2.56-3.07q1.56-3.17,3.13-6.3,1.07-2.14,2.26-4.22a10.85,10.85,0,0,0,1.21-4.16,32.2,32.2,0,0,0,.3-5c0-.66,0-1.32-.1-2a7,7,0,0,0-1.15-2.85,8.92,8.92,0,0,1-.47-.86,1.88,1.88,0,0,1-.09-1.1,20.36,20.36,0,0,1,1-3.05,11,11,0,0,0,.58-2.94,15.32,15.32,0,0,0-.27-6.25,14,14,0,0,0-.91-3.11,9,9,0,0,0-.5-.85,5.28,5.28,0,0,1-.27-.53,1.17,1.17,0,0,1-.07-.49v-.16a9.26,9.26,0,0,1,.57-1.63q.7-2,1.26-4.11c.09-.7.19-1.4.31-2.1a42.2,42.2,0,0,0-.2-6.65,6,6,0,0,0-1.27-3.79c-.13-.15-.26-.3-.37-.45a1.52,1.52,0,0,1-.28-1.24c.11-.37.23-.75.36-1.12l.24-.69c.53-1.3,1-2.62,1.44-3.95l.51-1.12a7.71,7.71,0,0,0,.28-1.35,24.59,24.59,0,0,0,.13-4.62c0-.55,0-1.1,0-1.65" transform="translate(-829.82 -517.17)"/><path class="cls-2" d="M844.94,668c0-1.85,0-3.69.09-5.53q0-7,.09-14,0-14,0-28c0-1.16,0-2.32,0-3.48a1.57,1.57,0,0,1,.09-.43,8.81,8.81,0,0,1,1.48-2.53c.68-.67,1.39-1.31,2.11-1.93.58-.41,1.17-.81,1.77-1.19a40.39,40.39,0,0,1,3.8-2.39l5.39-2.7a51.08,51.08,0,0,1,7.9-3.68,16,16,0,0,1,4.18-1.2,25.22,25.22,0,0,1,5.4-.71c.52,0,1,.05,1.56.05a17.34,17.34,0,0,1,1.91,0c1.54.15,3.08.31,4.61.5,5.25.67,10.5,1.43,15.72,2.27a6.8,6.8,0,0,1,1.1.27,6.3,6.3,0,0,1,2.76,2.32c.23.39.48.78.74,1.15l.13.15a.7.7,0,0,0,.54.15l.18-.06a4.69,4.69,0,0,0,.72-.33q2-1.25,3.84-2.63,3.72-2.64,7.47-5.2t7.27-5.14q3.06-2.19,6.16-4.34,2.41-1.78,5-3.38c.41-.22.81-.45,1.21-.69a40.7,40.7,0,0,1,3.4-2.24,26.5,26.5,0,0,1,2.6-1.18,5.9,5.9,0,0,1,1.58-.59,8.82,8.82,0,0,0,2-.44,18.42,18.42,0,0,1,4.49-.57,13.54,13.54,0,0,1,2.7-.06l10.59,1.52c1.91.22,3.81.49,5.71.79,1.31.22,2.62.44,3.93.64a49.12,49.12,0,0,1,5.12.81c3.13.45,6.25,1,9.33,1.71s6,1.28,9,2.09a4,4,0,0,1,1.21.4,13.8,13.8,0,0,0,1.83.85l.2.06a.65.65,0,0,0,.64-.45l.06-.25c0-.16,0-.32.08-.47a2.27,2.27,0,0,1,.26-.73.46.46,0,0,0,.06-.23,1.06,1.06,0,0,0,0-.31l-.09-.42a8.93,8.93,0,0,1,0-2.13c0-2.24,0-4.49,0-6.73a24,24,0,0,0-.06-2.4,1.26,1.26,0,0,0-.72-1,9.23,9.23,0,0,0-2-.68q-4.34-.78-8.67-1.59-5.42-.87-10.84-1.81-7.25-1.07-14.52-1.94-10.35-1.36-20.76-2.16-2.3-.29-4.59-.45l-2.88-.15a21.51,21.51,0,0,0-3.31-.25c-.72,0-1.44-.08-2.16-.17a46.27,46.27,0,0,1-5.39-.32l-15.9-.56c-2.51-.17-5-.26-7.54-.26-4.5-.14-9-.18-13.48-.15-1.34,0-2.68,0-4-.08a2.07,2.07,0,0,1-.65-.16,4,4,0,0,1-1.17-1,.72.72,0,0,1-.15-.8.54.54,0,0,1,.4-.36,12.38,12.38,0,0,1,3.44-.27c3.24,0,6.49,0,9.74.08q4.35,0,8.72.24l5.78.21c.55,0,1.1.07,1.64.13.9,0,1.79,0,2.68,0a24.54,24.54,0,0,0,2.7.21c3.05,0,6.11.17,9.16.36,2.25.14,4.5.31,6.74.53a27.62,27.62,0,0,1,3.52.23q3.9.24,7.8.63c2,.13,4.05.34,6.06.63a9.68,9.68,0,0,0,1.79.28,20,20,0,0,1,2.89.18q4.08.4,8.14,1,4.07.36,8.08,1,5.7.71,11.39,1.56c1.31.22,2.63.44,3.94.69,1.63.21,3.25.47,4.87.77s3,.47,4.5.64a33,33,0,0,0,3.57.4,3.09,3.09,0,0,0,.53,0,.84.84,0,0,0,.65-.44l.06-.22a4.24,4.24,0,0,0,.17-.61,21.31,21.31,0,0,0,.17-2.88,51.57,51.57,0,0,0,0-6.46l0-.26a.89.89,0,0,0-.5-.63l-.45-.12a9.14,9.14,0,0,0-1.64-.24c-.51,0-1,0-1.54-.1a2.21,2.21,0,0,1-1.62-1,1.24,1.24,0,0,1-.1-.2.52.52,0,0,1,0-.18,2.55,2.55,0,0,1,.1-.91,4.58,4.58,0,0,1,.37-.69q2.31-4.17,4.58-8.36,3-5.24,5.9-10.54a22.53,22.53,0,0,1,2.58-4.69,2.87,2.87,0,0,1,1.12-1,2.17,2.17,0,0,1,.35-.15.41.41,0,0,1,.29,0,1.17,1.17,0,0,1,.53.48,5.28,5.28,0,0,1,.27.53,17.9,17.9,0,0,0,1.25,2.52c1.83,3.81,3.71,7.6,5.61,11.37.89,1.88,1.83,3.72,2.83,5.54a28.87,28.87,0,0,1,2.44,5.62,2.7,2.7,0,0,1,.15,1.05.41.41,0,0,1-.08.19.92.92,0,0,1-.22.26l-.15.11a2.15,2.15,0,0,1-1,.35c-.82.1-1.64.17-2.47.23a17.7,17.7,0,0,0-1.78.1l-.3.07-.15.07a1.3,1.3,0,0,0-.54.86,9,9,0,0,0-.22,1.87,29.85,29.85,0,0,0-.14,3.54c0,1.42,0,2.84-.09,4.27a16.57,16.57,0,0,0,.17,3.22,1.19,1.19,0,0,0,.8.88c.35.1.71.2,1.07.28q6.12,1.68,12.34,3a32,32,0,0,0,3.61,1,48.6,48.6,0,0,1,5.46,1.28q6.75,1.76,13.4,3.84,5.79,1.65,11.46,3.63,5.35,1.74,10.64,3.64l8,3.07q5.64,2.19,11.09,4.79a26.28,26.28,0,0,1,2.57,1.22c1,.39,1.89.79,2.83,1.21a27.78,27.78,0,0,0,3,1.56c1.2.71,2.43,1.37,3.68,2,1.09.61,2.17,1.23,3.24,1.89,2,1.22,4,2.44,6.06,3.64l1.37,1a18.78,18.78,0,0,1,2.22,1.55L1126,616a48.2,48.2,0,0,1,3.91,3.37,72.28,72.28,0,0,1,8.5,8.73,45.77,45.77,0,0,1,5.58,8.69c.27.71.56,1.42.84,2.12a23,23,0,0,1,1.05,2.18c.36,1.2.68,2.41.94,3.64a8.42,8.42,0,0,0,.46,1.45,1.39,1.39,0,0,0,.5.6,1.93,1.93,0,0,0,.87.24c1.33,0,8.12-.16,8.4-.14a23,23,0,0,0,2.35-.14,2.57,2.57,0,0,0,1-.32.71.71,0,0,0,.39-.44l.1-.49a40.23,40.23,0,0,0,.21-5.91c0-2.61,0-5.21.11-7.82,0-1.34,0-2.67,0-4a2.82,2.82,0,0,1,.28-1,12.76,12.76,0,0,1,2.43-3.21q3.49-3.26,7-6.43c.73-.62,1.43-1.27,2.11-1.95a6.52,6.52,0,0,1,3.38-2.22,10.36,10.36,0,0,1,2.61-.08c2.51-.07,5-.06,7.54,0a30.17,30.17,0,0,1,4.66.13,7.62,7.62,0,0,1,1.93.5,1.3,1.3,0,0,1,.73.84,6,6,0,0,1,.22,1.09c0,1.32.07,2.65,0,4,0,2.69-.13,5.39-.23,8.08q.12,4.05-.13,8.09c.07,1.79.1,3.59.06,5.39a20.46,20.46,0,0,0,.12,2.93,1.19,1.19,0,0,0,1,1,10.87,10.87,0,0,0,1.28.12l1.13.06q2.14-.09,4.29-.15c1.44-.08,2.88-.14,4.31-.2a4.78,4.78,0,0,1,2.57.59,5.06,5.06,0,0,1,3.11,4.33c0,1,0,2,.08,2.93a23.7,23.7,0,0,1,.21,3.77,24.59,24.59,0,0,1-.13,4.62,7.71,7.71,0,0,1-.28,1.35l-.51,1.12c-.43,1.33-.91,2.65-1.44,3.95l-.24.69H888.89c0-.49.07-1,.12-1.48a3.38,3.38,0,0,1,1.43-2.35l4.33-2.66a19.82,19.82,0,0,0,2.43-1.63,8.19,8.19,0,0,0,1.59-1.93,10.81,10.81,0,0,0,1-4.65c.07-2.06.1-4.13.11-6.19q0-9.57,0-19.14,0-6.6-.05-13.2a6.49,6.49,0,0,0-.24-1.87,2.1,2.1,0,0,0-.13-.26.32.32,0,0,0-.1-.1.69.69,0,0,0-.45-.09l-.21.08a4.53,4.53,0,0,0-.57.23c-.64.36-1.29.7-2,1a49.36,49.36,0,0,1-5.18,2.37q-2.83,1.46-5.61,3a30.48,30.48,0,0,1-7,3,3.49,3.49,0,0,0-1,.4,1.1,1.1,0,0,0-.51.61,4.07,4.07,0,0,0-.27,1.08q-.24,3.22-.25,6.46c0,2.42,0,4.85,0,7.27q0,6.6-.07,13.21c-.19,2.87-.26,5.74-.19,8.62s0,5.49,0,8.23c0,2.2,0,4.39,0,6.59a46.2,46.2,0,0,0-.13,4.85q-.06,5.54-.13,11.05,0,3.53-.09,7,0,4.83-.12,9.66,0,5.8-.2,11.59c0,2.51,0,5,0,7.55,0,1.52,0,3,0,4.58-.13,1.43-.22,2.86-.27,4.3a41.37,41.37,0,0,1,.1,4.59q-.17,6.33-.1,12.67A41.14,41.14,0,0,0,875,757c0,2.23,0,4.47-.08,6.7a1.91,1.91,0,0,1-.23.78l-.08.19a.63.63,0,0,1-.31.22,1.59,1.59,0,0,1-1.44-.27.61.61,0,0,1-.19-.26,2,2,0,0,1-.08-.64c0-.78.09-1.55.15-2.33q.13-3.95.17-7.9c0-2.6,0-5.21.09-7.81q.18-6.87.24-13.74c0-.53.07-1.06.08-1.6,0-.72-.08-1.45-.08-2.18q.13-3.08.08-6.16a24.31,24.31,0,0,1,0-3.62,3.35,3.35,0,0,0,.06-1c-.08-.81-.11-1.63-.11-2.44q.13-2.41.15-4.83,0-7.41.15-14.83.15-11.85.33-23.71c0-1.21.05-2.42.07-3.63q.06-4.32.11-8.63.15-8.7.22-17.38c.06-3.24.11-6.47.16-9.71q.12-3.9,0-7.79a2.67,2.67,0,0,0-.19-.88,1.25,1.25,0,0,0-.51-.6,2.64,2.64,0,0,0-1.06-.3,25.88,25.88,0,0,1-3-.45c-2.14-.28-4.29-.58-6.42-.9s-4.14-.52-6.21-.75a9,9,0,0,1-1.71-.22,9.83,9.83,0,0,0-4.41-.33l-.24,0a.83.83,0,0,0-.32.2l-.11.18a2.13,2.13,0,0,0-.33,1q-.27,3.63-.19,7.26c0,2.07,0,4.13-.07,6.2,0,1.88,0,3.77,0,5.66s.1,4,0,5.93q0,6.06,0,12.12c.08,3.1.12,6.21.11,9.31,0,.85,0,1.7,0,2.55-.05,3.05-.08,6.11-.07,9.16,0,2.07-.06,4.14,0,6.2,0,1.8,0,3.6,0,5.39q-.1,13.35,0,26.68a83.25,83.25,0,0,1,0,8.36c.07,1.25.08,2.51,0,3.77,0,3.77,0,7.54,0,11.32q.11,7.65-.12,15.32a1.37,1.37,0,0,1-.09.4.88.88,0,0,1-.2.3.58.58,0,0,1-.32.16h-.16a1.07,1.07,0,0,1-.25,0l-.38-.12a7.5,7.5,0,0,1-2.45-1.55,1.68,1.68,0,0,1-.5-.81,12.26,12.26,0,0,1-.14-1.81,30.58,30.58,0,0,1,0-4.59c-.06-2.51-.07-5,0-7.54q.09-7.27,0-14.55.08-3.24.09-6.47c-.24-5.83-.28-11.68-.12-17.51a25.64,25.64,0,0,1,0-3.82c-.06-1.6-.07-3.21-.05-4.81a46,46,0,0,0,0-4.84c0-3.08,0-6.17,0-9.25-.06-1.87-.05-3.73,0-5.59-.06-2.11-.08-4.21-.07-6.32" transform="translate(-829.82 -517.17)"/><path class="cls-2" d="M1062.47,758.49l-.06.47c0,.43,0,.85,0,1.28a.71.71,0,0,0,.23.49.92.92,0,0,0,.7.17.42.42,0,0,0,.14-.06.49.49,0,0,0,.12-.13,1.62,1.62,0,0,0,.21-.51c.1-.57.21-1.14.31-1.71Z" transform="translate(-829.82 -517.17)"/><path class="cls-2" d="M1189.19,758.49c0,.42,0,.83,0,1.24q0,3.35.17,6.67c.06.37.14.73.23,1.09a.51.51,0,0,0,.19.28.34.34,0,0,0,.28,0l.15-.1a1.47,1.47,0,0,0,.47-.55,14,14,0,0,0,1.12-2.9,19.28,19.28,0,0,0,.9-5.74Z" transform="translate(-829.82 -517.17)"/><path class="cls-2" d="M995.9,694.83c11.51,0,23,.07,34.46.3,2.24,0,4.49,0,6.73,0,4,.06,7.91.09,11.86.11q6.33,0,12.67,0,7.7,0,15.4.08,3.35-.12,6.7-.1a5,5,0,0,0,2.12-.35,1.24,1.24,0,0,0,.72-1,9.76,9.76,0,0,0,.09-1.32c0-.71,0-1.41,0-2.12a2.25,2.25,0,0,1,0-.44,7.17,7.17,0,0,1,.46-1.35.86.86,0,0,0,.06-.23.2.2,0,0,0,0-.11.44.44,0,0,0-.25-.25l-.15,0a1.12,1.12,0,0,0-.32,0,16.88,16.88,0,0,1-2.66,0q-6.12-.12-12.26-.06c-2.52,0-5,0-7.57.08-2.87-.08-5.73-.12-8.6-.11a41.65,41.65,0,0,1-4.87,0c-1.31.06-2.63.08-3.94,0a7.61,7.61,0,0,0-1.35,0,11.52,11.52,0,0,1-1.66.06,17.85,17.85,0,0,0-3.35,0q-9.12,0-18.25,0-2.93,0-5.85,0a4.89,4.89,0,0,0-1.08,0l-.9.1-6.72,0c-3,0-5.93,0-8.89,0q-7.14,0-14.29.06c-2-.09-3.95-.09-5.93,0q-9.06,0-18.13.16c-2.49,0-5,0-7.46,0-5.3,0-10.6.1-15.9.24a11.67,11.67,0,0,0-2.93.49,7.81,7.81,0,0,0-2.95,1.1c-1,.64-1.94,1.29-2.92,1.92q-6,4.23-11.7,8.8c-.35.27-.7.55-1,.84a1.88,1.88,0,0,0-.62,1.23,11.68,11.68,0,0,0,.15,2.64l.06.24a.49.49,0,0,0,.6.35l.17-.07c.23-.12.45-.24.67-.38q4.54-3.26,9-6.65c.65-.43,1.31-.85,2-1.23a10.63,10.63,0,0,1,2.22-1.27c.65-.24,1.29-.51,1.91-.8a4.46,4.46,0,0,1,2-.68L935,695c.55-.08,1.11-.14,1.66-.2q4.83-.06,9.67,0t9.47.06q3.75-.08,7.5-.11,6.07,0,12.13,0,6.74,0,13.47.13,3.52-.2,7-.06m27.6,18.41c-.23-.44-.45-.88-.65-1.33a1.27,1.27,0,0,1-.08-.51.18.18,0,0,1,0-.1.16.16,0,0,1,0-.07.44.44,0,0,1,.15-.12,1.46,1.46,0,0,1,.68-.17l1.31-.05q3.27.15,6.56.09,8.17.21,16.34.22,3.36.21,6.74.14c3.05.07,6.11.11,9.16.12,1.52,0,3,0,4.56-.11a1.14,1.14,0,0,0,.93-.73,9,9,0,0,0,.27-1c.25-1.05.47-2.1.67-3.16a1.87,1.87,0,0,1,.39-.9l.16-.16a.23.23,0,0,1,.12-.06,1.3,1.3,0,0,1,.65,0,.57.57,0,0,1,.3.19,1.37,1.37,0,0,1,.13.2,1.75,1.75,0,0,1,.12.32,2.12,2.12,0,0,1,.07.67A7,7,0,0,1,1072,708a12.58,12.58,0,0,0-.36,2.11v.27a.87.87,0,0,0,.1.31.73.73,0,0,0,.2.26,1.42,1.42,0,0,0,.51.32,6.48,6.48,0,0,0,1.08.23,21.69,21.69,0,0,0,3.42,0,51.42,51.42,0,0,0,7.55-.1,4.09,4.09,0,0,0,1-.15,1.2,1.2,0,0,0,.73-.68,4.73,4.73,0,0,0,.2-1.06c0-.79.06-1.58.14-2.37a2.6,2.6,0,0,1,.27-1.06c.2-.34.38-.7.55-1.06l.07-.18a.53.53,0,0,0-.25-.57l-.18-.08a2.47,2.47,0,0,0-.66-.17c-1.61-.13-3.22-.22-4.83-.28l-16-.15q-4.14-.09-8.27-.11-4.32,0-8.63-.22-5.13.12-10.24-.09-6.06,0-12.12-.08c-1.8-.11-3.6-.15-5.4-.13q-3.07,0-6.16-.09l-.23,0-.17-.07a4,4,0,0,1-1.47-1.68l-.07-.18a.54.54,0,0,1,.07-.35.58.58,0,0,1,.28-.21l.48-.1a7,7,0,0,1,1.11-.12c1.36,0,2.73,0,4.08,0s2.83,0,4.24.13q9.17,0,18.33.31c1.43-.08,2.87-.11,4.31-.06q3.22,0,6.47,0,6.74.16,13.47.13c2.78.06,5.57.09,8.35.09,3,.05,5.93.05,8.9,0a8.51,8.51,0,0,0,2.66-.21l.24-.06a.73.73,0,0,0,.3-.22,1,1,0,0,0-.52-1.62l-.53-.06c-.62,0-1.24-.05-1.86,0-3.41-.22-6.81-.31-10.23-.27l-6.23,0c-2.25-.09-4.49-.09-6.74,0-1.3,0-2.6-.05-3.91-.05l-11.45,0q-3.5-.07-7-.09c-2.42,0-4.85,0-7.27-.11-13.35,0-26.82.27-40.16-.27q-3.09.07-6.2.06-5.52-.1-11-.1c-3.15-.06-6.29-.06-9.44,0l-9.16,0a22.61,22.61,0,0,1-2.73,0q-3.39-.08-6.78,0c-1.4,0-2.8,0-4.2,0a16.33,16.33,0,0,1-2.32,0,17.93,17.93,0,0,0-3.1-.19,8.44,8.44,0,0,0-3.26.58,15.67,15.67,0,0,0-2.26,1.52,7.36,7.36,0,0,1-1.19,1q-.67.39-1.32.84-2.82,2.31-5.68,4.56a26.61,26.61,0,0,0-3,2.35c-1,.83-2.06,1.7-3.05,2.6a3.54,3.54,0,0,0-.35.42.69.69,0,0,0-.1.25v.11a.16.16,0,0,0,.11.13.39.39,0,0,0,.15,0,1.2,1.2,0,0,0,.27-.08c.23-.11.45-.23.67-.36.68-.39,1.33-.82,2-1.27l1.65-1.32a13.25,13.25,0,0,0,1.72-1.25c2-1.56,4-3.13,6-4.73l1.47-1a10.51,10.51,0,0,1,1.78-1.17,6.1,6.1,0,0,1,2.32-.86,12,12,0,0,0,1.7-.26,8.79,8.79,0,0,1,1.53-.29c1.69,0,3.39,0,5.08,0,3.15.12,6.29.2,9.44.22q2.65.12,5.31.09a25.71,25.71,0,0,1,3,.06q6.33-.13,12.67.1,4.22,0,8.43.11a20.83,20.83,0,0,0,2.09,0q4.3,0,8.61.1c3.14.1,6.29.13,9.43.1a14.88,14.88,0,0,1,3.46.27l.21.08a.51.51,0,0,1,.16.09,3.06,3.06,0,0,1,.36.36l-.34,1.46a2.74,2.74,0,0,1-1.29.48,14.1,14.1,0,0,1-2.83-.07c-3.59-.13-7.19-.17-10.78-.13-2.06-.06-4.13-.07-6.19,0-1.62-.11-3.24-.16-4.86-.16-2.33,0-4.67,0-7,0-3.41-.12-6.83-.12-10.24,0a53.84,53.84,0,0,0-5.39,0c-1.8,0-3.6,0-5.39-.11-.73,0-1.45,0-2.17-.08s-1.61.08-2.41.07a50,50,0,0,0-6.24,0,23.58,23.58,0,0,0-2.91.09,13.19,13.19,0,0,1-1.38.22,9.39,9.39,0,0,0-2.52.5,35.54,35.54,0,0,0-4.26,2.48q-4.11,3.3-8.31,6.52c-.48.36-1,.72-1.43,1.09H888.33c0-.23.1-.46.14-.69a14.24,14.24,0,0,0-.09-3.39,8.83,8.83,0,0,1-.24-1.44c0-1.35,0-2.69.05-4a37.67,37.67,0,0,1,.28-4.87c.07-1.31.11-2.63.13-3.94,0-.84-.09-1.67-.16-2.51q.12-3.68.19-7.36c.23-2.12.34-4.25.36-6.38q-.27-3.9-.16-7.82,0-1.41.06-2.82h320.54c-.13.37-.25.75-.36,1.12a1.52,1.52,0,0,0,.28,1.24c.11.15.24.3.37.45a6,6,0,0,1,1.27,3.79,42.2,42.2,0,0,1,.2,6.65c-.12.7-.22,1.4-.31,2.1q-.56,2.07-1.26,4.11a9.26,9.26,0,0,0-.57,1.63v.16a1.17,1.17,0,0,0,.07.49,5.28,5.28,0,0,0,.27.53,9,9,0,0,1,.5.85,14,14,0,0,1,.91,3.11,15.32,15.32,0,0,1,.27,6.25,11,11,0,0,1-.58,2.94,20.36,20.36,0,0,0-1,3.05,1.88,1.88,0,0,0,.09,1.1,8.92,8.92,0,0,0,.47.86,7,7,0,0,1,1.15,2.85c.06.66.09,1.32.1,2Z" transform="translate(-829.82 -517.17)"/><path class="cls-2" d="M1001.43,713.24l0,0a2.57,2.57,0,0,0,.45-1.69.77.77,0,0,0-.14-.4.58.58,0,0,0-.31-.2l-.24,0a37,37,0,0,0-4.82-.22c-3.86,0-7.73-.11-11.59-.33s-7.9-.16-11.85-.21l-20.49-.29q-6.6-.3-13.2-.38a21.18,21.18,0,0,0-4.06,0,29.94,29.94,0,0,0-4.53.64,5.32,5.32,0,0,0-1.63.78,11.86,11.86,0,0,1-1.41.75,12.1,12.1,0,0,0-2,1.48l-.19.15h5.71l.24-.09a18.39,18.39,0,0,1,4.91-.4q2.16,0,4.32.21,6.6,0,13.2.22c.22,0,.45,0,.67.06h9.84c1.87-.08,3.75-.07,5.62,0h1.92q2.88-.06,5.76,0Z" transform="translate(-829.82 -517.17)"/><path class="cls-2" d="M888.33,713.24a1.17,1.17,0,0,1-.05.2c-.09.78-.15,1.55-.17,2.33-.1,2.43-.14,4.87-.13,7.3,0,.18,0,.35,0,.52a1.89,1.89,0,0,0,1.7,1.69l3.33.21c1.66.12,3.31.25,5,.39a2.4,2.4,0,0,1,1,.33,1.15,1.15,0,0,1,.44.68,32.4,32.4,0,0,1,.28,4.82c.11,2.91.07,5.84-.11,8.75-.08,4.17-.08,8.33,0,12.5a12.32,12.32,0,0,0,.17,1.36l.09.49a.54.54,0,0,0,.36.37l.17.05a1.67,1.67,0,0,0,.31,0,2,2,0,0,0,.49,0l.24-.05.16-.08a4.21,4.21,0,0,0,1.32-1.61,12.84,12.84,0,0,0,1.33-6.41q-.1-8.45.2-16.88a14.16,14.16,0,0,1,.15-3.05.92.92,0,0,1,.7-.72l.25,0a19.48,19.48,0,0,1,4,.1,13.69,13.69,0,0,0,2.56.06,4.35,4.35,0,0,0,1.9-.77,52.15,52.15,0,0,0,4.4-3.41q4.6-3.9,9.4-7.59a10.08,10.08,0,0,1,1.32-.83,6.08,6.08,0,0,1,.81-.3l1.14-.41h-5.71q-2.84,2.24-5.63,4.54-2,1.54-4,3a2.31,2.31,0,0,1-.35.18l-.18.08a.58.58,0,0,1-.63-.39l0-.25a9.28,9.28,0,0,1,0-3.24,1.47,1.47,0,0,1,.51-.88l1-.87c.86-.74,1.73-1.45,2.62-2.14Z" transform="translate(-829.82 -517.17)"/><path class="cls-2" d="M951.4,716.73q-5.11-.18-10.23-.13c-1.88.06-3.76.14-5.64.25a8.43,8.43,0,0,0-1.31.26,1.05,1.05,0,0,0-.3.15.31.31,0,0,0-.07.09.3.3,0,0,0,0,.1.26.26,0,0,0,0,.17.27.27,0,0,0,.11.1l.11,0a12.77,12.77,0,0,0,3.59.4c3.42.17,6.83.26,10.25.26,5.26.17,10.12-.08,15.09.07,2.7-.13,5.39-.15,8.09-.07q5.65.18,11.32.11,6.06,0,12.12.15a39.25,39.25,0,0,1,4.34.09h.44a1,1,0,0,0,.39-.1l.29-.12.07,0a.58.58,0,0,0,.2-.31,1.05,1.05,0,0,0,0-.68.63.63,0,0,0-.42-.33l-.19,0-.51,0q-8.75,0-17.5-.11h-9.16c-2.7-.09-5.39-.14-8.09-.14-13.55.11-1.07,0-12.93-.12" transform="translate(-829.82 -517.17)"/><path class="cls-2" d="M977.63,713.24l1.79,0a46.73,46.73,0,0,1,5.16.1c2.16,0,4.31,0,6.47,0,1.43,0,2.85,0,4.27.08,1.62,0,3.24,0,4.85.13h.53l.27,0a.77.77,0,0,0,.28-.12.69.69,0,0,0,.18-.16Z" transform="translate(-829.82 -517.17)"/><path class="cls-2" d="M1211.33,713.24a32.2,32.2,0,0,1-.3,5,10.85,10.85,0,0,1-1.21,4.16q-1.2,2.07-2.26,4.22-1.57,3.14-3.13,6.3a9.6,9.6,0,0,1-2.56,3.07,6.92,6.92,0,0,1-1.34,1.07,17.8,17.8,0,0,1-4.72,1.45,5.52,5.52,0,0,0-2.09.64,1.25,1.25,0,0,0-.51.6,2.54,2.54,0,0,0-.19.61,27.83,27.83,0,0,0-.12,4.28c0,1.65,0,3.29-.07,4.93q-.16,3.87-.17,7.74c0,.39,0,.79,0,1.18h-3.5q0-5,0-10.08a63.81,63.81,0,0,0-.19-8.06l0-.27a1,1,0,0,0-.69-.71l-.51-.07a22.9,22.9,0,0,0-4-.08c-.83,0-1.65.09-2.47.19a1.09,1.09,0,0,0-.8.56,1.8,1.8,0,0,0-.18.65c-.09,1.43-.19,2.86-.28,4.29q-.09,6.8-.09,13.58c0,2.48,0,5,0,7.44,0,.89,0,1.78-.07,2.67a18.2,18.2,0,0,1-.13,4,1.55,1.55,0,0,1-.34.76c-.15.19-.31.39-.48.58l-.11.15a.59.59,0,0,0,0,.37l.06.18a4.39,4.39,0,0,0,.49.84,9.83,9.83,0,0,1,1,1.38.44.44,0,0,1,.07.19,1.88,1.88,0,0,1,0,.41v.21a1,1,0,0,1-.13.37,2.62,2.62,0,0,1-.62.71c-1.25.91-2.55,1.77-3.89,2.56a33.61,33.61,0,0,0-3.57,2.09,9.33,9.33,0,0,1-2.49,1.28,1.27,1.27,0,0,1-.34,0,1,1,0,0,1-.33-.09,3.72,3.72,0,0,1-1-.61,31.1,31.1,0,0,1-2.4-2.72c-.56-.61-1.09-1.24-1.6-1.89a34.61,34.61,0,0,0-2.58-3.09,12,12,0,0,0-1.79-2q-2-2.19-4-4.32a48.34,48.34,0,0,0-6.17-5.16c-.4-.32-.81-.63-1.23-.92a1.74,1.74,0,0,0-1.45-.24,3.93,3.93,0,0,0-.56.24c-.75.42-1.5.83-2.27,1.21a2.53,2.53,0,0,1-1,.32.86.86,0,0,1-.75-.31,4,4,0,0,1-.32-.48c-.54-1.09-1-2.2-1.53-3.31s-.75-1.95-1.13-2.92l-.62-1.53a9.13,9.13,0,0,0-1-2l-.11-.13a.34.34,0,0,0-.37-.08l-.07,0-.18.15-.24.26-1.08,1.07a8.71,8.71,0,0,1-.78.83l-.19.15-.12.07a3.05,3.05,0,0,1-1,.25,4.57,4.57,0,0,1-.74,0c-3.29-.31-6.59-.69-9.87-1.12s-6.36-.89-9.55-1.27a48.4,48.4,0,0,0-5.37-.57q-3.83-.5-7.66-.87c-2.22-.27-4.44-.5-6.66-.71a8.12,8.12,0,0,1-1.48-.09c-.59-.16-1.18-.28-1.77-.38a9.77,9.77,0,0,1-1.85-.3,8,8,0,0,1-1.41-.47,1.6,1.6,0,0,1-.79-.79,7.47,7.47,0,0,1-.29-.79,5.43,5.43,0,0,1-.25-1c0-1.88-.06-3.75,0-5.63a23.76,23.76,0,0,0-.11-2.92l-.06-.24a1.4,1.4,0,0,0-.09-.17,1.32,1.32,0,0,0-.8-.56l-.69-.13c-1.57-.19-3.13-.42-4.68-.7-1.07-.07-2.14-.19-3.2-.35a49.09,49.09,0,0,0-5.81-.6,5,5,0,0,0-2,.09.66.66,0,0,0-.27.12.37.37,0,0,0-.12.2.61.61,0,0,0,0,.14,2,2,0,0,0,0,.23,3.92,3.92,0,0,0,.15.59c.53,1.33,1.11,2.64,1.73,3.93s1.16,2.6,1.77,3.9a2.17,2.17,0,0,1,.31,1,1,1,0,0,1-.3.79,1.27,1.27,0,0,1-.33.24,1.19,1.19,0,0,1-.36.09,9,9,0,0,1-1.27,0,15.51,15.51,0,0,0-3-.11,1.85,1.85,0,0,0-.61.17.85.85,0,0,0-.25.17.69.69,0,0,0-.18.24,3,3,0,0,0-.24.59q-.33,1.47-.54,3a12.18,12.18,0,0,1-.33,2.08c-.16,1-.33,2.1-.51,3.14h-1.64q.46-3.59.8-7.19a7,7,0,0,0,.07-1.77,1.26,1.26,0,0,0-.69-.95q-.29-.14-.57-.24a23.07,23.07,0,0,0-3.39-.66,1.62,1.62,0,0,1-.73-.27.55.55,0,0,1-.18-.26,1.41,1.41,0,0,1,.16-1c.76-1.1,1.58-2.16,2.45-3.19s1.63-2.15,2.41-3.25a8.63,8.63,0,0,0,.89-1.52.84.84,0,0,0,.08-.31.46.46,0,0,0-.16-.41,1.45,1.45,0,0,0-.43-.26l-.45-.1q-3.43-.55-6.9-.9a9,9,0,0,1-1.85-.41l-.11,0a.27.27,0,0,1-.07-.08.57.57,0,0,1,0-.14,1.34,1.34,0,0,1,0-.2v-.09a.22.22,0,0,1,.06-.07.3.3,0,0,1,.15-.07,2.81,2.81,0,0,1,.65-.07c1.61,0,3.22.13,4.82.3,2.16.2,4.31.37,6.47.52,2.38.28,4.77.6,7.14,1q3.32.27,6.61.7a13.87,13.87,0,0,1,1.92.19c.76.08,1.53.14,2.31.17a10.89,10.89,0,0,0,2.21.11,2.2,2.2,0,0,0,1.6-.84,12.09,12.09,0,0,0,1.46-2.32l.08-.2a.78.78,0,0,0-.48-.88l-.24-.06c-.5-.14-1-.27-1.51-.37q-5.68-.75-11.39-1.32c-2.66-.31-5.34-.51-8-.59q-3.56-.45-7.11-1c-1.52-.13-3-.32-4.53-.55l-.33-.09-.1,0a.46.46,0,0,1-.17-.47.45.45,0,0,1,.36-.34l.5-.06a14.48,14.48,0,0,1,2.87.07,24.42,24.42,0,0,0,4.91.22l.26,0a.53.53,0,0,0,.35-.25.83.83,0,0,0,.11-.46l-.06-.23a2.77,2.77,0,0,0-.12-.41,38.27,38.27,0,0,0-1.5-3.62,22.71,22.71,0,0,0-1-2.52,2,2,0,0,1-.14-1.38l0-.16a1.65,1.65,0,0,0,.06-.32.43.43,0,0,0,0-.11.49.49,0,0,0-.22-.23l-.19-.08a3.35,3.35,0,0,0-.83-.14c-1.33,0-2.67-.08-4-.15-2.43,0-4.85,0-7.28,0-1.71,0-3.41,0-5.12,0l-14.53,0a2.67,2.67,0,0,1-1.27-.27.92.92,0,0,1-.29-.23,1.63,1.63,0,0,1-.32-.66.61.61,0,0,1,.57-.75h1c3,.2,5.92.27,8.89.23s6.11,0,9.17.15q7.8,0,15.61,0l3.78-.13a2,2,0,0,0,.86-.26,1.12,1.12,0,0,0,.21-.17,1.27,1.27,0,0,0,.18-.27,3,3,0,0,0,.27-1.1c0-.11,0-.22,0-.33a1.06,1.06,0,0,0,0-.19.69.69,0,0,0-.21-.37l-.17-.09a1.79,1.79,0,0,0-.6-.17c-1.32-.13-2.64-.19-4-.19-2.08,0-4.15,0-6.23,0-1.8-.1-3.6-.14-5.39-.12l-14.82-.15-2.16-.14c-3.13,0-6.27,0-9.4.08a3.15,3.15,0,0,1-.92,0l-.63-.18a1.3,1.3,0,0,1-.26-.14.72.72,0,0,1-.18-.21.56.56,0,0,0,0-.08ZM850.24,757.56V620.46" transform="translate(-829.82 -517.17)"/><path class="cls-3" d="M1008.15,542.84q-1.87,3.64-3.72,7.32c-.69,1.3-1.35,2.62-2,3.94a9.1,9.1,0,0,0-.4.9l-.06.19a.7.7,0,0,0,.22.54l.18.1a3.51,3.51,0,0,0,1.3.36,8.58,8.58,0,0,1,1.13.18l.28.08.12,0a1.07,1.07,0,0,1,.66.89,9.6,9.6,0,0,1,.15,2.93q-.19,6.69-.19,13.38c-.18,3.74-.27,7.47-.27,11.21,0,1.14,0,2.28,0,3.43,0,.54.05,1.08.08,1.62,0,2.42,0,4.85-.19,7.27q0,3.36-.18,6.74c0,1.07,0,2.15-.12,3.23,0,.72,0,1.44,0,2.16q-.14,3.48-.11,7c-.08,1.45-.16,2.89-.25,4.34,0,.8.1,1.61.17,2.42a12.33,12.33,0,0,0,.13,2.19l.09.47a1.3,1.3,0,0,0,1,1,20.65,20.65,0,0,0,4,.21c.79,0,1.57,0,2.35,0a4,4,0,0,0,.83-.18,1.2,1.2,0,0,0,.69-.72c.07-.22.12-.44.17-.66a29.94,29.94,0,0,0,.41-4.13c.08-3.32.13-6.65.16-10,0-.7.07-1.41,0-2.12a6.17,6.17,0,0,1-.06-1c.06-.56.12-1.12.17-1.68,0-2.16.07-4.31.18-6.47q.1-5.25.13-10.51c0-1.53,0-3,.09-4.58a70.26,70.26,0,0,1,.1-7.54q.18-8.09.33-16.17c0-.89,0-1.77,0-2.66a2.39,2.39,0,0,1,.84-1.77,2.19,2.19,0,0,1,.73-.33,7.87,7.87,0,0,1,1.68-.19,6,6,0,0,0,1.4-.22l.2-.07a.71.71,0,0,0,.29-.28.83.83,0,0,0,0-.15.6.6,0,0,0,0-.23,10.27,10.27,0,0,0-.8-2.34q-1.77-4.46-3.95-8.72-1.11-2.16-2.1-4.37c-.41-.76-.83-1.5-1.28-2.24a3.75,3.75,0,0,0-.37-.44,1.45,1.45,0,0,0-.18-.17.6.6,0,0,0-.11-.06.32.32,0,0,0-.27,0l-.16.11a3.46,3.46,0,0,0-.75.87c-1,1.61-2,3.27-2.84,5" transform="translate(-829.82 -517.17)"/><path class="cls-2" d="M889.06,576.42c1.83.09,3.65.16,5.47.2q3.71.23,7.41.37l5.78.43a10.82,10.82,0,0,1,2.16.53,2.36,2.36,0,0,1,1,.7l.22.33a3.74,3.74,0,0,1,.14,2.95,8.2,8.2,0,0,1-1.81,3.06c-1.67,2-3.4,4-5.17,5.88-1.5,1.73-3.06,3.41-4.68,5a8.71,8.71,0,0,0-1,1.39,1.53,1.53,0,0,0-.21.55,2.46,2.46,0,0,0,0,.26,1,1,0,0,0,0,.17.79.79,0,0,0,1.34.42c.38-.42.75-.86,1.11-1.31q1.85-2.05,3.67-4.14,1.76-1.89,3.46-3.82c1.69-1.81,3.32-3.69,4.88-5.62a5.72,5.72,0,0,0,.92-4,5.11,5.11,0,0,0-1.41-2.57,3.7,3.7,0,0,0-1.43-.71,32.9,32.9,0,0,0-8.21-.88c-1.16-.1-2.32-.14-3.49-.13q-3.36-.25-6.73-.36a20.6,20.6,0,0,1-2.72,0c-.42,0-.85,0-1.27,0a4.32,4.32,0,0,0-.71.17.36.36,0,0,0-.23.25.6.6,0,0,0,.09.49.69.69,0,0,0,.3.2l.24,0c.32.06.64.1,1,.13" transform="translate(-829.82 -517.17)"/><path class="cls-3" d="M1018.08,584.29c-.1,2.62-.13,5.24-.11,7.86,0,2.14-.06,4.29-.2,6.43s0,4.29-.12,6.44a6.8,6.8,0,0,0,.15,1.09.75.75,0,0,0,.38.49l.19,0a2,2,0,0,0,.81,0c1.43-.23,2.84-.51,4.25-.84,2.77-.64,5.52-1.29,8.29-2a19.13,19.13,0,0,1,4-.79,15.13,15.13,0,0,1,3.49-.26,23.53,23.53,0,0,1,6.38.33,10.14,10.14,0,0,1,1.78.62c.54.19,1.09.36,1.65.52a16.09,16.09,0,0,1,1.86.81l2.56.95a26.19,26.19,0,0,0,3.41,1.44q2.55,1.25,5.12,2.43,3.69,2,7.42,3.89a55.3,55.3,0,0,1,5.82,3.61,45.28,45.28,0,0,1,5,3.41,21.49,21.49,0,0,1,3,2.63,22,22,0,0,1,2.61,2.5,6.55,6.55,0,0,0,1,1.13,10.39,10.39,0,0,1,1.5,2,8.31,8.31,0,0,1,.61,2.35,6.65,6.65,0,0,1,.12,1.33,4,4,0,0,1-.38,1.41c-.15.39-.3.78-.43,1.18a5.29,5.29,0,0,1-2.71,2.66,12,12,0,0,1-5.09,1.32c-.48,0-1,.11-1.43.18s-1.26,0-1.89,0q-2.91.06-5.82-.06-5.53.28-11.07.36c-3.5,0-7,.08-10.51.16-2.34,0-4.67.1-7,.19-2.15,0-4.31.08-6.46.19-3.24.06-6.47.15-9.71.26-3.5,0-7,.1-10.51.28q-7.85-.07-15.71.23c-3.1.08-6.21.18-9.31.28a25.74,25.74,0,0,0-4.39,0l-1,0-1.62.08-6.71.14c-1.8.13-3.61.18-5.41.15l-4.3.17c-1.75.12-3.51.22-5.27.3s-3.32.13-5,.17-3,0-4.57.07c-2.33.11-4.66.19-7,.22a23.19,23.19,0,0,1-4.33.2q-3,0-5.93.19c-1.51,0-3,0-4.54,0a3,3,0,0,1-1-.24,1.09,1.09,0,0,1-.52-.52,1,1,0,0,1,0-.72,2.42,2.42,0,0,1,.1-.36.7.7,0,0,0,0-.25.35.35,0,0,0-.06-.17l-.17-.17-.33-.31a.85.85,0,0,1-.24-1,.57.57,0,0,1,.08-.13,1.29,1.29,0,0,1,.17-.16,4.7,4.7,0,0,1,1.53-.6q10.21-2.49,20.44-4.88c3.54-.8,7.07-1.58,10.62-2.33,2.41-.6,4.84-1.14,7.27-1.61,1.1-.29,2.21-.53,3.33-.71,3.16-.72,6.31-1.43,9.47-2.13q3-.71,6-1.27c2.41-.56,4.83-1.11,7.24-1.65a57.39,57.39,0,0,0,5.75-1.55,2.41,2.41,0,0,0,.7-.39,1.26,1.26,0,0,0,.43-.69,9.57,9.57,0,0,0,.26-3c0-.9,0-1.79,0-2.69,0-.17,0-.34-.05-.52l0-.25a.78.78,0,0,0-.74-.57,3.18,3.18,0,0,0-1,.07,46.52,46.52,0,0,0-5.95,1.34L984,618.07c-2.45.59-4.9,1.21-7.34,1.84q-9,2.13-17.86,4.5-4.32,1.11-8.67,2.12-4.86,1.26-9.76,2.36c-1.5.38-3,.77-4.48,1.17l-3.6,1q-2.67.65-5.28,1.44a5.08,5.08,0,0,1-1,.15,3.38,3.38,0,0,1-.78,0,.86.86,0,0,1-.38-.16.67.67,0,0,1-.24-.5.68.68,0,0,1,.2-.52,1.89,1.89,0,0,1,.62-.42,20.08,20.08,0,0,1,5.7-1.82c2.91-.65,5.79-1.35,8.67-2.11q8.73-2.1,17.39-4.46,3.15-.72,6.25-1.57,8.28-2.07,16.55-4.18c2.94-.79,5.88-1.54,8.84-2.24q5.77-1.39,11.51-3c.27-.09.53-.19.79-.3a1.87,1.87,0,0,0,.49-.34.86.86,0,0,0,.13-.14,1.86,1.86,0,0,0,.1-.2,6,6,0,0,0,.27-1.57,96.91,96.91,0,0,0,.1-10.78c0-.16,0-.33-.07-.5a1,1,0,0,0-.22-.53.53.53,0,0,0-.52-.16c-.45.13-.9.27-1.35.43q-4,1.35-8.09,2.42-3.36,1-6.74,1.87a23.3,23.3,0,0,0-3,.82c-3,.8-6.07,1.64-9.09,2.49q-4.62,1.51-9.28,2.86-3.53,1.11-7.08,2.08-4.22,1.29-8.41,2.64c-2.05.5-4.08,1.07-6.09,1.73a16.59,16.59,0,0,1-2,.42,10.23,10.23,0,0,0-1.61.56c-.76.24-1.52.47-2.28.68a22.59,22.59,0,0,1-2.8.73q-2.6.79-5.19,1.54-3.16,1.11-6.42,1.92a8,8,0,0,1-1.39.21,2.48,2.48,0,0,0-.66.18,8.4,8.4,0,0,1-2.08.6,31,31,0,0,1-4.27.84,8.11,8.11,0,0,0-1.25.37,9.81,9.81,0,0,1-1.44.22c-1.32.15-2.63.36-3.92.62l-.62.19a1.46,1.46,0,0,0-.5.35s-.08.1-.12.15a1.86,1.86,0,0,0-.1.2,6,6,0,0,0-.26,2.1q-.16,8.22-.13,16.44c0,1.71,0,3.42-.1,5.12a48.36,48.36,0,0,1-.12,7.8,4,4,0,0,1-1.31,2.69,24.09,24.09,0,0,0-1.85,1.93,4.77,4.77,0,0,1-.9.71c-1.14.83-2.3,1.65-3.47,2.45a2.87,2.87,0,0,0-.55.55l-.1.15a.52.52,0,0,0,0,.54.81.81,0,0,0,.31.21l.23.07a28.49,28.49,0,0,0,4,.58c3.21.15,6.42.36,9.62.65a6.91,6.91,0,0,0,1.76-.05,7.51,7.51,0,0,0,1.69-.75q3.25-2.1,6.42-4.36c.84-.49,1.66-1,2.45-1.59a10.88,10.88,0,0,1,1.08-.54c.62-.36,1.23-.73,1.84-1.12.93-.49,1.85-1,2.77-1.54a7,7,0,0,1,2.3-.64,20.75,20.75,0,0,1,3.22-.51q3.51-.09,7,0,7.08,0,14.15-.16a21,21,0,0,1,2.86,0l1.55,0q3.39.14,6.78,0l15.63-.09a36.89,36.89,0,0,1,5.66-.07c2.24-.11,4.49-.12,6.73,0,2.34-.13,4.67-.19,7-.16q6.33-.24,12.67-.13l11.85-.12c3.24,0,6.47-.09,9.71-.19,2.15,0,4.31,0,6.46-.09q6.48.07,12.94-.17c2.33-.06,4.67-.07,7-.06,1.53-.08,3.07-.12,4.61-.13s3,0,4.55-.08c3,0,5.93,0,8.89-.17l7-.16c1.26-.05,2.52-.11,3.77-.19a13.76,13.76,0,0,1,3.71.76,7,7,0,0,1,3.15,2.22,6.54,6.54,0,0,1,1,4,8.91,8.91,0,0,1-.31,1.52,23.91,23.91,0,0,1-4,7.62c-.48.68-1,1.38-1.42,2.08a3.26,3.26,0,0,0-.26.53l-.07.18a.67.67,0,0,0,0,.42.23.23,0,0,0,.07.1,1.28,1.28,0,0,0,.21.14,2,2,0,0,0,.85.25c2.54.34,5.1.57,7.66.69,1.92.18,3.86.31,5.79.41q12,.78,24,1.6a9.55,9.55,0,0,0,1.85,0,3.56,3.56,0,0,0,1.44-.72,24.37,24.37,0,0,0,4.5-5.22c.8-1.29,1.55-2.6,2.27-3.94a32.07,32.07,0,0,0,1.83-4.65,26.77,26.77,0,0,0,1-10.93,30.42,30.42,0,0,0-1.29-7.92c-.15-.38-.31-.75-.48-1.13s-.31-1-.45-1.44a34.37,34.37,0,0,0-3.25-6.18,44.72,44.72,0,0,0-4.49-5.76,78.73,78.73,0,0,0-7.54-7.3,113,113,0,0,0-14.09-9.91q-2.67-1.64-5.33-3.28c-.68-.31-1.35-.63-2-1a36.05,36.05,0,0,0-3.91-2,27.06,27.06,0,0,0-4.37-2.11,39.41,39.41,0,0,0-4.31-1.9,10.26,10.26,0,0,1-1-.56q-1.23-.55-2.49-1-11-4.8-22.51-8.48-5.83-2-11.78-3.6-8.38-2.57-16.91-4.65-8.76-2.39-17.69-4.13a9.54,9.54,0,0,0-1.32-.09h-.27a1,1,0,0,0-.47.15.57.57,0,0,0-.11.11,1.59,1.59,0,0,0-.13.22,2.34,2.34,0,0,0-.23.85,32.55,32.55,0,0,0-.26,4.3c0,.36,0,.71,0,1.07" transform="translate(-829.82 -517.17)"/><path class="cls-4" d="M946.57,582.81a14.47,14.47,0,0,0-4,2.17,26.23,26.23,0,0,1-4.12,2.35,19.53,19.53,0,0,0-2.07,1.43,21.37,21.37,0,0,0-2.1,1.41,16.11,16.11,0,0,1-1.48.94c-.47.33-.93.69-1.37,1-1,.62-2,1.26-3,1.89a47.12,47.12,0,0,1-5.08,3.55,27.84,27.84,0,0,1-2.35,1.68c-.54.45-1.1.89-1.66,1.31q-1.82,1.26-3.59,2.61-2.32,1.54-4.52,3.3c-1.53,1.16-3.05,2.33-4.56,3.53a3.37,3.37,0,0,0-1,1.37,1.6,1.6,0,0,0-.1.42,28.34,28.34,0,0,0,.07,5.21c0,.22.08.44.13.65l.07.23a.59.59,0,0,0,.57.37l.18,0a5.88,5.88,0,0,0,1.37-.75q2-1.37,4-2.79,4.71-3.53,9.49-7l9.15-6.48q4.74-3.48,9.55-6.88a13.43,13.43,0,0,1,2.17-1.33,11.2,11.2,0,0,0,1.29-.87,47.49,47.49,0,0,1,4.67-2.61,16,16,0,0,1,5.11-1.12,49.51,49.51,0,0,1,6.43.91c1.4.27,2.81.47,4.22.62q8.7,1.29,17.35,2.85c2.53.5,5,1,7.55,1.62a31.9,31.9,0,0,1,4.1,1l1.13.48a3.26,3.26,0,0,0,1.93,0,23,23,0,0,0,3.32-1.28,2.45,2.45,0,0,0,1.12-1.06,2,2,0,0,0,0-1.6,3,3,0,0,0-.94-1.51,6.71,6.71,0,0,0-1.19-.69,10.38,10.38,0,0,0-3.46-1.15q-6.23-1.3-12.42-2.66a7,7,0,0,0-1.64-.29,35.52,35.52,0,0,1-4.1-.72q-5.24-.87-10.49-1.64-5.52-.93-11.09-1.53a6.16,6.16,0,0,0-2.53.05,15.69,15.69,0,0,1-2.28.13,15.83,15.83,0,0,0-2,.4,17.4,17.4,0,0,0-1.72.45" transform="translate(-829.82 -517.17)"/><path class="cls-5" d="M947.11,592.24c-1.19.7-2.35,1.42-3.49,2.18-2,1.38-4,2.72-6,4q-3.71,2.61-7.32,5.34-5.57,4-11,8.16-3.72,2.73-7.36,5.57c-.75.61-1.54,1.18-2.34,1.71a3.3,3.3,0,0,0-.77.81.68.68,0,0,0-.09.35l0,.09.06.06a.65.65,0,0,0,.29.11,3.05,3.05,0,0,0,.74,0,4.72,4.72,0,0,0,2.59-1q6.82-4.92,13.74-9.71,6.21-4.57,12.47-9.08,2.53-1.77,5-3.58a14.94,14.94,0,0,0,2.12-1.4,14.1,14.1,0,0,1,10.85-3,21.81,21.81,0,0,0,3.5.56q3.38.56,6.78,1a16.5,16.5,0,0,0,2.42.3c.66.11,1.32.24,2,.4,1.85.28,3.7.6,5.53,1,2.06.34,4.1.72,6.15,1.12a37.15,37.15,0,0,0,4.46.93,3.63,3.63,0,0,0,1.18-.17,5.31,5.31,0,0,0,.88-.38l.13-.08a.3.3,0,0,0,.12-.21.31.31,0,0,0-.09-.22l-.11-.09a1.07,1.07,0,0,0-.32-.16l-1.46-.43c-1.51-.43-3-.79-4.58-1.07q-7.18-1.57-14.43-2.83c-1.47-.28-2.94-.53-4.43-.72-3.34-.58-6.69-1.06-10.06-1.46a16,16,0,0,0-4.71.62,6.58,6.58,0,0,0-1.28.62c-.41.22-.83.43-1.25.62" transform="translate(-829.82 -517.17)"/><path class="cls-4" d="M949.13,596.16a16.79,16.79,0,0,0-2,1.28l-1.54.9-1.35,1.07c-1.27.91-2.56,1.77-3.89,2.58-.59.48-1.21,1-1.83,1.4a33.29,33.29,0,0,0-4.2,3.08q-2.85,2-5.57,4.13a27.23,27.23,0,0,0-2.93,2.19c-1.85,1.38-3.67,2.79-5.48,4.23a3,3,0,0,0-.4.39.68.68,0,0,0-.17.28l-.05.14a.24.24,0,0,0,.14.26.77.77,0,0,0,.3.06,3.74,3.74,0,0,0,.66-.09q4.18-1,8.3-2.19c1.68-.42,3.34-.93,5-1.51a7.71,7.71,0,0,0,1.75-1.24,32.75,32.75,0,0,1,2.94-2.17c2.17-1.52,4.32-3,6.47-4.58.67-.59,1.36-1.16,2.07-1.7.39-.24.77-.48,1.15-.74a10.07,10.07,0,0,1,1.22-.93,13.65,13.65,0,0,1,3.85-1.79,10.2,10.2,0,0,1,4.85-.09q3.43.51,6.89,1l2.16.5a7.88,7.88,0,0,1,1.46.71,2.61,2.61,0,0,0,1,.35,5.94,5.94,0,0,0,2.08-.38q4.23-1.23,8.37-2.68a5.71,5.71,0,0,0,.7-.35.84.84,0,0,0,.21-.21.36.36,0,0,0,0-.43,1.08,1.08,0,0,0-.39-.28,15.55,15.55,0,0,0-1.89-.52q-7.53-1.8-15.19-2.89c-2.54-.43-5.08-.79-7.63-1.06a17.77,17.77,0,0,0-6.19.9,4.37,4.37,0,0,0-.93.43" transform="translate(-829.82 -517.17)"/><path class="cls-5" d="M951.24,605a10.22,10.22,0,0,0-2.44,1.61q-2,1.42-4,2.78c-.44.37-.87.74-1.27,1.14l-.23.25a.35.35,0,0,0-.05.2.17.17,0,0,0,.08.12.49.49,0,0,0,.23.08,1,1,0,0,0,.3,0,6.4,6.4,0,0,0,1.53-.86,23,23,0,0,0,3-2.36,26.37,26.37,0,0,1,2.46-1.58,6.73,6.73,0,0,1,2.28-1,8.22,8.22,0,0,1,2.51-.49,20.92,20.92,0,0,1,6.2.61,3.14,3.14,0,0,0,1.82-.09,7.41,7.41,0,0,0,.79-.28,1.09,1.09,0,0,0,.4-.27l.08-.11a.28.28,0,0,0-.08-.31l-.14-.08a6.32,6.32,0,0,0-1.35-.46c-1.59-.31-3.18-.61-4.78-.89a6.14,6.14,0,0,0-3.15.32,38,38,0,0,0-4.26,1.67" transform="translate(-829.82 -517.17)"/><path class="cls-3" d="M872,606l-.86.21a5.22,5.22,0,0,0-.92.45q-4.89,2.55-9.89,4.93a27.33,27.33,0,0,0-5,2.84,5.24,5.24,0,0,0-1.18,1.26,1.21,1.21,0,0,0,.13,1.44,2.92,2.92,0,0,0,1.47,1,13.37,13.37,0,0,0,2.92.64q4.29.72,8.58,1.36l2.54.37a6.82,6.82,0,0,0,1.43,0,4,4,0,0,1,.77,0,24.44,24.44,0,0,0,3.08-.25,19.19,19.19,0,0,0,3.44-.59c1.09-.36,2.19-.7,3.3-1,.56-.23,1.11-.49,1.66-.77a49.67,49.67,0,0,0,6.14-3.3q2.22-1.44,4.5-2.78a14.18,14.18,0,0,1,1.47-1c.68-.48,1.33-1,2-1.54a3,3,0,0,0,.38-.42l.11-.17a.67.67,0,0,0,0-.52l-.12-.15a3.05,3.05,0,0,0-1.68-1,10.85,10.85,0,0,0-1.88-.31q-5.26-.93-10.59-1.57c-1.35-.09-2.7-.25-4-.46a16.74,16.74,0,0,0-6.46,1c-.42.13-.85.24-1.27.35" transform="translate(-829.82 -517.17)"/><path class="cls-4" d="M1035.61,605.56a80.27,80.27,0,0,0-8.52,2c-14.28,3.78-99.1,23.49-102.74,26.21-1.84.14,1.6,6.1,4.4,5.45,26.39-6.09,93.41-21.22,94.64-21.52,4.84-.95,9.67-2,14.47-3.09a52.1,52.1,0,0,1,5.7-.67,5.48,5.48,0,0,1,1.39.15,21.26,21.26,0,0,0,2.63.34,14.06,14.06,0,0,1,2.11.59,17.28,17.28,0,0,1,3.06,1c1.51.76,3,1.47,4.61,2.11q4.29,2.11,8.43,4.52a68.19,68.19,0,0,1,6.54,4c1.16.74,2.36,1.43,3.59,2.07a7.1,7.1,0,0,1,1.62,1.32,21.15,21.15,0,0,0,2.09,1.69,12.48,12.48,0,0,1,2.28,2.83,6.29,6.29,0,0,0,.7.93l.13.14a1.14,1.14,0,0,0,.44.18,2.74,2.74,0,0,0,1.58-.37,3.55,3.55,0,0,0,1.56-4.44,6.6,6.6,0,0,0-1.42-2.66,56,56,0,0,0-11.24-9.52c-1.15-.74-2.29-1.49-3.42-2.24l-6.86-3.66q-2.69-1.53-5.48-2.87a9,9,0,0,0-2-1c-1.28-.49-2.53-1-3.75-1.64-.85-.3-1.69-.62-2.53-1s-1.64-.71-2.49-1a8.63,8.63,0,0,0-1.68-.25,14.46,14.46,0,0,0-3.54-.07c-.63,0-1.25,0-1.88,0a19.76,19.76,0,0,0-3,.37l-1.45.19" transform="translate(-829.82 -517.17)"/><path class="cls-1" d="M954.21,607.92a.34.34,0,0,0,.32.06,4.7,4.7,0,0,0,1.09-.38.19.19,0,0,0,.09-.14.14.14,0,0,0-.07-.12.7.7,0,0,0-.38,0,1.81,1.81,0,0,0-1.12.39.1.1,0,0,0,0,.08.11.11,0,0,0,0,.09Z" transform="translate(-829.82 -517.17)"/><path class="cls-3" d="M1176.1,616.16a7.19,7.19,0,0,0-1.87,1.38c-1.18,1.07-2.36,2.12-3.56,3.17q-2.09,2-4.07,4a3.51,3.51,0,0,0-.62,1,1.26,1.26,0,0,0,0,.33.75.75,0,0,0,0,.26.6.6,0,0,0,.14.21l.16.12a2.19,2.19,0,0,0,1,.38,35.17,35.17,0,0,0,7.25.19,19.46,19.46,0,0,0,5-.61,11,11,0,0,0,2.31-1.2,12.47,12.47,0,0,0,2.61-2.25c1.66-1.76,3.3-3.54,4.9-5.35a3.29,3.29,0,0,0,.49-.85.92.92,0,0,0,0-.49l0-.15a1,1,0,0,0-.55-.58l-.24-.06a9.37,9.37,0,0,0-2.93-.38,46.24,46.24,0,0,0-4.86-.19,14.74,14.74,0,0,0-3.25.24,10.84,10.84,0,0,0-1.92.81" transform="translate(-829.82 -517.17)"/><path class="cls-5" d="M1037.13,616.79l-8.42,1.8c-.89.21-1.78.4-2.69.56q-3.32.87-6.64,1.7l-.85.23-.22.08a.85.85,0,0,0-.48.85.52.52,0,0,0,.21.36,1,1,0,0,0,.46.15h.28a59.14,59.14,0,0,0,7.81-1.39c3-.66,5.94-1.28,8.92-1.86.76-.21,1.51-.45,2.26-.72a17.67,17.67,0,0,1,2.81-.44,14.82,14.82,0,0,1,4.31-.15,22,22,0,0,1,7.09,1.74c1.18.53,2.37,1,3.56,1.56,2,1,4,2,5.91,3s4.12,2.14,6.15,3.28c.91.53,1.82,1,2.75,1.56a9.88,9.88,0,0,0,1.7,1,3.94,3.94,0,0,1,.79.54q1.76,1.5,3.57,2.92c.47.43.91.88,1.35,1.34a5.39,5.39,0,0,1,.43.63l.29.52.11.17a.51.51,0,0,0,.32.19.48.48,0,0,0,.35-.07.46.46,0,0,0,.17-.47l-.07-.17a1.89,1.89,0,0,0-.45-.6,9.28,9.28,0,0,1-1-.93c-.77-.77-1.57-1.5-2.41-2.19a6.31,6.31,0,0,0-2-1.27,4.31,4.31,0,0,1-1.46-1A11.31,11.31,0,0,0,1070,628c-.51-.41-1-.79-1.56-1.15-1.72-1.08-3.45-2.13-5.19-3.17q-4-2.21-8-4.38c-.82-.33-1.63-.69-2.42-1.09a8.49,8.49,0,0,0-2.58-.93,9.93,9.93,0,0,1-2.21-.75,9.9,9.9,0,0,0-5.09-.42,20,20,0,0,1-3.19.29c-.55.07-1.11.15-1.66.24-.33,0-.67.07-1,.13" transform="translate(-829.82 -517.17)"/><path class="cls-4" d="M1036.69,620.91a13.55,13.55,0,0,0-2.53.45l-10.35,2.29-4.88,1.34a4.83,4.83,0,0,0-.92.43,1.21,1.21,0,0,0-.45.68c-.14.87-.27,1.75-.37,2.62a2.79,2.79,0,0,1-.33,1,1.42,1.42,0,0,1-1.13.66,6,6,0,0,1-1,0q-5.15-.18-10.29-.22a4.07,4.07,0,0,1-2.83-.72l-.49-.31a.49.49,0,0,0-.17-.06.85.85,0,0,0-.23,0,10.85,10.85,0,0,0-2,.26c-2.42.55-4.85,1.09-7.28,1.6s-5,1.28-7.54,1.89q-7.67,1.88-15.32,3.81a51.07,51.07,0,0,0-6.78,1.85,7,7,0,0,0-1.37.5l-.3.19a.25.25,0,0,0-.09.19.23.23,0,0,0,.09.19,1.09,1.09,0,0,0,.31.14,4.54,4.54,0,0,0,.74.1c4.31.1,8.63.08,12.93-.07,1.8,0,3.6,0,5.39-.14l6.43-.15a6.71,6.71,0,0,0,2.13-.51A63.75,63.75,0,0,1,995.3,637c2.28-.51,4.56-1,6.84-1.49a61.08,61.08,0,0,0,6.15-1.15c1.57-.29,3.13-.62,4.68-1q7.83-1.83,15.68-3.46c1.65-.3,3.3-.63,4.93-1,1.81-.28,3.61-.64,5.39-1.06q3-.65,6-1.05a14.91,14.91,0,0,1,5.42.74c.72.35,1.44.72,2.15,1.09a55,55,0,0,1,6.66,3.31c1.29.67,2.57,1.37,3.84,2.08.69.47,1.37,1,2,1.49s1.18.8,1.74,1.22a1.74,1.74,0,0,0,.82.33,10.62,10.62,0,0,0,1.87,0c1.44,0,2.87-.13,4.31-.29l.26,0a.93.93,0,0,0,.4-.19.45.45,0,0,0,.18-.47l-.08-.16a5.37,5.37,0,0,0-1.65-1.83,78.09,78.09,0,0,0-7.13-5q-4.48-2.55-9-5c-.9-.47-1.81-.91-2.74-1.31a24.15,24.15,0,0,0-9.3-2.81c-.9,0-1.8.09-2.7.17q-1.57.2-3.15.45c-.7.07-1.41.16-2.1.29" transform="translate(-829.82 -517.17)"/><path class="cls-1" d="M1184.28,627.31q-1,.8-2,1.56a2.51,2.51,0,0,0-.63.74,2.74,2.74,0,0,0-.24,1.06q-.46,4.82-.59,9.68a27.37,27.37,0,0,1,.14,3.73c0,1.54,0,3.08,0,4.62q0,1.35-.09,2.7c0,.72.07,1.43.09,2.16a34.11,34.11,0,0,1-.09,4c0,3.13,0,6.27,0,9.41,0,.55.11,1.1.19,1.64a9.44,9.44,0,0,0,.2,1.4l.11.38a.44.44,0,0,0,.29.27.77.77,0,0,0,.37,0,1.56,1.56,0,0,0,.51-.3,9.19,9.19,0,0,0,2.51-3.16c1.27-2.16,2.52-4.32,3.77-6.49a24.26,24.26,0,0,0,1.19-2.59,8.7,8.7,0,0,0,.33-3c0-2.41,0-4.83.09-7.24-.07-2.08-.07-4.16,0-6.23q.06-4.29,0-8.56.13-3.14,0-6.27a16.76,16.76,0,0,0-.18-3.16,3.42,3.42,0,0,0-.18-.54L1190,623a.43.43,0,0,0-.23-.14.29.29,0,0,0-.16,0,.8.8,0,0,0-.25.11,16.69,16.69,0,0,0-2.46,2.06c-.83.78-1.7,1.53-2.61,2.23" transform="translate(-829.82 -517.17)"/><path class="cls-5" d="M992.4,626.75q-2.53.51-5,1.16c-2.24.43-4.46.9-6.68,1.4s-4.55,1-6.8,1.57q-7.46,1.39-14.81,3.25-4.51,1-9,2.07-3.72.79-7.37,1.79a7.22,7.22,0,0,1-2.37.53,15.29,15.29,0,0,0-2.19.56c-.28.07-.57.15-.85.24a8,8,0,0,0-.93.34.21.21,0,0,0-.11.16.12.12,0,0,0,.07.13l.14,0a14.45,14.45,0,0,0,3.6.23,23.24,23.24,0,0,1,3.23,0,6,6,0,0,0,2.1-.35c2.49-.69,5-1.34,7.52-1.93,2.85-.6,5.69-1.26,8.52-2s5.41-1.21,8.09-1.89q4.26-1.08,8.56-1.95c2.25-.55,4.49-1.09,6.74-1.62q5.76-1.44,11.54-2.75a23,23,0,0,0,3.83-1,3.84,3.84,0,0,0,.53-.28,1.3,1.3,0,0,0,.43-.41l.07-.16a.39.39,0,0,0,0-.28.65.65,0,0,0-.52-.35h-.26a26.51,26.51,0,0,0-3.78.57c-1,.22-1.95.43-2.92.63-.45.07-.9.16-1.34.25" transform="translate(-829.82 -517.17)"/><path class="cls-5" d="M1039.92,630.08q-6,1.18-12,2.3-4.68,1-9.36,2-3.17.85-6.41,1.4-2.53.53-5.06,1.13a23.16,23.16,0,0,0-2.7.79,5.7,5.7,0,0,0-.92.37.23.23,0,0,0-.11.16.17.17,0,0,0,.07.15.87.87,0,0,0,.3.16c.24.05.49.09.74.12a21.17,21.17,0,0,0,7.08-.75l6.7-1.65q2.82-.57,5.64-1.1c.63-.2,1.26-.37,1.9-.53,3.08-.52,6.13-1.14,9.17-1.86a59.93,59.93,0,0,0,6.5-1.34,19.06,19.06,0,0,1,2-.19c.78-.07,1.55-.17,2.32-.3a5.84,5.84,0,0,1,2.61.43,19.58,19.58,0,0,0,2.13.55,74.28,74.28,0,0,1,4.88,2.12c1.41.76,2.82,1.5,4.25,2.23a7.28,7.28,0,0,0,1,.56,1.18,1.18,0,0,0,.59.07.6.6,0,0,0,.28-.13l.07-.09a.15.15,0,0,0,0-.16l-.06-.1a3.24,3.24,0,0,0-.38-.36,30.26,30.26,0,0,0-4.42-2.85l-3-1.82-1.69-.74c-.77-.41-1.56-.8-2.36-1.16a7.45,7.45,0,0,0-2.89-.37,15.94,15.94,0,0,0-4.72.44,13.65,13.65,0,0,1-2.16.54" transform="translate(-829.82 -517.17)"/><path class="cls-1" d="M1164.15,635.5a22.74,22.74,0,0,1-.05,3.5c0,3.32,0,6.65,0,10q-.08,3.21-.13,6.4a26.68,26.68,0,0,1-.07,4.38,46.15,46.15,0,0,0,0,4.85q0,3,.13,5.92a2.31,2.31,0,0,0,1.52,1.82,3.7,3.7,0,0,0,1.39.31c1.88.11,3.77.19,5.66.24a36.43,36.43,0,0,1,3.77-.11,5.46,5.46,0,0,0,1.14-.13l.42-.12a.82.82,0,0,0,.4-.46,5.08,5.08,0,0,0,.32-1.81c0-1.8.13-3.59.26-5.39.07-1.53.1-3,.11-4.58q0-3.93.11-7.85a29.88,29.88,0,0,0,0-5.35c.13-4.85.16-9.71.08-14.55a4.79,4.79,0,0,0-.24-1.41l-.17-.39a.81.81,0,0,0-.34-.24l-.25,0a40,40,0,0,0-7-.32,30.26,30.26,0,0,1-4-.16,4.55,4.55,0,0,0-1.94.19,1.53,1.53,0,0,0-.52.31,1.5,1.5,0,0,0-.41.71,8.7,8.7,0,0,0-.21,2.16l0,2.16" transform="translate(-829.82 -517.17)"/><path class="cls-4" d="M1038.2,634.3c-2.74.52-5.47,1.11-8.19,1.75a16.37,16.37,0,0,0-3.62,1,5.17,5.17,0,0,0-.72.33l-.12.09a.2.2,0,0,0-.07.16.14.14,0,0,0,.07.12,1.67,1.67,0,0,0,.3.08l1.62.11c2.3.08,4.61.07,6.91,0,1.53,0,3.07,0,4.6-.07,3.19,0,6.38,0,9.57-.17l3.89-.19a10.87,10.87,0,0,0,1.12-.18l.45-.12a.77.77,0,0,0,.29-.22.26.26,0,0,0,0-.19.44.44,0,0,0-.08-.25l-.13-.15a8.09,8.09,0,0,0-3-1.86l-1.86-.83a4.3,4.3,0,0,0-1.37-.29,16.4,16.4,0,0,0-2.71-.29,16,16,0,0,0-3.64.48,21.35,21.35,0,0,0-3.34.71" transform="translate(-829.82 -517.17)"/><path class="cls-3" d="M1197.09,647.35a8.51,8.51,0,0,0-1.5.17,4,4,0,0,0-1,.31.85.85,0,0,0-.51.62l0,.27a89.56,89.56,0,0,0-.32,9.12,7,7,0,0,1-1.15,3.64q-2.31,3.9-4.58,7.81c-.62,1-1.23,2-1.84,3a9.61,9.61,0,0,1-5.74,3.63c-.78.07-1.56.11-2.35.12-2.87.19-5.75.26-8.62.21a28.53,28.53,0,0,1-3.7-.06,25.51,25.51,0,0,1-3-.76,2.11,2.11,0,0,1-1.09-.77,5.46,5.46,0,0,1-.91-3.06c0-2.88,0-5.75.17-8.62q-.11-3.65.09-7.28c0-1.7,0-3.4-.11-5.09a2.09,2.09,0,0,0-.26-.8,1.27,1.27,0,0,0-.21-.25.65.65,0,0,0-.23-.13l-.24,0a13.2,13.2,0,0,0-3.66.07l-3.86.44a.55.55,0,0,0-.18,0,3.88,3.88,0,0,0-.49.11,7.69,7.69,0,0,1-1.25.25c-.34,0-.69,0-1,0l-.26,0a.77.77,0,0,0-.64.44.37.37,0,0,0,0,.14c0,.11,0,.23-.07.34a24,24,0,0,0-.34,3.69c-.09,2-.1,4,0,6q-.22,5.79-.47,11.58a12.5,12.5,0,0,1-2.28,6.56c-.57,1-1.13,1.94-1.65,2.92-.06.12-.11.24-.16.37l-.08.18a.62.62,0,0,0,.14.57.41.41,0,0,0,.11.07l.24.09a12.34,12.34,0,0,0,2.27.26q6.19,0,12.4-.06l5.66-.09,11.31-.14q6-.12,12-.19a12.92,12.92,0,0,0,5.11-.83,4.22,4.22,0,0,0,1.82-1.44,12.1,12.1,0,0,1,1-1.14,13,13,0,0,0,1.77-2.84c.81-1.62,1.59-3.26,2.36-4.91a15.31,15.31,0,0,1,.83-1.32,5.84,5.84,0,0,0,.56-1.34q.66-1.61,1.41-3.15,2.76-6,5.38-12.15a22.52,22.52,0,0,0,1-2.5,3.5,3.5,0,0,0,.2-1.47,3.31,3.31,0,0,0-.67-2,1.86,1.86,0,0,0-1-.67,10.72,10.72,0,0,0-3.48-.25q-3.4.16-6.82.4" transform="translate(-829.82 -517.17)"/><path class="cls-4" d="M1082.91,656.28l-11.59,0c-2.59.08-5.19.15-7.78.19a32.62,32.62,0,0,0-3.83,0c-1.52,0-3,0-4.56,0-3.32,0-6.65,0-10,.08q-6.06.25-12.13.23c-2.5,0-5,.09-7.5.17q-4.34-.15-8.67.05c-3.68,0-7.36,0-11,.08-1.57,0-3.14,0-4.71.14l-1.68,0q-3.81.08-7.62.11-8.9,0-17.79.22c-2.69-.09-5.39,0-8.08.13-2.88.1-5.75.15-8.63.14q-6.06-.06-12.12.13a14.14,14.14,0,0,0-3.05.11,13,13,0,0,1-2.65-.06q-3.35,0-6.68,0a8.78,8.78,0,0,0-3.74,1.08,29.13,29.13,0,0,0-3,1.36,41,41,0,0,0-4.29,3,47.27,47.27,0,0,0-4.55,3.28q-.76.57-1.5,1.2a2,2,0,0,0-.68,1.26c-.07,1.25-.09,2.5-.05,3.76,0,.44,0,.89.05,1.33l0,.27a1,1,0,0,0,.19.39.49.49,0,0,0,.45.19l.18-.06a16.19,16.19,0,0,0,3.22-1.87q3.18-2,6.25-4.25l1.73-1a8.85,8.85,0,0,1,2.94-1.09l3.86-1a15,15,0,0,1,4-.19l2.93-.06c1.25,0,2.51-.06,3.77-.11,1.53,0,3.05,0,4.58,0a12,12,0,0,0,1.7-.11,11.31,11.31,0,0,1,1.84,0c.71,0,1.41,0,2.12-.07q3.78.06,7.54-.16c3.06-.12,6.11-.18,9.17-.16l5.66,0c1.62,0,3.23-.1,4.85-.19q5.25,0,10.51-.1,6-.21,12.1-.08,6.6-.21,13.19-.25c3.7-.12,7.39-.18,11.09-.17q3.26-.12,6.5-.17,8.33-.16,16.64-.2c3.69-.14,7.39-.25,11.08-.34q8.37,0,16.71-.4l3.51,0a55.85,55.85,0,0,1,10.26.27l.24,0a.91.91,0,0,0,.57-.23,1.06,1.06,0,0,0,.27-.29,5,5,0,0,0,.54-1.36,13.12,13.12,0,0,0,.33-1.51,3.1,3.1,0,0,0-.53-2.07,3.23,3.23,0,0,0-1.2-1.26,4.92,4.92,0,0,0-2.48-.42c-2,.06-4.07,0-6.1,0-.38,0-.76.06-1.13.07l-1.31,0" transform="translate(-829.82 -517.17)"/><path class="cls-4" d="M1204.53,667q-3.24,6.46-6.48,12.92a14.57,14.57,0,0,1-2.61,3,7.68,7.68,0,0,1-5,1.78c-1.89,0-3.78,0-5.66-.05a10.73,10.73,0,0,0-1.7.14c-1,0-1.92.05-2.88.05-3.33,0-6.65,0-10,.14s-6.47.2-9.7.35c-2.06,0-4.13,0-6.19.11a37.93,37.93,0,0,1-5.93.2,67.39,67.39,0,0,0-7.52.38,2,2,0,0,0-1.33.8.68.68,0,0,0-.12.26l0,.13a.37.37,0,0,0,.12.2.85.85,0,0,0,.3.15c.25,0,.5.07.76.09q3.63.08,7.26.09a39.05,39.05,0,0,0,4.59,0c2.78.17,5.57.21,8.35.11q5.93,0,11.85-.06,3.78-.15,7.56-.15c2.78,0,5.57-.1,8.35-.23a15.77,15.77,0,0,0,4.28-.38,8.09,8.09,0,0,0,4.1-2.11,20,20,0,0,0,3.49-5.42q2.34-4.84,4.52-9.77a16.41,16.41,0,0,0,1-1.75c.76-1.84,1.54-3.66,2.34-5.48a3.3,3.3,0,0,0,.21-1.39,1,1,0,0,0-.08-.3.34.34,0,0,0-.12-.12.3.3,0,0,0-.33.07l-.09.1a13.46,13.46,0,0,0-1.35,2.36c-.67,1.22-1.32,2.46-1.94,3.71" transform="translate(-829.82 -517.17)"/><path class="cls-5" d="M1081,666.54c-2.78,0-5.57,0-8.35,0q-4.58.26-9.15.18-3.78.07-7.56.09c-2,.05-4,.07-5.93.07l-5.64.07a18.54,18.54,0,0,1-3,.06c-1.17,0-2.34,0-3.51,0-.63,0-1.26.08-1.88.11q-6.06-.06-12.12.1a18.27,18.27,0,0,1-2.09.09q-4.75,0-9.51,0c-2.69,0-5.39.09-8.08.15-1.35,0-2.7,0-4.05,0-2.51,0-5,.1-7.54.2-2.07,0-4.14,0-6.2.1-1.7.09-3.41.11-5.12,0l-5.93.2q-6.06,0-12.13.21-3.25,0-6.5.19a17.25,17.25,0,0,1-3.21-.12c-1.79,0-3.59,0-5.38.16q-5.79.09-11.58.34a11.74,11.74,0,0,1-1.56.14q-.71-.07-1.41-.09a13,13,0,0,0-5.16,1.53,11.36,11.36,0,0,0-2,1c-3.49,2.43-7,4.9-10.4,7.38-.27.18-.54.37-.79.57a1.53,1.53,0,0,0-.57,1.39.58.58,0,0,0,.08.22.45.45,0,0,0,.13.17.29.29,0,0,0,.23.07l.14,0a3.75,3.75,0,0,0,.81-.44,18.75,18.75,0,0,0,2.86-2A83,83,0,0,1,925.9,674a27.2,27.2,0,0,1,2.9-2,11.45,11.45,0,0,1,4.54-1.32,7.53,7.53,0,0,0,.95-.16,11.82,11.82,0,0,1,4,0,30.26,30.26,0,0,0,3.69-.07l10.92-.21q2.36,0,4.71.06c2.25-.11,4.49-.16,6.74-.15q6.2-.18,12.4-.11a50.89,50.89,0,0,1,5.66,0c3-.11,5.93-.15,8.89-.13l12.9-.15q3.78-.18,7.58-.09c2.25-.09,4.49-.12,6.74-.11l4.58-.11a13.67,13.67,0,0,0,1.81,0q3.27-.09,6.54-.1,5.67-.09,11.32-.24c.64,0,1.28,0,1.91.06q3.9-.11,7.79-.15,8.35-.23,16.71-.3a32,32,0,0,1,3.66-.12c5.61-.24,11.21-.4,16.83-.46l1.3,0a1.15,1.15,0,0,0,1-.8.57.57,0,0,0-.14-.51.69.69,0,0,0-.34-.22l-.22,0a14.84,14.84,0,0,0-3.19-.15,56.58,56.58,0,0,1-6.51.11H1081" transform="translate(-829.82 -517.17)"/><path class="cls-4" d="M1139.76,674.16a25.61,25.61,0,0,0-2.42,3,4.87,4.87,0,0,0-.63,2.56c0,1,0,1.94,0,2.92a4.57,4.57,0,0,0,.16.82l.07.18a.38.38,0,0,0,.28.24h.15a1.48,1.48,0,0,0,.35-.13,7.68,7.68,0,0,0,1.92-1.58,28.55,28.55,0,0,0,3.26-3.76,31,31,0,0,0,1.41-2.9,8.65,8.65,0,0,0,.35-3.07v-2.67a2.22,2.22,0,0,0-.13-.58l-.06-.17a.33.33,0,0,0-.3-.2.2.2,0,0,0-.11,0,.51.51,0,0,0-.16.09,3.48,3.48,0,0,0-.64.69c-1,1.29-1.92,2.57-2.91,3.82-.2.25-.4.5-.62.73" transform="translate(-829.82 -517.17)"/><path class="cls-4" d="M1054.34,671.93c-3.5,0-7,0-10.51.11q-5.65.19-11.32.12c-5.83.19-11.68.22-17.51.11-1.35.08-2.7.13-4,.17q-7,0-14,.13a33.66,33.66,0,0,1-5.12,0,20,20,0,0,0-2.45.06l-2.13-.1c-1.26.07-2.52.11-3.77.12-3.51,0-7,0-10.51.2a25.17,25.17,0,0,0-3,0l-1.56-.05c-2.34.09-4.68.14-7,.17a60.7,60.7,0,0,1-6.47.17,28.66,28.66,0,0,0-3.59,0c-1.52,0-3,0-4.58,0q-3.42.13-6.85,0a22,22,0,0,0-5,0c-.64.16-1.27.33-1.9.51a8.21,8.21,0,0,0-3.8,1.62,17.65,17.65,0,0,1-2.25,1.25,17.1,17.1,0,0,0-2.87,2c-2.08,1.4-4.13,2.86-6.15,4.36a16.11,16.11,0,0,0-2.58,2,2.32,2.32,0,0,0-.71,1.71c0,.9.1,1.79.18,2.68l.07.52a.75.75,0,0,0,.54.55.45.45,0,0,0,.28,0l.18-.09a30.9,30.9,0,0,0,5.8-3.88c2-1.31,4-2.63,6-4,.67-.34,1.35-.65,2-.94.54-.27,1.09-.52,1.66-.74a12.25,12.25,0,0,1,1.58-.31,26.46,26.46,0,0,1,5.26-.31q5.46,0,10.92,0,8.42-.09,16.84-.14c3.86,0,7.72,0,11.59.06q10,0,19.94-.13c2.15,0,4.31,0,6.46-.08a50.43,50.43,0,0,0,5.36,0l5.39,0c1.81-.07,3.62-.1,5.43-.08q4.56,0,9.12.07c3.16-.11,6.31-.16,9.47-.12s6.11,0,9.16,0q3.24.06,6.47-.05,5.78.08,11.55-.1c3.07.12,6.14.12,9.2,0q4.59.06,9.17-.27a9.87,9.87,0,0,0,1.33-.06l.5-.09.2-.08a.88.88,0,0,0,.15-.12,1.48,1.48,0,0,0,.34-.74,18.42,18.42,0,0,0,.15-2.35,5.59,5.59,0,0,1,.64-2.26,7.75,7.75,0,0,0,.39-.94l.06-.18a.74.74,0,0,0,0-.36.38.38,0,0,0-.15-.18,1.82,1.82,0,0,0-.5-.16,9.67,9.67,0,0,0-1.2-.08c-2.42-.11-4.85-.16-7.27-.15q-6.07.15-12.13.14l-2.14,0a1.15,1.15,0,0,1-.63-.15,1.4,1.4,0,0,0-.29-.09.42.42,0,0,0-.19,0l-.13.05-.2.08a3.06,3.06,0,0,1-.74.09c-2.51.11-5,.15-7.54.15h-.54" transform="translate(-829.82 -517.17)"/><path class="cls-1" d="M1204,680.2a37.76,37.76,0,0,1-1.9,3.48,22.5,22.5,0,0,1-1.53,1.71,13.92,13.92,0,0,1-1.88,1.88,6.87,6.87,0,0,0-.77.85,8,8,0,0,1-2,1.49,8.49,8.49,0,0,1-1.72.43,8.11,8.11,0,0,1-1.62.23q-3.51-.09-7,.05c-1.53-.06-3.06-.06-4.59,0q-4.57,0-9.16,0c-1.88.07-3.77.08-5.66,0q-5,0-9.93,0a33.23,33.23,0,0,1-4.35,0q-2.14.08-4.29.21a1.3,1.3,0,0,0-1,.64c-1.35,2.38-2.61,4.81-3.79,7.27l-.15.39-.07.2a.69.69,0,0,0,.19.64.21.21,0,0,0,.1.06,1.14,1.14,0,0,0,.26.09,13,13,0,0,0,2.78.26c1.81.06,3.62.1,5.43.11,2.86.19,5.72.24,8.58.17q3.8.16,7.59,0c2.78,0,5.57,0,8.35-.08,3.24,0,6.47-.07,9.71-.19q3.5,0,7-.09l2.13-.27a4.93,4.93,0,0,0,1.67-.79,7.64,7.64,0,0,0,3-3.75q1.2-2.91,2.64-5.71a22,22,0,0,1,1.49-3.09,33.82,33.82,0,0,0,1.92-4.56,29.24,29.24,0,0,0,1.88-4.86,18.41,18.41,0,0,0,.46-1.95,2.32,2.32,0,0,0,0-.87l0-.11a.28.28,0,0,0-.32-.15.44.44,0,0,0-.22.1l-.12.1a5.88,5.88,0,0,0-.94,1.46q-1,2.32-2.14,4.59" transform="translate(-829.82 -517.17)"/><path class="cls-3" d="M892.27,678.58a1.09,1.09,0,0,0-.7-.19,1,1,0,0,0-.67.22.84.84,0,0,0-.21.33l-.06.25a5.67,5.67,0,0,0-.06,1.3l0,.53a1,1,0,0,0,.18.39.51.51,0,0,0,.62.15l.15-.11a2.31,2.31,0,0,0,.77-1.15,3,3,0,0,0,.21-1.14,1,1,0,0,0-.15-.44Z" transform="translate(-829.82 -517.17)"/><path class="cls-3" d="M896.69,680.9a3,3,0,0,0,.18-.36,2.76,2.76,0,0,0,.29-1.09,1,1,0,0,0-.1-.38A.16.16,0,0,0,897,679a.28.28,0,0,0-.1-.09,1.45,1.45,0,0,0-.76-.21,2.9,2.9,0,0,0-.51,0,.65.65,0,0,0-.21.06.84.84,0,0,0-.21.11,3.13,3.13,0,0,0-1.1,1.62,2.32,2.32,0,0,0-.13.58l0,.18a.67.67,0,0,0,.15.33,1.33,1.33,0,0,0,1,.37h.25a1.56,1.56,0,0,0,1.16-.72,2.39,2.39,0,0,0,.21-.34" transform="translate(-829.82 -517.17)"/><path class="cls-3" d="M901.08,681.52a4.46,4.46,0,0,0,.47-.89,2.25,2.25,0,0,0,.2-.67.77.77,0,0,0-.11-.53.8.8,0,0,0-.44-.32,3.65,3.65,0,0,0-1-.08l-.23.05a1.67,1.67,0,0,0-.61.47,4.9,4.9,0,0,0-.76,1.38,1.32,1.32,0,0,0-.08.59.58.58,0,0,0,.34.52l.26.1a1.47,1.47,0,0,0,.29.05,2,2,0,0,0,1.09-.15,1.23,1.23,0,0,0,.45-.37Z" transform="translate(-829.82 -517.17)"/><path class="cls-3" d="M906.21,681.25a4.26,4.26,0,0,0,.28-.78l0-.24a.78.78,0,0,0-.21-.63l-.12-.08-.23-.08a2.72,2.72,0,0,0-1.17-.08,1.15,1.15,0,0,0-.84.49,4.34,4.34,0,0,0-.55,1.07,2.48,2.48,0,0,0-.18.66.81.81,0,0,0,.24.64l.11.08.25.08a2.5,2.5,0,0,0,1.12,0,1.68,1.68,0,0,0,1.06-.83,3.9,3.9,0,0,0,.19-.35" transform="translate(-829.82 -517.17)"/><path class="cls-3" d="M911.19,680.85a1.38,1.38,0,0,0,0-.35.72.72,0,0,0-.54-.7,3.24,3.24,0,0,0-.82-.11,1.23,1.23,0,0,0-1,.47,3.77,3.77,0,0,0-.66,1.47l-.05.21a.82.82,0,0,0,.12.41l.14.13a1.47,1.47,0,0,0,2.3-.39,4.73,4.73,0,0,0,.47-1.14" transform="translate(-829.82 -517.17)"/><path class="cls-5" d="M1070.25,682.4q-14.57,0-29.11.1h-10.51l-10.24,0q-9.3,0-18.6.16-15.36,0-30.72.25c-1.71-.08-3.42-.07-5.12,0-2.16,0-4.31,0-6.47,0a20.42,20.42,0,0,0-2.82.16c-.86,0-1.71,0-2.57-.08-2.07,0-4.13,0-6.2.12l-10.2.19c-.94.07-1.88.17-2.81.32a7.39,7.39,0,0,0-1.48.18,53.78,53.78,0,0,0-5.59,2.23c-1.52,1-3,2-4.45,3.1-1.87,1.26-3.7,2.58-5.49,3.94q-1.39,1.05-2.79,2.07a3.07,3.07,0,0,0-.55.53,1,1,0,0,0-.19.38,2.71,2.71,0,0,0-.05.75.86.86,0,0,0,.12.35.29.29,0,0,0,.23.13h.17a2,2,0,0,0,.57-.21A24.51,24.51,0,0,0,920,694c1.37-1.17,2.79-2.26,4.26-3.29a16.94,16.94,0,0,0,2.47-1.58,39.1,39.1,0,0,1,4.1-2.63,10.11,10.11,0,0,1,2.77-.73,15.29,15.29,0,0,1,4-.3c3.5-.14,7-.18,10.51-.12q4.92-.06,9.84,0,11.38-.17,22.77,0c2.86,0,5.73,0,8.59,0a32.29,32.29,0,0,0,3.81,0h16.17c2.77,0,5.54.06,8.31.1,2.52-.09,5.05-.08,7.57,0q5.13-.21,10.26,0,5.37-.2,10.74,0c3-.1,6-.1,8.93,0,1.71,0,3.42,0,5.12.06q5.13,0,10.24-.14c2.43,0,4.85,0,7.28,0,2.6,0,5.21-.1,7.81-.3l.52,0a.76.76,0,0,0,.63-.7,2.27,2.27,0,0,0-.22-1,1.44,1.44,0,0,0-.18-.25.81.81,0,0,0-.24-.17,3.79,3.79,0,0,0-1.32-.3q-2.52-.1-5-.12h-9.5" transform="translate(-829.82 -517.17)"/><path class="cls-3" d="M896.51,689.06a3.49,3.49,0,0,0,.35.32.1.1,0,0,0,.09,0,.08.08,0,0,0,0-.06.48.48,0,0,0-.06-.24,5.94,5.94,0,0,0-1-1.35.08.08,0,0,0-.08,0,.11.11,0,0,0-.05.09,1.19,1.19,0,0,0,.26.67,3.59,3.59,0,0,0,.44.57" transform="translate(-829.82 -517.17)"/><path class="cls-4" d="M1137.08,695.47a2.78,2.78,0,0,0-.73,1.75,9.38,9.38,0,0,0,0,1.59l.08.44a.4.4,0,0,0,.2.24.41.41,0,0,0,.31,0l.14-.07a8.4,8.4,0,0,0,2.62-2.45,21.87,21.87,0,0,0,2.69-3.79,9.56,9.56,0,0,0,.65-1.74l0-.2a.65.65,0,0,0-.41-.65l-.22-.06a3.78,3.78,0,0,0-.81-.12,1.11,1.11,0,0,0-.87.37c-.29.35-.56.71-.81,1.07a41.59,41.59,0,0,1-2.9,3.58" transform="translate(-829.82 -517.17)"/><path class="cls-4" d="M1199.45,699.35a14.16,14.16,0,0,1-1.23.93,9.23,9.23,0,0,1-2.55,1.46,2.07,2.07,0,0,1-.43.1,13.89,13.89,0,0,0-2,.44,8.41,8.41,0,0,1-1.74.15c-1.88,0-3.77,0-5.66,0q-7.12,0-14.27-.12a27.53,27.53,0,0,1-4.63,0q-3.75,0-7.51.17c-2.59,0-5.19.07-7.79.06q-4.19.26-8.37.24c-1,.1-2,.15-3,.17a2.3,2.3,0,0,0-.74.12,1.94,1.94,0,0,0-.34.21,3.6,3.6,0,0,0-.69.66.85.85,0,0,0-.16.28l0,.13a.28.28,0,0,0,.07.21l.07.06.18.09a2.49,2.49,0,0,0,.85.18c2.77.12,5.53.16,8.3.14q3,.11,5.93,0,3.51.09,7,.11l12.9,0a13.69,13.69,0,0,1,2.48,0q4.17-.17,8.34-.12,3-.18,6-.19c1.13,0,2.27-.08,3.4-.13a4.7,4.7,0,0,0,2.84-1.23c.47-.34.94-.67,1.43-1a9.3,9.3,0,0,0,1.51-1.74,10.13,10.13,0,0,0,1.79-3.06c.52-1,1-2.06,1.5-3.1a5.68,5.68,0,0,0,.27-1,.57.57,0,0,0,0-.29.11.11,0,0,0-.1-.07.21.21,0,0,0-.16.08,2.77,2.77,0,0,0-.31.45c-.29.6-.59,1.2-.88,1.79-.57,1.13-1.18,2.22-1.84,3.29a3.44,3.44,0,0,1-.48.59" transform="translate(-829.82 -517.17)"/><path class="cls-1" d="M1203.64,700.05a23.46,23.46,0,0,1-1.45,2.59,8.59,8.59,0,0,1-1.17,1.24c-.44.46-.88.92-1.31,1.39a2.28,2.28,0,0,1-1.17.7,12.33,12.33,0,0,0-2.07.62,7.54,7.54,0,0,1-2,.39c-.71.1-1.43.19-2.15.26-3.42,0-6.83,0-10.24,0q-5.67.08-11.34.12h-9.64c-3,.1-5.95.12-8.93.08q-2.28,0-4.56.12a2.66,2.66,0,0,0-1.23.39,1.81,1.81,0,0,0-.52.58c-.27.54-.53,1.09-.79,1.63a14.78,14.78,0,0,1-1.49,2.55c-.47.79-.93,1.58-1.39,2.38a3.54,3.54,0,0,0-.23.53l0,.18a.44.44,0,0,0,.25.43l.18.07a5.88,5.88,0,0,0,1.66.27c3.17.08,6.35.15,9.52.2l11-.11q4.15,0,8.31-.07a41.9,41.9,0,0,0,4.62.08,25.31,25.31,0,0,0,3.26-.09c.7,0,1.41,0,2.11,0,2-.11,4-.17,6-.16,1.72-.07,3.45-.22,5.16-.44a18.14,18.14,0,0,0,1.81-.14,4.62,4.62,0,0,0,2.54-1.52c.36-.36.72-.72,1.09-1.06a7.55,7.55,0,0,0,1.47-2.32q1.62-3.15,3.06-6.38l2.79-6.11a10.83,10.83,0,0,0,.84-3.73,2.89,2.89,0,0,0-.08-.65s0-.08,0-.12l0-.06a.4.4,0,0,0-.52-.05l-.12.12a3.61,3.61,0,0,0-.52.81c-.86,1.73-1.73,3.47-2.61,5.2" transform="translate(-829.82 -517.17)"/><path class="cls-3" d="M894.9,696.89a4.07,4.07,0,0,0,.46-1.12l.08-.44a.77.77,0,0,0-.11-.41.35.35,0,0,0-.1-.11.74.74,0,0,0-.21-.13,3.18,3.18,0,0,0-1.8-.25,1.27,1.27,0,0,0-.93.69,4,4,0,0,0-.41,1.82,1,1,0,0,0,.14.47.52.52,0,0,0,.1.11,1,1,0,0,0,.23.13,2.67,2.67,0,0,0,1.34.18l.42-.1.17-.09a2,2,0,0,0,.4-.42,2.7,2.7,0,0,0,.22-.33" transform="translate(-829.82 -517.17)"/><path class="cls-3" d="M899.72,697.68a4.16,4.16,0,0,0,.75-1.64l.06-.43a.67.67,0,0,0-.4-.63l-.18-.06a1.55,1.55,0,0,0-.31-.06,5.74,5.74,0,0,0-1.31,0,1.5,1.5,0,0,0-.36.11,1.08,1.08,0,0,0-.24.18,3.81,3.81,0,0,0-.78,1.65,2.13,2.13,0,0,0-.08.66.41.41,0,0,0,0,.19.66.66,0,0,0,.12.17,1.61,1.61,0,0,0,.75.37,3.29,3.29,0,0,0,1,0,1.26,1.26,0,0,0,.38-.1,1,1,0,0,0,.24-.15,2.37,2.37,0,0,0,.27-.28" transform="translate(-829.82 -517.17)"/><path class="cls-3" d="M904.89,697.72a5.14,5.14,0,0,0,.62-1.56,1.08,1.08,0,0,0,0-.4.29.29,0,0,0,0-.13.38.38,0,0,0-.09-.13,1.22,1.22,0,0,0-.65-.3,4.46,4.46,0,0,0-1-.06,1.88,1.88,0,0,0-.33.05.52.52,0,0,0-.16.06,1.69,1.69,0,0,0-.67.68,5.08,5.08,0,0,0-.56,1.34l-.07.22a.81.81,0,0,0,.49.87l.22.08a4.11,4.11,0,0,0,1.31,0,1.32,1.32,0,0,0,.85-.57Z" transform="translate(-829.82 -517.17)"/><path class="cls-3" d="M909.63,696.36l0-.18a.62.62,0,0,0-.32-.46,1.2,1.2,0,0,0-.83-.12,1.14,1.14,0,0,0-.69.49,5.63,5.63,0,0,0-.66,1.48l-.09.44a.66.66,0,0,0,.45.65,1,1,0,0,0,.9-.09,1.42,1.42,0,0,0,.33-.21,3.27,3.27,0,0,0,.35-.48,3.9,3.9,0,0,0,.54-1.52" transform="translate(-829.82 -517.17)"/><path class="cls-3" d="M901.55,706.64a2.06,2.06,0,0,0-.21-.48,20.38,20.38,0,0,0-2.23-3.15l-.4-.37-.13-.08a.34.34,0,0,0-.22,0,.05.05,0,0,0-.05,0,.09.09,0,0,0,0,.06.57.57,0,0,0,0,.18,6.4,6.4,0,0,0,.7,1.38,17.53,17.53,0,0,0,2,2.58l.22.21.1,0a.18.18,0,0,0,.2,0,.16.16,0,0,0,.09-.14.5.5,0,0,0,0-.24" transform="translate(-829.82 -517.17)"/><path class="cls-3" d="M1006.24,710.44c-.71,2.49-1.34,5-1.88,7.54-.1.81-.21,1.61-.33,2.41a7.13,7.13,0,0,0,0,.8v.27a1,1,0,0,0,.15.46.61.61,0,0,0,.36.22l.18,0a1.83,1.83,0,0,0,.33,0c1-.18,2-.34,3-.48a5.16,5.16,0,0,1,1,0,2.66,2.66,0,0,1,1.39.74,49.79,49.79,0,0,0,8.26,6q2.89,1.73,5.86,3.31a42.61,42.61,0,0,0,7.71,2.81,15.38,15.38,0,0,0,4.82.52,2.83,2.83,0,0,0,1.52-.64,23.57,23.57,0,0,0,3-2.69,1.93,1.93,0,0,0,.22-.28.52.52,0,0,0,.09-.29.46.46,0,0,0-.06-.23l-.1-.09a.83.83,0,0,0-.34-.13l-.25,0c-1.23-.13-2.45-.24-3.67-.35a52.85,52.85,0,0,1-6.34-1.44,31.5,31.5,0,0,1-4.49-2,40.79,40.79,0,0,1-8.58-5.15,2.63,2.63,0,0,1-.6-.73l-.08-.18a2.56,2.56,0,0,1,0-1.23.94.94,0,0,1,.06-.15l.14-.16a2.92,2.92,0,0,1,1.19-.66c.6-.21,1.2-.43,1.78-.68a1.36,1.36,0,0,0,.59-.47.55.55,0,0,0,.07-.33l-.06-.18a4,4,0,0,0-.62-1q-1.81-2.1-3.73-4.09a59.07,59.07,0,0,1-4.8-5.44c-.89-1-1.79-2-2.7-3a5.48,5.48,0,0,0-.58-.48l-.16-.09a.58.58,0,0,0-.39,0,.49.49,0,0,0-.27.26,16.34,16.34,0,0,0-.57,1.84q-.57,2.65-1.1,5.34" transform="translate(-829.82 -517.17)"/><path class="cls-6" d="M1001.83,713.35c-.33,1.33-.63,2.64-.91,3.9,0,.1,0,.21,0,.31h0l-.15,1.15-.17,1.16,0,.23h0v0c0,.07,0,.13,0,.2s0,.21,0,.36h0v.66c0,.11,0,.22,0,.33h0a4.56,4.56,0,0,0,.23,1.12h0a4.16,4.16,0,0,0,.49,1l.15.22h0a4.18,4.18,0,0,0,1.15,1l.18.1a3.9,3.9,0,0,0,1.21.43l.33,0a3,3,0,0,0,.46,0l.35,0h0l.39,0a3.4,3.4,0,0,0,.46-.08l1.18-.2,1.18-.19c1.26,1.13,2.63,2.23,4.09,3.3s3,2.07,4.55,3h0c.84.51,1.85,1.09,3,1.73h0c.77.43,1.79,1,3,1.64l.2.1c1.35.64,2.7,1.21,4.05,1.7s2.75.93,4.21,1.31h0a19.57,19.57,0,0,0,2.92.54,18.2,18.2,0,0,0,3,.09l.21,0h0a5.9,5.9,0,0,0,1.81-.47,6.27,6.27,0,0,0,1.57-1c.53-.41,1.09-.88,1.66-1.4s1.16-1.09,1.64-1.61h0l0,0,.19-.23,0-.07h0l.26-.36.08-.13h0a4.41,4.41,0,0,0,.43-.94h0a3.8,3.8,0,0,0,.16-1,2.9,2.9,0,0,0,0-.51,4.16,4.16,0,0,0-.12-.72v0h0a4.21,4.21,0,0,0-.48-1.06,3.62,3.62,0,0,0-.62-.72,3,3,0,0,0-.64-.49h0a4.3,4.3,0,0,0-.75-.35,4,4,0,0,0-.88-.22l-.36,0h0l-1.87-.18-1.81-.18c-.93-.15-1.86-.34-2.77-.55s-1.93-.47-2.92-.76h0c-.58-.2-1.2-.45-1.84-.73s-1.35-.62-2-.95l-.37-.17a37,37,0,0,1-3.93-2.06c-.43-.26-.85-.52-1.27-.8.14-.09.27-.19.4-.29a4.92,4.92,0,0,0,.91-1,2.62,2.62,0,0,0,.3-.51v0h0a4.43,4.43,0,0,0,.32-.95v0h0a4.24,4.24,0,0,0,0-1.19,3.64,3.64,0,0,0-.2-.88l0-.1a1.94,1.94,0,0,0-.15-.36,7.4,7.4,0,0,0-.48-.89l-.15-.22c-.15-.21-.32-.42-.5-.63h0c-.69-.8-1.32-1.52-1.89-2.14s-1.25-1.35-2-2.09l-.08-.08c-.74-.74-1.5-1.56-2.29-2.46s-1.56-1.81-2.19-2.63c-.07-.08-.14-.17-.22-.25l-1.29-1.44-1.39-1.51-.21-.21-.4-.36-.24-.18a2.89,2.89,0,0,0-.28-.21c-.11-.08-.23-.15-.35-.22h0l-.17-.09a3.43,3.43,0,0,0-1.13-.38,3.81,3.81,0,0,0-.75-.07,4.11,4.11,0,0,0-1.48.29,2.92,2.92,0,0,0-.36.17,3.92,3.92,0,0,0-.91.64l-.16.16a4.25,4.25,0,0,0-.72,1l-.12.29h0q-.17.45-.36,1.08a1.21,1.21,0,0,0,0,.18c-.11.36-.2.68-.26,1l0,.09h0c-.06.3-.25,1.2-.57,2.71-.27,1.31-.44,2.13-.52,2.55-.32,1.14-.65,2.39-1,3.74m5.51-8.25a16.34,16.34,0,0,1,.57-1.84.49.49,0,0,1,.27-.26.58.58,0,0,1,.39,0l.16.09a5.48,5.48,0,0,1,.58.48c.91,1,1.81,2,2.7,3a59.07,59.07,0,0,0,4.8,5.44q1.92,2,3.73,4.09a4,4,0,0,1,.62,1l.06.18a.55.55,0,0,1-.07.33,1.36,1.36,0,0,1-.59.47c-.58.25-1.18.47-1.78.68a2.92,2.92,0,0,0-1.19.66l-.14.16a.94.94,0,0,0-.06.15,2.56,2.56,0,0,0,0,1.23l.08.18a2.63,2.63,0,0,0,.6.73,40.79,40.79,0,0,0,8.58,5.15,31.5,31.5,0,0,0,4.49,2,52.85,52.85,0,0,0,6.34,1.44c1.22.11,2.44.22,3.67.35l.25,0a.83.83,0,0,1,.34.13l.1.09a.46.46,0,0,1,.06.23.52.52,0,0,1-.09.29,1.93,1.93,0,0,1-.22.28,23.57,23.57,0,0,1-3,2.69,2.83,2.83,0,0,1-1.52.64,15.38,15.38,0,0,1-4.82-.52,42.61,42.61,0,0,1-7.71-2.81q-3-1.59-5.86-3.31a49.79,49.79,0,0,1-8.26-6,2.66,2.66,0,0,0-1.39-.74,5.16,5.16,0,0,0-1,0c-1,.14-2,.3-3,.48a1.83,1.83,0,0,1-.33,0l-.18,0a.61.61,0,0,1-.36-.22,1,1,0,0,1-.15-.46v-.27a7.13,7.13,0,0,1,0-.8c.12-.8.23-1.6.33-2.41.54-2.53,1.17-5.05,1.88-7.54Q1006.77,707.75,1007.34,705.1Z" transform="translate(-829.82 -517.17)"/><path class="cls-4" d="M1136,712.38a3.65,3.65,0,0,0-.08.74,8.09,8.09,0,0,0,0,1.84,1.3,1.3,0,0,0,.21.52l.09.1a.29.29,0,0,0,.22.07l.14,0a3.43,3.43,0,0,0,.6-.39,20.06,20.06,0,0,0,2.64-3,26.34,26.34,0,0,0,1.5-2.28,4.89,4.89,0,0,0,.42-1.16l0-.22a.67.67,0,0,0-.43-.63l-.18-.06-.32,0a4.63,4.63,0,0,0-1,.06l-.15,0-.21.13a4.86,4.86,0,0,0-1.09,1.08q-.94,1.08-1.86,2.19a3.25,3.25,0,0,0-.53,1.07" transform="translate(-829.82 -517.17)"/><path class="cls-4" d="M1200.9,715.08a11.61,11.61,0,0,1-1.22,1.21,10.17,10.17,0,0,1-5.21,2q-4.29,0-8.58.21-11.07,0-22.13.1-9,.2-18.06.34c-1.33,0-2.67,0-4,.08a12.52,12.52,0,0,0-1.62,0,4.39,4.39,0,0,0-1.07.2,1.85,1.85,0,0,0-.92.91l-.11.28a.75.75,0,0,0,0,.15.36.36,0,0,0,0,.1.33.33,0,0,0,.18.17l.15,0,.57.09c.38.08.76.15,1.15.21a43,43,0,0,0,4.82,0l5.37.06,14.59-.09q4-.17,8-.21a25.91,25.91,0,0,0,4.66-.05q3.75,0,7.5-.2l8.93-.14a13.1,13.1,0,0,0,3.92-.66,7.92,7.92,0,0,0,3.62-3.15,19.12,19.12,0,0,0,1.76-4.17c.45-1,.93-2.07,1.43-3.08a.87.87,0,0,0,.08-.26l0-.11a.05.05,0,0,0,0,0s0,0,0,0a.17.17,0,0,0-.13.07,1.64,1.64,0,0,0-.16.29q-1.07,2-2.17,4.05a6.34,6.34,0,0,1-1.09,1.33Z" transform="translate(-829.82 -517.17)"/><path class="cls-3" d="M893.71,711.87l.11-.16a.75.75,0,0,0,.07-.55.71.71,0,0,0-.32-.45l-.18-.08a4,4,0,0,0-.5-.09,6.42,6.42,0,0,0-1.58,0,2.49,2.49,0,0,0-.47.12,1,1,0,0,0-.6,1,1.65,1.65,0,0,0,.07.32.73.73,0,0,0,.52.46,4.55,4.55,0,0,0,1.28.09,4.11,4.11,0,0,0,1-.17,1.28,1.28,0,0,0,.62-.48" transform="translate(-829.82 -517.17)"/><path class="cls-3" d="M897.74,710.92a1.81,1.81,0,0,0-1,.18l-.17.11a.87.87,0,0,0-.13.15,1.72,1.72,0,0,0-.27.52.52.52,0,0,0,.1.45.88.88,0,0,0,.49.31,4.3,4.3,0,0,0,1,.07l.27,0a.63.63,0,0,0,.37-.17,1.33,1.33,0,0,0,.41-.63l.06-.17a.62.62,0,0,0-.17-.47,1.37,1.37,0,0,0-.2-.13,2,2,0,0,0-.34-.13,1.14,1.14,0,0,0-.41-.07" transform="translate(-829.82 -517.17)"/><path class="cls-3" d="M901.71,711.52a.94.94,0,0,0-.28,1,.43.43,0,0,0,.15.2,1.08,1.08,0,0,0,.3.16,2.92,2.92,0,0,0,.72.06,1.15,1.15,0,0,0,.93-.67l.09-.37a.44.44,0,0,0,0-.1.8.8,0,0,0-.09-.14.76.76,0,0,0-.41-.27l-.49-.08-.26,0a1.05,1.05,0,0,0-.64.22" transform="translate(-829.82 -517.17)"/><path class="cls-3" d="M906.8,711.76a1.06,1.06,0,0,0-.23.19,1.18,1.18,0,0,0-.17.22.78.78,0,0,0,0,.6.59.59,0,0,0,.25.27,1.52,1.52,0,0,0,1,.09l.18-.07a1.33,1.33,0,0,0,.56-.76.81.81,0,0,0,0-.38.24.24,0,0,0-.06-.11.26.26,0,0,0-.09-.09l-.12-.06-.16,0a3.91,3.91,0,0,0-.49,0h-.25a.88.88,0,0,0-.41.17" transform="translate(-829.82 -517.17)"/><path class="cls-1" d="M1088.58,719l.07-.19a.59.59,0,0,0-.4-.64l-.22,0a3.43,3.43,0,0,1-1.07-.52,1.63,1.63,0,0,1-.51-.81,1.58,1.58,0,0,1-.1-.43c0-.25-.08-.49-.13-.73l0-.24a.78.78,0,0,0-.34-.47l-.19-.07a4.42,4.42,0,0,0-1.4-.23c-1.44,0-2.87-.12-4.31-.27-.81,0-1.61,0-2.42.05-1.26,0-2.52,0-3.77,0a8.17,8.17,0,0,0-1.64.2l-.45.13a.48.48,0,0,0-.22.15,1,1,0,0,0-.19.27,2.89,2.89,0,0,0-.25,1.48.82.82,0,0,0,.15.36l.15.13a.78.78,0,0,0,.26.17,1.15,1.15,0,0,0,.31.11,40.34,40.34,0,0,0,5.38.3l6.7,0a1.7,1.7,0,0,1,.94.33.52.52,0,0,1,.18.29,1.21,1.21,0,0,1,0,.19.74.74,0,0,1,0,.21.53.53,0,0,1-.17.31Z" transform="translate(-829.82 -517.17)"/><path class="cls-3" d="M1083.44,719.35q-4.71.06-9.43,0a16.69,16.69,0,0,0-2.22.22l-.42.1a.69.69,0,0,0-.37.3l-.06.12a.43.43,0,0,0,0,.27l.09.13a1.33,1.33,0,0,0,.3.23,6.11,6.11,0,0,0,2.61.69,2,2,0,0,1,1,.29,1.64,1.64,0,0,1,.4.39.92.92,0,0,1,0,1q-.71.78-1.47,1.5c-.63.63-1.23,1.29-1.8,2-.32.31-.66.6-1,.88a10.91,10.91,0,0,0-1.09,1.06,4.78,4.78,0,0,0-.34.42.51.51,0,0,0,0,.52.42.42,0,0,0,.17.18l.12.06a5.92,5.92,0,0,0,1.44.28q3.66.56,7.35.93a54.8,54.8,0,0,0,5.87.29,2,2,0,0,0,.68-.1,1.19,1.19,0,0,0,.77-.87,9.36,9.36,0,0,0,.22-1.59l0-4.54c0-1,1.87-4.62,2.44-5.4Z" transform="translate(-829.82 -517.17)"/><path class="cls-1" d="M1200.49,721.67a8,8,0,0,1-3.32,1,28.09,28.09,0,0,1-4.85.29c-3.77,0-7.54.12-11.32.27-1.52-.08-3-.09-4.58,0q-8.09.06-16.17.23-5.65,0-11.31.1c-.62.06-1.25.13-1.86.22a1.25,1.25,0,0,0-.83.58,9,9,0,0,0-.61,1.3,17,17,0,0,1-1.19,2l-1.79,3.06a4,4,0,0,0-.25.56l-.07.2a.7.7,0,0,0,.15.65.6.6,0,0,0,.32.18l.24.05a11.74,11.74,0,0,0,2.65.09q5.5.06,11-.11a6,6,0,0,1,1.69,0q3,.09,5.89-.07c3.06,0,6.11-.06,9.17-.16,1.71,0,3.42,0,5.12-.14,3.5,0,7-.09,10.51-.26,1.87,0,3.75-.05,5.62-.18a8.39,8.39,0,0,0,3.91-1.45,5.5,5.5,0,0,0,1.47-1.78,79.24,79.24,0,0,0,4.4-9.09c.24-.72.49-1.43.75-2.14a.89.89,0,0,0,.07-.28v-.12l0,0,0,0a.21.21,0,0,0-.15.07c-.26.35-.51.71-.74,1.08a5.66,5.66,0,0,1-1.35,1.61c-.59.57-1.18,1.16-1.75,1.75a3.94,3.94,0,0,1-.77.57" transform="translate(-829.82 -517.17)"/><path class="cls-3" d="M897,722l0,0a.28.28,0,0,0,0-.13,1.11,1.11,0,0,0-.07-.26,15.4,15.4,0,0,0-1.47-2.51c-.31-.49-.65-1-1-1.42a8.29,8.29,0,0,0-.61-.72l-.15-.12-.09-.05a.18.18,0,0,0-.2,0,.31.31,0,0,0-.06.13,1.09,1.09,0,0,0,0,.26,6.35,6.35,0,0,0,.81,1.52c.57.86,1.17,1.7,1.81,2.51a6.59,6.59,0,0,0,.6.69.68.68,0,0,0,.26.15.12.12,0,0,0,.12,0" transform="translate(-829.82 -517.17)"/><path class="cls-3" d="M905.62,722l0,0v-.13a1.11,1.11,0,0,0-.07-.26,16.16,16.16,0,0,0-1.47-2.51c-.31-.49-.65-1-1-1.42a8.29,8.29,0,0,0-.61-.72l-.15-.12-.09-.05a.18.18,0,0,0-.2,0,.18.18,0,0,0-.06.13.57.57,0,0,0,0,.26,6.35,6.35,0,0,0,.81,1.52c.57.86,1.17,1.7,1.81,2.51a5.6,5.6,0,0,0,.6.69.68.68,0,0,0,.26.15.12.12,0,0,0,.12,0" transform="translate(-829.82 -517.17)"/><path class="cls-3" d="M910.49,722l0,0a.28.28,0,0,0,0-.13.77.77,0,0,0-.07-.26,16.1,16.1,0,0,0-1.46-2.51c-.32-.49-.66-1-1-1.42q-.29-.37-.6-.72l-.15-.12-.1-.05a.18.18,0,0,0-.2,0,.31.31,0,0,0-.06.13,1.09,1.09,0,0,0,0,.26,6.35,6.35,0,0,0,.81,1.52c.57.86,1.17,1.7,1.81,2.51a8,8,0,0,0,.6.69.72.72,0,0,0,.27.15.11.11,0,0,0,.11,0" transform="translate(-829.82 -517.17)"/><path class="cls-3" d="M898.45,719.05c.31.49.62,1,.95,1.42a.66.66,0,0,0,.18.19.1.1,0,0,0,.09,0,.08.08,0,0,0,0-.07v-.1a1.22,1.22,0,0,0-.09-.27,13.21,13.21,0,0,0-.9-1.43,2.16,2.16,0,0,0-.25-.27.23.23,0,0,0-.16-.06l0,0a0,0,0,0,0,0,0l0,.12a.55.55,0,0,0,.1.25Z" transform="translate(-829.82 -517.17)"/><path class="cls-3" d="M906.85,671.94c.3.48.62.95.95,1.41a.86.86,0,0,0,.18.2h.08a.06.06,0,0,0,.05-.06v-.11a1.14,1.14,0,0,0-.09-.26,12,12,0,0,0-.91-1.44,1.48,1.48,0,0,0-.24-.26.2.2,0,0,0-.16-.06h-.05a.08.08,0,0,0,0,0l0,.12a1.09,1.09,0,0,0,.1.25Z" transform="translate(-829.82 -517.17)"/><path class="cls-3" d="M890.68,719.05c.3.49.62,1,1,1.42a.66.66,0,0,0,.18.19.08.08,0,0,0,.08,0,.08.08,0,0,0,.05-.07v-.1a1.22,1.22,0,0,0-.09-.27,11.91,11.91,0,0,0-.91-1.43,1.55,1.55,0,0,0-.24-.27.23.23,0,0,0-.16-.06l0,0,0,0,0,.12a.93.93,0,0,0,.1.25Z" transform="translate(-829.82 -517.17)"/><path class="cls-3" d="M897,707a.08.08,0,0,0,0,0v-.12a1.34,1.34,0,0,0-.07-.27,17.42,17.42,0,0,0-1.47-2.5c-.31-.49-.65-1-1-1.43a6.91,6.91,0,0,0-.61-.71.64.64,0,0,0-.15-.13l-.09-.05a.19.19,0,0,0-.2.05.14.14,0,0,0-.06.12.63.63,0,0,0,0,.27,5.79,5.79,0,0,0,.81,1.51c.57.87,1.17,1.7,1.81,2.51a5.69,5.69,0,0,0,.6.7.51.51,0,0,0,.26.14.1.1,0,0,0,.12,0" transform="translate(-829.82 -517.17)"/><path class="cls-3" d="M911.43,706.64a2.06,2.06,0,0,0-.21-.48A19.73,19.73,0,0,0,909,703a4.73,4.73,0,0,0-.4-.37l-.13-.08a.34.34,0,0,0-.22,0,.05.05,0,0,0,0,0,.09.09,0,0,0,0,.06.57.57,0,0,0,0,.18,6.88,6.88,0,0,0,.7,1.38,17.53,17.53,0,0,0,2,2.58l.22.21.1,0a.18.18,0,0,0,.2,0,.16.16,0,0,0,.09-.14.5.5,0,0,0,0-.24" transform="translate(-829.82 -517.17)"/><path class="cls-3" d="M906.9,707a.08.08,0,0,0,0,0,.24.24,0,0,0,0-.12,1.34,1.34,0,0,0-.07-.27,16.54,16.54,0,0,0-1.47-2.5c-.31-.49-.65-1-1-1.43a6.91,6.91,0,0,0-.61-.71.64.64,0,0,0-.15-.13l-.09-.05a.19.19,0,0,0-.2.05.14.14,0,0,0-.06.12.63.63,0,0,0,0,.27,6.1,6.1,0,0,0,.81,1.51c.57.87,1.17,1.7,1.81,2.51a5.69,5.69,0,0,0,.6.7.51.51,0,0,0,.26.14.09.09,0,0,0,.12,0" transform="translate(-829.82 -517.17)"/><path class="cls-3" d="M901.55,690.42a2.26,2.26,0,0,0-.21-.48,20.38,20.38,0,0,0-2.23-3.15,4.48,4.48,0,0,0-.4-.36l-.13-.09a.42.42,0,0,0-.22,0,.09.09,0,0,0-.05,0,.09.09,0,0,0,0,.07.57.57,0,0,0,0,.18A6.56,6.56,0,0,0,899,688a17.62,17.62,0,0,0,2,2.59l.22.2.1.06a.23.23,0,0,0,.2,0,.19.19,0,0,0,.09-.15.5.5,0,0,0,0-.24" transform="translate(-829.82 -517.17)"/><path class="cls-3" d="M894.32,690a2.26,2.26,0,0,0-.21-.48,20.38,20.38,0,0,0-2.23-3.15,3.42,3.42,0,0,0-.4-.36l-.14-.09a.37.37,0,0,0-.21,0,.09.09,0,0,0,0,0,.09.09,0,0,0,0,.07.57.57,0,0,0,0,.18,7.08,7.08,0,0,0,.7,1.37,17.62,17.62,0,0,0,2,2.59l.22.2.1.06a.23.23,0,0,0,.2,0,.17.17,0,0,0,.09-.15.5.5,0,0,0,0-.24" transform="translate(-829.82 -517.17)"/><path class="cls-3" d="M911.43,690.42a2.26,2.26,0,0,0-.21-.48,19.73,19.73,0,0,0-2.23-3.15,3.42,3.42,0,0,0-.4-.36l-.13-.09a.42.42,0,0,0-.22,0,.09.09,0,0,0,0,0,.09.09,0,0,0,0,.07.57.57,0,0,0,0,.18,7.08,7.08,0,0,0,.7,1.37,17.62,17.62,0,0,0,2,2.59l.22.2.1.06a.23.23,0,0,0,.2,0,.19.19,0,0,0,.09-.15.5.5,0,0,0,0-.24" transform="translate(-829.82 -517.17)"/><path class="cls-3" d="M906.9,690.82l0,0a.28.28,0,0,0,0-.13,1.11,1.11,0,0,0-.07-.26,16.16,16.16,0,0,0-1.47-2.51c-.31-.49-.65-1-1-1.42a7,7,0,0,0-.61-.72.44.44,0,0,0-.15-.12l-.09,0a.18.18,0,0,0-.2,0,.16.16,0,0,0-.06.13.58.58,0,0,0,0,.26,6.35,6.35,0,0,0,.81,1.52c.57.86,1.17,1.7,1.81,2.51a6.44,6.44,0,0,0,.6.69.61.61,0,0,0,.26.15.11.11,0,0,0,.12,0" transform="translate(-829.82 -517.17)"/><path class="cls-3" d="M894.37,674.3a3.48,3.48,0,0,0-.21-.48,21.09,21.09,0,0,0-2.23-3.15,4.59,4.59,0,0,0-.41-.36l-.13-.09a.41.41,0,0,0-.22,0,.1.1,0,0,0,0,0,.14.14,0,0,0,0,.06.52.52,0,0,0,0,.18,6.88,6.88,0,0,0,.7,1.38,17.08,17.08,0,0,0,2,2.58l.21.21.11.06a.21.21,0,0,0,.19,0,.16.16,0,0,0,.09-.15.65.65,0,0,0,0-.24" transform="translate(-829.82 -517.17)"/><path class="cls-3" d="M904.25,674.3a3.48,3.48,0,0,0-.21-.48,21.09,21.09,0,0,0-2.23-3.15,4.59,4.59,0,0,0-.41-.36l-.13-.09a.41.41,0,0,0-.22,0,.1.1,0,0,0,0,0,.14.14,0,0,0,0,.06,1,1,0,0,0,0,.18,7.45,7.45,0,0,0,.7,1.38,17.08,17.08,0,0,0,2,2.58l.21.21.11.06a.21.21,0,0,0,.19,0,.16.16,0,0,0,.09-.15.65.65,0,0,0,0-.24" transform="translate(-829.82 -517.17)"/><path class="cls-3" d="M899.71,674.7s0,0,0-.05a.24.24,0,0,0,0-.12.77.77,0,0,0-.07-.26,16.1,16.1,0,0,0-1.46-2.51c-.32-.49-.66-1-1-1.43a8.32,8.32,0,0,0-.6-.71l-.15-.12-.1,0a.19.19,0,0,0-.2,0,.23.23,0,0,0-.06.12,1.24,1.24,0,0,0,0,.27,6.1,6.1,0,0,0,.81,1.51c.57.87,1.17,1.71,1.81,2.51a8.17,8.17,0,0,0,.6.7.72.72,0,0,0,.27.15.1.1,0,0,0,.11,0" transform="translate(-829.82 -517.17)"/><path class="cls-3" d="M890.74,704.07c.3.48.62.95,1,1.42a.65.65,0,0,0,.18.19.11.11,0,0,0,.08,0,.06.06,0,0,0,0-.06l0-.11a.62.62,0,0,0-.09-.26,12,12,0,0,0-.9-1.44l-.24-.26a.25.25,0,0,0-.16-.06s0,0-.05,0a.05.05,0,0,0,0,0l0,.12a.77.77,0,0,0,.1.25Z" transform="translate(-829.82 -517.17)"/><path class="cls-1" d="M1093.46,721.56c1.6.11,3.2.14,4.81.09,1,0,2-.07,3-.18q4.68,0,9.36-.09a29.75,29.75,0,0,0,6.11-.31,1.63,1.63,0,0,0,.3-.07.07.07,0,0,0,0-.14,7.72,7.72,0,0,0-2.06-.43c-1.72-.22-3.43-.39-5.16-.53s-3.6-.33-5.39-.53q-3.36-.24-6.72-.58a32,32,0,0,0-3.79-.23,4.8,4.8,0,0,0-.52.05,1.41,1.41,0,0,0-.73.39,4.48,4.48,0,0,0-.93,1.24l-.1.18a.69.69,0,0,0,.43.89l.25.05c.36.08.73.15,1.1.2" transform="translate(-829.82 -517.17)"/><path class="cls-4" d="M1135.74,727.81a7.66,7.66,0,0,0,.14,3.05,1.16,1.16,0,0,0,.32.62.36.36,0,0,0,.12.08.2.2,0,0,0,.11,0,.66.66,0,0,0,.33-.09,5.47,5.47,0,0,0,1.31-1.09,16.69,16.69,0,0,0,3.34-4.49l.19-.36a4.14,4.14,0,0,0,.38-.92l0-.21a.6.6,0,0,0-.43-.59l-.24-.06a7.6,7.6,0,0,0-1.58-.12l-.53,0a1,1,0,0,0-.58.3c-.39.42-.79.84-1.17,1.26s-.8.83-1.18,1.26a2.86,2.86,0,0,0-.57,1.31" transform="translate(-829.82 -517.17)"/><path class="cls-4" d="M1194.73,733.4c-1.16.06-2.32.08-3.49.09l-5.92.13q-3.49.07-7,.24c-2.07,0-4.15,0-6.22,0-2.24,0-4.49.06-6.74,0q-4.3.27-8.62.33c-1.16,0-2.32.05-3.49,0-1.62.11-3.24.18-4.86.2q-4.28.12-8.55.41a2.12,2.12,0,0,0-1.3.55,3.38,3.38,0,0,0-.6.71l-.09.16a.5.5,0,0,0,.16.49.92.92,0,0,0,.41.17l.28,0c1.34.07,2.68.12,4,.17,2.34-.11,4.68-.16,7-.13q5.67,0,11.32-.25,7.67.06,15.33-.26c3.45,0,6.91-.08,10.35-.26q4.54,0,9.07-.39a9.1,9.1,0,0,0,4-1.93,8.88,8.88,0,0,0,1.9-2.91,1,1,0,0,0,.07-.28v-.11a.08.08,0,0,0,0,0s0,0,0,0a.27.27,0,0,0-.19.06,18.72,18.72,0,0,1-2.81,1.94,7.15,7.15,0,0,1-2.13.52l-1.89.28" transform="translate(-829.82 -517.17)"/><path class="cls-1" d="M1168.05,739.54q-1.18,0-2.37,0c-.63,0-1.27.09-1.9.17l-.49.07a.83.83,0,0,0-.32.2l-.11.17a2.25,2.25,0,0,0-.34,1,53.44,53.44,0,0,0-.2,5.37c0,.53-.07,1.06-.13,1.59a.74.74,0,0,1-.24.5.7.7,0,0,1-.37.17h-.76a1.49,1.49,0,0,1-1.29-1.13,2.93,2.93,0,0,1-.08-1.06,37.94,37.94,0,0,0,.2-4.39,11.43,11.43,0,0,0-.07-1.32,1.31,1.31,0,0,0-.51-.87l-.15-.08-.3-.07a16.44,16.44,0,0,0-3.84-.09q-3.57,0-7.16.21a2.46,2.46,0,0,0-.61.14,1.22,1.22,0,0,0-.74.63,8.57,8.57,0,0,0-.51,1.39c-.11.32-.23.63-.37.94l-.13.32a.48.48,0,0,0,.1.5,1.16,1.16,0,0,0,.24.2,6.35,6.35,0,0,0,1.36.51l3.65,1.46c2.6.89,5.2,1.8,7.78,2.73a15.35,15.35,0,0,0,1.79.37,3.52,3.52,0,0,1,1.45.68c.37.26.73.53,1.07.82a3.7,3.7,0,0,1,.37.42.9.9,0,0,1,.1.68,2.12,2.12,0,0,1-.63.93c-.86.75-1.73,1.5-2.61,2.24a4,4,0,0,0-.43.39.79.79,0,0,0-.24.63.84.84,0,0,0,.3.61,8.63,8.63,0,0,0,1.09.73,4.18,4.18,0,0,1,1,.87,9.34,9.34,0,0,0,1.78,1.48,79.31,79.31,0,0,1,7.65,6.89c1.43,1.35,2.83,2.74,4.21,4.14.28.27.56.52.84.78a6.71,6.71,0,0,0,.7.6l.13.08a.41.41,0,0,0,.22,0,.21.21,0,0,0,.14-.1l.06-.12a7.39,7.39,0,0,0,.33-2c.25-4,.34-8.08.28-12.12q-.06-3.65.14-7.28c0-1.62,0-3.23.09-4.85a21.53,21.53,0,0,1,0-3.5,12.12,12.12,0,0,0-.1-1.59,1.81,1.81,0,0,0-.17-.59l-.09-.17a.79.79,0,0,0-.36-.24l-.23,0a20.06,20.06,0,0,0-4.1-.06l-3.72-.07-1.38.08" transform="translate(-829.82 -517.17)"/><line class="cls-7" x1="350.16" y1="111.27" x2="350.16" y2="155.73"/><line class="cls-7" x1="363.19" y1="98.24" x2="363.19" y2="126.65"/><line class="cls-7" x1="333.99" y1="109.92" x2="351.96" y2="109.92"/><line class="cls-7" x1="333.1" y1="112.17" x2="350.16" y2="112.17"/><polygon class="cls-3" points="173.65 110.37 174.55 41.2 169.61 38.95 182.18 16.56 193.41 38.95 187.57 41.2 185.78 110.82 173.65 110.37"/><path class="cls-6" d="M1015.6,628l1.79-69.62,5.84-2.24L1012,533.74l-12.57,22.39,4.94,2.24-.9,69.17Zm-15.64-.57a3.51,3.51,0,0,0,3.38,3.62l12.13.45h0a3.5,3.5,0,0,0,3.59-3.42l1.74-67.27,3.54-1.37a3.69,3.69,0,0,0,.42-.17,3.5,3.5,0,0,0,1.56-4.7l-11.11-22.16a3.47,3.47,0,0,0-1.53-1.73,3.51,3.51,0,0,0-4.78,1.35l-12.58,22.39h0l-.14.27a3.53,3.53,0,0,0,1.76,4.65l2.85,1.29-.86,66.77Z" transform="translate(-829.82 -517.17)"/><path class="cls-2" d="M899.34,522c-1.88-.07-3.76-.17-5.64-.29-1.69-.12-3.39-.18-5.08-.21-1.43.15-2.87.23-4.31.25-2.24.22-4.48.49-6.71.79l-6.83,1.24a37.29,37.29,0,0,0-4.5,1.42l-4.38,1.28c-.78.27-1.55.58-2.31.92-.48.16-1,.31-1.45.44l-1.7.74q-5.71,2.65-11.21,5.75a5.45,5.45,0,0,1-.76.3l-.2.06a.45.45,0,0,1-.28,0l-.15-.11a2.81,2.81,0,0,1-.71-.9c-.7-1.36-1.43-2.69-2.18-4a2,2,0,0,0-.34-.43l-.13-.12a.3.3,0,0,0-.26,0l-.15.11a6.59,6.59,0,0,0-1.42,1.77c-.3.41-.59.84-.86,1.28-.9,1.68-1.86,3.33-2.86,4.95q-1.27,2.61-2.64,5.18c-.63,1.26-1.26,2.52-1.88,3.78a7.42,7.42,0,0,0-.45.89,1.53,1.53,0,0,0-.12.79.55.55,0,0,0,.14.32l.15.11a1.51,1.51,0,0,0,.28.15,1.28,1.28,0,0,0,.28.07,6.63,6.63,0,0,0,2.9-.23c2.19-.49,4.38-1,6.56-1.52,1.66-.31,3.31-.64,5-1,.62-.18,1.23-.37,1.83-.59a2.86,2.86,0,0,0,.52-.27l.15-.11a.78.78,0,0,0,.21-.3.59.59,0,0,0,.05-.32,4.06,4.06,0,0,0-.27-1,24.66,24.66,0,0,0-1.37-3,16,16,0,0,1-.62-1.54c-.06-.18-.13-.38-.18-.57l0-.2a1.14,1.14,0,0,1,.4-.88,14,14,0,0,1,2-1.48q2-1.17,4-2.26l4.33-2.13a18.48,18.48,0,0,0,2.6-1.18,28.25,28.25,0,0,1,2.95-1.1,36.17,36.17,0,0,1,6.56-2.06,51.4,51.4,0,0,1,6.21-1.59,46.48,46.48,0,0,1,6.08-.92,48.57,48.57,0,0,1,6.14-.4,49.66,49.66,0,0,1,13.28.59,5.06,5.06,0,0,1,1.1.27l.41.15a.33.33,0,0,1,.13.11c.08.11.15.23.22.35a1.46,1.46,0,0,1,.07.19,2,2,0,0,1,0,.24,26.45,26.45,0,0,1-.17,3.21q-.08.67-.09,1.35a8.45,8.45,0,0,0,0,1.33,1,1,0,0,0,.16.38.46.46,0,0,0,.28.17h.23a11.12,11.12,0,0,0,2-.3,37.4,37.4,0,0,1,4.68-1,7.62,7.62,0,0,0,1.61-.54c2.31-.81,4.67-1.52,7-2.11.33-.11.66-.23,1-.36l.19-.08a.6.6,0,0,0,.22-.28,1.1,1.1,0,0,0,.1-.47,3.27,3.27,0,0,0-.67-1.77,5.27,5.27,0,0,0-2-1.8,92.74,92.74,0,0,0-11.86-6.19l-.4-.12a.78.78,0,0,0-.37,0,.44.44,0,0,0-.24.11,1,1,0,0,0-.32.44,11.1,11.1,0,0,0-.48,1.95,10.5,10.5,0,0,1-.42,1.74,1.15,1.15,0,0,1-.1.23.49.49,0,0,1-.12.13,1.36,1.36,0,0,1-.75.29,8.47,8.47,0,0,1-1.67-.1l-.48,0" transform="translate(-829.82 -517.17)"/><line class="cls-8" x1="305.45" y1="173.4" x2="256.78" y2="169.5"/><line class="cls-8" x1="305.45" y1="189.83" x2="256.78" y2="185.93"/><line class="cls-8" x1="305.45" y1="206.26" x2="256.78" y2="202.36"/><line class="cls-8" x1="304.69" y1="222.68" x2="256.03" y2="218.79"/><path class="cls-3" d="M1130.23,739.06l11.91,26.3,6.07-2.8,2.92,2.8c4.94,4,18,19.31,18,19.31l12.58-8.53s-11.23-12.58-19.76-18.42l-2.77-3.16,5-5.37-18.91-6.69Z" transform="translate(-829.82 -517.17)"/><path class="cls-6" d="M1138.94,766.8a3.51,3.51,0,0,0,4.65,1.76l.1,0,3.82-1.76,1.18,1.14.21.18h0c4.72,3.86,17.49,18.83,17.53,18.87a3.5,3.5,0,0,0,4.8.5l12.4-8.41a3.51,3.51,0,0,0,.94-4.87,3.44,3.44,0,0,0-.28-.36h0s-11.2-12.54-20-18.73l-.38-.43,2.85-3.06a3.51,3.51,0,0,0-.18-5,3.37,3.37,0,0,0-1.22-.74h0l-18.91-6.69a2.72,2.72,0,0,0-.49-.13L1131,735.64a3.51,3.51,0,0,0-4.2,2.64,3.42,3.42,0,0,0,.22,2.22h0l11.91,26.29m6.3-24.3,18.91,6.69-5,5.37,2.77,3.16c8.53,5.84,19.76,18.42,19.76,18.42l-12.58,8.53s-13-15.27-18-19.31l-2.92-2.8-6.07,2.8-11.91-26.3Z" transform="translate(-829.82 -517.17)"/><path class="cls-4" d="M995.9,694.81q-3.52-.13-7,.06-6.74-.18-13.47-.13-6.06,0-12.13,0-3.75,0-7.5.12-4.74-.12-9.47-.07t-9.67,0c-.55,0-1.11.12-1.66.2l-1.53.09a4.33,4.33,0,0,0-2,.67c-.62.3-1.26.57-1.91.81a10.59,10.59,0,0,0-2.22,1.26c-.68.39-1.34.8-2,1.24q-4.44,3.39-9,6.65c-.22.13-.44.26-.67.37l-.17.08a.49.49,0,0,1-.37-.06.51.51,0,0,1-.23-.29l-.06-.24a11.76,11.76,0,0,1-.15-2.65,1.88,1.88,0,0,1,.62-1.22c.34-.29.69-.58,1-.85q5.73-4.56,11.7-8.79l2.92-1.93a8,8,0,0,1,2.95-1.1,12.64,12.64,0,0,1,2.93-.49q7.95-.19,15.9-.23c2.49,0,5,.05,7.46,0q9.06-.16,18.13-.15,3-.1,5.93,0,7.14-.09,14.29-.06c3,.06,5.93.06,8.89,0l6.72,0c.3,0,.6-.05.9-.1a6.51,6.51,0,0,1,1.08,0c2,0,3.9.05,5.85,0l18.25,0a18.74,18.74,0,0,1,3.35,0,11.52,11.52,0,0,0,1.66-.06,7.61,7.61,0,0,1,1.35,0c1.31,0,2.63,0,3.94-.06a39.57,39.57,0,0,0,4.87,0c2.87,0,5.73,0,8.6.1,2.52-.06,5-.08,7.57-.07q6.14-.06,12.26.06a18.18,18.18,0,0,0,2.66,0,.69.69,0,0,1,.32,0l.15,0a.51.51,0,0,1,.25.25.25.25,0,0,1,0,.12,1,1,0,0,1-.06.23,6.93,6.93,0,0,0-.46,1.35,2.12,2.12,0,0,0,0,.44c0,.7,0,1.41,0,2.12a9.76,9.76,0,0,1-.09,1.32,1.22,1.22,0,0,1-.72,1,4.81,4.81,0,0,1-2.12.35q-3.36,0-6.7.1-7.71-.11-15.4-.07-6.33,0-12.67,0-5.92,0-11.86-.12c-2.24-.05-4.49-.05-6.73,0-11.49-.23-22.95-.27-34.46-.3" transform="translate(-829.82 -517.17)"/></svg>