<svg xmlns="http://www.w3.org/2000/svg" xmlns:xlink="http://www.w3.org/1999/xlink" viewBox="0 0 78.71 74.63"><defs><style>.cls-1{fill:url(#Безымянный_градиент_24);}.cls-2{fill:url(#Безымянный_градиент_24-2);}.cls-3{fill:#f36900;}.cls-4{fill:#5a5a5a;}</style><linearGradient id="Безымянный_градиент_24" y1="37.65" x2="25.29" y2="37.65" gradientUnits="userSpaceOnUse"><stop offset="0" stop-color="#f36900" stop-opacity="0"/><stop offset="1" stop-color="#f36900"/></linearGradient><linearGradient id="Безымянный_градиент_24-2" x1="-282.06" y1="-5362.79" x2="-256.77" y2="-5362.79" gradientTransform="translate(-203.35 -5324.14) rotate(180)" xlink:href="#Безымянный_градиент_24"/></defs><g id="Слой_1" data-name="Слой 1"><rect class="cls-1" y="32.65" width="25.29" height="10"/><rect class="cls-2" x="53.42" y="33.65" width="25.29" height="10"/><rect class="cls-3" x="29.31" y="26.22" width="19.99" height="46"/><polygon class="cls-4" points="53.86 0 24.86 0 24.86 8.04 35.27 8.04 35.27 50.11 43.44 50.11 43.44 8.04 53.86 8.04 53.86 0"/><polygon class="cls-4" points="46.3 23.99 46.3 66.6 32.3 66.6 32.3 23.99 25.29 23.99 25.29 66.6 25.29 74.63 32.3 74.63 46.3 74.63 53.42 74.63 53.42 66.6 53.42 23.99 46.3 23.99"/></g></svg>