<svg xmlns="http://www.w3.org/2000/svg" xmlns:xlink="http://www.w3.org/1999/xlink" viewBox="0 0 71.71 66.89"><defs><style>.cls-1{fill:url(#Безымянный_градиент_24);}.cls-2{fill:url(#Безымянный_градиент_26);}.cls-3{fill:#e4e4e4;stroke:#000;stroke-miterlimit:22.93;}.cls-4{fill:#5a5a5a;fill-rule:evenodd;}.cls-5{fill:#fa6900;}</style><linearGradient id="Безымянный_градиент_24" y1="21.23" x2="25.29" y2="21.23" gradientUnits="userSpaceOnUse"><stop offset="0" stop-color="#f36900" stop-opacity="0"/><stop offset="1" stop-color="#f36900"/></linearGradient><linearGradient id="Безымянный_градиент_26" x1="-278.56" y1="-5349.01" x2="-253.27" y2="-5349.01" gradientTransform="translate(-206.85 -5327.78) rotate(180)" gradientUnits="userSpaceOnUse"><stop offset="0" stop-color="#9c4500" stop-opacity="0"/><stop offset="1" stop-color="#9c4500"/></linearGradient></defs><g id="Слой_1" data-name="Слой 1"><rect class="cls-1" y="16.23" width="25.29" height="10"/><rect class="cls-2" x="46.42" y="16.23" width="25.29" height="10"/><rect x="58.72" y="18.95" width="0.73" height="0.76"/><rect class="cls-3" x="58.72" y="18.95" width="0.73" height="0.76"/><rect x="60.68" y="24.37" width="0.73" height="0.76"/><rect x="51.12" y="19.19" width="0.73" height="0.76"/><rect class="cls-3" x="50.12" y="18.19" width="0.73" height="0.76"/><rect x="63.05" y="21.18" width="0.73" height="0.76"/><rect x="54.29" y="21.41" width="0.73" height="0.76"/><rect class="cls-3" x="49.17" y="24.11" width="0.73" height="0.76"/><path class="cls-4" d="M510.88,473.28h4.23v-2h-4.23v-4.6h-21.4v4.6h-4.24v2h4.24V517h0a6,6,0,0,0,.88,4L498,532.17c1.19,1.72,3.06,1.82,4.17.21l7.94-11.57a5.44,5.44,0,0,0,.72-3.77h0Z" transform="translate(-464.14 -466.63)"/><rect class="cls-5" x="26.58" y="6.91" width="18.89" height="1.58"/><rect class="cls-5" x="26.58" y="11.49" width="18.89" height="1.58"/><rect class="cls-5" x="26.58" y="16.06" width="18.89" height="1.58"/><rect class="cls-5" x="26.58" y="20.64" width="18.89" height="1.58"/><rect class="cls-5" x="26.58" y="25.21" width="18.89" height="1.58"/><rect class="cls-5" x="26.58" y="29.79" width="18.89" height="1.58"/><rect class="cls-5" x="26.58" y="34.37" width="18.89" height="1.58"/><rect class="cls-5" x="26.58" y="38.94" width="18.89" height="1.58"/><rect class="cls-5" x="26.58" y="43.52" width="18.89" height="1.58"/><rect class="cls-5" x="26.58" y="48.1" width="18.89" height="1.58"/></g></svg>