<svg id="Слой_1" data-name="Слой 1" xmlns="http://www.w3.org/2000/svg" xmlns:xlink="http://www.w3.org/1999/xlink" viewBox="0 0 88.71 66.89"><defs><style>.cls-1{fill:url(#Безымянный_градиент_24);}.cls-2{fill:url(#Безымянный_градиент_26);}.cls-3{fill:#e4e4e4;stroke:#000;stroke-miterlimit:22.93;}.cls-4{fill:#5a5a5a;fill-rule:evenodd;}.cls-5{fill:#fa6900;}</style><linearGradient id="Безымянный_градиент_24" y1="21.23" x2="25.29" y2="21.23" gradientUnits="userSpaceOnUse"><stop offset="0" stop-color="#f36900" stop-opacity="0"/><stop offset="1" stop-color="#f36900"/></linearGradient><linearGradient id="Безымянный_градиент_26" x1="-228.6" y1="-5405.72" x2="-203.31" y2="-5405.72" gradientTransform="translate(-139.89 -5384.49) rotate(180)" gradientUnits="userSpaceOnUse"><stop offset="0" stop-color="#9c4500" stop-opacity="0"/><stop offset="1" stop-color="#9c4500"/></linearGradient></defs><rect class="cls-1" y="16.23" width="25.29" height="10"/><rect class="cls-2" x="63.42" y="16.23" width="25.29" height="10"/><rect x="75.72" y="18.95" width="0.73" height="0.76"/><rect class="cls-3" x="75.72" y="18.95" width="0.73" height="0.76"/><rect x="77.68" y="24.37" width="0.73" height="0.76"/><rect x="68.12" y="19.19" width="0.73" height="0.76"/><rect class="cls-3" x="67.12" y="18.19" width="0.73" height="0.76"/><rect x="80.05" y="21.18" width="0.73" height="0.76"/><rect x="71.29" y="21.41" width="0.73" height="0.76"/><rect class="cls-3" x="66.17" y="24.11" width="0.73" height="0.76"/><path class="cls-4" d="M460.84,530h7.71v-2h-7.71v-4.6H422v4.6h-7.7v2H422v43.76h0a4,4,0,0,0,1.61,4l13.91,11.14a6.36,6.36,0,0,0,7.57.21l14.43-11.56a3.57,3.57,0,0,0,1.31-3.77h0Z" transform="translate(-397.18 -523.34)"/><rect class="cls-5" x="27.59" y="6.91" width="14" height="1.58"/><rect class="cls-5" x="27.59" y="11.49" width="14" height="1.58"/><rect class="cls-5" x="27.59" y="16.06" width="14" height="1.58"/><rect class="cls-5" x="27.59" y="20.64" width="14" height="1.58"/><rect class="cls-5" x="27.59" y="25.21" width="14" height="1.58"/><rect class="cls-5" x="27.59" y="29.79" width="14" height="1.58"/><rect class="cls-5" x="27.59" y="34.37" width="14" height="1.58"/><rect class="cls-5" x="27.59" y="38.94" width="14" height="1.58"/><rect class="cls-5" x="27.59" y="43.52" width="14" height="1.58"/><rect class="cls-5" x="27.59" y="48.1" width="14" height="1.58"/><rect class="cls-5" x="46.86" y="6.91" width="14" height="1.58"/><rect class="cls-5" x="46.86" y="11.49" width="14" height="1.58"/><rect class="cls-5" x="46.86" y="16.06" width="14" height="1.58"/><rect class="cls-5" x="46.86" y="20.64" width="14" height="1.58"/><rect class="cls-5" x="46.86" y="25.21" width="14" height="1.58"/><rect class="cls-5" x="46.86" y="29.79" width="14" height="1.58"/><rect class="cls-5" x="46.86" y="34.37" width="14" height="1.58"/><rect class="cls-5" x="46.86" y="38.94" width="14" height="1.58"/><rect class="cls-5" x="46.86" y="43.52" width="14" height="1.58"/><rect class="cls-5" x="46.86" y="48.1" width="14" height="1.58"/></svg>