<svg id="Слой_2" data-name="Слой 2" xmlns="http://www.w3.org/2000/svg" xmlns:xlink="http://www.w3.org/1999/xlink" viewBox="0 0 131.53 106.81"><defs><style>.cls-1{fill:url(#Безымянный_градиент_40);}.cls-2{fill:url(#Безымянный_градиент_49);}.cls-3{fill:url(#Безымянный_градиент_49-2);}.cls-4{fill:url(#Безымянный_градиент_49-3);}.cls-5{fill:url(#Безымянный_градиент_49-4);}.cls-6{fill:url(#Безымянный_градиент_49-5);}.cls-7{fill:url(#Безымянный_градиент_49-6);}.cls-8{fill:url(#Безымянный_градиент_49-7);}.cls-9{fill:url(#Безымянный_градиент_52);}.cls-10{fill:url(#Безымянный_градиент_52-2);}.cls-11{fill:url(#Безымянный_градиент_52-3);}.cls-12{fill:url(#Безымянный_градиент_52-4);}.cls-13{fill:url(#Безымянный_градиент_52-5);}.cls-14{fill:url(#Безымянный_градиент_52-6);}.cls-15{fill:url(#Безымянный_градиент_52-7);}.cls-16{fill:url(#Безымянный_градиент_52-8);}.cls-17{fill:url(#Безымянный_градиент_52-9);}.cls-18,.cls-25{fill:#e4e4e4;}.cls-18{stroke:#5a5a5a;stroke-dasharray:3 1.5;}.cls-18,.cls-24,.cls-25{stroke-miterlimit:22.93;}.cls-19,.cls-20{fill:#5a5a5a;}.cls-19,.cls-21,.cls-23{fill-rule:evenodd;}.cls-21{fill:#fff;}.cls-22,.cls-24{fill:#f36900;}.cls-23{fill:#fa6900;}.cls-24,.cls-25{stroke:#fff;}</style><linearGradient id="Безымянный_градиент_40" y1="53.2" x2="123" y2="53.2" gradientUnits="userSpaceOnUse"><stop offset="0" stop-color="#5a5a5a" stop-opacity="0"/><stop offset="0.32" stop-color="#5a5a5a"/><stop offset="0.78" stop-color="#5a5a5a"/><stop offset="1" stop-color="#5a5a5a" stop-opacity="0"/></linearGradient><linearGradient id="Безымянный_градиент_49" x1="124" y1="53.28" x2="96.42" y2="53.28" gradientUnits="userSpaceOnUse"><stop offset="0" stop-opacity="0"/><stop offset="1"/></linearGradient><linearGradient id="Безымянный_градиент_49-2" x1="124" y1="53.25" x2="96.42" y2="53.25" xlink:href="#Безымянный_градиент_49"/><linearGradient id="Безымянный_градиент_49-3" x1="124" y1="53.26" x2="96.42" y2="53.26" xlink:href="#Безымянный_градиент_49"/><linearGradient id="Безымянный_градиент_49-4" x1="124" y1="52.67" x2="96.42" y2="52.67" xlink:href="#Безымянный_градиент_49"/><linearGradient id="Безымянный_градиент_49-5" x1="124" y1="50.45" x2="96.42" y2="50.45" xlink:href="#Безымянный_градиент_49"/><linearGradient id="Безымянный_градиент_49-6" x1="124" y1="53.29" x2="96.42" y2="53.29" xlink:href="#Безымянный_градиент_49"/><linearGradient id="Безымянный_градиент_49-7" x1="124" y1="53.3" x2="96.42" y2="53.3" xlink:href="#Безымянный_градиент_49"/><linearGradient id="Безымянный_градиент_52" x1="-0.29" y1="53.09" x2="38.86" y2="53.09" gradientUnits="userSpaceOnUse"><stop offset="0" stop-color="#fa6900" stop-opacity="0"/><stop offset="0.6" stop-color="#fa6900"/></linearGradient><linearGradient id="Безымянный_градиент_52-2" x1="-0.29" y1="56.71" x2="38.86" y2="56.71" xlink:href="#Безымянный_градиент_52"/><linearGradient id="Безымянный_градиент_52-3" x1="-0.29" y1="53.1" x2="38.86" y2="53.1" xlink:href="#Безымянный_градиент_52"/><linearGradient id="Безымянный_градиент_52-4" x1="-0.29" y1="54.49" x2="38.86" y2="54.49" xlink:href="#Безымянный_градиент_52"/><linearGradient id="Безымянный_градиент_52-5" x1="-0.29" y1="53.11" x2="38.86" y2="53.11" xlink:href="#Безымянный_градиент_52"/><linearGradient id="Безымянный_градиент_52-6" x1="-0.29" y1="53.14" x2="38.86" y2="53.14" xlink:href="#Безымянный_градиент_52"/><linearGradient id="Безымянный_градиент_52-7" x1="-0.29" y1="53.15" x2="38.86" y2="53.15" xlink:href="#Безымянный_градиент_52"/><linearGradient id="Безымянный_градиент_52-8" x1="-0.29" y1="53.12" x2="38.86" y2="53.12" xlink:href="#Безымянный_градиент_52"/><linearGradient id="Безымянный_градиент_52-9" x1="-0.29" y1="53.16" x2="38.86" y2="53.16" xlink:href="#Безымянный_градиент_52"/></defs><polygon class="cls-1" points="123 58.2 0 57.96 0.01 48.2 123 48.43 123 58.2"/><polygon class="cls-2" points="95.12 48.3 94.18 48.3 107.16 58.25 108.09 58.25 95.12 48.3"/><polygon class="cls-3" points="95.49 58.23 96.43 58.23 83.45 48.28 82.52 48.28 95.49 58.23"/><polygon class="cls-4" points="89.29 48.29 88.35 48.29 101.32 58.24 102.26 58.24 89.29 48.29"/><polygon class="cls-5" points="123 57.01 123 56.29 112.62 48.34 111.68 48.33 123 57.01"/><polygon class="cls-6" points="118.45 48.35 117.52 48.34 123 52.55 123 51.83 118.45 48.35"/><polygon class="cls-7" points="100.95 48.31 100.02 48.31 112.99 58.26 113.93 58.27 100.95 48.31"/><polygon class="cls-8" points="106.79 48.32 105.85 48.32 118.82 58.27 119.76 58.28 106.79 48.32"/><polygon class="cls-9" points="2.16 48.13 0.01 48.12 0.01 48.58 12.39 58.05 15.13 58.06 2.16 48.13"/><polygon class="cls-10" points="0.9 58.03 3.46 58.03 0 55.38 0 57.34 0.9 58.03"/><polygon class="cls-11" points="7.99 48.14 5.25 48.13 18.22 58.06 20.96 58.07 7.99 48.14"/><polygon class="cls-12" points="0 50.93 0 52.89 6.73 58.04 9.3 58.05 0 50.93"/><polygon class="cls-13" points="13.64 48.15 11.08 48.15 24.05 58.07 26.62 58.08 13.64 48.15"/><polygon class="cls-14" points="25.31 48.17 22.75 48.17 35.72 58.1 38.28 58.1 25.31 48.17"/><polygon class="cls-15" points="31.14 48.19 28.58 48.18 41.55 58.11 44.12 58.11 31.14 48.19"/><polygon class="cls-16" points="19.48 48.16 16.91 48.16 29.89 58.09 32.45 58.09 19.48 48.16"/><polygon class="cls-17" points="36.98 48.2 34.41 48.19 47.39 58.12 49.95 58.12 36.98 48.2"/><path class="cls-18" d="M454,558.87,507,524.43m-1.47,106-52-33.1" transform="translate(-375.77 -524.01)"/><path class="cls-19" d="M452.37,598.39a3,3,0,1,1,3-3,3,3,0,0,1-3,3" transform="translate(-375.77 -524.01)"/><rect class="cls-20" x="75.71" y="65.37" width="1.78" height="3.36"/><path class="cls-21" d="M452.37,596.52a1.14,1.14,0,1,1,1.14-1.13,1.14,1.14,0,0,1-1.14,1.13" transform="translate(-375.77 -524.01)"/><path class="cls-19" d="M452.41,556.37a3,3,0,1,1-3,3,3,3,0,0,1,3-3" transform="translate(-375.77 -524.01)"/><rect class="cls-20" x="75.74" y="38.01" width="1.78" height="3.36"/><path class="cls-21" d="M452.41,558.24a1.14,1.14,0,1,1-1.14,1.14,1.14,1.14,0,0,1,1.14-1.14" transform="translate(-375.77 -524.01)"/><rect class="cls-20" x="39.69" y="40.46" width="46.52" height="25.82"/><rect class="cls-22" x="455.6" y="575.15" width="17.21" height="4.49" transform="matrix(0, -1, 1, 0, -489.43, 517.01)"/><path class="cls-23" d="M438.72,580.31a2.94,2.94,0,1,1,2.94-2.93A2.94,2.94,0,0,1,438.72,580.31Z" transform="translate(-375.77 -524.01)"/><path class="cls-24" d="M438.72,580.31a2.94,2.94,0,1,1,2.94-2.93A2.94,2.94,0,0,1,438.72,580.31Z" transform="translate(-375.77 -524.01)"/><line class="cls-25" x1="86.22" y1="40.48" x2="86.22" y2="66.3"/></svg>