<svg id="Слой_2" data-name="Слой 2" xmlns="http://www.w3.org/2000/svg" xmlns:xlink="http://www.w3.org/1999/xlink" viewBox="0 0 84.37 60.05"><defs><style>.cls-1{fill:url(#Безымянный_градиент_58);}.cls-2{fill:none;stroke:#fa6900;stroke-miterlimit:10;stroke-width:2px;}.cls-3,.cls-5{fill:#5a5a5a;}.cls-4,.cls-6{fill:#fff;}.cls-5,.cls-6{fill-rule:evenodd;}</style><radialGradient id="Безымянный_градиент_58" cx="399.07" cy="546.86" r="44.24" gradientUnits="userSpaceOnUse"><stop offset="0.37" stop-color="#fa6900"/><stop offset="1" stop-color="#fa6900" stop-opacity="0"/></radialGradient></defs><path class="cls-1" d="M436.73,563.7a1.08,1.08,0,0,1-.38-.08l-1.89-.77a1,1,0,1,1,.76-1.85l1.89.77a1,1,0,0,1-.38,1.93Zm-7.58-3.1a1,1,0,0,1-.37-.08l-1.9-.77a1,1,0,1,1,.76-1.85l1.89.77a1,1,0,0,1-.38,1.93Zm-7.57-3.1a1,1,0,0,1-.38-.07l-1.9-.78a1,1,0,0,1,.76-1.85l1.9.78a1,1,0,0,1-.38,1.92ZM414,554.41a1,1,0,0,1-.38-.08l-1.89-.77a1,1,0,0,1,.75-1.86l1.9.78a1,1,0,0,1-.38,1.93Zm-7.58-3.1a1.08,1.08,0,0,1-.38-.08l-1.89-.77a1,1,0,1,1,.76-1.85l1.89.77a1,1,0,0,1-.38,1.93Z" transform="translate(-399.39 -547.43)"/><path class="cls-1" d="M439.07,555.62h-.18l-2-.37a1,1,0,0,1-.81-1.16,1,1,0,0,1,1.16-.81l2,.37a1,1,0,0,1-.18,2ZM431,554.16h-.18l-2-.37a1,1,0,0,1-.8-1.16,1,1,0,0,1,1.16-.8l2,.36a1,1,0,0,1-.17,2ZM423,552.71l-.18,0-2-.36a1,1,0,0,1-.81-1.17,1,1,0,0,1,1.16-.8l2,.36a1,1,0,0,1,.8,1.17A1,1,0,0,1,423,552.71Zm-8-1.46-.18,0-2-.36a1,1,0,0,1,.36-2l2,.37a1,1,0,0,1,.81,1.16A1,1,0,0,1,414.91,551.25Zm-8.06-1.46h-.18l-2-.37a1,1,0,1,1,.36-2l2,.37a1,1,0,0,1-.18,2Z" transform="translate(-399.39 -547.43)"/><path class="cls-1" d="M433.29,570.29a1,1,0,0,1-.54-.16L431,569a1,1,0,1,1,1.09-1.68l1.72,1.11a1,1,0,0,1,.29,1.38A1,1,0,0,1,433.29,570.29Zm-6.88-4.44a1,1,0,0,1-.54-.16l-1.72-1.11a1,1,0,0,1,1.08-1.68L427,564a1,1,0,0,1-.54,1.84Zm-6.88-4.43a1,1,0,0,1-.54-.16l-1.72-1.11a1,1,0,0,1,1.08-1.68l1.72,1.11a1,1,0,0,1-.54,1.84ZM412.65,557a1.06,1.06,0,0,1-.54-.16l-1.72-1.11a1,1,0,1,1,1.08-1.68l1.72,1.1a1,1,0,0,1-.54,1.85Zm-6.88-4.44a1,1,0,0,1-.54-.16l-1.72-1.11a1,1,0,0,1-.3-1.38,1,1,0,0,1,1.38-.3l1.72,1.11a1,1,0,0,1-.54,1.84Z" transform="translate(-399.39 -547.43)"/><path class="cls-1" d="M428.71,576.12a1,1,0,0,1-.69-.27l-1.48-1.41a1,1,0,1,1,1.37-1.45l1.49,1.4a1,1,0,0,1,0,1.41A1,1,0,0,1,428.71,576.12Zm-5.95-5.62a1,1,0,0,1-.69-.27l-1.49-1.41a1,1,0,1,1,1.38-1.45l1.48,1.4a1,1,0,0,1-.68,1.73Zm-5.95-5.62a1,1,0,0,1-.69-.28l-1.49-1.4a1,1,0,1,1,1.37-1.45l1.49,1.4a1,1,0,0,1,0,1.41A1,1,0,0,1,416.81,564.88Zm-6-5.62a1,1,0,0,1-.68-.28l-1.49-1.4a1,1,0,1,1,1.37-1.45l1.49,1.4a1,1,0,0,1,0,1.41A1,1,0,0,1,410.85,559.26Zm-6-5.62a1,1,0,0,1-.68-.28l-1.49-1.4a1,1,0,1,1,1.37-1.45l1.49,1.4a1,1,0,0,1-.69,1.73Z" transform="translate(-399.39 -547.43)"/><path class="cls-1" d="M423.13,581a1,1,0,0,1-.81-.41l-1.2-1.65a1,1,0,0,1,.22-1.4,1,1,0,0,1,1.39.22l1.21,1.65a1,1,0,0,1-.81,1.59Zm-4.82-6.62a1,1,0,0,1-.81-.41l-1.2-1.65a1,1,0,1,1,1.61-1.18l1.21,1.66a1,1,0,0,1-.81,1.58Zm-4.82-6.61a1,1,0,0,1-.81-.41l-1.2-1.66a1,1,0,1,1,1.61-1.17l1.21,1.65a1,1,0,0,1-.81,1.59Zm-4.82-6.62a1,1,0,0,1-.81-.41l-1.2-1.65a1,1,0,0,1,.22-1.4,1,1,0,0,1,1.39.22l1.21,1.65a1,1,0,0,1-.81,1.59Zm-4.82-6.61a1,1,0,0,1-.81-.42l-1.2-1.65a1,1,0,1,1,1.61-1.18l1.21,1.66a1,1,0,0,1-.22,1.39A1,1,0,0,1,403.85,554.56Z" transform="translate(-399.39 -547.43)"/><path class="cls-1" d="M416.77,584.83a1,1,0,0,1-.91-.57l-.88-1.85a1,1,0,0,1,1.81-.86l.88,1.85a1,1,0,0,1-.47,1.33A1,1,0,0,1,416.77,584.83Zm-3.53-7.39a1,1,0,0,1-.9-.57l-.88-1.84a1,1,0,1,1,1.8-.86l.88,1.84a1,1,0,0,1-.47,1.34A1.07,1.07,0,0,1,413.24,577.44Zm-3.52-7.38a1,1,0,0,1-.91-.57l-.88-1.85a1,1,0,0,1,1.81-.86l.88,1.84a1,1,0,0,1-.47,1.34A1.12,1.12,0,0,1,409.72,570.06Zm-3.53-7.39a1,1,0,0,1-.9-.57l-.88-1.85a1,1,0,1,1,1.8-.86l.88,1.85a1,1,0,0,1-.47,1.33A.94.94,0,0,1,406.19,562.67Zm-3.52-7.39a1,1,0,0,1-.91-.57l-.88-1.85a1,1,0,0,1,.47-1.33,1,1,0,0,1,1.34.47l.88,1.85a1,1,0,0,1-.47,1.33A1,1,0,0,1,402.67,555.28Z" transform="translate(-399.39 -547.43)"/><path class="cls-1" d="M406.64,588.1a1,1,0,0,1-1-.82l-.37-2a1,1,0,1,1,2-.36l.36,2a1,1,0,0,1-.8,1.16Zm-1.47-8.05a1,1,0,0,1-1-.82l-.37-2a1,1,0,0,1,2-.36l.36,2a1,1,0,0,1-.8,1.16ZM403.7,572a1,1,0,0,1-1-.82l-.37-2a1,1,0,0,1,2-.36l.36,2a1,1,0,0,1-.8,1.17Zm-1.47-8a1,1,0,0,1-1-.82l-.37-2a1,1,0,0,1,.8-1.17,1,1,0,0,1,1.17.81l.36,2a1,1,0,0,1-.8,1.16A.55.55,0,0,1,402.23,563.94Zm-1.47-8.05a1,1,0,0,1-1-.82l-.37-2a1,1,0,0,1,.8-1.16,1,1,0,0,1,1.17.81l.36,2a1,1,0,0,1-.8,1.16Z" transform="translate(-399.39 -547.43)"/><path class="cls-2" d="M426.23,585.67a12.77,12.77,0,0,0-1-.92l.85-1.48-2.7-1.56-.85,1.48a11.34,11.34,0,0,0-2.66-.71v-1.71h-3.12v1.71a11.43,11.43,0,0,0-2.67.71l-.85-1.48-2.7,1.56.86,1.48a11.39,11.39,0,0,0-1,.92,11.16,11.16,0,0,0-.91,1l-1.49-.86-1.56,2.7,1.49.86a10.76,10.76,0,0,0-.71,2.66h-1.72v3.12h1.72a10.76,10.76,0,0,0,.71,2.66l-1.49.86,1.56,2.7,1.49-.86a10.39,10.39,0,0,0,1.95,2L410.5,604l2.7,1.56.85-1.49a11.43,11.43,0,0,0,2.67.71v1.72h3.12v-1.72a11.34,11.34,0,0,0,2.66-.71l.85,1.49,2.7-1.56-.85-1.49a12.64,12.64,0,0,0,1-.91,10,10,0,0,0,.91-1l1.49.86,1.56-2.7-1.48-.86a11.22,11.22,0,0,0,.71-2.66h1.71v-3.12h-1.71a11.22,11.22,0,0,0-.71-2.66l1.48-.86-1.56-2.7-1.49.86a9.86,9.86,0,0,0-.91-1" transform="translate(-399.39 -547.43)"/><path class="cls-3" d="M426.23,585.67a12.77,12.77,0,0,0-1-.92l.85-1.48-2.7-1.56-.85,1.48a11.34,11.34,0,0,0-2.66-.71v-1.71h-3.12v1.71a11.43,11.43,0,0,0-2.67.71l-.85-1.48-2.7,1.56.86,1.48a11.39,11.39,0,0,0-1,.92,11.16,11.16,0,0,0-.91,1l-1.49-.86-1.56,2.7,1.49.86a10.76,10.76,0,0,0-.71,2.66h-1.72v3.12h1.72a10.76,10.76,0,0,0,.71,2.66l-1.49.86,1.56,2.7,1.49-.86a10.39,10.39,0,0,0,1.95,2L410.5,604l2.7,1.56.85-1.49a11.43,11.43,0,0,0,2.67.71v1.72h3.12v-1.72a11.34,11.34,0,0,0,2.66-.71l.85,1.49,2.7-1.56-.85-1.49a12.64,12.64,0,0,0,1-.91,10,10,0,0,0,.91-1l1.49.86,1.56-2.7-1.48-.86a11.22,11.22,0,0,0,.71-2.66h1.71v-3.12h-1.71a11.22,11.22,0,0,0-.71-2.66l1.48-.86-1.56-2.7-1.49.86a9.86,9.86,0,0,0-.91-1" transform="translate(-399.39 -547.43)"/><path class="cls-4" d="M418.28,588.43a5.2,5.2,0,1,1-5.2,5.19A5.19,5.19,0,0,1,418.28,588.43Z" transform="translate(-399.39 -547.43)"/><path class="cls-2" d="M453.77,550.46h3.89v2.85a22,22,0,0,1,2.44.32l.74-2.75,3.75,1-.73,2.75c.77.28,1.53.59,2.27.94l1.42-2.46,3.37,1.94-1.42,2.47q1,.71,1.95,1.5l2-2,2.75,2.75-2,2q.8.94,1.5,2l2.47-1.42,1.94,3.37-2.46,1.42c.35.74.66,1.5.94,2.28l2.75-.74,1,3.76-2.75.73a22,22,0,0,1,.32,2.44h2.85v3.89h-2.85a21.69,21.69,0,0,1-.32,2.44l2.75.74-1,3.76-2.75-.74c-.28.78-.59,1.54-.94,2.28l2.46,1.42-1.94,3.37-2.47-1.43c-.47.68-1,1.33-1.5,2l2,2L473.46,598l-2-2q-.94.79-1.95,1.5l1.42,2.46-3.37,1.95-1.42-2.47c-.74.35-1.5.67-2.27.95l.73,2.74-3.75,1-.74-2.75c-.8.15-1.62.25-2.44.32v2.85h-3.89v-2.85a24.27,24.27,0,0,1-2.44-.32l-.74,2.75-3.76-1,.74-2.74c-.78-.28-1.54-.6-2.28-.95l-1.42,2.47L440.5,600l1.43-2.46c-.68-.47-1.33-1-2-1.5l-2,2-2.75-2.75,2-2c-.53-.63-1-1.28-1.5-2l-2.46,1.43-1.95-3.37,2.47-1.42c-.35-.74-.67-1.5-.95-2.28l-2.74.74-1-3.76,2.75-.74a24.27,24.27,0,0,1-.32-2.44h-2.85v-3.89h2.85c.07-.82.17-1.64.32-2.44l-2.75-.73,1-3.76,2.74.74c.28-.78.6-1.54.95-2.28l-2.47-1.42,1.95-3.37,2.46,1.42q.7-1,1.5-2l-2-2L438,557l2,2c.63-.53,1.28-1,2-1.5l-1.43-2.47,3.37-1.94,1.42,2.46c.74-.35,1.5-.66,2.28-.94l-.74-2.75,3.76-1,.74,2.75a21.69,21.69,0,0,1,2.44-.32Z" transform="translate(-399.39 -547.43)"/><path class="cls-5" d="M453.77,550.46h3.89v2.85a22,22,0,0,1,2.44.32l.74-2.75,3.75,1-.73,2.75c.77.28,1.53.59,2.27.94l1.42-2.46,3.37,1.94-1.42,2.47q1,.71,1.95,1.5l2-2,2.75,2.75-2,2q.8.94,1.5,2l2.47-1.42,1.94,3.37-2.46,1.42c.35.74.66,1.5.94,2.28l2.75-.74,1,3.76-2.75.73a22,22,0,0,1,.32,2.44h2.85v3.89h-2.85a21.69,21.69,0,0,1-.32,2.44l2.75.74-1,3.76-2.75-.74c-.28.78-.59,1.54-.94,2.28l2.46,1.42-1.94,3.37-2.47-1.43c-.47.68-1,1.33-1.5,2l2,2L473.46,598l-2-2q-.94.79-1.95,1.5l1.42,2.46-3.37,1.95-1.42-2.47c-.74.35-1.5.67-2.27.95l.73,2.74-3.75,1-.74-2.75c-.8.15-1.62.25-2.44.32v2.85h-3.89v-2.85a24.27,24.27,0,0,1-2.44-.32l-.74,2.75-3.76-1,.74-2.74c-.78-.28-1.54-.6-2.28-.95l-1.42,2.47L440.5,600l1.43-2.46c-.68-.47-1.33-1-2-1.5l-2,2-2.75-2.75,2-2c-.53-.63-1-1.28-1.5-2l-2.46,1.43-1.95-3.37,2.47-1.42c-.35-.74-.67-1.5-.95-2.28l-2.74.74-1-3.76,2.75-.74a24.27,24.27,0,0,1-.32-2.44h-2.85v-3.89h2.85c.07-.82.17-1.64.32-2.44l-2.75-.73,1-3.76,2.74.74c.28-.78.6-1.54.95-2.28l-2.47-1.42,1.95-3.37,2.46,1.42q.7-1,1.5-2l-2-2L438,557l2,2c.63-.53,1.28-1,2-1.5l-1.43-2.47,3.37-1.94,1.42,2.46c.74-.35,1.5-.66,2.28-.94l-.74-2.75,3.76-1,.74,2.75a21.69,21.69,0,0,1,2.44-.32Z" transform="translate(-399.39 -547.43)"/><path class="cls-6" d="M442.63,570a15.1,15.1,0,1,1,5.53,20.63A15.1,15.1,0,0,1,442.63,570" transform="translate(-399.39 -547.43)"/></svg>