<svg id="Слой_2" data-name="Слой 2" xmlns="http://www.w3.org/2000/svg" xmlns:xlink="http://www.w3.org/1999/xlink" viewBox="0 0 106.89 68.62"><defs><style>.cls-1{fill:url(#Безымянный_градиент_75);}.cls-2{fill:url(#Безымянный_градиент_67);}.cls-3{fill:#5a5a5a;}.cls-10,.cls-11,.cls-3,.cls-4,.cls-5,.cls-6,.cls-9{fill-rule:evenodd;}.cls-4{fill:#fa6900;}.cls-5{fill:#fff;}.cls-6{fill:#e4e4e4;}.cls-7{fill:url(#Безымянный_градиент_60);}.cls-8{fill:url(#Безымянный_градиент_79);}.cls-9{fill:url(#Безымянный_градиент_84);}.cls-11{fill:url(#Безымянный_градиент_84-2);}</style><linearGradient id="Безымянный_градиент_75" y1="61.07" x2="106.88" y2="61.07" gradientUnits="userSpaceOnUse"><stop offset="0" stop-color="#5a5a5a" stop-opacity="0"/><stop offset="0.2" stop-color="#5a5a5a"/><stop offset="0.8" stop-color="#5a5a5a"/><stop offset="1" stop-color="#5a5a5a" stop-opacity="0"/></linearGradient><linearGradient id="Безымянный_градиент_67" y1="53.25" x2="106.88" y2="53.25" gradientUnits="userSpaceOnUse"><stop offset="0" stop-color="#5a5a5a" stop-opacity="0"/><stop offset="0.21" stop-color="#5a5a5a"/><stop offset="0.42" stop-color="#5a5a5a"/><stop offset="0.58" stop-color="#fa6900"/><stop offset="1" stop-color="#fa6900" stop-opacity="0"/></linearGradient><linearGradient id="Безымянный_градиент_60" x1="51.27" y1="53.4" x2="106.89" y2="53.4" gradientUnits="userSpaceOnUse"><stop offset="0.58" stop-color="#fa6900"/><stop offset="1" stop-color="#fa6900" stop-opacity="0"/></linearGradient><linearGradient id="Безымянный_градиент_79" x1="5.95" y1="64.25" x2="100.93" y2="64.25" gradientUnits="userSpaceOnUse"><stop offset="0" stop-color="#004e97" stop-opacity="0"/><stop offset="0.2" stop-color="#004e97"/><stop offset="0.8" stop-color="#004e97"/><stop offset="1" stop-color="#004e97" stop-opacity="0"/></linearGradient><linearGradient id="Безымянный_градиент_84" x1="1.96" y1="64.38" x2="18.32" y2="64.38" gradientUnits="userSpaceOnUse"><stop offset="0" stop-opacity="0"/><stop offset="1"/></linearGradient><linearGradient id="Безымянный_градиент_84-2" x1="104.92" y1="64.38" x2="88.56" y2="64.38" xlink:href="#Безымянный_градиент_84"/></defs><rect class="cls-1" y="56.4" width="106.88" height="9.35"/><rect class="cls-2" y="51.7" width="106.88" height="3.08"/><path class="cls-3" d="M441.53,546.16a24.27,24.27,0,1,1-24.27,24.27,24.27,24.27,0,0,1,24.27-24.27" transform="translate(-388.09 -543.1)"/><path class="cls-4" d="M441.53,546.16a24.27,24.27,0,1,1-24.27,24.27,24.27,24.27,0,0,1,24.27-24.27m0-3.06a27.35,27.35,0,1,1-19.32,8A27.24,27.24,0,0,1,441.53,543.1Z" transform="translate(-388.09 -543.1)"/><path class="cls-5" d="M423.54,558.39a21.68,21.68,0,0,1,16.56-9.56v11.46a10.23,10.23,0,0,0-6.63,3.83ZM422.11,580a21.67,21.67,0,0,1,0-19.11l9.92,5.73a10.26,10.26,0,0,0,0,7.65Zm18,12a21.67,21.67,0,0,1-16.56-9.55l9.93-5.73a10.21,10.21,0,0,0,6.63,3.82Zm19.42-9.55A21.63,21.63,0,0,1,443,592V580.57a10.24,10.24,0,0,0,6.63-3.82Zm1.44-21.6A21.67,21.67,0,0,1,461,580L451,574.26a10.26,10.26,0,0,0,0-7.65Zm-18-12a21.64,21.64,0,0,1,16.55,9.56l-9.92,5.73a10.25,10.25,0,0,0-6.63-3.83Z" transform="translate(-388.09 -543.1)"/><path class="cls-6" d="M441.53,563.08a7.35,7.35,0,1,1-7.34,7.35,7.35,7.35,0,0,1,7.34-7.35" transform="translate(-388.09 -543.1)"/><rect class="cls-7" x="51.27" y="51.4" width="55.62" height="4"/><rect class="cls-8" x="5.95" y="63.45" width="94.99" height="1.6"/><polygon class="cls-9" points="3.77 60.14 16.5 60.14 18.32 68.61 1.96 68.61 3.77 60.14"/><polygon class="cls-10" points="32.64 60.14 45.37 60.14 47.19 68.61 30.83 68.61 32.64 60.14"/><polygon class="cls-10" points="61.51 60.14 74.24 60.14 76.05 68.61 59.7 68.61 61.51 60.14"/><polygon class="cls-11" points="90.38 60.14 103.11 60.14 104.92 68.61 88.56 68.61 90.38 60.14"/></svg>