<svg id="Слой_2" data-name="Слой 2" xmlns="http://www.w3.org/2000/svg" viewBox="0 0 53.95 83"><defs><style>.cls-1,.cls-4{fill:#5a5a5a;}.cls-2{fill:none;stroke:#fa6900;stroke-width:6px;}.cls-2,.cls-5{stroke-miterlimit:22.93;}.cls-3{fill:#fa6900;}.cls-3,.cls-4,.cls-5{fill-rule:evenodd;}.cls-5{fill:#fff;stroke:#5a5a5a;stroke-width:2px;}.cls-6{fill:#fcac72;}.cls-7{fill:#f36900;}.cls-8{fill:#9c4500;}</style></defs><path class="cls-1" d="M458.93,607.78v-6.51h-3.17v7.35H427.32v-7.35h-3.18v6.51a3.67,3.67,0,0,1-3.67,3.67h-2.32a3.59,3.59,0,0,0-3.59,3.59v3.62h53.95V615a3.59,3.59,0,0,0-3.59-3.59H462.6A3.67,3.67,0,0,1,458.93,607.78Z" transform="translate(-414.56 -535.66)"/><line class="cls-2" x1="26.98" y1="50.97" x2="26.98" y2="23.01"/><path class="cls-3" d="M441.54,587.39a13.88,13.88,0,1,1-13.88,13.88A13.88,13.88,0,0,1,441.54,587.39Z" transform="translate(-414.56 -535.66)"/><path class="cls-4" d="M441.57,587.1a2.84,2.84,0,1,1-2.84,2.83,2.83,2.83,0,0,1,2.84-2.83" transform="translate(-414.56 -535.66)"/><path class="cls-4" d="M451.52,591.65a2.84,2.84,0,1,1-4,0,2.85,2.85,0,0,1,4,0" transform="translate(-414.56 -535.66)"/><path class="cls-4" d="M455.36,601.27a2.84,2.84,0,1,1-2.83-2.84,2.84,2.84,0,0,1,2.83,2.84" transform="translate(-414.56 -535.66)"/><path class="cls-4" d="M451.74,610.62a2.84,2.84,0,1,1,0-4,2.83,2.83,0,0,1,0,4" transform="translate(-414.56 -535.66)"/><path class="cls-4" d="M442,614.67a2.84,2.84,0,1,1,2.84-2.83,2.84,2.84,0,0,1-2.84,2.83" transform="translate(-414.56 -535.66)"/><path class="cls-4" d="M432.05,611.12a2.84,2.84,0,1,1,4,0,2.83,2.83,0,0,1-4,0" transform="translate(-414.56 -535.66)"/><path class="cls-4" d="M427.93,601.17a2.84,2.84,0,1,1,2.84,2.83,2.84,2.84,0,0,1-2.84-2.83" transform="translate(-414.56 -535.66)"/><path class="cls-4" d="M432.05,591.22a2.84,2.84,0,1,1,0,4,2.83,2.83,0,0,1,0-4" transform="translate(-414.56 -535.66)"/><path class="cls-5" d="M441.54,595a6.27,6.27,0,1,1-6.27,6.27A6.27,6.27,0,0,1,441.54,595Z" transform="translate(-414.56 -535.66)"/><path class="cls-4" d="M441.54,587a14.27,14.27,0,1,1-14.27,14.27A14.27,14.27,0,0,1,441.54,587Zm-.91-3.1a17.39,17.39,0,1,1-16.46,16.46A17.4,17.4,0,0,1,440.63,583.9Z" transform="translate(-414.56 -535.66)"/><path class="cls-6" d="M20.83,0H33.12A8.48,8.48,0,0,1,41.6,8.48v27a0,0,0,0,1,0,0H12.35a0,0,0,0,1,0,0v-27A8.48,8.48,0,0,1,20.83,0Z"/><polygon class="cls-7" points="36.64 7.71 39.16 5.6 36.64 3.49 36.64 3.49 36.63 3.49 34.12 3.49 19.83 3.49 17.31 3.49 17.31 3.49 17.31 3.49 14.79 5.6 17.31 7.71 14.79 9.81 17.31 11.92 14.79 14.03 17.31 16.13 14.79 18.24 17.31 20.35 14.79 22.45 17.31 24.56 14.79 26.67 17.31 28.78 17.31 30.88 36.64 30.88 36.64 28.78 39.16 26.67 36.64 24.56 39.16 22.45 36.64 20.35 39.16 18.24 36.64 16.13 39.16 14.03 36.64 11.92 39.16 9.81 36.64 7.71"/><polygon class="cls-8" points="36.64 7.71 39.16 5.6 14.79 5.6 17.31 7.71 36.64 7.71"/><polygon class="cls-8" points="36.64 11.92 39.16 9.81 14.79 9.81 17.31 11.92 36.64 11.92"/><polygon class="cls-8" points="36.64 16.13 39.16 14.03 14.79 14.03 17.31 16.13 36.64 16.13"/><polygon class="cls-8" points="36.64 20.35 39.16 18.24 14.79 18.24 17.31 20.35 36.64 20.35"/><polygon class="cls-8" points="36.64 24.56 39.16 22.45 14.79 22.45 17.31 24.56 36.64 24.56"/><polygon class="cls-8" points="36.64 28.78 39.16 26.67 14.79 26.67 17.31 28.78 36.64 28.78"/><rect class="cls-1" x="9.8" y="30.31" width="34.36" height="11.59"/><rect class="cls-1" x="22.14" y="39.19" width="9.66" height="4.39"/><rect class="cls-1" x="21.44" y="47.24" width="11.06" height="3.43"/></svg>