<svg id="Слой_1" data-name="Слой 1" xmlns="http://www.w3.org/2000/svg" xmlns:xlink="http://www.w3.org/1999/xlink" viewBox="0 0 361.05 85.6"><defs><style>.cls-1{fill:none;}.cls-2{clip-path:url(#clip-path);}.cls-3{fill:url(#Безымянный_градиент_2);}.cls-4{fill:#b71d1d;}.cls-5{clip-path:url(#clip-path-2);}.cls-6{fill:url(#Безымянный_градиент_14);}.cls-7{clip-path:url(#clip-path-3);}.cls-8{fill:url(#Безымянный_градиент_14-2);}.cls-9{clip-path:url(#clip-path-4);}.cls-10{fill:url(#Безымянный_градиент_14-3);}.cls-11{clip-path:url(#clip-path-5);}.cls-12{fill:url(#Безымянный_градиент_14-4);}.cls-13{clip-path:url(#clip-path-6);}.cls-14{fill:url(#Безымянный_градиент_14-5);}.cls-15{clip-path:url(#clip-path-7);}.cls-16{fill:url(#Безымянный_градиент_14-6);}.cls-17{clip-path:url(#clip-path-8);}.cls-18{fill:url(#Безымянный_градиент_14-7);}.cls-19{clip-path:url(#clip-path-9);}.cls-20{fill:url(#Безымянный_градиент_14-8);}.cls-21{clip-path:url(#clip-path-10);}.cls-22{fill:url(#Безымянный_градиент_14-9);}.cls-23{clip-path:url(#clip-path-11);}.cls-24{fill:url(#Безымянный_градиент_14-10);}.cls-25{clip-path:url(#clip-path-12);}.cls-26{fill:url(#Безымянный_градиент_14-11);}.cls-27{clip-path:url(#clip-path-13);}.cls-28{fill:url(#Безымянный_градиент_14-12);}</style><clipPath id="clip-path" transform="translate(-819.24 -957.13)"><path class="cls-1" d="M898.19,979.73a.09.09,0,0,1,0,0l0,0s0,0,0,0v0Z"/></clipPath><linearGradient id="Безымянный_градиент_2" x1="702.44" y1="1418.22" x2="703.12" y2="1418.22" gradientTransform="matrix(91.61, 0.02, 0.02, -91.61, -63545.72, 130887.51)" gradientUnits="userSpaceOnUse"><stop offset="0" stop-color="#1d2362"/><stop offset="0.1" stop-color="#1d2362"/><stop offset="0.9" stop-color="#0069ae"/><stop offset="1" stop-color="#0069ae"/></linearGradient><clipPath id="clip-path-2" transform="translate(-819.24 -957.13)"><path class="cls-1" d="M835.69,995.25a5.06,5.06,0,0,0-.62.15,4.81,4.81,0,0,0-.66.24c-.23.1-.46.21-.7.34a11.72,11.72,0,0,0-2.07,1.47,15.64,15.64,0,0,0-1.85,2,15.1,15.1,0,0,0-1.5,2.27,10.49,10.49,0,0,0-.87,2.07c0,.11-.06.2-.08.31s0,0,0,0a0,0,0,0,1,0,0h0v.07a5.79,5.79,0,0,0-.18,1.36v.09a3.45,3.45,0,0,0,.21,1.18,2.11,2.11,0,0,0,.58.84,2.09,2.09,0,0,0,.94.43,2.76,2.76,0,0,0,.59,0,3.9,3.9,0,0,0,.66-.07c.24-.05.48-.12.74-.2a7.23,7.23,0,0,0,.79-.34,10.92,10.92,0,0,0,2.46-1.69,14.84,14.84,0,0,0,2.16-2.38,13.61,13.61,0,0,0,1.56-2.65,8.33,8.33,0,0,0,.72-2.52,4.71,4.71,0,0,0,0-1.38,2.36,2.36,0,0,0-.45-1,1.82,1.82,0,0,0-.76-.58,2.46,2.46,0,0,0-1-.18,3.77,3.77,0,0,0-.57,0"/></clipPath><linearGradient id="Безымянный_градиент_14" x1="702.44" y1="1418.05" x2="703.11" y2="1418.05" gradientTransform="matrix(91.45, 0, 0, -91.45, -63412.67, 130681.35)" gradientUnits="userSpaceOnUse"><stop offset="0" stop-color="#1d2362"/><stop offset="0.1" stop-color="#1d2362"/><stop offset="0.9" stop-color="#0069ae"/><stop offset="1" stop-color="#0069ae"/></linearGradient><clipPath id="clip-path-3" transform="translate(-819.24 -957.13)"><path class="cls-1" d="M838,1006.44a7.54,7.54,0,0,0-2,.79,11.63,11.63,0,0,0-2,1.41,15.25,15.25,0,0,0-1.91,2,17.7,17.7,0,0,0-2,3.09,16.94,16.94,0,0,0-1.25,3.28,11.44,11.44,0,0,0-.38,3.2,6.05,6.05,0,0,0,.71,2.72l0,0v0l0,0,0,0a2.83,2.83,0,0,0,.32.45,3.24,3.24,0,0,0,.36.38,2.94,2.94,0,0,0,.41.31,2.17,2.17,0,0,0,.45.24,3.93,3.93,0,0,0,2,.29,6.64,6.64,0,0,0,2.31-.71,10.77,10.77,0,0,0,2.44-1.66,15.86,15.86,0,0,0,2.3-2.54,17.88,17.88,0,0,0,2.17-3.85,14,14,0,0,0,1-3.71,8.05,8.05,0,0,0-.19-3.07,4.23,4.23,0,0,0-1.26-2.08c-.13-.1-.26-.2-.4-.29a2.82,2.82,0,0,0-.42-.22,2.69,2.69,0,0,0-.45-.16,2.73,2.73,0,0,0-.48-.1,3.69,3.69,0,0,0-.58,0,5,5,0,0,0-1.24.16"/></clipPath><linearGradient id="Безымянный_градиент_14-2" x1="702.44" y1="1418.12" x2="703.11" y2="1418.12" gradientTransform="matrix(91.44, 0, 0, -91.44, -63397.39, 130691.41)" xlink:href="#Безымянный_градиент_14"/><clipPath id="clip-path-4" transform="translate(-819.24 -957.13)"><path class="cls-1" d="M829.24,1022.93l0,.06,0,0,0,0v0Z"/></clipPath><linearGradient id="Безымянный_градиент_14-3" x1="702.46" y1="1418.16" x2="703.14" y2="1418.16" gradientTransform="matrix(92.8, 0.02, 0.02, -92.8, -64381.23, 132617.54)" xlink:href="#Безымянный_градиент_14"/><clipPath id="clip-path-5" transform="translate(-819.24 -957.13)"><path class="cls-1" d="M842.12,983.1H842l-.18,0-.17,0a6.27,6.27,0,0,0-1.52.5,10.56,10.56,0,0,0-1.59.93,14.13,14.13,0,0,0-1.55,1.29,13.92,13.92,0,0,0-1.39,1.57l0,0,0,0,0,0h0l0,0a10.15,10.15,0,0,0-1.09,1.84,5.24,5.24,0,0,0-.46,1.64,2,2,0,0,0,.23,1.27,1.41,1.41,0,0,0,1,.68l.16,0h.16l.17,0h.17l.38,0h0a4.86,4.86,0,0,0,1.24-.35,9.31,9.31,0,0,0,1.83-1,13.85,13.85,0,0,0,3.37-3.35,9.16,9.16,0,0,0,1.09-2,4.09,4.09,0,0,0,.27-1.66,1.6,1.6,0,0,0-.5-1.08,1.71,1.71,0,0,0-1.17-.42h-.16"/></clipPath><linearGradient id="Безымянный_градиент_14-4" x1="702.44" y1="1418.03" x2="703.11" y2="1418.03" gradientTransform="matrix(91.45, 0, 0, -91.45, -63419.42, 130663.16)" xlink:href="#Безымянный_градиент_14"/><clipPath id="clip-path-6" transform="translate(-819.24 -957.13)"><path class="cls-1" d="M835.49,987.51l0,0,0,0,0,0,0,0"/></clipPath><linearGradient id="Безымянный_градиент_14-5" x1="702.41" y1="1417.96" x2="703.09" y2="1417.96" gradientTransform="matrix(89.85, 0.01, 0.01, -89.85, -62305.38, 128378.88)" xlink:href="#Безымянный_градиент_14"/><clipPath id="clip-path-7" transform="translate(-819.24 -957.13)"><path class="cls-1" d="M855.17,1008.65c-.25,0-.5,0-.76.08a7.9,7.9,0,0,0-.79.16,10.5,10.5,0,0,0-3.42,1.57,13.67,13.67,0,0,0-2.91,2.69,16.58,16.58,0,0,0-2.24,3.59,16.3,16.3,0,0,0-1.31,4.32,14.58,14.58,0,0,0-.13,3.53,11.84,11.84,0,0,0,.74,3.18,8.91,8.91,0,0,0,1.6,2.63,7,7,0,0,0,2.43,1.79q.39.16.81.3a7.88,7.88,0,0,0,.87.2,6.83,6.83,0,0,0,.92.09,7.73,7.73,0,0,0,1,0,9.79,9.79,0,0,0,4.43-1.57,14.18,14.18,0,0,0,3.75-3.56,16.83,16.83,0,0,0,2.46-4.81,15.44,15.44,0,0,0,.75-5.21,12.13,12.13,0,0,0-.64-3.59,8.74,8.74,0,0,0-1.49-2.69,7.14,7.14,0,0,0-2.07-1.78,6.78,6.78,0,0,0-2.46-.84,6,6,0,0,0-.74-.07h-.25l-.51,0"/></clipPath><linearGradient id="Безымянный_градиент_14-6" x1="702.44" y1="1418.2" x2="703.11" y2="1418.2" gradientTransform="matrix(91.45, 0, 0, -91.45, -63392.54, 130712.34)" xlink:href="#Безымянный_градиент_14"/><clipPath id="clip-path-8" transform="translate(-819.24 -957.13)"><path class="cls-1" d="M852.76,972.94a6.68,6.68,0,0,0-.92.17c-.25.07-.52.16-.79.26s-.54.23-.82.36-.56.3-.84.47-.57.37-.86.57a13.46,13.46,0,0,0-1.74,1.49,10.87,10.87,0,0,0-1.3,1.6,6.37,6.37,0,0,0-.76,1.56,2.54,2.54,0,0,0-.08,1.35,1.32,1.32,0,0,0,.3.56,1.35,1.35,0,0,0,.54.36,2.07,2.07,0,0,0,.74.15,3.66,3.66,0,0,0,.91-.06,7.77,7.77,0,0,0,.83-.21c.29-.1.6-.21.91-.35s.63-.3,1-.49.65-.4,1-.63a13.5,13.5,0,0,0,2-1.71,11,11,0,0,0,1.4-1.82,5.11,5.11,0,0,0,.64-1.66,1.76,1.76,0,0,0-.19-1.27,1.24,1.24,0,0,0-.46-.45,2.08,2.08,0,0,0-.65-.23,3.64,3.64,0,0,0-.48,0h-.32"/></clipPath><linearGradient id="Безымянный_градиент_14-7" x1="702.44" y1="1418.03" x2="703.12" y2="1418.03" gradientTransform="matrix(91.46, 0, 0, -91.46, -63431.68, 130668.27)" xlink:href="#Безымянный_градиент_14"/><clipPath id="clip-path-9" transform="translate(-819.24 -957.13)"><path class="cls-1" d="M867.1,966.2a7.32,7.32,0,0,0-2,.32h-.17a12.8,12.8,0,0,0-2.28.95,16,16,0,0,0-2.07,1.35,13.22,13.22,0,0,0-1.72,1.59,8.05,8.05,0,0,0-1.18,1.73,3.35,3.35,0,0,0-.39,1.57,1.67,1.67,0,0,0,.46,1.16,2.2,2.2,0,0,0,1.32.6,5.84,5.84,0,0,0,2.11-.12,11.13,11.13,0,0,0,2.55-.9,14.72,14.72,0,0,0,2.45-1.52,12.87,12.87,0,0,0,2-1.87,6.6,6.6,0,0,0,1.19-2,2.63,2.63,0,0,0,.15-1.6,1.57,1.57,0,0,0-.81-1,3.19,3.19,0,0,0-1.54-.35h0"/></clipPath><linearGradient id="Безымянный_градиент_14-8" x1="702.44" y1="1418.05" x2="703.12" y2="1418.05" gradientTransform="matrix(91.46, 0, 0, -91.46, -63435.2, 130670.11)" xlink:href="#Безымянный_градиент_14"/><clipPath id="clip-path-10" transform="translate(-819.24 -957.13)"><path class="cls-1" d="M865,966.55h0"/></clipPath><linearGradient id="Безымянный_градиент_14-9" x1="702.47" y1="1418.1" x2="703.15" y2="1418.1" gradientTransform="matrix(93.24, 0.03, 0.03, -93.24, -64735.05, 133173.88)" xlink:href="#Безымянный_градиент_14"/><clipPath id="clip-path-11" transform="translate(-819.24 -957.13)"><path class="cls-1" d="M879.24,994.76a14.27,14.27,0,0,0-5.6,1.22,13.89,13.89,0,0,0-4.65,3.33,12.42,12.42,0,0,0-2.25,3.52,10.75,10.75,0,0,0-.83,3.86,9.74,9.74,0,0,0,3.19,7.55,10.66,10.66,0,0,0,1.23,1,13.41,13.41,0,0,0,1.37.82,12.15,12.15,0,0,0,1.5.62,12.88,12.88,0,0,0,1.62.43,13.58,13.58,0,0,0,3.5.21,14,14,0,0,0,3.58-.72,13.82,13.82,0,0,0,3.38-1.67,13.36,13.36,0,0,0,2.85-2.57,11.53,11.53,0,0,0,2.42-4.76,10.17,10.17,0,0,0,0-4.75,9.84,9.84,0,0,0-2-4A10.87,10.87,0,0,0,885,996a11.85,11.85,0,0,0-2.85-1,12.13,12.13,0,0,0-1.45-.23c-.43,0-.86-.06-1.28-.06h-.17"/></clipPath><linearGradient id="Безымянный_градиент_14-10" x1="702.44" y1="1418.24" x2="703.11" y2="1418.24" gradientTransform="matrix(91.45, 0, 0, -91.45, -63400.08, 130710.15)" xlink:href="#Безымянный_градиент_14"/><clipPath id="clip-path-12" transform="translate(-819.24 -957.13)"><path class="cls-1" d="M881.82,965.49h-.51c-.41,0-.83.08-1.27.15a13,13,0,0,0-1.29.28q-.82.23-1.65.54a16.65,16.65,0,0,0-1.62.72c-.52.27-1,.57-1.52.89a15.1,15.1,0,0,0-1.41,1,10.29,10.29,0,0,0-1.92,2,5.85,5.85,0,0,0-1,2,2.93,2.93,0,0,0,.08,1.79,2.78,2.78,0,0,0,1.28,1.36,4.82,4.82,0,0,0,1,.39,7.72,7.72,0,0,0,1.14.2l.42,0h.86a12.28,12.28,0,0,0,1.41-.17,15,15,0,0,0,1.87-.46,15.5,15.5,0,0,0,1.92-.74,14.77,14.77,0,0,0,1.88-1,15.48,15.48,0,0,0,1.73-1.24,10.48,10.48,0,0,0,2.19-2.44,4.61,4.61,0,0,0,.78-2.27,2.48,2.48,0,0,0-.58-1.78,3.54,3.54,0,0,0-1.83-1.08h-.14a6.67,6.67,0,0,0-1.13-.18l-.64,0Z"/></clipPath><linearGradient id="Безымянный_градиент_14-11" x1="702.44" y1="1418.11" x2="703.12" y2="1418.11" gradientTransform="matrix(91.47, 0, 0, -91.47, -63434.98, 130683.77)" xlink:href="#Безымянный_градиент_14"/><clipPath id="clip-path-13" transform="translate(-819.24 -957.13)"><path class="cls-1" d="M887.17,975.41l-.45.09-.46.09-.45.11-.46.12a18.47,18.47,0,0,0-3.85,1.57,15,15,0,0,0-3,2.17,10.56,10.56,0,0,0-2,2.6,6.5,6.5,0,0,0-.81,2.85,4.85,4.85,0,0,0,.57,2.43,5.64,5.64,0,0,0,1.77,1.95,8.57,8.57,0,0,0,2.9,1.28,13.12,13.12,0,0,0,3.86.38l.52,0,.54,0,.54-.07.55-.08a18.36,18.36,0,0,0,4.85-1.56,15.31,15.31,0,0,0,3.89-2.68,9.57,9.57,0,0,0,2.3-3.29,5.55,5.55,0,0,0,.3-3.37s0,0,0,0a.05.05,0,0,1,0,0v0s0,0,0,0a5.18,5.18,0,0,0-1.51-2.39,8,8,0,0,0-2.61-1.52,12,12,0,0,0-3.28-.63q-.42,0-.87,0a17.49,17.49,0,0,0-2.75.23"/></clipPath><linearGradient id="Безымянный_градиент_14-12" x1="702.44" y1="1418.19" x2="703.12" y2="1418.19" gradientTransform="matrix(91.47, 0, 0, -91.47, -63424.01, 130703.16)" xlink:href="#Безымянный_градиент_14"/></defs><g class="cls-2"><rect class="cls-3" x="898.15" y="979.74" width="0.12" height="0.12" transform="translate(-1248.99 -34.78) rotate(-45.01)"/></g><path class="cls-4" d="M922.17,1017.34a4.5,4.5,0,0,1-3-1,7.71,7.71,0,0,1-1.46-2.13l-8.93-17.6v20.28h-6.87V991.2a4.08,4.08,0,0,1,1.54-3.25,6.12,6.12,0,0,1,4-1.24c2.6,0,4.41,1,5.4,3.06l9.27,19,9.44-19a5.49,5.49,0,0,1,5.33-3.09,6,6,0,0,1,4.08,1.28,4.27,4.27,0,0,1,1.51,3.36v25.57h-6.87V996.62l-8.7,17.38c-1.1,2.22-2.7,3.34-4.74,3.34" transform="translate(-819.24 -957.13)"/><path class="cls-4" d="M976.15,1016.71h-17a13.19,13.19,0,0,1-6.94-1.56,5.88,5.88,0,0,1-2.91-5.22V993.81a6.22,6.22,0,0,1,2.58-5.26,11.15,11.15,0,0,1,6.75-1.84h17.5v5.6H960.66c-4.22,0-4.22,1.77-4.22,2.44v4.19H975v5.55H956.44v4.12c0,.69,0,2.5,4.27,2.5h15.44Z" transform="translate(-819.24 -957.13)"/><path class="cls-4" d="M1004.55,1017.34a4.5,4.5,0,0,1-3-1,7.71,7.71,0,0,1-1.46-2.13l-8.93-17.6v20.28h-6.87V991.2A4.06,4.06,0,0,1,985.8,988a6.07,6.07,0,0,1,4-1.24c2.6,0,4.41,1,5.4,3.06l9.27,19,9.44-19a5.49,5.49,0,0,1,5.33-3.09,6,6,0,0,1,4.08,1.28,4.27,4.27,0,0,1,1.51,3.36v25.57H1018V996.62l-8.7,17.38c-1.1,2.22-2.7,3.34-4.74,3.34" transform="translate(-819.24 -957.13)"/><path class="cls-4" d="M1050.48,1016.71h-8.62c-3.18,0-5.52-.5-7.14-1.54a6.27,6.27,0,0,1-3-5.61V993.92a6.41,6.41,0,0,1,3.07-5.66c1.57-1.08,3.9-1.61,7.09-1.61h8.68c6.65,0,10,2.45,10,7.27v15.58c0,4.79-3.39,7.21-10.08,7.21m-7.27-24.45a6.56,6.56,0,0,0-3.53.66,2.45,2.45,0,0,0-.86,2.2v13.24a2.47,2.47,0,0,0,1,2.14c.39.27,1.3.61,3.39.61h6a7,7,0,0,0,3.47-.64,2.14,2.14,0,0,0,.86-2V995.12a2.45,2.45,0,0,0-.86-2.2,6.42,6.42,0,0,0-3.47-.66Z" transform="translate(-819.24 -957.13)"/><path class="cls-4" d="M1094.35,1016.71h-15.87c-3.43,0-6.12-.54-8-1.62s-3-3.16-3-6V986.62h7.12v21.51a2.6,2.6,0,0,0,1.07,2.45c.33.21,1.31.56,4.15.56h14.55Z" transform="translate(-819.24 -957.13)"/><path class="cls-4" d="M1117.65,1016.71h-8.9a20.34,20.34,0,0,1-4-.27,8.43,8.43,0,0,1-3.57-1.56,7,7,0,0,1-2.41-2.85,9.68,9.68,0,0,1-.4-3.24V986.65h7.12V1008a2.78,2.78,0,0,0,.86,2.43c.46.31,1.5.67,3.87.67h5.88c2.34,0,3.39-.35,3.85-.65a2.58,2.58,0,0,0,.87-2.33V986.65H1128v22.14a9.18,9.18,0,0,1-.45,3.23,6.64,6.64,0,0,1-2.33,2.87,9,9,0,0,1-3.55,1.61,25.64,25.64,0,0,1-4,.21" transform="translate(-819.24 -957.13)"/><path class="cls-4" d="M1155.19,1016.71h-20.36V986.62h20.36c7.48,0,9,3.92,9,7.22v2.34a6.55,6.55,0,0,1-.77,3.54,5.31,5.31,0,0,1-2.08,1.93l.48.21.09,0a5.07,5.07,0,0,1,2.21,3.76,26.44,26.44,0,0,1,.13,3.77,6.52,6.52,0,0,1-2.33,5.31,10.57,10.57,0,0,1-6.78,2m-13.23-5.57h11.54c3.67,0,3.67-1.77,3.67-2.44v-1.92c0-.63,0-2.29-3.67-2.29H1142Zm0-12.23h11.43c3.79,0,3.79-1.63,3.79-2.24v-2.15c0-.64,0-2.35-4-2.35H1142Z" transform="translate(-819.24 -957.13)"/><path class="cls-4" d="M1174.26,986.77a5.9,5.9,0,0,1,4.27,1.72,5.57,5.57,0,0,1,1.76,4.14,5.63,5.63,0,0,1-1.76,4.16,6.15,6.15,0,0,1-8.55,0,5.63,5.63,0,0,1-1.76-4.16,5.57,5.57,0,0,1,1.76-4.14,5.91,5.91,0,0,1,4.28-1.72m0,10.82a5,5,0,0,0,3.6-1.46,4.83,4.83,0,0,0,0-7,5,5,0,0,0-3.6-1.45,4.93,4.93,0,0,0-3.58,1.46,4.84,4.84,0,0,0,0,7,5,5,0,0,0,3.59,1.45m2.68-1.69h-1.2l-1.88-2.88h-.61v2.88h-1v-6.56h1.88a2.41,2.41,0,0,1,1.59.46,1.61,1.61,0,0,1,.56,1.32,1.71,1.71,0,0,1-1.38,1.69Zm-3.69-3.67h.71a1.31,1.31,0,0,0,.9-.32,1,1,0,0,0,.37-.77.89.89,0,0,0-.33-.73,1.37,1.37,0,0,0-.91-.27h-.74Z" transform="translate(-819.24 -957.13)"/><g class="cls-5"><rect class="cls-6" x="824.22" y="993.04" width="17.27" height="17.27" transform="translate(-1283.6 -74.84) rotate(-45)"/></g><g class="cls-7"><rect class="cls-8" x="824.1" y="1003.81" width="23.44" height="23.44" transform="translate(-1292.52 -68.69) rotate(-45)"/></g><g class="cls-9"><rect class="cls-10" x="829.21" y="1022.92" width="0.1" height="0.1" transform="translate(-1299.73 -70.84) rotate(-45.01)"/></g><g class="cls-11"><rect class="cls-12" x="831.8" y="980.97" width="14.22" height="14.22" transform="translate(-1272.21 -74.53) rotate(-45)"/></g><g class="cls-13"><rect class="cls-14" x="835.46" y="987.48" width="0.06" height="0.06" transform="translate(-1272.82 -76.99) rotate(-45.01)"/></g><g class="cls-15"><rect class="cls-16" x="837.88" y="1005.14" width="31.14" height="31.14" transform="translate(-1291.02 -54.7) rotate(-45)"/></g><g class="cls-17"><rect class="cls-18" x="842.91" y="970.56" width="13.66" height="13.66" transform="translate(-1261.48 -70) rotate(-45)"/></g><g class="cls-19"><rect class="cls-20" x="855.72" y="963.2" width="15.41" height="15.41" transform="translate(-1252.88 -62.23) rotate(-45)"/></g><g class="cls-21"><rect class="cls-22" x="864.94" y="966.52" width="0.05" height="0.05" transform="translate(-1249.37 -62.01) rotate(-45.02)"/></g><g class="cls-23"><rect class="cls-24" x="861.54" y="989.21" width="33.73" height="33.73" transform="translate(-1273.36 -41.34) rotate(-45)"/></g><g class="cls-25"><rect class="cls-26" x="867.93" y="961.25" width="19.9" height="19.9" transform="translate(-1248.86 -51.92) rotate(-45)"/></g><g class="cls-27"><rect class="cls-28" x="873.35" y="969.42" width="27.44" height="27.44" transform="translate(-1254.61 -41.93) rotate(-45)"/></g></svg>