<svg id="Слой_1" data-name="Слой 1" xmlns="http://www.w3.org/2000/svg" viewBox="0 0 411.57 63.28"><defs><style>.cls-1{fill:#fff;fill-rule:evenodd;}</style></defs><path class="cls-1" d="M19.87,16.93c9.32,0,16.88,6.77,16.88,15.11S29.19,47.15,19.87,47.15c-8.06,0-14.81-5.07-16.48-11.85a26.29,26.29,0,0,1-.29-3.86V30.07c1.12-7.43,8.22-13.14,16.77-13.14m22.45,5.65H51L41.73,41.36l-.15.32v-.09C37.7,46.94,30.26,50.51,23,50.51S10.32,47.93,6.25,43.78a27,27,0,0,0,49.93-7.27L50,36.44l5.67-12A27,27,0,0,0,6,19.58a23.26,23.26,0,0,1,17-7C31.32,12.55,38.62,16.61,42.32,22.58ZM31.67,0A31.65,31.65,0,0,1,61.8,21.76l6.57,14.9-5.47-.07A31.64,31.64,0,1,1,31.67,0Z" transform="translate(0 0)"/><path class="cls-1" d="M375.64,13.83v9.82c0,19.86-1,20.63-6,20.63V49h5.1c5.19,0,6.12-11.88,6.12-23.81V18.56h25.46V49h5.25V13.83ZM323.48,31.42c0,16.25,2.57,18.11,19.91,18.11s19.75-1.86,19.75-18.16c0-15.85-1.7-18.06-19.75-18.06-18.21,0-19.91,2.21-19.91,18.11Zm5.25,0c0-12.91.61-13.32,14.66-13.32,13.83,0,14.5.82,14.5,13.32,0,11.88-.67,13.42-14.5,13.42-14.2-.05-14.66-2.51-14.66-13.47ZM278.37,13.83h-5.25V49H281L311,18.51V49h5.25V13.83h-7.67L278.37,44.69Zm-45.22,4.73H256.4c2.83,0,4.94,1.8,4.94,6.33s-2.06,6.53-5,6.53h-23.2Zm0,17.59H256.4c6.07,0,10.19-3.34,10.19-11.11s-3.91-11.21-10-11.21h-28.7V49h5.24ZM186.86,13.83v4.73H202.6V49h5.25V18.56h15.74V13.83Zm-43.26,0h-5.28V49h8l29.94-30.5V49h5.25V13.83h-7.67L143.65,44.69ZM97.25,33.27h22.94c4,0,6,2.42,6,5.51s-1.85,5.5-6,5.5h-23Zm0-14.71H119c4.63,0,5.92,2.31,5.92,5.25s-1.29,4.73-5.92,4.73H97.25ZM92,49h28.31c7.15,0,11.16-3.24,11.16-10.29,0-4.78-2.57-7.3-5.25-8.12,2.63-1,4-3.4,4-6.79,0-6.38-4-10-11.16-10h-27Z" transform="translate(0 0)"/></svg>