<svg id="Слой_1" data-name="Слой 1" xmlns="http://www.w3.org/2000/svg" xmlns:xlink="http://www.w3.org/1999/xlink" viewBox="0 0 1167.28 629.5"><defs><style>.cls-1{fill:none;}.cls-2{fill:#e2e2e2;}.cls-3{fill:#004e97;}.cls-4{clip-path:url(#clip-path);}.cls-5{fill:#fff;}.cls-6{clip-path:url(#clip-path-2);}.cls-7{clip-path:url(#clip-path-3);}.cls-8{clip-path:url(#clip-path-4);}.cls-9{clip-path:url(#clip-path-5);}.cls-10{fill:#e4e4e4;stroke:#000;stroke-miterlimit:22.93;}</style><clipPath id="clip-path" transform="translate(-416.13 -685.18)"><rect class="cls-1" x="485.81" y="774.88" width="182.82" height="59.91"/></clipPath><clipPath id="clip-path-2" transform="translate(-416.13 -685.18)"><rect class="cls-1" x="668.63" y="774.88" width="182.82" height="59.91"/></clipPath><clipPath id="clip-path-3" transform="translate(-416.13 -685.18)"><rect class="cls-1" x="851.45" y="774.88" width="182.82" height="59.91"/></clipPath><clipPath id="clip-path-4" transform="translate(-416.13 -685.18)"><rect class="cls-1" x="485.81" y="834.79" width="1096.92" height="59.91"/></clipPath><clipPath id="clip-path-5" transform="translate(-416.13 -685.18)"><rect class="cls-1" x="1217.09" y="1134.36" width="182.82" height="59.91"/></clipPath></defs><rect class="cls-2" x="70" y="90" width="1097" height="539"/><path class="cls-3" d="M443.08,1218.61h-8.61v12.49h8.61l2.66-4.27ZM442,1230.07h-4.75v-10.42H442l2.21,6.85Z" transform="translate(-416.13 -685.18)"/><path class="cls-3" d="M448.4,1231.85H434.65v4.46H448.4a2.23,2.23,0,1,0,0-4.46" transform="translate(-416.13 -685.18)"/><polygon class="cls-3" points="27.99 545.92 45.62 524.57 46.14 524.55 32.46 545.92 27.99 545.92"/><rect class="cls-3" x="458.28" y="1213.23" width="0.83" height="20.48" transform="translate(-898.26 -368.43) rotate(-25.51)"/><polygon class="cls-3" points="48.77 548.41 46.63 544.03 47.98 543.37 47.76 542.91 42.6 545.43 45.53 551.43 50.7 548.91 50.13 547.75 48.77 548.41"/><path class="cls-3" d="M452,855a1.13,1.13,0,1,1,0-2.25,1.13,1.13,0,0,1,0,2.25m0-1.63a.5.5,0,0,0-.5.5.5.5,0,0,0,1,0A.5.5,0,0,0,452,853.33Z" transform="translate(-416.13 -685.18)"/><path class="cls-3" d="M449.51,855.83a1.13,1.13,0,1,1,1.13-1.13,1.13,1.13,0,0,1-1.13,1.13m0-1.63a.51.51,0,0,0-.5.5.51.51,0,0,0,1,0A.51.51,0,0,0,449.51,854.2Z" transform="translate(-416.13 -685.18)"/><path class="cls-3" d="M439.46,859.28l-.12-.61A93.3,93.3,0,0,0,453,854.78c6.31-2.45,12-5.18,12-5.21l.27.56s-5.73,2.77-12.06,5.23a94.26,94.26,0,0,1-13.75,3.92" transform="translate(-416.13 -685.18)"/><path class="cls-3" d="M460.93,861.29h-6.17v-1h-2.24v-2.19a1.11,1.11,0,0,0,.55-1,1.13,1.13,0,1,0-2.25,0,1.14,1.14,0,0,0,.53,1v2.2h-2.16v1h-6.72a13,13,0,0,0-1.5,5.76,32.08,32.08,0,0,0,1.5,7.76h18.46a32.27,32.27,0,0,0,1.49-7.76,13.05,13.05,0,0,0-1.49-5.76m-9-4.64a.5.5,0,0,1,.5.5.5.5,0,0,1-1,0A.5.5,0,0,1,452,856.65Zm4.15,13.49h-8.69v-6.22h8.69Zm-12.48-6.22h3.17v6.22h-3.17Zm16.28,6.22h-3.18v-6.22h3.18Z" transform="translate(-416.13 -685.18)"/><rect class="cls-3" x="29.6" y="291.79" width="0.35" height="12.52"/><polygon class="cls-3" points="51.55 287.96 50.34 287.96 20.01 287.96 20.01 293.3 22.66 293.3 48.12 293.3 51.55 305.04 51.55 287.96"/><path class="cls-3" d="M454.21,979.12l2.8,8.74,5.66-1.63v-7.11Zm7,6.15-3.67,1.06-1.82-5.68h5.49Z" transform="translate(-416.13 -685.18)"/><path class="cls-3" d="M447.31,989.09a1.41,1.41,0,1,1-1.41-1.4,1.41,1.41,0,0,1,1.41,1.4" transform="translate(-416.13 -685.18)"/><path class="cls-3" d="M442.78,988.11a3.43,3.43,0,0,1,2.3.88,3.67,3.67,0,0,1,.79-.27,4.22,4.22,0,1,0-4,6.11,3.43,3.43,0,0,1,.94-6.72" transform="translate(-416.13 -685.18)"/><path class="cls-3" d="M449.72,986.41a4.22,4.22,0,0,0-3.9,2.58,4,4,0,0,1,.8.11,3.43,3.43,0,1,1,3.36,5.73,4.21,4.21,0,0,0-.26-8.42" transform="translate(-416.13 -685.18)"/><rect class="cls-3" x="25.92" y="307.83" width="7.87" height="2.37"/><rect class="cls-3" x="25.92" y="310.57" width="7.87" height="1.04"/><polygon class="cls-3" points="29.43 226.23 28.32 222.33 27.63 222.33 27.18 222.33 26.14 226.09 24.36 226.01 24.36 225.19 19.76 225.19 19.76 233.77 24.36 233.77 24.36 228.83 25.63 228.83 25.63 251.72 29.9 251.72 29.9 230.97 31.6 230.97 31.6 228.83 40.51 228.84 40.51 234.67 41.03 234.67 41.03 228.84 49.04 228.84 49.04 227.07 29.43 226.23"/><rect class="cls-3" x="37.82" y="247.77" width="11.32" height="4.04"/><rect class="cls-3" x="37.82" y="241.94" width="4.52" height="4.94"/><rect class="cls-3" x="37.35" y="234.94" width="6.98" height="2.1"/><rect class="cls-3" x="37.35" y="237.37" width="6.98" height="0.92"/><path class="cls-3" d="M467.53,1286.37l-1.81.44.21-1.14,1.6.39v-.36l-1.54-.38.15-.85,1.39-.34v-.3l-1.33.32.18-1,1.15.28v-.31l-1.1-.27.17-.89.93-.23v-.25l-.89.21.15-.81.74.18v-.25l-.69-.17.17-.94.52-.13v-.21l-.48.12.12-.67.36.09v-.21l-.33-.08.15-.78.18,0v-.18l-.15,0,.1-.55h0V1277h0l0-.1v-1.54l-.35,1.92-.08,0-.42-1,.68-.87h.17v-.11l-1.23,0h0l-3.37.12h0l-.55.18h0v.27h-.13v1.45h.13v.11h-.22v.37h.11c0,.64.16,4.92-.46,6.79-.08.23-.21.51-.42.55a.53.53,0,0,1-.27-.06h.15v-.76h-.46V1284h.28v-3h-.28v-.55h0l-1.12-.35h0l-6.92-.26h0l-2.57-.09-.63-3.48-1.89-4.64h-.54l-1.89,4.64-.63,3.48-2.46.09h0l-6.91.26h0l-1.13.35v.13l1,.65h0l.87.29,0,0h0l.77.26h0l7.08,2.36-2.91,16h.57l.25-1.37,5.67-1.39,5.69,1.39.25,1.37h.57l-2.9-16,7.17-2.39h0l.77-.26h0l0,0,.87-.29h0l.79-.52v.3h-.27v3h.27v.24h-.46v.76h.49a1.06,1.06,0,0,0,.68.35h.1c.28,0,.49-.3.64-.74.64-1.93.51-6.18.48-6.88h.13v-.37h-.22v-.11h.13v-1.45h-.13v-.15l.39.25h0l.42.14h0l.37.13h0l3.5,1.16-2.22,12.2.27,0,.44-2.41,1.88-.46Zm-8.87-6-.21.51-.41-.53Zm-6-.22-.06.14-.74-.17Zm-.14.35-.45,1.11-1.16-1.47Zm-2.6,1L448,1281l1.74-.43Zm-.54-3-1.48-.36,1.35-.33Zm-3.62-2,1.63-4,1.62,4,.2,1.09-1.81.45-1.83-.45Zm-.23,1.29,1.37.34-1.5.36Zm-.18,1,2.05-.5,2,.49.28,1.54-2.31.56-2.31-.56Zm-.33,1.81,1.76.43-1.92.47Zm-.22,1.21,2.59-.63,2.58.63.3,1.63-2.88.7-2.88-.7Zm2.59,2.69,3.21.79.29,1.59-3.5.86-3.51-.86.29-1.59Zm-3.15.41.21-1.12,2.21.53Zm3.89-.59,2.2-.53.21,1.12Zm-5.1-4.23-.75.17,0-.14Zm1,0-1.17,1.47-.44-1.11Zm-7.14.21-.42.53-.2-.51Zm-1.67.77h0l-.72-.46.82-.25.85,0,.24.58-.35.44Zm1.4.47-.47-.16.29-.37.21.52Zm.12,0-.23-.59.5-.63,5-.18.07.18Zm.29.16,5.16-1.17.51,1.27-1.12,1.42Zm4.78,1.6,1-1.26.74,1.84Zm2,.67-.86-2.13,1.4-1.79h.24l-.71,3.94Zm0,3.33,2.71.66-3,.73Zm-.77,4.25,3.29.8-3.6.88Zm-1.21,6.65.36-2,3.91,1Zm11.12,0-4.29-1,3.93-1Zm-.47-2.6-5.1,1.25-5.08-1.24.33-1.83,4.77-1.17,4.74,1.15Zm-.44-2.38-3.57-.87,3.27-.8Zm-.39-2.17-4.25,1-4.27-1,.35-1.93h0l3.91-1,3.91.95Zm-.43-2.37-3-.72,2.71-.66Zm-.27-4.65-.73-4h.35l1.4,1.79-.85,2.13Zm.45-.15.74-1.84,1,1.26Zm2-.66-1.13-1.42.51-1.27,5.16,1.17Zm-.54-2.9.08-.18,5,.18.5.63-.24.59Zm5.5,1.25h0l.21-.52.29.37Zm1.4-.47h0l-.85.28-.34-.44.23-.58.86,0,.82.25Zm6.92-5-.22-.54.79-.18Zm.1-.73-.36.08,0-.07Zm-3,.11-.2.26-.1-.25Zm-.82.38h0l-.34-.23.39-.12.42,0,.11.29-.17.21Zm.69.22-.23-.07.14-.18.1.25Zm.06,0-.12-.28.25-.31,2.45-.09,0,.09Zm.14.08,2.51-.57.25.62-.54.69Zm2.33.78.48-.61.36.89Z" transform="translate(-416.13 -685.18)"/><path class="cls-3" d="M440.94,1178.34h3.42v-3.19h1.92v3.19H447v-3.19h1.93v3.19h3.42v-3.19h3.23v3.19H459v-3.19h1.33v-6.38h1v-1h-7.21l4.57-6-.19-.18-7.31,6.22h-.08L447.93,1150h0v-.28h-2.56v.25h0l-3.24,17.78h-2.76v7.4h1.58Zm6.06-28.19h.52l.18,1H447Zm0,1.42h.78l.18,1h-1Zm0,1.42h1l.18,1H447Zm0,1.43h1.3l.23,1.28H447Zm0,1.71h1.61l.26,1.42H447Zm0,1.85H449l.28,1.57H447Zm0,2h2.31l.31,1.71H447Zm0,2.14h2.7L450,1164h-3Zm0,2.28h3.11l.37,2H447Zm0,2.42h3.55l.18.94H447Zm-1.24-16.66h.52v1h-.7Zm-.26,1.42h.78v1h-1Zm-.26,1.42h1v1h-1.22Zm-.26,1.43h1.3v1.28h-1.53Zm-.31,1.71h1.61v1.42h-1.87Zm-.34,1.85h1.95v1.57h-2.23Zm-.36,2h2.31v1.71h-2.62Zm-.39,2.14h2.7V1164h-3Zm-.41,2.28h3.11v2H442.8Zm-.44,2.42h3.55v.94h-3.73Z" transform="translate(-416.13 -685.18)"/><polygon class="cls-3" points="44.39 411.57 44.39 412.46 45.45 412.46 45.45 432.26 25.34 432.26 25.34 412.46 26.85 412.46 26.85 411.57 24.51 411.57 24.51 433.15 46.29 433.15 46.29 411.57 44.39 411.57"/><polygon class="cls-3" points="41 411.57 39.21 411.57 39.21 409.74 35.64 409.74 35.64 404.53 35.08 404.53 35.08 409.74 31.55 409.74 31.55 411.57 29.27 411.57 29.27 412.46 41 412.46 41 411.57"/><path class="cls-3" d="M459,1105.14v0a.59.59,0,0,0,0-.14,1.36,1.36,0,0,0-.46-.86,1.93,1.93,0,0,0-1.21-.37h-2.43a2,2,0,0,0-1.22.37,1.34,1.34,0,0,0-.46.86.59.59,0,0,0,0,.14v.17h0v4.31a.56.56,0,1,0,1.12,0v-3.79h.15v10.47a.72.72,0,1,0,1.44,0v-5.49h.27v5.49a.72.72,0,1,0,1.44,0v-6.9h0v-3.56h.14v3.79a.57.57,0,0,0,.56.57h.14a.57.57,0,0,0,.56-.57v-4.31h0a.5.5,0,0,0,0-.14" transform="translate(-416.13 -685.18)"/><path class="cls-3" d="M456.07,1103.36a1.34,1.34,0,1,0-1.26-1.34,1.3,1.3,0,0,0,1.26,1.34" transform="translate(-416.13 -685.18)"/><path class="cls-3" d="M450,1105.11a.66.66,0,0,0,0-.14,1.38,1.38,0,0,0-.47-.86,1.92,1.92,0,0,0-1.21-.37h-2.43a1.92,1.92,0,0,0-1.21.37,1.38,1.38,0,0,0-.47.86.59.59,0,0,0,0,.14v.17h0v4.31a.57.57,0,0,0,.56.57.56.56,0,0,0,.56-.57v-3.79h.15v3.84l-1.12,2h1.12v4.58a.73.73,0,1,0,1.45,0v-4.58h.26v4.58a.73.73,0,1,0,1.45,0v-4.58h1.1l-1.1-2v-3.88h.13v3.79a.56.56,0,0,0,.56.57h.15a.56.56,0,0,0,.55-.57v-4.31h0s0-.06,0-.15Z" transform="translate(-416.13 -685.18)"/><path class="cls-3" d="M447.14,1103.36a1.34,1.34,0,1,0-1.26-1.34,1.3,1.3,0,0,0,1.26,1.34" transform="translate(-416.13 -685.18)"/><polygon class="cls-3" points="28.03 409.03 29.43 410.63 29.43 410.66 28.7 410.66 28.7 413.29 27.36 413.29 27.36 410.66 26.63 410.66 26.63 410.63 28.03 409.03"/><polygon class="cls-3" points="42.7 413.25 41.3 411.64 41.3 411.61 42.03 411.61 42.03 408.98 43.37 408.98 43.37 411.61 44.1 411.61 44.1 411.64 42.7 413.25"/><path class="cls-3" d="M454.35,1046.17h0a2.79,2.79,0,0,1-2.64-2.78,2.56,2.56,0,0,1,0-.39h-3.17v-4.66h2.76v-1.9H443v-2h-2.73l-1.43,8.56H435a27.18,27.18,0,0,0,.78,4.06,19.24,19.24,0,0,0,2.07,4.39H467v-5.27Z" transform="translate(-416.13 -685.18)"/><rect class="cls-3" x="40.1" y="358.15" width="5.21" height="2.29"/><rect class="cls-3" x="40.1" y="355.55" width="5.21" height="2.29"/><rect class="cls-3" x="45.59" y="358.15" width="5.21" height="2.29"/><rect class="cls-3" x="45.59" y="355.55" width="5.21" height="2.29"/><path class="cls-3" d="M463.1,816.71h3.31l-7.36-14.48a4.78,4.78,0,0,0,1.71-3.68,4.85,4.85,0,0,0-2.62-4.29v-2.53H461l1.39-2.37H439.15l1.39,2.37h2.64v2.51a4.83,4.83,0,0,0-2.66,4.31,4.78,4.78,0,0,0,1.71,3.68l-7.36,14.48h3.31l3.64-6.18h6.85v6.18h3.91v-6.18h6.88Zm-5-18.67v-2.95a4.11,4.11,0,0,1,1.9,3.46,4.07,4.07,0,0,1-1.33,3l-.59-1.16h0V798Zm-13.37-6.31h11.77v2c-.2,0-.41,0-.62,0a4.84,4.84,0,0,0-4.81,4.32h-.94a4.84,4.84,0,0,0-4.81-4.32,3.9,3.9,0,0,0-.59,0Zm7.06,6.31a4.13,4.13,0,0,1,4.09-3.61,4.2,4.2,0,0,1,.62.06V798Zm2.89,4.45a4.1,4.1,0,0,1-2.14-1.53v-.55h.91ZM448.67,801a4.11,4.11,0,0,1-2.11,1.49l1.23-2.08h.88Zm-3.9-6.52a3.92,3.92,0,0,1,.59-.05,4.13,4.13,0,0,1,4.09,3.61h-4.68Zm-3.53,4.07a4.07,4.07,0,0,1,1.94-3.48v3h0v2.37l-.59,1.16A4.07,4.07,0,0,1,441.24,798.55Zm1.35,10.68,3.48-5.9a4.83,4.83,0,0,0,2.6-1.26v7.16Zm10,0V802a4.82,4.82,0,0,0,2.63,1.29l3.48,5.9Z" transform="translate(-416.13 -685.18)"/><rect class="cls-3" x="69.68" y="89.7" width="182.82" height="59.91"/><g class="cls-4"><polygon class="cls-5" points="86.91 104.58 82.91 104.58 82.41 104.58 81.59 104.58 81.59 116.27 82.91 116.27 82.91 106.14 86.91 106.14 86.91 116.27 88.23 116.27 88.23 104.58 87.61 104.58 86.91 104.58"/><path class="cls-5" d="M511.5,790.17a3.09,3.09,0,0,0-3.46,0,3.48,3.48,0,0,0-1.15,1.51,5.89,5.89,0,0,0-.41,2.27v3.31a5.88,5.88,0,0,0,.41,2.26A3.48,3.48,0,0,0,508,801a3,3,0,0,0,3.46,0,3.48,3.48,0,0,0,1.15-1.51,5.7,5.7,0,0,0,.41-2.26V794a5.71,5.71,0,0,0-.41-2.27A3.48,3.48,0,0,0,511.5,790.17Zm.22,7.14a3.52,3.52,0,0,1-.25,1.39,2,2,0,0,1-.68.92,1.64,1.64,0,0,1-1,.33,1.66,1.66,0,0,1-1-.33,2,2,0,0,1-.68-.92,3.71,3.71,0,0,1-.24-1.39v-3.42a3.75,3.75,0,0,1,.24-1.39,2,2,0,0,1,.68-.92,1.66,1.66,0,0,1,1-.33,1.64,1.64,0,0,1,1,.33,2,2,0,0,1,.68.92,3.55,3.55,0,0,1,.25,1.39Z" transform="translate(-416.13 -685.18)"/><path class="cls-5" d="M521.61,799.89V789.76h-5.68v7a4.88,4.88,0,0,1-.45,2.31,1.4,1.4,0,0,1-1.26.82h-.06v4h1.31v-2.41h6.08v2.41h1.31v-4h-1.25Zm-5.12,0a3.46,3.46,0,0,0,.41-.79,6.22,6.22,0,0,0,.34-2.19v-5.59h3v8.57Z" transform="translate(-416.13 -685.18)"/><path class="cls-5" d="M530.7,794.86a2.76,2.76,0,0,0-1.52-.41H527v-4.69h-3.46v1.56h2.15v10.13h3.46a2.76,2.76,0,0,0,1.52-.41,2.63,2.63,0,0,0,1-1.2A4.64,4.64,0,0,0,532,798a4.74,4.74,0,0,0-.34-1.9A2.63,2.63,0,0,0,530.7,794.86Zm-.22,4.14a1.39,1.39,0,0,1-.48.66,1.32,1.32,0,0,1-.77.23H527V796h2.2a1.32,1.32,0,0,1,.77.23,1.42,1.42,0,0,1,.48.67,2.88,2.88,0,0,1,.17,1.05A2.94,2.94,0,0,1,530.48,799Z" transform="translate(-416.13 -685.18)"/><polygon class="cls-5" points="118.21 104.58 117.57 104.58 117.57 116.27 118.21 116.27 118.89 116.27 123.59 116.27 123.59 114.71 118.89 114.71 118.89 111.24 122.88 111.24 122.88 109.68 118.89 109.68 118.89 106.14 123.59 106.14 123.59 104.58 118.89 104.58 118.21 104.58"/><polygon class="cls-5" points="129.44 112.3 126.69 104.58 125.46 104.58 125.46 116.27 126.74 116.27 126.74 108.37 128.98 114.64 129.9 114.64 132.13 108.22 132.13 116.27 133.41 116.27 133.41 104.58 132.19 104.58 129.44 112.3"/><polygon class="cls-5" points="137.05 111.29 141.06 111.29 141.06 116.27 142.37 116.27 142.37 104.58 141.06 104.58 141.06 109.73 137.05 109.73 137.05 104.58 135.74 104.58 135.74 116.27 137.05 116.27 137.05 111.29"/><polygon class="cls-5" points="145.99 113.39 145.99 104.58 144.69 104.58 144.69 116.26 145.76 116.26 150.3 107.57 150.3 116.26 151.6 116.26 151.6 104.58 150.54 104.58 145.99 113.39"/><polygon class="cls-5" points="157.52 110.34 160.7 104.58 159.05 104.58 156.42 109.68 155.24 109.68 155.24 104.58 153.92 104.58 153.92 116.27 155.24 116.27 155.24 111.24 156.4 111.24 159.27 116.27 161.1 116.27 157.52 110.34"/><path class="cls-5" d="M587.73,799.92a5.42,5.42,0,0,0,.62-1.83H587a2.91,2.91,0,0,1-.41,1,2,2,0,0,1-.67.64,1.56,1.56,0,0,1-.8.22,1.59,1.59,0,0,1-1-.35,2.16,2.16,0,0,1-.67-1,4.18,4.18,0,0,1-.23-1.44V794a4.28,4.28,0,0,1,.23-1.45,2.34,2.34,0,0,1,.67-1,1.58,1.58,0,0,1,1-.34,1.6,1.6,0,0,1,.8.23,2.33,2.33,0,0,1,.67.66,3,3,0,0,1,.41,1h1.35a5.29,5.29,0,0,0-.62-1.82,3.42,3.42,0,0,0-1.13-1.22,2.66,2.66,0,0,0-1.48-.43,2.81,2.81,0,0,0-1.71.54,3.47,3.47,0,0,0-1.14,1.53,6,6,0,0,0-.41,2.29v3.21a6,6,0,0,0,.41,2.29,3.47,3.47,0,0,0,1.14,1.53,2.81,2.81,0,0,0,1.71.54,2.74,2.74,0,0,0,1.47-.43A3.63,3.63,0,0,0,587.73,799.92Z" transform="translate(-416.13 -685.18)"/><path class="cls-5" d="M595.94,799.52a5.88,5.88,0,0,0,.41-2.26V794a5.89,5.89,0,0,0-.41-2.27,3.5,3.5,0,0,0-1.16-1.51,3.07,3.07,0,0,0-3.45,0,3.5,3.5,0,0,0-1.16,1.51,5.89,5.89,0,0,0-.41,2.27v3.31a5.88,5.88,0,0,0,.41,2.26,3.5,3.5,0,0,0,1.16,1.51,3,3,0,0,0,3.45,0A3.5,3.5,0,0,0,595.94,799.52Zm-1.87.1a1.64,1.64,0,0,1-1,.33,1.68,1.68,0,0,1-1-.33,2,2,0,0,1-.68-.92,3.71,3.71,0,0,1-.24-1.39v-3.42a3.75,3.75,0,0,1,.24-1.39,2.1,2.1,0,0,1,.68-.92,1.68,1.68,0,0,1,1-.33,1.64,1.64,0,0,1,1,.33,2,2,0,0,1,.69.92,3.75,3.75,0,0,1,.24,1.39v3.42a3.71,3.71,0,0,1-.24,1.39A2,2,0,0,1,594.07,799.62Z" transform="translate(-416.13 -685.18)"/><polygon class="cls-5" points="194.46 114.71 191.49 114.71 191.49 104.58 190.17 104.58 190.17 114.71 187.2 114.71 187.2 104.58 185.88 104.58 185.88 116.27 186.64 116.27 187.2 116.27 190.17 116.27 191.49 116.27 194.46 116.27 195.1 116.27 195.77 116.27 195.77 104.58 194.46 104.58 194.46 114.71"/><polygon class="cls-5" points="204.88 104.58 203.23 104.58 200.6 109.68 199.41 109.68 199.41 104.58 198.09 104.58 198.09 116.27 199.41 116.27 199.41 111.24 200.57 111.24 203.45 116.27 205.27 116.27 201.7 110.34 204.88 104.58"/><polygon class="cls-5" points="207.99 113.39 207.99 104.58 206.68 104.58 206.68 116.26 207.76 116.26 212.3 107.57 212.3 116.26 213.6 116.26 213.6 104.58 212.54 104.58 207.99 113.39"/><path class="cls-5" d="M637.75,796a1.85,1.85,0,0,0-1-.5,2,2,0,0,0,1-.51,2.39,2.39,0,0,0,.57-.9,3.42,3.42,0,0,0,.18-1.12,4.29,4.29,0,0,0-.3-1.69,2.23,2.23,0,0,0-.91-1.09,2.79,2.79,0,0,0-1.52-.39h-3.69v11.69h3.8a2.67,2.67,0,0,0,1.45-.4,2.46,2.46,0,0,0,1-1.12,4,4,0,0,0,.34-1.67v0a3.88,3.88,0,0,0-.22-1.29A2.71,2.71,0,0,0,637.75,796Zm-2.25-4.68a1.6,1.6,0,0,1,1.23.43,1.82,1.82,0,0,1,.42,1.31,1.94,1.94,0,0,1-.37,1.27,1.4,1.4,0,0,1-1.1.42h-2.33v-3.43Zm1.77,6.84a1.81,1.81,0,0,1-.46,1.33,1.92,1.92,0,0,1-1.45.47h-2v-3.73h2.33a1.68,1.68,0,0,1,.91.23,1.35,1.35,0,0,1,.52.65,3.12,3.12,0,0,1,.16,1Z" transform="translate(-416.13 -685.18)"/><path class="cls-5" d="M645.19,790.17a3.07,3.07,0,0,0-3.45,0,3.5,3.5,0,0,0-1.16,1.51,5.89,5.89,0,0,0-.41,2.27v3.31a5.88,5.88,0,0,0,.41,2.26,3.5,3.5,0,0,0,1.16,1.51,3,3,0,0,0,3.45,0,3.43,3.43,0,0,0,1.16-1.51,5.88,5.88,0,0,0,.41-2.26V794a5.89,5.89,0,0,0-.41-2.27A3.43,3.43,0,0,0,645.19,790.17Zm.22,7.14a3.71,3.71,0,0,1-.24,1.39,2,2,0,0,1-.68.92,1.76,1.76,0,0,1-2,0,2,2,0,0,1-.68-.92,3.71,3.71,0,0,1-.24-1.39v-3.42a3.75,3.75,0,0,1,.24-1.39,2.1,2.1,0,0,1,.68-.92,1.76,1.76,0,0,1,2,0,2.1,2.1,0,0,1,.68.92,3.75,3.75,0,0,1,.24,1.39Z" transform="translate(-416.13 -685.18)"/><polygon class="cls-5" points="239.35 104.58 236.6 112.3 233.85 104.58 232.62 104.58 232.62 116.27 233.9 116.27 233.9 108.37 236.15 114.64 237.06 114.64 239.3 108.22 239.3 116.27 240.58 116.27 240.58 104.58 239.35 104.58"/><polygon class="cls-5" points="136.38 125.89 139.03 125.89 139.03 136.02 140.34 136.02 140.34 125.89 142.99 125.89 142.99 124.33 136.38 124.33 136.38 125.89"/><path class="cls-5" d="M565.5,810a2.46,2.46,0,0,0-1.47-.45H560.4V821.2h1.32v-4.53H564a2.53,2.53,0,0,0,1.47-.44,2.88,2.88,0,0,0,1-1.25,5.22,5.22,0,0,0,0-3.76A2.86,2.86,0,0,0,565.5,810Zm-.18,4.19a1.57,1.57,0,0,1-.5.71,1.21,1.21,0,0,1-.75.25h-2.35v-4h2.35a1.16,1.16,0,0,1,.75.26,1.52,1.52,0,0,1,.5.71,3.18,3.18,0,0,1,0,2.11Z" transform="translate(-416.13 -685.18)"/><polygon class="cls-5" points="153.19 124.33 152.55 124.33 152.55 136.02 153.19 136.02 153.87 136.02 158.57 136.02 158.57 134.46 153.87 134.46 153.87 131 157.86 131 157.86 129.44 153.87 129.44 153.87 125.89 158.57 125.89 158.57 124.33 153.87 124.33 153.19 124.33"/><polygon class="cls-5" points="165.75 129.49 161.75 129.49 161.75 124.33 160.43 124.33 160.43 136.02 161.75 136.02 161.75 131.05 165.75 131.05 165.75 136.02 167.07 136.02 167.07 124.33 165.75 124.33 165.75 129.49"/><polygon class="cls-5" points="170.69 133.15 170.69 124.33 169.38 124.33 169.38 136.01 170.46 136.01 175 127.33 175 136.01 176.3 136.01 176.3 124.33 175.24 124.33 170.69 133.15"/><path class="cls-5" d="M599.33,809.51H597a2.42,2.42,0,0,0-1.43.43,2.76,2.76,0,0,0-.95,1.23,4.53,4.53,0,0,0-.34,1.83,4.58,4.58,0,0,0,.34,1.84,2.91,2.91,0,0,0,1,1.23,2.43,2.43,0,0,0,.85.35l-2.22,4.78h1.56l2.11-4.7h1.46v4.7h1.31V809.51h-1.31Zm-2.39,5.43a1,1,0,0,1-.67-.24,1.52,1.52,0,0,1-.44-.68,3.3,3.3,0,0,1,0-2,1.47,1.47,0,0,1,.44-.68,1,1,0,0,1,.67-.24h2.39v3.87Z" transform="translate(-416.13 -685.18)"/></g><rect class="cls-3" x="252.5" y="89.7" width="182.82" height="59.91"/><g class="cls-6"><path class="cls-5" d="M700.34,804.74a2.76,2.76,0,0,0-1.52-.41h-2.31V801.2H701v-1.56h-5.76v11.68h3.63a2.68,2.68,0,0,0,1.52-.41,2.55,2.55,0,0,0,1-1.19,4.83,4.83,0,0,0,.33-1.88,4.9,4.9,0,0,0-.33-1.9A2.53,2.53,0,0,0,700.34,804.74Zm-.22,4.14a1.34,1.34,0,0,1-.49.66,1.29,1.29,0,0,1-.77.22h-2.35v-3.87h2.35a1.3,1.3,0,0,1,.77.23,1.34,1.34,0,0,1,.49.66,3,3,0,0,1,.17,1.06A2.94,2.94,0,0,1,700.12,808.88Z" transform="translate(-416.13 -685.18)"/><path class="cls-5" d="M706,799.64l-3.45,11.68h1.42l.7-2.56h3.78l.71,2.56h1.42l-3.46-11.68Zm-.9,7.56,1.46-5.31L708,807.2Z" transform="translate(-416.13 -685.18)"/><path class="cls-5" d="M717,800.08a2.46,2.46,0,0,0-1.47-.44h-3.63v11.68h1.32v-4.53h2.31a2.53,2.53,0,0,0,1.47-.44,2.83,2.83,0,0,0,1-1.25,5.22,5.22,0,0,0,0-3.76A2.86,2.86,0,0,0,717,800.08Zm-.18,4.2a1.54,1.54,0,0,1-.5.7,1.17,1.17,0,0,1-.75.25h-2.35v-4h2.35a1.17,1.17,0,0,1,.75.25,1.63,1.63,0,0,1,.5.71,2.87,2.87,0,0,1,.18,1.06A2.91,2.91,0,0,1,716.86,804.28Z" transform="translate(-416.13 -685.18)"/><path class="cls-5" d="M722.19,799.64l-3.45,11.68h1.41l.71-2.56h3.78l.7,2.56h1.42l-3.45-11.68Zm-.9,7.56,1.46-5.31,1.46,5.31Z" transform="translate(-416.13 -685.18)"/><path class="cls-5" d="M733.32,804.74a2.74,2.74,0,0,0-1.52-.41h-2.31V801.2h4.44v-1.56h-5.75v11.68h3.62a2.66,2.66,0,0,0,1.52-.41,2.51,2.51,0,0,0,1-1.19,4.83,4.83,0,0,0,.33-1.88,4.9,4.9,0,0,0-.33-1.9A2.49,2.49,0,0,0,733.32,804.74Zm-.21,4.14a1.47,1.47,0,0,1-.49.66,1.29,1.29,0,0,1-.77.22h-2.36v-3.87h2.36a1.3,1.3,0,0,1,.77.23,1.47,1.47,0,0,1,.49.66,3,3,0,0,1,.16,1.06A3,3,0,0,1,733.11,808.88Z" transform="translate(-416.13 -685.18)"/><path class="cls-5" d="M738.94,799.64l-3.45,11.68h1.41l.71-2.56h3.78l.7,2.56h1.42l-3.45-11.68Zm-.9,7.56,1.46-5.31L741,807.2Z" transform="translate(-416.13 -685.18)"/><polygon class="cls-5" points="334.12 119.61 330.11 119.61 330.11 114.46 328.8 114.46 328.8 126.14 330.11 126.14 330.11 121.17 334.12 121.17 334.12 126.14 335.43 126.14 335.43 114.46 334.12 114.46 334.12 119.61"/><polygon class="cls-5" points="343.07 119.61 339.06 119.61 339.06 114.46 337.75 114.46 337.75 126.14 339.06 126.14 339.06 121.17 343.07 121.17 343.07 126.14 344.38 126.14 344.38 114.46 343.07 114.46 343.07 119.61"/><path class="cls-5" d="M767.68,804.74a2.7,2.7,0,0,0-1.51-.41h-2v-4.69h-1.31v11.68h3.34a2.63,2.63,0,0,0,1.51-.41,2.51,2.51,0,0,0,1-1.19,4.83,4.83,0,0,0,.33-1.88,4.9,4.9,0,0,0-.33-1.9A2.49,2.49,0,0,0,767.68,804.74Zm-.21,4.14a1.47,1.47,0,0,1-.49.66,1.29,1.29,0,0,1-.77.22h-2.07v-3.87h2.07a1.3,1.3,0,0,1,.77.23,1.47,1.47,0,0,1,.49.66,3,3,0,0,1,.16,1.06A3,3,0,0,1,767.47,808.88Z" transform="translate(-416.13 -685.18)"/><rect class="cls-5" x="354.09" y="114.46" width="1.31" height="11.69"/><polygon class="cls-5" points="359.02 123.27 359.02 114.46 357.72 114.46 357.72 126.13 358.8 126.13 363.34 117.45 363.34 126.13 364.64 126.13 364.64 114.46 363.57 114.46 359.02 123.27"/><path class="cls-5" d="M777.25,798.8h0a2,2,0,0,0,1.58-.64,2.64,2.64,0,0,0,.57-1.81l-1.07,0a1.38,1.38,0,0,1-.28.93,1,1,0,0,1-.8.34h0a1,1,0,0,1-.8-.34,1.38,1.38,0,0,1-.28-.93l-1.06,0a2.63,2.63,0,0,0,.56,1.81A2,2,0,0,0,777.25,798.8Z" transform="translate(-416.13 -685.18)"/><polygon class="cls-5" points="377.28 114.46 375.63 114.46 373 119.56 371.81 119.56 371.81 114.46 370.5 114.46 370.5 126.14 371.81 126.14 371.81 121.12 372.98 121.12 375.85 126.14 377.67 126.14 374.1 120.22 377.28 114.46"/><path class="cls-5" d="M797.64,799.64l-3.45,11.68h1.41l.71-2.56h3.78l.7,2.56h1.42l-3.45-11.68Zm-.9,7.56,1.46-5.31,1.46,5.31Z" transform="translate(-416.13 -685.18)"/><polygon class="cls-5" points="392.82 119.61 388.81 119.61 388.81 114.46 387.5 114.46 387.5 126.14 388.81 126.14 388.81 121.17 392.82 121.17 392.82 126.14 394.13 126.14 394.13 114.46 392.82 114.46 392.82 119.61"/><path class="cls-5" d="M815,799.64l-3.45,11.68H813l.7-2.56h3.78l.71,2.56h1.41l-3.45-11.68Zm-.9,7.56,1.46-5.31L817,807.2Z" transform="translate(-416.13 -685.18)"/><polygon class="cls-5" points="409.93 114.46 403.32 114.46 403.32 116.02 405.97 116.02 405.97 126.14 407.28 126.14 407.28 116.02 409.93 116.02 409.93 114.46"/></g><rect class="cls-3" x="435.32" y="89.7" width="182.82" height="59.91"/><g class="cls-7"><path class="cls-5" d="M883.16,804.74a2.76,2.76,0,0,0-1.52-.41h-2.31V801.2h4.44v-1.56H878v11.68h3.63a2.68,2.68,0,0,0,1.52-.41,2.55,2.55,0,0,0,1-1.19,4.83,4.83,0,0,0,.33-1.88,4.9,4.9,0,0,0-.33-1.9A2.53,2.53,0,0,0,883.16,804.74Zm-.22,4.14a1.34,1.34,0,0,1-.49.66,1.29,1.29,0,0,1-.77.22h-2.35v-3.87h2.35a1.3,1.3,0,0,1,.77.23,1.34,1.34,0,0,1,.49.66,3,3,0,0,1,.17,1.06A2.94,2.94,0,0,1,882.94,808.88Z" transform="translate(-416.13 -685.18)"/><path class="cls-5" d="M888.77,799.64l-3.45,11.68h1.42l.7-2.56h3.78l.71,2.56h1.42l-3.46-11.68Zm-.9,7.56,1.46-5.31,1.46,5.31Z" transform="translate(-416.13 -685.18)"/><path class="cls-5" d="M899.86,800.08a2.46,2.46,0,0,0-1.47-.44h-3.63v11.68h1.32v-4.53h2.31a2.53,2.53,0,0,0,1.47-.44,2.83,2.83,0,0,0,1-1.25,5.22,5.22,0,0,0,0-3.76A2.86,2.86,0,0,0,899.86,800.08Zm-.18,4.2a1.54,1.54,0,0,1-.5.7,1.15,1.15,0,0,1-.75.25h-2.35v-4h2.35a1.15,1.15,0,0,1,.75.25,1.63,1.63,0,0,1,.5.71,2.87,2.87,0,0,1,.18,1.06A2.91,2.91,0,0,1,899.68,804.28Z" transform="translate(-416.13 -685.18)"/><path class="cls-5" d="M905,799.64l-3.45,11.68H903l.71-2.56h3.78l.7,2.56h1.42l-3.45-11.68Zm-.9,7.56,1.46-5.31L907,807.2Z" transform="translate(-416.13 -685.18)"/><path class="cls-5" d="M916.14,804.74a2.74,2.74,0,0,0-1.52-.41h-2.31V801.2h4.44v-1.56H911v11.68h3.62a2.66,2.66,0,0,0,1.52-.41,2.51,2.51,0,0,0,1-1.19,4.83,4.83,0,0,0,.33-1.88,4.9,4.9,0,0,0-.33-1.9A2.49,2.49,0,0,0,916.14,804.74Zm-.21,4.14a1.47,1.47,0,0,1-.49.66,1.29,1.29,0,0,1-.77.22h-2.36v-3.87h2.36a1.3,1.3,0,0,1,.77.23,1.47,1.47,0,0,1,.49.66,3,3,0,0,1,.16,1.06A3,3,0,0,1,915.93,808.88Z" transform="translate(-416.13 -685.18)"/><path class="cls-5" d="M921.76,799.64l-3.45,11.68h1.41l.71-2.56h3.78l.7,2.56h1.42l-3.45-11.68Zm-.9,7.56,1.46-5.31,1.46,5.31Z" transform="translate(-416.13 -685.18)"/><polygon class="cls-5" points="516.94 119.61 512.93 119.61 512.93 114.46 511.62 114.46 511.62 126.14 512.93 126.14 512.93 121.17 516.94 121.17 516.94 126.14 518.25 126.14 518.25 114.46 516.94 114.46 516.94 119.61"/><polygon class="cls-5" points="525.89 119.61 521.88 119.61 521.88 114.46 520.57 114.46 520.57 126.14 521.88 126.14 521.88 121.17 525.89 121.17 525.89 126.14 527.21 126.14 527.21 114.46 525.89 114.46 525.89 119.61"/><rect class="cls-5" x="536.91" y="114.46" width="1.31" height="11.69"/><path class="cls-5" d="M950.51,804.74a2.76,2.76,0,0,0-1.52-.41h-2v-4.69h-1.31v11.68H949a2.68,2.68,0,0,0,1.52-.41,2.55,2.55,0,0,0,1-1.19,4.83,4.83,0,0,0,.33-1.88,4.9,4.9,0,0,0-.33-1.9A2.53,2.53,0,0,0,950.51,804.74Zm-.22,4.14a1.4,1.4,0,0,1-.49.66,1.29,1.29,0,0,1-.77.22H947v-3.87H949a1.3,1.3,0,0,1,.77.23,1.4,1.4,0,0,1,.49.66,3,3,0,0,1,.16,1.06A3,3,0,0,1,950.29,808.88Z" transform="translate(-416.13 -685.18)"/><polygon class="cls-5" points="541.84 123.27 541.84 114.46 540.54 114.46 540.54 126.13 541.62 126.13 546.16 117.45 546.16 126.13 547.46 126.13 547.46 114.46 546.39 114.46 541.84 123.27"/><path class="cls-5" d="M960.07,798.8h0a2,2,0,0,0,1.58-.64,2.64,2.64,0,0,0,.57-1.81l-1.07,0a1.38,1.38,0,0,1-.28.93,1,1,0,0,1-.8.34h0a1,1,0,0,1-.8-.34,1.38,1.38,0,0,1-.28-.93l-1.06,0a2.63,2.63,0,0,0,.56,1.81A2,2,0,0,0,960.07,798.8Z" transform="translate(-416.13 -685.18)"/><polygon class="cls-5" points="560.1 114.46 558.45 114.46 555.82 119.56 554.63 119.56 554.63 114.46 553.32 114.46 553.32 126.14 554.63 126.14 554.63 121.12 555.79 121.12 558.67 126.14 560.49 126.14 556.92 120.22 560.1 114.46"/><path class="cls-5" d="M980.46,799.64,977,811.32h1.41l.71-2.56h3.78l.7,2.56H985l-3.45-11.68Zm-.9,7.56,1.46-5.31,1.46,5.31Z" transform="translate(-416.13 -685.18)"/><polygon class="cls-5" points="575.64 119.61 571.63 119.61 571.63 114.46 570.32 114.46 570.32 126.14 571.63 126.14 571.63 121.17 575.64 121.17 575.64 126.14 576.95 126.14 576.95 114.46 575.64 114.46 575.64 119.61"/><path class="cls-5" d="M997.82,799.64l-3.45,11.68h1.42l.7-2.56h3.78l.71,2.56h1.41l-3.45-11.68Zm-.9,7.56,1.46-5.31,1.46,5.31Z" transform="translate(-416.13 -685.18)"/><polygon class="cls-5" points="592.75 114.46 586.14 114.46 586.14 116.02 588.79 116.02 588.79 126.14 590.1 126.14 590.1 116.02 592.75 116.02 592.75 114.46"/></g><g class="cls-8"><path class="cls-3" d="M942.11,862.34a2.25,2.25,0,0,1,.67-1,1.55,1.55,0,0,1,1-.34,1.57,1.57,0,0,1,.8.23,2.21,2.21,0,0,1,.67.66,2.76,2.76,0,0,1,.41,1H947a5.09,5.09,0,0,0-.62-1.82,3.42,3.42,0,0,0-1.13-1.22,2.66,2.66,0,0,0-1.48-.43,2.83,2.83,0,0,0-1.71.54,3.47,3.47,0,0,0-1.14,1.53,6,6,0,0,0-.41,2.29V867a6,6,0,0,0,.41,2.29,3.47,3.47,0,0,0,1.14,1.53,2.83,2.83,0,0,0,1.71.54,2.75,2.75,0,0,0,1.48-.43,3.51,3.51,0,0,0,1.13-1.22,5.21,5.21,0,0,0,.62-1.83h-1.35a2.67,2.67,0,0,1-.41,1,2.11,2.11,0,0,1-.66.64,1.59,1.59,0,0,1-.81.22,1.56,1.56,0,0,1-1-.35,2.1,2.1,0,0,1-.67-1,4,4,0,0,1-.24-1.45v-3.21A4,4,0,0,1,942.11,862.34Z" transform="translate(-416.13 -685.18)"/><polygon class="cls-3" points="537.94 174.37 533.93 174.37 533.44 174.37 532.62 174.37 532.62 186.06 533.93 186.06 533.93 175.93 537.94 175.93 537.94 186.06 539.25 186.06 539.25 174.37 538.64 174.37 537.94 174.37"/><polygon class="cls-3" points="542.21 174.37 541.57 174.37 541.57 186.06 542.21 186.06 542.88 186.06 547.59 186.06 547.59 184.5 542.88 184.5 542.88 181.03 546.88 181.03 546.88 179.47 542.88 179.47 542.88 175.93 547.59 175.93 547.59 174.37 542.88 174.37 542.21 174.37"/><polygon class="cls-3" points="556.09 184.5 556.09 174.37 554.77 174.37 554.77 184.5 550.77 184.5 550.77 174.37 549.45 174.37 549.45 186.06 550.27 186.06 550.77 186.06 554.77 186.06 556.03 186.06 556.03 188.47 557.35 188.47 557.35 184.5 556.5 184.5 556.09 184.5"/><polygon class="cls-3" points="560.33 183.18 560.33 174.37 559.02 174.37 559.02 186.05 560.1 186.05 564.64 177.36 564.64 186.05 565.94 186.05 565.94 174.37 564.88 174.37 560.33 183.18"/><path class="cls-3" d="M991,860.93a5,5,0,0,0-1.85-.51v-1.27h-1.32v1.27a5,5,0,0,0-1.85.51,3.6,3.6,0,0,0-1.59,1.57,5.46,5.46,0,0,0-.54,2.53v.32a5.44,5.44,0,0,0,.54,2.53,3.62,3.62,0,0,0,1.59,1.58,5,5,0,0,0,1.85.5v1.28h1.32V870a5,5,0,0,0,1.85-.5,3.62,3.62,0,0,0,1.59-1.58,5.44,5.44,0,0,0,.54-2.53V865a5.46,5.46,0,0,0-.54-2.53A3.6,3.6,0,0,0,991,860.93Zm-5,6.79a3.06,3.06,0,0,1-.88-2.37V865a3.08,3.08,0,0,1,.88-2.37,3.26,3.26,0,0,1,1.85-.77v6.6A3.19,3.19,0,0,1,985.94,867.72Zm5.9-2.37a3.06,3.06,0,0,1-.88,2.37,3.19,3.19,0,0,1-1.85.77v-6.6a3.26,3.26,0,0,1,1.85.77,3.08,3.08,0,0,1,.88,2.37Z" transform="translate(-416.13 -685.18)"/><polygon class="cls-3" points="579.88 183.18 579.88 174.37 578.57 174.37 578.57 186.05 579.65 186.05 584.19 177.36 584.19 186.05 585.49 186.05 585.49 174.37 584.43 174.37 579.88 183.18"/><polygon class="cls-3" points="594.59 174.37 592.94 174.37 590.31 179.47 589.12 179.47 589.12 174.37 587.81 174.37 587.81 186.06 589.12 186.06 589.12 181.03 590.29 181.03 593.16 186.06 594.98 186.06 591.41 180.13 594.59 174.37"/><path class="cls-3" d="M1015,859.55l-3.45,11.69h1.42l.7-2.57h3.78l.71,2.57h1.41l-3.45-11.69Zm-.9,7.56,1.46-5.3,1.46,5.3Z" transform="translate(-416.13 -685.18)"/><polygon class="cls-3" points="611.45 184.5 611.45 174.37 610.13 174.37 610.13 184.5 606.13 184.5 606.13 174.37 604.81 174.37 604.81 186.06 605.63 186.06 606.13 186.06 610.13 186.06 611.39 186.06 611.39 188.47 612.71 188.47 612.71 184.5 611.86 184.5 611.45 184.5"/><polygon class="cls-3" points="615.68 183.18 615.68 174.37 614.38 174.37 614.38 186.05 615.46 186.05 620 177.36 620 186.05 621.3 186.05 621.3 174.37 620.24 174.37 615.68 183.18"/><path class="cls-3" d="M1044.32,859.54H1042a2.42,2.42,0,0,0-1.43.44,2.73,2.73,0,0,0-1,1.22,4.58,4.58,0,0,0-.34,1.84,4.53,4.53,0,0,0,.34,1.83,2.85,2.85,0,0,0,1,1.23,2.28,2.28,0,0,0,.85.35l-2.22,4.79h1.56l2.11-4.71h1.45v4.71h1.32v-11.7h-1.32Zm-2.39,5.44a1,1,0,0,1-.66-.25,1.56,1.56,0,0,1-.45-.68,3.51,3.51,0,0,1,0-2,1.62,1.62,0,0,1,.45-.68,1,1,0,0,1,.66-.24h2.39V865Z" transform="translate(-416.13 -685.18)"/><polygon class="cls-3" points="640.69 174.37 636.68 174.37 636.19 174.37 635.37 174.37 635.37 186.06 636.68 186.06 636.68 175.93 640.69 175.93 640.69 186.06 642 186.06 642 174.37 641.38 174.37 640.69 174.37"/><path class="cls-3" d="M1065.27,860a3.07,3.07,0,0,0-3.45,0,3.5,3.5,0,0,0-1.16,1.51,5.93,5.93,0,0,0-.41,2.27v3.31a5.88,5.88,0,0,0,.41,2.26,3.5,3.5,0,0,0,1.16,1.51,3,3,0,0,0,3.45,0,3.43,3.43,0,0,0,1.16-1.51,5.88,5.88,0,0,0,.41-2.26v-3.31a5.93,5.93,0,0,0-.41-2.27A3.43,3.43,0,0,0,1065.27,860Zm.22,7.14a3.71,3.71,0,0,1-.24,1.39,2,2,0,0,1-.68.92,1.76,1.76,0,0,1-2,0,2,2,0,0,1-.68-.92,3.71,3.71,0,0,1-.24-1.39v-3.42a3.75,3.75,0,0,1,.24-1.39,2.1,2.1,0,0,1,.68-.92,1.76,1.76,0,0,1,2,0,2.1,2.1,0,0,1,.68.92,3.75,3.75,0,0,1,.24,1.39Z" transform="translate(-416.13 -685.18)"/><path class="cls-3" d="M1076.9,865.13a2.09,2.09,0,0,0,.93-1,3.67,3.67,0,0,0,.33-1.61v-.06a3.66,3.66,0,0,0-.34-1.67,2.3,2.3,0,0,0-1-1,3.39,3.39,0,0,0-1.59-.34,3,3,0,0,0-1.44.35,2.78,2.78,0,0,0-1,1,4.35,4.35,0,0,0-.56,1.64h1.33a2,2,0,0,1,.63-1.07,1.71,1.71,0,0,1,1.13-.39,1.43,1.43,0,0,1,1.1.41,1.67,1.67,0,0,1,.39,1.2v.08a2.06,2.06,0,0,1-.34,1.25,1.13,1.13,0,0,1-1,.44h-1.37v1.56h1.37a1.23,1.23,0,0,1,1.06.51,2.34,2.34,0,0,1,.38,1.43h0a2.12,2.12,0,0,1-.42,1.41,1.52,1.52,0,0,1-1.21.49,2,2,0,0,1-1.29-.4,1.75,1.75,0,0,1-.63-1.13h-1.34a4,4,0,0,0,.53,1.67,2.73,2.73,0,0,0,1.09,1.07,3.2,3.2,0,0,0,1.57.37,3.35,3.35,0,0,0,1.67-.4,2.58,2.58,0,0,0,1-1.16,4.27,4.27,0,0,0,.36-1.83h0a4.29,4.29,0,0,0-.37-1.89A1.74,1.74,0,0,0,1076.9,865.13Z" transform="translate(-416.13 -685.18)"/><path class="cls-3" d="M1082.58,859.55l-3.46,11.69h1.42l.71-2.57H1085l.71,2.57h1.42l-3.46-11.69Zm-.91,7.56,1.46-5.3,1.46,5.3Z" transform="translate(-416.13 -685.18)"/><polygon class="cls-3" points="677.76 174.37 673.75 174.37 673.25 174.37 672.44 174.37 672.44 186.06 673.75 186.06 673.75 175.93 677.76 175.93 677.76 186.06 679.07 186.06 679.07 174.37 678.45 174.37 677.76 174.37"/><path class="cls-3" d="M1102.62,860a2.52,2.52,0,0,0-1.48-.45h-3.63v11.69h1.32V866.7h2.31a2.51,2.51,0,0,0,1.48-.44,2.82,2.82,0,0,0,1-1.25,4.57,4.57,0,0,0,.36-1.88,4.64,4.64,0,0,0-.36-1.88A2.82,2.82,0,0,0,1102.62,860Zm-.19,4.19a1.54,1.54,0,0,1-.5.7,1.14,1.14,0,0,1-.74.25h-2.36v-4h2.36a1.14,1.14,0,0,1,.74.25,1.63,1.63,0,0,1,.5.71,3.21,3.21,0,0,1,0,2.12Z" transform="translate(-416.13 -685.18)"/><path class="cls-3" d="M1110.42,860a3.07,3.07,0,0,0-3.45,0,3.5,3.5,0,0,0-1.16,1.51,5.93,5.93,0,0,0-.41,2.27v3.31a5.88,5.88,0,0,0,.41,2.26,3.5,3.5,0,0,0,1.16,1.51,3,3,0,0,0,3.45,0,3.43,3.43,0,0,0,1.16-1.51,5.88,5.88,0,0,0,.41-2.26v-3.31a5.93,5.93,0,0,0-.41-2.27A3.43,3.43,0,0,0,1110.42,860Zm.22,7.14a3.71,3.71,0,0,1-.24,1.39,2,2,0,0,1-.68.92,1.76,1.76,0,0,1-2,0,2,2,0,0,1-.68-.92,3.71,3.71,0,0,1-.24-1.39v-3.42a3.75,3.75,0,0,1,.24-1.39,2.1,2.1,0,0,1,.68-.92,1.76,1.76,0,0,1,2,0,2.1,2.1,0,0,1,.68.92,3.75,3.75,0,0,1,.24,1.39Z" transform="translate(-416.13 -685.18)"/><path class="cls-3" d="M1115.25,862.34a2.17,2.17,0,0,1,.67-1,1.53,1.53,0,0,1,1-.34,1.57,1.57,0,0,1,.8.23,2.21,2.21,0,0,1,.67.66,3,3,0,0,1,.41,1h1.35a5.09,5.09,0,0,0-.62-1.82,3.42,3.42,0,0,0-1.13-1.22,2.66,2.66,0,0,0-1.48-.43,2.81,2.81,0,0,0-1.71.54,3.47,3.47,0,0,0-1.14,1.53,6,6,0,0,0-.41,2.29V867a6,6,0,0,0,.41,2.29,3.47,3.47,0,0,0,1.14,1.53,2.87,2.87,0,0,0,3.19.11,3.6,3.6,0,0,0,1.13-1.22,5.42,5.42,0,0,0,.62-1.83h-1.35a2.84,2.84,0,0,1-.41,1,2,2,0,0,1-.67.64,1.59,1.59,0,0,1-1.8-.13,2,2,0,0,1-.67-1A4,4,0,0,1,1115,867v-3.21A4,4,0,0,1,1115.25,862.34Z" transform="translate(-416.13 -685.18)"/><path class="cls-3" d="M1127.28,859.55l-2.08,7.5-2.46-7.5h-1.5l3.33,9.48v0a1.7,1.7,0,0,1-.4.52.9.9,0,0,1-.53.17h-1.09v1.62h1.09a1.82,1.82,0,0,0,1-.29,2.5,2.5,0,0,0,.76-.84,7.1,7.1,0,0,0,.57-1.41l2.73-9.27Z" transform="translate(-416.13 -685.18)"/></g><rect class="cls-3" x="252.5" y="209.53" width="182.82" height="59.91"/><rect class="cls-3" x="435.32" y="209.53" width="182.82" height="59.91"/><rect class="cls-3" x="618.14" y="209.53" width="182.82" height="59.91"/><rect class="cls-3" x="983.78" y="209.53" width="182.82" height="59.91"/><rect class="cls-3" x="252.5" y="269.44" width="182.82" height="59.91"/><rect class="cls-3" x="618.14" y="269.44" width="182.82" height="59.91"/><rect class="cls-3" x="983.78" y="269.44" width="182.82" height="59.91"/><rect class="cls-3" x="69.68" y="329.35" width="182.82" height="59.91"/><rect class="cls-3" x="252.5" y="329.35" width="182.82" height="59.91"/><rect class="cls-3" x="435.32" y="329.35" width="182.82" height="59.91"/><rect class="cls-3" x="800.96" y="329.35" width="182.82" height="59.91"/><rect class="cls-3" x="983.78" y="329.35" width="182.82" height="59.91"/><rect class="cls-3" x="252.5" y="389.27" width="182.82" height="59.91"/><rect class="cls-3" x="618.14" y="389.27" width="182.82" height="59.91"/><rect class="cls-3" x="69.68" y="449.18" width="182.82" height="59.91"/><rect class="cls-3" x="252.5" y="449.18" width="182.82" height="59.91"/><rect class="cls-3" x="435.32" y="449.18" width="182.82" height="59.91"/><rect class="cls-3" x="800.96" y="449.18" width="182.82" height="59.91"/><g class="cls-9"><path class="cls-5" d="M1291.14,1159.12l-3.46,11.68h1.42l.71-2.56h3.78l.7,2.56h1.42l-3.45-11.68Zm-.9,7.56,1.46-5.31,1.46,5.31Z" transform="translate(-416.13 -685.18)"/><polygon class="cls-5" points="886.32 479.09 882.31 479.09 882.31 473.94 881 473.94 881 485.62 882.31 485.62 882.31 480.65 886.32 480.65 886.32 485.62 887.63 485.62 887.63 473.94 886.32 473.94 886.32 479.09"/><polygon class="cls-5" points="896.73 473.94 895.08 473.94 892.45 479.04 891.26 479.04 891.26 473.94 889.95 473.94 889.95 485.62 891.26 485.62 891.26 480.6 892.43 480.6 895.3 485.62 897.12 485.62 893.55 479.7 896.73 473.94"/><polygon class="cls-5" points="899.18 473.94 898.54 473.94 898.54 485.62 899.18 485.62 899.85 485.62 904.56 485.62 904.56 484.06 899.85 484.06 899.85 480.6 903.85 480.6 903.85 479.04 899.85 479.04 899.85 475.5 904.56 475.5 904.56 473.94 899.85 473.94 899.18 473.94"/><path class="cls-5" d="M1328.64,1160.82a2.86,2.86,0,0,0-1-1.26,2.48,2.48,0,0,0-1.47-.44h-3.63v11.68h1.31v-4.53h2.32a2.55,2.55,0,0,0,1.47-.44,2.83,2.83,0,0,0,1-1.25,5.22,5.22,0,0,0,0-3.76Zm-1.17,2.94a1.62,1.62,0,0,1-.5.7,1.19,1.19,0,0,1-.75.25h-2.36v-4h2.36a1.19,1.19,0,0,1,.75.25,1.72,1.72,0,0,1,.5.71,2.88,2.88,0,0,1,.17,1.06A2.91,2.91,0,0,1,1327.47,1163.76Z" transform="translate(-416.13 -685.18)"/></g><rect class="cls-3" x="983.78" y="449.18" width="182.82" height="59.91"/><rect class="cls-3" x="69.68" y="509.09" width="182.82" height="59.91"/><rect class="cls-3" x="800.96" y="509.09" width="182.82" height="59.91"/><rect class="cls-3" x="983.78" y="509.09" width="182.82" height="59.91"/><polyline class="cls-10" points="69.68 629 69.68 627.97 69.68 562.01 69.68 496.06 69.68 430.1 69.68 364.14 69.68 298.18 69.68 232.22 69.68 166.26 69.68 100.3 69.68 0"/><polyline class="cls-10" points="252.5 629 252.5 627.91 252.5 558.21 252.5 488.5 252.5 418.8 252.5 349.09 252.5 279.38 252.5 209.68 252.5 208.59"/><polyline class="cls-10" points="252.5 149.61 252.5 148.69 252.5 89.7 252.5 0"/><polyline class="cls-10" points="435.32 629 435.32 627.91 435.32 558.21 435.32 488.5 435.32 418.8 435.32 349.09 435.32 279.38 435.32 209.68 435.32 208.59"/><polyline class="cls-10" points="435.32 149.61 435.32 148.69 435.32 89.7 435.32 0"/><polyline class="cls-10" points="618.14 629 618.14 627.91 618.14 558.21 618.14 488.5 618.14 418.8 618.14 349.09 618.14 279.38 618.14 209.68 618.14 208.59"/><polyline class="cls-10" points="618.14 149.61 618.14 148.69 618.14 89.7 618.14 0"/><polyline class="cls-10" points="800.96 149.61 800.96 148.69 800.96 89.7 800.96 0"/><polyline class="cls-10" points="983.78 149.61 983.78 148.69 983.78 89.7 983.78 0"/><polyline class="cls-10" points="1166.6 629 1166.6 627.97 1166.6 562.01 1166.6 496.06 1166.6 430.1 1166.6 364.14 1166.6 298.18 1166.6 232.22 1166.6 166.26 1166.6 100.3 1166.6 0"/><polyline class="cls-10" points="0 569.01 0.72 569.01 195.03 569.01 389.33 569.01 583.64 569.01 777.95 569.01 972.25 569.01 1166.56 569.01 1167.28 569.01"/><polyline class="cls-10" points="0 629 0.72 629 195.03 629 389.33 629 583.64 629 777.95 629 972.25 629 1166.56 629 1167.28 629"/><polyline class="cls-10" points="0 509.09 0.72 509.09 195.03 509.09 389.33 509.09 583.64 509.09 777.95 509.09 972.25 509.09 1166.56 509.09 1167.28 509.09"/><polyline class="cls-10" points="0 449.18 0.72 449.18 195.03 449.18 389.33 449.18 583.64 449.18 777.95 449.18 972.25 449.18 1166.56 449.18 1167.28 449.18"/><polyline class="cls-10" points="0 389.27 0.72 389.27 195.03 389.27 389.33 389.27 583.64 389.27 777.95 389.27 972.25 389.27 1166.56 389.27 1167.28 389.27"/><polyline class="cls-10" points="0 329.35 0.72 329.35 195.03 329.35 389.33 329.35 583.64 329.35 777.95 329.35 972.25 329.35 1166.56 329.35 1167.28 329.35"/><polyline class="cls-10" points="0 269.44 0.72 269.44 195.03 269.44 389.33 269.44 583.64 269.44 777.95 269.44 972.25 269.44 1166.56 269.44 1167.28 269.44"/><polyline class="cls-10" points="0 209.53 0.72 209.53 195.03 209.53 389.33 209.53 583.64 209.53 777.95 209.53 972.25 209.53 1166.56 209.53 1167.28 209.53"/><polyline class="cls-10" points="0 149.61 0.72 149.61 195.03 149.61 389.33 149.61 583.64 149.61 777.95 149.61 972.25 149.61 1166.56 149.61 1167.28 149.61"/><polyline class="cls-10" points="0 89.7 0.72 89.7 195.03 89.7 389.33 89.7 583.64 89.7 777.95 89.7 972.25 89.7 1166.56 89.7 1167.28 89.7"/><polyline class="cls-10" points="800.96 629 800.96 627.91 800.96 558.21 800.96 488.5 800.96 418.8 800.96 349.09 800.96 279.38 800.96 209.68 800.96 208.59"/><polyline class="cls-10" points="983.78 629 983.78 627.91 983.78 558.21 983.78 488.5 983.78 418.8 983.78 349.09 983.78 279.38 983.78 209.68 983.78 208.59"/><path class="cls-3" d="M710.68,723.78V711.19h1.48l8.33,10.34h-.77V711.19h1.8v12.59H720l-8.33-10.34h.77v10.34Z" transform="translate(-416.13 -685.18)"/><path class="cls-3" d="M728.34,723.78V719l.41,1.12-5.41-8.89h1.92l4.56,7.5h-1.05l4.57-7.5h1.79l-5.4,8.89.39-1.12v4.82Z" transform="translate(-416.13 -685.18)"/><path class="cls-3" d="M736.73,723.78V711.19h4.91a6.88,6.88,0,0,1,2.83.52,4,4,0,0,1,1.8,1.51,4.72,4.72,0,0,1,0,4.71,4.05,4.05,0,0,1-1.8,1.5,6.88,6.88,0,0,1-2.83.52h-3.92l.81-.83v4.66Zm1.8-4.48-.81-.88h3.87a4,4,0,0,0,2.62-.75,2.9,2.9,0,0,0,0-4.18,4.05,4.05,0,0,0-2.62-.74h-3.87l.81-.9Zm6.62,4.48-3.2-4.57h1.92l3.24,4.57Z" transform="translate(-416.13 -685.18)"/><path class="cls-3" d="M755.5,723.93a7.08,7.08,0,0,1-2.67-.49,6.22,6.22,0,0,1-2.13-1.36,6.32,6.32,0,0,1-1.41-2,6.78,6.78,0,0,1,0-5.11,6.32,6.32,0,0,1,1.41-2,6.17,6.17,0,0,1,2.12-1.36,7.1,7.1,0,0,1,2.68-.49,7.19,7.19,0,0,1,2.66.48,6.51,6.51,0,0,1,2.12,1.35,6,6,0,0,1,1.4,2,6.88,6.88,0,0,1,0,5.15,6,6,0,0,1-1.4,2,6.51,6.51,0,0,1-2.12,1.35A7.19,7.19,0,0,1,755.5,723.93Zm0-1.6a5.15,5.15,0,0,0,1.94-.36,4.51,4.51,0,0,0,1.54-1,4.79,4.79,0,0,0,1-1.54,5.19,5.19,0,0,0,0-3.85,4.79,4.79,0,0,0-1-1.54,4.51,4.51,0,0,0-1.54-1,5.43,5.43,0,0,0-3.89,0,4.69,4.69,0,0,0-1.56,1,4.63,4.63,0,0,0-1,1.54,5.19,5.19,0,0,0,0,3.85,4.63,4.63,0,0,0,1,1.54,4.69,4.69,0,0,0,1.56,1A5.13,5.13,0,0,0,755.5,722.33Z" transform="translate(-416.13 -685.18)"/><path class="cls-3" d="M768.6,723.93a8.75,8.75,0,0,1-2.75-.44,5.81,5.81,0,0,1-2.07-1.15l.67-1.4a5.74,5.74,0,0,0,1.83,1,6.57,6.57,0,0,0,2.32.42,5.5,5.5,0,0,0,1.79-.25,2.15,2.15,0,0,0,1-.7,1.66,1.66,0,0,0,.32-1,1.36,1.36,0,0,0-.42-1,3.26,3.26,0,0,0-1.1-.64,12.69,12.69,0,0,0-1.49-.42c-.54-.12-1.08-.26-1.63-.42a7.41,7.41,0,0,1-1.49-.63,3.11,3.11,0,0,1-1.09-1,3.06,3.06,0,0,1-.41-1.65,3.32,3.32,0,0,1,.51-1.79,3.53,3.53,0,0,1,1.58-1.31,6.56,6.56,0,0,1,2.73-.5,8.54,8.54,0,0,1,2.18.29,6,6,0,0,1,1.87.83l-.59,1.44a6,6,0,0,0-1.71-.79,6.76,6.76,0,0,0-1.75-.24,4.74,4.74,0,0,0-1.74.27,2.11,2.11,0,0,0-1,.72,1.73,1.73,0,0,0-.32,1,1.39,1.39,0,0,0,.42,1.06,3.09,3.09,0,0,0,1.1.63,12.69,12.69,0,0,0,1.49.42c.54.13,1.08.27,1.63.43a6.84,6.84,0,0,1,1.49.61,3.11,3.11,0,0,1,1.09,1,2.87,2.87,0,0,1,.41,1.62,3.23,3.23,0,0,1-.52,1.77,3.56,3.56,0,0,1-1.61,1.31A6.66,6.66,0,0,1,768.6,723.93Z" transform="translate(-416.13 -685.18)"/><path class="cls-3" d="M778.43,723.78v-11h-4.32v-1.56h10.42v1.56h-4.32v11Z" transform="translate(-416.13 -685.18)"/><path class="cls-3" d="M788.3,722.22h7.34v1.56H786.5V711.19h8.89v1.56H788.3Zm-.16-5.6h6.47v1.53h-6.47Z" transform="translate(-416.13 -685.18)"/><path class="cls-3" d="M798.56,723.78V711.19H800l8.34,10.34h-.78V711.19h1.8v12.59h-1.47l-8.34-10.34h.78v10.34Z" transform="translate(-416.13 -685.18)"/><path class="cls-3" d="M687.08,753.93a8.66,8.66,0,0,1-2.75-.44,5.64,5.64,0,0,1-2.07-1.15l.67-1.4a5.63,5.63,0,0,0,1.83,1,6.57,6.57,0,0,0,2.32.42,5.43,5.43,0,0,0,1.78-.25,2.05,2.05,0,0,0,1-.7,1.6,1.6,0,0,0,.33-1,1.33,1.33,0,0,0-.43-1,3.11,3.11,0,0,0-1.09-.64,12.69,12.69,0,0,0-1.49-.42c-.54-.12-1.08-.26-1.63-.42a7.41,7.41,0,0,1-1.49-.63,3.11,3.11,0,0,1-1.09-1,3,3,0,0,1-.42-1.65,3.33,3.33,0,0,1,.52-1.79,3.53,3.53,0,0,1,1.58-1.31,6.53,6.53,0,0,1,2.73-.5,8.54,8.54,0,0,1,2.18.29,6,6,0,0,1,1.87.83l-.59,1.44a6.15,6.15,0,0,0-1.71-.79,6.88,6.88,0,0,0-1.75-.24,4.84,4.84,0,0,0-1.75.27,2.16,2.16,0,0,0-1,.72,1.72,1.72,0,0,0-.31,1,1.39,1.39,0,0,0,.42,1.06,3,3,0,0,0,1.1.63,12.69,12.69,0,0,0,1.49.42c.53.13,1.08.27,1.62.43a6.73,6.73,0,0,1,1.5.61,3.11,3.11,0,0,1,1.09,1,3,3,0,0,1,.41,1.62,3.23,3.23,0,0,1-.52,1.77,3.62,3.62,0,0,1-1.61,1.31A6.66,6.66,0,0,1,687.08,753.93Z" transform="translate(-416.13 -685.18)"/><path class="cls-3" d="M698.58,753.89a5.57,5.57,0,0,1-2.69-.63,4.54,4.54,0,0,1-1.8-1.73,5,5,0,0,1-.64-2.51,5,5,0,0,1,.63-2.53,4.39,4.39,0,0,1,1.71-1.71,5.11,5.11,0,0,1,4.9,0,4.32,4.32,0,0,1,1.67,1.72,5.29,5.29,0,0,1,.6,2.58,2.26,2.26,0,0,1,0,.25q0,.15,0,.27h-8.11v-1.24H702l-.7.43a3.18,3.18,0,0,0-.38-1.64,2.8,2.8,0,0,0-1.09-1.12,3.35,3.35,0,0,0-3.21,0,2.91,2.91,0,0,0-1.1,1.13,3.49,3.49,0,0,0-.39,1.67v.28a3.25,3.25,0,0,0,.44,1.71,3.06,3.06,0,0,0,1.23,1.16,3.94,3.94,0,0,0,1.82.41,4,4,0,0,0,1.54-.29,3.4,3.4,0,0,0,1.21-.86l1,1.11a4.27,4.27,0,0,1-1.61,1.16A5.73,5.73,0,0,1,698.58,753.89Z" transform="translate(-416.13 -685.18)"/><path class="cls-3" d="M706.22,742.41a1.14,1.14,0,0,1-.84-.33,1.06,1.06,0,0,1-.33-.79,1.1,1.1,0,0,1,.33-.81,1.17,1.17,0,0,1,.84-.32,1.16,1.16,0,0,1,.83.31,1,1,0,0,1,.34.79,1.14,1.14,0,0,1-.33.82A1.12,1.12,0,0,1,706.22,742.41Zm-.87,11.37v-9.54h1.73v9.54Z" transform="translate(-416.13 -685.18)"/><path class="cls-3" d="M710.37,753.78V740.43h1.73v13.35Z" transform="translate(-416.13 -685.18)"/><path class="cls-3" d="M719.48,753.89a5.08,5.08,0,0,1-2.55-.63,4.67,4.67,0,0,1-1.77-1.73,5.21,5.21,0,0,1,0-5,4.55,4.55,0,0,1,1.77-1.71,5.08,5.08,0,0,1,2.55-.63,5.13,5.13,0,0,1,2.55.63,4.45,4.45,0,0,1,1.76,1.71,5.28,5.28,0,0,1,0,5,4.5,4.5,0,0,1-1.76,1.73A5.13,5.13,0,0,1,719.48,753.89Zm0-1.51a3.36,3.36,0,0,0,1.65-.41,2.88,2.88,0,0,0,1.14-1.18,3.62,3.62,0,0,0,.42-1.77,3.58,3.58,0,0,0-.42-1.78,2.89,2.89,0,0,0-1.14-1.16,3.36,3.36,0,0,0-1.65-.41,3.3,3.3,0,0,0-1.64.41,3.12,3.12,0,0,0-1.15,1.16,3.48,3.48,0,0,0-.43,1.78,3.52,3.52,0,0,0,.43,1.77,3.11,3.11,0,0,0,1.15,1.18A3.3,3.3,0,0,0,719.48,752.38Z" transform="translate(-416.13 -685.18)"/><path class="cls-3" d="M726.83,753.78V740.43h1.72v13.35Z" transform="translate(-416.13 -685.18)"/><path class="cls-3" d="M742.58,753.93a7.19,7.19,0,0,1-2.66-.48,6.36,6.36,0,0,1-2.11-1.35,6.68,6.68,0,0,1-1.39-7.19,6.29,6.29,0,0,1,1.4-2,6.4,6.4,0,0,1,2.12-1.35,7.55,7.55,0,0,1,5.35,0,5.42,5.42,0,0,1,2.09,1.46l-1.17,1.14a4.66,4.66,0,0,0-1.62-1.13,5.13,5.13,0,0,0-1.92-.37,5.36,5.36,0,0,0-2,.36,4.76,4.76,0,0,0-1.57,1,4.53,4.53,0,0,0-1,1.54,5.24,5.24,0,0,0,0,3.87,4.53,4.53,0,0,0,1,1.54,4.76,4.76,0,0,0,1.57,1,5.36,5.36,0,0,0,2,.36,5.13,5.13,0,0,0,1.92-.37,4.59,4.59,0,0,0,1.62-1.15l1.17,1.14a5.44,5.44,0,0,1-2.09,1.47A7.07,7.07,0,0,1,742.58,753.93Z" transform="translate(-416.13 -685.18)"/><path class="cls-3" d="M753.39,753.89a5.08,5.08,0,0,1-2.55-.63,4.74,4.74,0,0,1-1.77-1.73,5.28,5.28,0,0,1,0-5,4.62,4.62,0,0,1,1.77-1.71,5.08,5.08,0,0,1,2.55-.63,5.13,5.13,0,0,1,2.55.63,4.55,4.55,0,0,1,1.77,1.71,5.35,5.35,0,0,1,0,5,4.6,4.6,0,0,1-1.77,1.73A5.13,5.13,0,0,1,753.39,753.89Zm0-1.51A3.31,3.31,0,0,0,755,752a2.88,2.88,0,0,0,1.14-1.18,3.62,3.62,0,0,0,.42-1.77,3.58,3.58,0,0,0-.42-1.78,2.89,2.89,0,0,0-1.14-1.16,3.31,3.31,0,0,0-1.65-.41,3.26,3.26,0,0,0-1.63.41,3.15,3.15,0,0,0-1.16,1.16,3.58,3.58,0,0,0-.43,1.78,3.62,3.62,0,0,0,.43,1.77,3.13,3.13,0,0,0,1.16,1.18A3.26,3.26,0,0,0,753.39,752.38Z" transform="translate(-416.13 -685.18)"/><path class="cls-3" d="M772.67,744.15a4.57,4.57,0,0,1,2,.45,3.23,3.23,0,0,1,1.37,1.37,4.86,4.86,0,0,1,.5,2.32v5.49h-1.73v-5.29a3,3,0,0,0-.65-2.09,2.38,2.38,0,0,0-1.82-.7,3.07,3.07,0,0,0-1.51.36,2.5,2.5,0,0,0-1,1.06,4,4,0,0,0-.35,1.75v4.91h-1.73v-5.29a3,3,0,0,0-.64-2.09,2.35,2.35,0,0,0-1.82-.7,3.05,3.05,0,0,0-1.5.36,2.5,2.5,0,0,0-1,1.06,3.84,3.84,0,0,0-.36,1.75v4.91h-1.73v-9.54h1.65v2.54l-.27-.65a3.25,3.25,0,0,1,1.39-1.45,4.37,4.37,0,0,1,2.18-.53,4.1,4.1,0,0,1,2.36.68,3.17,3.17,0,0,1,1.29,2l-.7-.29a3.62,3.62,0,0,1,1.51-1.76A4.74,4.74,0,0,1,772.67,744.15Z" transform="translate(-416.13 -685.18)"/><path class="cls-3" d="M779.76,757.28v-13h1.66v2.58l-.11,2.21.18,2.22v6Zm5.06-3.39a4.35,4.35,0,0,1-2.17-.55,3.9,3.9,0,0,1-1.56-1.63,5.6,5.6,0,0,1-.59-2.69,5.79,5.79,0,0,1,.57-2.71,3.8,3.8,0,0,1,1.55-1.62,4.48,4.48,0,0,1,2.2-.54,5,5,0,0,1,2.49.62,4.43,4.43,0,0,1,1.71,1.7,5,5,0,0,1,.63,2.55,5,5,0,0,1-.63,2.55,4.53,4.53,0,0,1-1.71,1.71A4.94,4.94,0,0,1,784.82,753.89Zm-.14-1.51a3.36,3.36,0,0,0,1.65-.41,3,3,0,0,0,1.15-1.18,3.62,3.62,0,0,0,.42-1.77,3.58,3.58,0,0,0-.42-1.78,3.05,3.05,0,0,0-1.15-1.16,3.36,3.36,0,0,0-1.65-.41,3.32,3.32,0,0,0-1.63.41,3,3,0,0,0-1.15,1.16,3.58,3.58,0,0,0-.43,1.78,3.62,3.62,0,0,0,.43,1.77,3,3,0,0,0,1.15,1.18A3.32,3.32,0,0,0,784.68,752.38Z" transform="translate(-416.13 -685.18)"/><path class="cls-3" d="M796.13,753.89a5.11,5.11,0,0,1-2.56-.63,4.71,4.71,0,0,1-1.76-1.73,5.21,5.21,0,0,1,0-5,4.59,4.59,0,0,1,1.76-1.71,5.48,5.48,0,0,1,5.1,0,4.55,4.55,0,0,1,1.77,1.71,5.28,5.28,0,0,1,0,5,4.6,4.6,0,0,1-1.77,1.73A5.12,5.12,0,0,1,796.13,753.89Zm0-1.51a3.3,3.3,0,0,0,1.64-.41,3,3,0,0,0,1.15-1.18,3.73,3.73,0,0,0,.41-1.77,3.69,3.69,0,0,0-.41-1.78,3,3,0,0,0-1.15-1.16,3.48,3.48,0,0,0-3.28,0,3.05,3.05,0,0,0-1.15,1.16,3.48,3.48,0,0,0-.44,1.78,3.52,3.52,0,0,0,.44,1.77,3,3,0,0,0,1.15,1.18A3.27,3.27,0,0,0,796.13,752.38Z" transform="translate(-416.13 -685.18)"/><path class="cls-3" d="M807.48,753.89a4.89,4.89,0,0,1-2.15-.45,3.23,3.23,0,0,1-1.44-1.37,4.82,4.82,0,0,1-.51-2.34v-5.49h1.73v5.3a2.93,2.93,0,0,0,.67,2.1,2.51,2.51,0,0,0,1.9.7,3.28,3.28,0,0,0,1.57-.36,2.54,2.54,0,0,0,1-1.08,3.8,3.8,0,0,0,.36-1.72v-4.94h1.73v9.54h-1.64v-2.57l.27.69a3.37,3.37,0,0,1-1.4,1.47A4.23,4.23,0,0,1,807.48,753.89Z" transform="translate(-416.13 -685.18)"/><path class="cls-3" d="M820.75,744.15a4.63,4.63,0,0,1,2.06.45,3.3,3.3,0,0,1,1.4,1.37,4.86,4.86,0,0,1,.5,2.32v5.49H823v-5.29a2.92,2.92,0,0,0-.67-2.09,2.55,2.55,0,0,0-1.9-.7,3.37,3.37,0,0,0-1.6.36,2.52,2.52,0,0,0-1.06,1.06,3.84,3.84,0,0,0-.37,1.75v4.91h-1.73v-9.54h1.66v2.58l-.27-.69a3.26,3.26,0,0,1,1.44-1.45A4.73,4.73,0,0,1,820.75,744.15Z" transform="translate(-416.13 -685.18)"/><path class="cls-3" d="M831.86,753.89a5,5,0,0,1-2.48-.61,4.48,4.48,0,0,1-1.72-1.71A5,5,0,0,1,827,749a5,5,0,0,1,.63-2.55,4.39,4.39,0,0,1,1.72-1.7,5,5,0,0,1,2.48-.62,4.37,4.37,0,0,1,2.17.54,3.94,3.94,0,0,1,1.56,1.62,5.66,5.66,0,0,1,.59,2.71,5.73,5.73,0,0,1-.57,2.69,3.8,3.8,0,0,1-1.54,1.63A4.39,4.39,0,0,1,831.86,753.89Zm.14-1.51a3.32,3.32,0,0,0,1.63-.41,3,3,0,0,0,1.15-1.18,3.62,3.62,0,0,0,.42-1.77,3.58,3.58,0,0,0-.42-1.78,3.05,3.05,0,0,0-1.15-1.16,3.47,3.47,0,0,0-3.27,0,3.12,3.12,0,0,0-1.15,1.16,3.48,3.48,0,0,0-.43,1.78,3.52,3.52,0,0,0,.43,1.77,3.11,3.11,0,0,0,1.15,1.18A3.3,3.3,0,0,0,832,752.38Zm3.26,1.4v-2.57l.11-2.21-.18-2.22v-6.35h1.72v13.35Z" transform="translate(-416.13 -685.18)"/><path class="cls-3" d="M527.86,723.78V711.19h1.48l8.33,10.34h-.77V711.19h1.8v12.59h-1.48l-8.33-10.34h.77v10.34Z" transform="translate(-416.13 -685.18)"/><path class="cls-3" d="M545.52,723.78V719l.41,1.12-5.41-8.89h1.92l4.56,7.5h-1l4.57-7.5h1.79l-5.4,8.89.39-1.12v4.82Z" transform="translate(-416.13 -685.18)"/><path class="cls-3" d="M553.91,723.78V711.19h4.91a6.88,6.88,0,0,1,2.83.52,4,4,0,0,1,1.8,1.51,4.72,4.72,0,0,1,0,4.71,4.05,4.05,0,0,1-1.8,1.5,6.88,6.88,0,0,1-2.83.52H554.9l.81-.83v4.66Zm1.8-4.48-.81-.88h3.87a4,4,0,0,0,2.62-.75,2.9,2.9,0,0,0,0-4.18,4.05,4.05,0,0,0-2.62-.74H554.9l.81-.9Zm6.62,4.48-3.2-4.57h1.92l3.24,4.57Z" transform="translate(-416.13 -685.18)"/><path class="cls-3" d="M572.68,723.93a7.08,7.08,0,0,1-2.67-.49,6.22,6.22,0,0,1-2.13-1.36,6.32,6.32,0,0,1-1.41-2,6.78,6.78,0,0,1,0-5.11,6.32,6.32,0,0,1,1.41-2,6.17,6.17,0,0,1,2.12-1.36,7.1,7.1,0,0,1,2.68-.49,7.19,7.19,0,0,1,2.66.48,6.51,6.51,0,0,1,2.12,1.35,6,6,0,0,1,1.4,2,6.88,6.88,0,0,1,0,5.15,6,6,0,0,1-1.4,2,6.51,6.51,0,0,1-2.12,1.35A7.19,7.19,0,0,1,572.68,723.93Zm0-1.6a5.15,5.15,0,0,0,1.94-.36,4.51,4.51,0,0,0,1.54-1,4.79,4.79,0,0,0,1-1.54,5.19,5.19,0,0,0,0-3.85,4.79,4.79,0,0,0-1-1.54,4.51,4.51,0,0,0-1.54-1,5.43,5.43,0,0,0-3.89,0,4.69,4.69,0,0,0-1.56,1,4.63,4.63,0,0,0-1,1.54,5.19,5.19,0,0,0,0,3.85,4.63,4.63,0,0,0,1,1.54,4.69,4.69,0,0,0,1.56,1A5.13,5.13,0,0,0,572.68,722.33Z" transform="translate(-416.13 -685.18)"/><path class="cls-3" d="M585.79,723.93a8.76,8.76,0,0,1-2.76-.44,5.81,5.81,0,0,1-2.07-1.15l.67-1.4a5.74,5.74,0,0,0,1.83,1,6.58,6.58,0,0,0,2.33.42,5.47,5.47,0,0,0,1.78-.25,2.15,2.15,0,0,0,1-.7,1.66,1.66,0,0,0,.32-1,1.36,1.36,0,0,0-.42-1,3.26,3.26,0,0,0-1.1-.64,12.69,12.69,0,0,0-1.49-.42c-.54-.12-1.08-.26-1.63-.42a7.41,7.41,0,0,1-1.49-.63,3.11,3.11,0,0,1-1.09-1,3.06,3.06,0,0,1-.41-1.65,3.32,3.32,0,0,1,.51-1.79,3.53,3.53,0,0,1,1.58-1.31,6.56,6.56,0,0,1,2.73-.5,8.54,8.54,0,0,1,2.18.29,6,6,0,0,1,1.87.83l-.59,1.44a6,6,0,0,0-1.71-.79,6.76,6.76,0,0,0-1.75-.24,4.74,4.74,0,0,0-1.74.27,2.11,2.11,0,0,0-1,.72,1.73,1.73,0,0,0-.32,1,1.36,1.36,0,0,0,.43,1.06,3,3,0,0,0,1.09.63,12.69,12.69,0,0,0,1.49.42c.54.13,1.08.27,1.63.43a6.84,6.84,0,0,1,1.49.61,3.11,3.11,0,0,1,1.09,1,2.87,2.87,0,0,1,.41,1.62,3.23,3.23,0,0,1-.52,1.77,3.56,3.56,0,0,1-1.61,1.31A6.64,6.64,0,0,1,585.79,723.93Z" transform="translate(-416.13 -685.18)"/><path class="cls-3" d="M595.61,723.78v-11h-4.32v-1.56h10.42v1.56h-4.32v11Z" transform="translate(-416.13 -685.18)"/><path class="cls-3" d="M605.48,722.22h7.34v1.56h-9.14V711.19h8.89v1.56h-7.09Zm-.16-5.6h6.47v1.53h-6.47Z" transform="translate(-416.13 -685.18)"/><path class="cls-3" d="M615.74,723.78V711.19h1.47l8.34,10.34h-.78V711.19h1.8v12.59H625.1l-8.34-10.34h.78v10.34Z" transform="translate(-416.13 -685.18)"/><path class="cls-3" d="M543.85,753.78V741.19h1.48l8.33,10.34h-.77V741.19h1.8v12.59h-1.48l-8.33-10.34h.77v10.34Z" transform="translate(-416.13 -685.18)"/><path class="cls-3" d="M564.41,753.78V741.9l.77.85h-3.61v-1.56h4.62v12.59Z" transform="translate(-416.13 -685.18)"/><path class="cls-3" d="M571.07,753.78V741.9l.77.85h-3.61v-1.56h4.62v12.59Z" transform="translate(-416.13 -685.18)"/><path class="cls-3" d="M579.46,753.93a8.4,8.4,0,0,1-2.59-.41,5.85,5.85,0,0,1-2-1.12l.83-1.42a4.82,4.82,0,0,0,1.64,1,6.13,6.13,0,0,0,2.16.38,3.45,3.45,0,0,0,2.18-.61,1.93,1.93,0,0,0,.79-1.63,2,2,0,0,0-.75-1.59,3.79,3.79,0,0,0-2.37-.6h-1v-1.26l3.74-4.61.25.72h-6.89v-1.56h8.31v1.22L580,747l-.94-.56h.6a4.94,4.94,0,0,1,3.42,1,3.32,3.32,0,0,1,1.15,2.61,3.83,3.83,0,0,1-.52,1.94,3.68,3.68,0,0,1-1.58,1.4A6.11,6.11,0,0,1,579.46,753.93Z" transform="translate(-416.13 -685.18)"/><path class="cls-3" d="M593.57,753.78h-1.8V741.19h8.89v1.56h-7.09Zm-.18-6.64h6.5v1.55h-6.5Z" transform="translate(-416.13 -685.18)"/><path class="cls-3" d="M606.85,753.93a8.66,8.66,0,0,1-2.75-.44,5.64,5.64,0,0,1-2.07-1.15l.67-1.4a5.63,5.63,0,0,0,1.83,1,6.57,6.57,0,0,0,2.32.42,5.43,5.43,0,0,0,1.78-.25,2.05,2.05,0,0,0,1-.7,1.6,1.6,0,0,0,.33-1,1.33,1.33,0,0,0-.43-1,3.11,3.11,0,0,0-1.09-.64,12.69,12.69,0,0,0-1.49-.42c-.54-.12-1.08-.26-1.63-.42a7.41,7.41,0,0,1-1.49-.63,3.11,3.11,0,0,1-1.09-1,3,3,0,0,1-.42-1.65,3.33,3.33,0,0,1,.52-1.79,3.53,3.53,0,0,1,1.58-1.31,6.53,6.53,0,0,1,2.73-.5,8.54,8.54,0,0,1,2.18.29,6,6,0,0,1,1.87.83l-.59,1.44a6.15,6.15,0,0,0-1.71-.79,6.88,6.88,0,0,0-1.75-.24,4.84,4.84,0,0,0-1.75.27,2.16,2.16,0,0,0-1,.72,1.72,1.72,0,0,0-.31,1,1.39,1.39,0,0,0,.42,1.06,3,3,0,0,0,1.1.63,12.69,12.69,0,0,0,1.49.42c.53.13,1.08.27,1.62.43a6.73,6.73,0,0,1,1.5.61,3.11,3.11,0,0,1,1.09,1,3,3,0,0,1,.41,1.62,3.23,3.23,0,0,1-.52,1.77,3.62,3.62,0,0,1-1.61,1.31A6.66,6.66,0,0,1,606.85,753.93Z" transform="translate(-416.13 -685.18)"/><path class="cls-3" d="M1076.33,723.78V711.19h1.48l8.33,10.34h-.77V711.19h1.8v12.59h-1.48l-8.33-10.34h.77v10.34Z" transform="translate(-416.13 -685.18)"/><path class="cls-3" d="M1094,723.78V719l.41,1.12-5.42-8.89h1.93l4.55,7.5h-1l4.57-7.5h1.78l-5.39,8.89.39-1.12v4.82Z" transform="translate(-416.13 -685.18)"/><path class="cls-3" d="M1102.38,723.78V711.19h4.91a6.91,6.91,0,0,1,2.83.52,4,4,0,0,1,1.8,1.51,4.72,4.72,0,0,1,0,4.71,4.05,4.05,0,0,1-1.8,1.5,6.91,6.91,0,0,1-2.83.52h-3.92l.81-.83v4.66Zm1.8-4.48-.81-.88h3.87a4,4,0,0,0,2.62-.75,2.9,2.9,0,0,0,0-4.18,4.05,4.05,0,0,0-2.62-.74h-3.87l.81-.9Zm6.62,4.48-3.2-4.57h1.92l3.24,4.57Z" transform="translate(-416.13 -685.18)"/><path class="cls-3" d="M1121.15,723.93a7.08,7.08,0,0,1-2.67-.49,6.38,6.38,0,0,1,0-11.91,7.06,7.06,0,0,1,2.68-.49,7.19,7.19,0,0,1,2.66.48,6.51,6.51,0,0,1,2.12,1.35,6,6,0,0,1,1.4,2,6.88,6.88,0,0,1,0,5.15,6,6,0,0,1-1.4,2,6.51,6.51,0,0,1-2.12,1.35A7.19,7.19,0,0,1,1121.15,723.93Zm0-1.6a5.06,5.06,0,0,0,1.93-.36,4.45,4.45,0,0,0,1.55-1,4.79,4.79,0,0,0,1-1.54,5.19,5.19,0,0,0,0-3.85,4.79,4.79,0,0,0-1-1.54,4.45,4.45,0,0,0-1.55-1,5.06,5.06,0,0,0-1.93-.36,5.13,5.13,0,0,0-2,.36,4.65,4.65,0,0,0-2.59,2.56,5.19,5.19,0,0,0,0,3.85,4.65,4.65,0,0,0,2.59,2.56A5.13,5.13,0,0,0,1121.15,722.33Z" transform="translate(-416.13 -685.18)"/><path class="cls-3" d="M1134.25,723.93a8.7,8.7,0,0,1-2.75-.44,5.64,5.64,0,0,1-2.07-1.15l.67-1.4a5.74,5.74,0,0,0,1.83,1,6.57,6.57,0,0,0,2.32.42,5.5,5.5,0,0,0,1.79-.25,2.07,2.07,0,0,0,1-.7,1.6,1.6,0,0,0,.33-1,1.36,1.36,0,0,0-.42-1,3.26,3.26,0,0,0-1.1-.64,12.69,12.69,0,0,0-1.49-.42c-.54-.12-1.08-.26-1.63-.42a7.41,7.41,0,0,1-1.49-.63,3.11,3.11,0,0,1-1.09-1,3,3,0,0,1-.41-1.65,3.32,3.32,0,0,1,.51-1.79,3.53,3.53,0,0,1,1.58-1.31,6.56,6.56,0,0,1,2.73-.5,8.54,8.54,0,0,1,2.18.29,6,6,0,0,1,1.87.83l-.59,1.44a6,6,0,0,0-1.71-.79,6.82,6.82,0,0,0-1.75-.24,4.84,4.84,0,0,0-1.75.27,2.13,2.13,0,0,0-1,.72,1.73,1.73,0,0,0-.32,1,1.39,1.39,0,0,0,.42,1.06,3.09,3.09,0,0,0,1.1.63,12.69,12.69,0,0,0,1.49.42c.54.13,1.08.27,1.63.43a6.84,6.84,0,0,1,1.49.61,3.11,3.11,0,0,1,1.09,1,3,3,0,0,1,.41,1.62,3.23,3.23,0,0,1-.52,1.77,3.56,3.56,0,0,1-1.61,1.31A6.66,6.66,0,0,1,1134.25,723.93Z" transform="translate(-416.13 -685.18)"/><path class="cls-3" d="M1144.08,723.78v-11h-4.32v-1.56h10.42v1.56h-4.32v11Z" transform="translate(-416.13 -685.18)"/><path class="cls-3" d="M1154,722.22h7.34v1.56h-9.14V711.19H1161v1.56H1154Zm-.17-5.6h6.48v1.53h-6.48Z" transform="translate(-416.13 -685.18)"/><path class="cls-3" d="M1164.21,723.78V711.19h1.47l8.34,10.34h-.78V711.19h1.8v12.59h-1.47l-8.34-10.34h.78v10.34Z" transform="translate(-416.13 -685.18)"/><path class="cls-3" d="M1061.86,753.78l5.7-12.59h1.79l5.72,12.59h-1.89l-5.09-11.59h.72l-5.1,11.59Zm2.43-3.15.48-1.44h7.1l.52,1.44Z" transform="translate(-416.13 -685.18)"/><path class="cls-3" d="M1077.28,753.78V741.9l.78.85h-3.62v-1.56h4.63v12.59Z" transform="translate(-416.13 -685.18)"/><path class="cls-3" d="M1085.91,741a5.31,5.31,0,0,1,2.88.74,4.62,4.62,0,0,1,1.8,2.13,8.63,8.63,0,0,1,.61,3.41,7.79,7.79,0,0,1-.76,3.62,5.19,5.19,0,0,1-2.09,2.23,6.1,6.1,0,0,1-3.11.76,7.84,7.84,0,0,1-1.7-.18,4.59,4.59,0,0,1-1.43-.56l.68-1.4a3.54,3.54,0,0,0,1.13.46,6.1,6.1,0,0,0,1.3.13,4,4,0,0,0,3-1.2,5,5,0,0,0,1.14-3.55c0-.25,0-.55,0-.9a6,6,0,0,0-.16-1l.59.61a3.1,3.1,0,0,1-.83,1.4,3.73,3.73,0,0,1-1.41.85,5.65,5.65,0,0,1-1.79.27,5.05,5.05,0,0,1-2.21-.46A3.68,3.68,0,0,1,1082,747a3.62,3.62,0,0,1-.56-2,3.66,3.66,0,0,1,2.19-3.49A5.09,5.09,0,0,1,1085.91,741Zm.07,1.46a3.31,3.31,0,0,0-1.44.3,2.4,2.4,0,0,0-1,.85,2.28,2.28,0,0,0-.35,1.3,2.19,2.19,0,0,0,.77,1.77,3.12,3.12,0,0,0,2.09.66,3.37,3.37,0,0,0,1.52-.33,2.54,2.54,0,0,0,1-.88,2.22,2.22,0,0,0,.36-1.24,2.19,2.19,0,0,0-.34-1.21,2.51,2.51,0,0,0-1-.88A3.54,3.54,0,0,0,1086,742.5Z" transform="translate(-416.13 -685.18)"/><path class="cls-3" d="M1091.2,755.58l5.94-17h1.56l-5.94,17Z" transform="translate(-416.13 -685.18)"/><path class="cls-3" d="M1098.7,753.78v-1.22l5.13-4.95a6.88,6.88,0,0,0,1-1.14,3.37,3.37,0,0,0,.45-.92,3,3,0,0,0,.12-.82,1.86,1.86,0,0,0-.69-1.53,3.08,3.08,0,0,0-2-.56,4.58,4.58,0,0,0-1.82.34,3.63,3.63,0,0,0-1.41,1l-1.22-1.06a4.66,4.66,0,0,1,1.93-1.41,7.1,7.1,0,0,1,2.68-.5,5.69,5.69,0,0,1,2.28.42,3.47,3.47,0,0,1,1.51,1.22,3.31,3.31,0,0,1,.53,1.87,5,5,0,0,1-.16,1.21,4.57,4.57,0,0,1-.62,1.26,10.32,10.32,0,0,1-1.29,1.49l-4.57,4.41-.44-.7h7.62v1.56Z" transform="translate(-416.13 -685.18)"/><path class="cls-3" d="M1114.36,753.93a4.66,4.66,0,0,1-2.63-.76,5.07,5.07,0,0,1-1.84-2.19,9.45,9.45,0,0,1,0-7,5.07,5.07,0,0,1,1.84-2.19,4.93,4.93,0,0,1,5.26,0,5.07,5.07,0,0,1,1.84,2.19,9.58,9.58,0,0,1,0,7,5.07,5.07,0,0,1-1.84,2.19A4.68,4.68,0,0,1,1114.36,753.93Zm0-1.6a2.9,2.9,0,0,0,1.74-.54,3.48,3.48,0,0,0,1.17-1.62,8.79,8.79,0,0,0,0-5.37,3.48,3.48,0,0,0-1.17-1.62,3.07,3.07,0,0,0-3.48,0,3.43,3.43,0,0,0-1.18,1.62,8.79,8.79,0,0,0,0,5.37,3.43,3.43,0,0,0,1.18,1.62A2.9,2.9,0,0,0,1114.36,752.33Z" transform="translate(-416.13 -685.18)"/><path class="cls-3" d="M1126.37,753.93a4.71,4.71,0,0,1-2.64-.76,5.12,5.12,0,0,1-1.83-2.19,9.32,9.32,0,0,1,0-7,5.12,5.12,0,0,1,1.83-2.19,4.95,4.95,0,0,1,5.27,0,5,5,0,0,1,1.83,2.19,9.45,9.45,0,0,1,0,7,5,5,0,0,1-1.83,2.19A4.7,4.7,0,0,1,1126.37,753.93Zm0-1.6a2.9,2.9,0,0,0,1.74-.54,3.62,3.62,0,0,0,1.17-1.62,8.79,8.79,0,0,0,0-5.37,3.62,3.62,0,0,0-1.17-1.62,2.9,2.9,0,0,0-1.74-.54,3,3,0,0,0-1.75.54,3.57,3.57,0,0,0-1.18,1.62,8.79,8.79,0,0,0,0,5.37,3.57,3.57,0,0,0,1.18,1.62A3,3,0,0,0,1126.37,752.33Z" transform="translate(-416.13 -685.18)"/><path class="cls-3" d="M1133.52,749.59V748.1h4.84v1.49Z" transform="translate(-416.13 -685.18)"/><path class="cls-3" d="M1141,757.28v-13h1.66v2.58l-.11,2.21.18,2.22v6Zm5.06-3.39a4.32,4.32,0,0,1-2.17-.55,3.93,3.93,0,0,1-1.57-1.63,5.61,5.61,0,0,1-.58-2.69,5.79,5.79,0,0,1,.57-2.71,3.78,3.78,0,0,1,1.54-1.62,4.52,4.52,0,0,1,2.21-.54,4.93,4.93,0,0,1,2.48.62,4.43,4.43,0,0,1,1.71,1.7,5,5,0,0,1,.63,2.55,5,5,0,0,1-.63,2.55,4.53,4.53,0,0,1-1.71,1.71A4.93,4.93,0,0,1,1146.08,753.89Zm-.15-1.51a3.31,3.31,0,0,0,1.65-.41,3,3,0,0,0,1.15-1.18,3.52,3.52,0,0,0,.43-1.77,3.48,3.48,0,0,0-.43-1.78,3,3,0,0,0-1.15-1.16,3.31,3.31,0,0,0-1.65-.41,3.25,3.25,0,0,0-1.62.41,3.08,3.08,0,0,0-1.16,1.16,3.58,3.58,0,0,0-.42,1.78,3.62,3.62,0,0,0,.42,1.77,3.06,3.06,0,0,0,1.16,1.18A3.25,3.25,0,0,0,1145.93,752.38Z" transform="translate(-416.13 -685.18)"/><path class="cls-3" d="M1156,753.89a4.55,4.55,0,0,1-1.87-.36,2.86,2.86,0,0,1-1.23-1,2.5,2.5,0,0,1-.43-1.45,2.69,2.69,0,0,1,.37-1.4,2.54,2.54,0,0,1,1.2-1,5.65,5.65,0,0,1,2.26-.38h3v1.25h-2.95a2.57,2.57,0,0,0-1.75.43,1.39,1.39,0,0,0-.45,1,1.35,1.35,0,0,0,.56,1.13,2.51,2.51,0,0,0,1.55.42,3.28,3.28,0,0,0,1.7-.43,2.52,2.52,0,0,0,1-1.26l.34,1.19a2.73,2.73,0,0,1-1.2,1.34A4.37,4.37,0,0,1,1156,753.89Zm3.13-.11v-2l-.09-.38V748a2.21,2.21,0,0,0-.64-1.7,2.73,2.73,0,0,0-1.92-.6,4.93,4.93,0,0,0-1.65.28,4.17,4.17,0,0,0-1.37.74l-.72-1.29a5.11,5.11,0,0,1,1.77-.91,7.45,7.45,0,0,1,2.17-.32,4.37,4.37,0,0,1,3,1,3.74,3.74,0,0,1,1.06,2.91v5.76Z" transform="translate(-416.13 -685.18)"/><path class="cls-3" d="M1166.71,753.89a8,8,0,0,1-2.26-.32,5.44,5.44,0,0,1-1.69-.79l.73-1.37a5.58,5.58,0,0,0,1.51.7,6,6,0,0,0,1.83.29,3.4,3.4,0,0,0,1.74-.34,1.09,1.09,0,0,0,.53-1,.85.85,0,0,0-.32-.7,2.28,2.28,0,0,0-.86-.38c-.35-.08-.75-.16-1.18-.22s-.86-.15-1.29-.25a5.24,5.24,0,0,1-1.19-.44,2.23,2.23,0,0,1-.87-.77,2.72,2.72,0,0,1,.17-2.84,3,3,0,0,1,1.37-1,5.67,5.67,0,0,1,2.12-.36,8.36,8.36,0,0,1,1.9.23,4.55,4.55,0,0,1,1.57.64l-.73,1.37a4.2,4.2,0,0,0-1.36-.6,6.61,6.61,0,0,0-1.4-.16,3.07,3.07,0,0,0-1.69.37,1.11,1.11,0,0,0-.56.94.89.89,0,0,0,.33.75,2.43,2.43,0,0,0,.87.41c.35.09.74.17,1.18.24s.86.15,1.29.25a4.71,4.71,0,0,1,1.18.43,2.25,2.25,0,0,1,.87.75,2.28,2.28,0,0,1,.33,1.3,2.35,2.35,0,0,1-.5,1.49,3.29,3.29,0,0,1-1.43,1A6,6,0,0,1,1166.71,753.89Z" transform="translate(-416.13 -685.18)"/><path class="cls-3" d="M1171.62,745.67v-1.43h6.08v1.43Zm4.64,8.22a3.08,3.08,0,0,1-2.23-.77,3,3,0,0,1-.79-2.22v-8.74H1175v8.67a1.67,1.67,0,0,0,.39,1.19,1.4,1.4,0,0,0,1.1.42,2,2,0,0,0,1.35-.46l.54,1.25a2.65,2.65,0,0,1-.94.5A4,4,0,0,1,1176.26,753.89Z" transform="translate(-416.13 -685.18)"/><path class="cls-3" d="M1184.36,753.89a5.57,5.57,0,0,1-2.69-.63,4.54,4.54,0,0,1-1.8-1.73,5,5,0,0,1-.64-2.51,5,5,0,0,1,.63-2.53,4.39,4.39,0,0,1,1.71-1.71,5.11,5.11,0,0,1,4.9,0,4.32,4.32,0,0,1,1.67,1.72,5.29,5.29,0,0,1,.6,2.58,2.26,2.26,0,0,1,0,.25l0,.27h-8.12v-1.24h7.22l-.7.43a3.18,3.18,0,0,0-.38-1.64,2.8,2.8,0,0,0-1.09-1.12,3.35,3.35,0,0,0-3.21,0,2.91,2.91,0,0,0-1.1,1.13,3.49,3.49,0,0,0-.39,1.67v.28a3.25,3.25,0,0,0,.44,1.71,3.06,3.06,0,0,0,1.23,1.16,3.94,3.94,0,0,0,1.82.41,4,4,0,0,0,1.54-.29,3.4,3.4,0,0,0,1.21-.86l1,1.11a4.27,4.27,0,0,1-1.61,1.16A5.73,5.73,0,0,1,1184.36,753.89Z" transform="translate(-416.13 -685.18)"/><path class="cls-3" d="M885,723.78V711.19h1.47l8.34,10.34H894V711.19h1.8v12.59h-1.47L886,713.44h.78v10.34Z" transform="translate(-416.13 -685.18)"/><path class="cls-3" d="M902.66,723.78V719l.42,1.12-5.42-8.89h1.93l4.55,7.5h-1l4.57-7.5h1.78l-5.4,8.89.4-1.12v4.82Z" transform="translate(-416.13 -685.18)"/><path class="cls-3" d="M911.05,723.78V711.19H916a6.86,6.86,0,0,1,2.82.52,4,4,0,0,1,1.8,1.51,4.72,4.72,0,0,1,0,4.71,4.05,4.05,0,0,1-1.8,1.5A6.86,6.86,0,0,1,916,720H912l.81-.83v4.66Zm1.8-4.48-.81-.88h3.87a4,4,0,0,0,2.62-.75,2.9,2.9,0,0,0,0-4.18,4,4,0,0,0-2.62-.74H912l.81-.9Zm6.63,4.48-3.21-4.57h1.93l3.24,4.57Z" transform="translate(-416.13 -685.18)"/><path class="cls-3" d="M929.83,723.93a7.14,7.14,0,0,1-2.68-.49,6.22,6.22,0,0,1-2.13-1.36,6.14,6.14,0,0,1-1.4-2,6.66,6.66,0,0,1,0-5.11,6.14,6.14,0,0,1,1.4-2,6.27,6.27,0,0,1,2.12-1.36,7.59,7.59,0,0,1,5.34,0,6.4,6.4,0,0,1,2.12,1.35,6,6,0,0,1,1.41,2,7,7,0,0,1,0,5.15,6,6,0,0,1-1.41,2,6.4,6.4,0,0,1-2.12,1.35A7.14,7.14,0,0,1,929.83,723.93Zm0-1.6a5.1,5.1,0,0,0,1.93-.36,4.62,4.62,0,0,0,2.57-2.56,5.19,5.19,0,0,0,0-3.85,4.62,4.62,0,0,0-2.57-2.56,5.1,5.1,0,0,0-1.93-.36,5.22,5.22,0,0,0-2,.36,4.73,4.73,0,0,0-2.59,2.56,5.19,5.19,0,0,0,0,3.85,4.73,4.73,0,0,0,2.59,2.56A5.22,5.22,0,0,0,929.83,722.33Z" transform="translate(-416.13 -685.18)"/><path class="cls-3" d="M942.93,723.93a8.66,8.66,0,0,1-2.75-.44,5.64,5.64,0,0,1-2.07-1.15l.66-1.4a5.68,5.68,0,0,0,1.84,1,6.53,6.53,0,0,0,2.32.42,5.43,5.43,0,0,0,1.78-.25,2.1,2.1,0,0,0,1-.7,1.59,1.59,0,0,0,.32-1,1.36,1.36,0,0,0-.42-1,3.16,3.16,0,0,0-1.1-.64,12.51,12.51,0,0,0-1.48-.42c-.54-.12-1.09-.26-1.63-.42a7.27,7.27,0,0,1-1.5-.63,2.83,2.83,0,0,1-1.5-2.66,3.32,3.32,0,0,1,.51-1.79,3.56,3.56,0,0,1,1.59-1.31,6.5,6.5,0,0,1,2.73-.5,8.46,8.46,0,0,1,2.17.29,6.1,6.1,0,0,1,1.88.83l-.6,1.44a6,6,0,0,0-1.71-.79,6.74,6.74,0,0,0-1.74-.24,4.84,4.84,0,0,0-1.75.27,2.11,2.11,0,0,0-1,.72,1.72,1.72,0,0,0-.31,1,1.39,1.39,0,0,0,.42,1.06,3,3,0,0,0,1.1.63,12.51,12.51,0,0,0,1.48.42c.54.13,1.08.27,1.63.43a6.64,6.64,0,0,1,1.49.61,3,3,0,0,1,1.09,1,2.87,2.87,0,0,1,.42,1.62,3.32,3.32,0,0,1-.52,1.77,3.59,3.59,0,0,1-1.62,1.31A6.61,6.61,0,0,1,942.93,723.93Z" transform="translate(-416.13 -685.18)"/><path class="cls-3" d="M952.76,723.78v-11h-4.32v-1.56h10.42v1.56h-4.32v11Z" transform="translate(-416.13 -685.18)"/><path class="cls-3" d="M966.33,723.93a7.08,7.08,0,0,1-2.67-.49,6.17,6.17,0,0,1-2.14-1.36,6.44,6.44,0,0,1,0-9.19,6.22,6.22,0,0,1,2.13-1.36,7.06,7.06,0,0,1,2.68-.49,7.14,7.14,0,0,1,2.65.48,6.55,6.55,0,0,1,2.13,1.35,6.14,6.14,0,0,1,1.4,2,6.88,6.88,0,0,1,0,5.15,6.14,6.14,0,0,1-1.4,2,6.55,6.55,0,0,1-2.13,1.35A7.14,7.14,0,0,1,966.33,723.93Zm0-1.6a5.1,5.1,0,0,0,1.93-.36,4.55,4.55,0,0,0,1.55-1,4.79,4.79,0,0,0,1-1.54,5.19,5.19,0,0,0,0-3.85,4.79,4.79,0,0,0-1-1.54,4.55,4.55,0,0,0-1.55-1,5.41,5.41,0,0,0-3.88,0,4.59,4.59,0,0,0-1.56,1,4.81,4.81,0,0,0-1,1.54,5.33,5.33,0,0,0,0,3.85,4.81,4.81,0,0,0,1,1.54,4.59,4.59,0,0,0,1.56,1A5.13,5.13,0,0,0,966.33,722.33Z" transform="translate(-416.13 -685.18)"/><path class="cls-3" d="M975.76,723.78V711.19h1.8v11h6.82v1.56Z" transform="translate(-416.13 -685.18)"/><path class="cls-3" d="M989.39,723.78l5.7-12.59h1.78l5.73,12.59h-1.89l-5.1-11.59h.72l-5.09,11.59Zm2.43-3.15.48-1.44h7.1l.52,1.44Z" transform="translate(-416.13 -685.18)"/><path class="cls-3" d="M1259.14,723.79v-12.6h1.48l8.33,10.35h-.77V711.19h1.8v12.6h-1.48l-8.33-10.35h.77v10.35Z" transform="translate(-416.13 -685.18)"/><path class="cls-3" d="M1276.8,723.79V719l.41,1.12-5.41-8.89h1.92l4.56,7.5h-1l4.57-7.5h1.79l-5.4,8.89.39-1.12v4.83Z" transform="translate(-416.13 -685.18)"/><path class="cls-3" d="M1285.19,723.79v-12.6h4.91a6.88,6.88,0,0,1,2.83.52,4,4,0,0,1,1.8,1.51,4.72,4.72,0,0,1,0,4.71,4.05,4.05,0,0,1-1.8,1.5,6.88,6.88,0,0,1-2.83.52h-3.92l.81-.83v4.67Zm1.8-4.49-.81-.88h3.87a4,4,0,0,0,2.62-.75,2.9,2.9,0,0,0,0-4.18,4.05,4.05,0,0,0-2.62-.74h-3.87l.81-.9Zm6.62,4.49-3.2-4.58h1.92l3.24,4.58Z" transform="translate(-416.13 -685.18)"/><path class="cls-3" d="M1304,723.93a7.08,7.08,0,0,1-2.67-.49,6.22,6.22,0,0,1-2.13-1.36,6.32,6.32,0,0,1-1.41-2,6.78,6.78,0,0,1,0-5.11,6.32,6.32,0,0,1,1.41-2,6.17,6.17,0,0,1,2.12-1.36A7.1,7.1,0,0,1,1304,711a7.19,7.19,0,0,1,2.66.48,6.51,6.51,0,0,1,2.12,1.35,6,6,0,0,1,1.4,2,6.88,6.88,0,0,1,0,5.15,6,6,0,0,1-1.4,2,6.51,6.51,0,0,1-2.12,1.35A7.19,7.19,0,0,1,1304,723.93Zm0-1.6a5.15,5.15,0,0,0,1.94-.36,4.51,4.51,0,0,0,1.54-1,4.79,4.79,0,0,0,1-1.54,5.19,5.19,0,0,0,0-3.85,4.79,4.79,0,0,0-1-1.54,4.51,4.51,0,0,0-1.54-1,5.43,5.43,0,0,0-3.89,0,4.79,4.79,0,0,0-1.56,1,4.63,4.63,0,0,0-1,1.54,5.19,5.19,0,0,0,0,3.85,4.63,4.63,0,0,0,1,1.54,4.79,4.79,0,0,0,1.56,1A5.13,5.13,0,0,0,1304,722.33Z" transform="translate(-416.13 -685.18)"/><path class="cls-3" d="M1317.07,723.93a8.76,8.76,0,0,1-2.76-.44,5.81,5.81,0,0,1-2.07-1.15l.67-1.4a5.94,5.94,0,0,0,1.83,1,6.8,6.8,0,0,0,2.33.41,5.22,5.22,0,0,0,1.78-.25,2.15,2.15,0,0,0,1-.7,1.65,1.65,0,0,0,.32-1,1.36,1.36,0,0,0-.42-1.05,3.26,3.26,0,0,0-1.1-.64,12.69,12.69,0,0,0-1.49-.42c-.54-.12-1.08-.26-1.63-.42a7.41,7.41,0,0,1-1.49-.63,3.11,3.11,0,0,1-1.09-1,3.06,3.06,0,0,1-.41-1.65,3.32,3.32,0,0,1,.51-1.79,3.53,3.53,0,0,1,1.58-1.31,6.56,6.56,0,0,1,2.73-.5,8.54,8.54,0,0,1,2.18.29,6,6,0,0,1,1.87.83l-.59,1.44a6,6,0,0,0-1.71-.79,6.76,6.76,0,0,0-1.75-.24,4.74,4.74,0,0,0-1.74.27,2.11,2.11,0,0,0-1,.72,1.73,1.73,0,0,0-.32,1,1.36,1.36,0,0,0,.43,1.06,2.82,2.82,0,0,0,1.09.63,12.69,12.69,0,0,0,1.49.42c.54.13,1.08.27,1.63.43a6.84,6.84,0,0,1,1.49.61,3.11,3.11,0,0,1,1.09,1,2.87,2.87,0,0,1,.41,1.62,3.23,3.23,0,0,1-.52,1.77,3.56,3.56,0,0,1-1.61,1.31A6.64,6.64,0,0,1,1317.07,723.93Z" transform="translate(-416.13 -685.18)"/><path class="cls-3" d="M1326.89,723.79v-11h-4.32v-1.56H1333v1.56h-4.33v11Z" transform="translate(-416.13 -685.18)"/><path class="cls-3" d="M1336.76,722.22h7.34v1.57H1335v-12.6h8.89v1.56h-7.09Zm-.16-5.6h6.48v1.53h-6.48Z" transform="translate(-416.13 -685.18)"/><path class="cls-3" d="M1347,723.79v-12.6h1.47l8.34,10.35h-.78V711.19h1.8v12.6h-1.47L1348,713.44h.78v10.35Z" transform="translate(-416.13 -685.18)"/><path class="cls-3" d="M1271.36,753.79h-1.8v-12.6h8.9v1.56h-7.1Zm-.18-6.65h6.5v1.55h-6.5Z" transform="translate(-416.13 -685.18)"/><path class="cls-3" d="M1280.74,753.79V740.43h1.73v13.36Z" transform="translate(-416.13 -685.18)"/><path class="cls-3" d="M1289.78,753.89a4.86,4.86,0,0,1-2.15-.45,3.23,3.23,0,0,1-1.44-1.37,4.7,4.7,0,0,1-.52-2.33v-5.49h1.73v5.29a2.93,2.93,0,0,0,.68,2.1,2.5,2.5,0,0,0,1.9.7,3.21,3.21,0,0,0,1.56-.36,2.5,2.5,0,0,0,1-1.08,3.8,3.8,0,0,0,.36-1.72v-4.93h1.73v9.54H1293v-2.58l.27.69a3.34,3.34,0,0,1-1.41,1.47A4.19,4.19,0,0,1,1289.78,753.89Z" transform="translate(-416.13 -685.18)"/><path class="cls-3" d="M1298.81,742.41a1.13,1.13,0,0,1-.83-.33,1,1,0,0,1-.34-.79,1.07,1.07,0,0,1,.34-.81,1.26,1.26,0,0,1,1.67,0,1.06,1.06,0,0,1,.33.79,1.13,1.13,0,0,1-.32.82A1.15,1.15,0,0,1,1298.81,742.41Zm-.86,11.38v-9.54h1.73v9.54Z" transform="translate(-416.13 -685.18)"/><path class="cls-3" d="M1306.91,753.89a4.92,4.92,0,0,1-2.47-.61,4.48,4.48,0,0,1-1.72-1.71,5,5,0,0,1-.63-2.55,5,5,0,0,1,.63-2.55,4.39,4.39,0,0,1,1.72-1.7,4.92,4.92,0,0,1,2.47-.61,4.3,4.3,0,0,1,2.18.54,3.82,3.82,0,0,1,1.56,1.62,5.62,5.62,0,0,1,.58,2.7,5.83,5.83,0,0,1-.56,2.69,3.8,3.8,0,0,1-1.54,1.63A4.4,4.4,0,0,1,1306.91,753.89Zm.15-1.51a3.32,3.32,0,0,0,1.63-.41,3,3,0,0,0,1.15-1.18,3.62,3.62,0,0,0,.42-1.77,3.58,3.58,0,0,0-.42-1.78,3.05,3.05,0,0,0-1.15-1.16,3.47,3.47,0,0,0-3.27,0,3.05,3.05,0,0,0-1.15,1.16,3.48,3.48,0,0,0-.44,1.78,3.52,3.52,0,0,0,.44,1.77,3,3,0,0,0,1.15,1.18A3.3,3.3,0,0,0,1307.06,752.38Zm3.26,1.41v-2.58l.1-2.21-.18-2.22v-6.35H1312v13.36Z" transform="translate(-416.13 -685.18)"/><path class="cls-3" d="M1318.43,753.79l5.71-12.6h1.78l5.73,12.6h-1.9l-5.09-11.6h.72l-5.09,11.6Zm2.43-3.16.49-1.43h7.09l.52,1.43Z" transform="translate(-416.13 -685.18)"/><path class="cls-3" d="M1331.66,755.58l5.94-17h1.57l-5.94,17Z" transform="translate(-416.13 -685.18)"/><path class="cls-3" d="M1343.7,753.93a8.7,8.7,0,0,1-2.75-.44,5.64,5.64,0,0,1-2.07-1.15l.67-1.4a5.94,5.94,0,0,0,1.83,1,6.79,6.79,0,0,0,2.32.41,5.24,5.24,0,0,0,1.79-.25,2.07,2.07,0,0,0,1-.7,1.6,1.6,0,0,0,.33-1,1.36,1.36,0,0,0-.42-1.05,3.26,3.26,0,0,0-1.1-.64,12.69,12.69,0,0,0-1.49-.42c-.54-.12-1.08-.26-1.63-.42a7.41,7.41,0,0,1-1.49-.63,3.11,3.11,0,0,1-1.09-1,3,3,0,0,1-.41-1.65,3.32,3.32,0,0,1,.51-1.79,3.53,3.53,0,0,1,1.58-1.31,6.56,6.56,0,0,1,2.73-.5,8.54,8.54,0,0,1,2.18.29,6,6,0,0,1,1.87.83l-.59,1.44a6,6,0,0,0-1.71-.79,6.82,6.82,0,0,0-1.75-.24,4.84,4.84,0,0,0-1.75.27,2.13,2.13,0,0,0-1,.72,1.73,1.73,0,0,0-.32,1,1.39,1.39,0,0,0,.42,1.06,2.94,2.94,0,0,0,1.1.63,12.69,12.69,0,0,0,1.49.42c.54.13,1.08.27,1.63.43a6.84,6.84,0,0,1,1.49.61,3.11,3.11,0,0,1,1.09,1,3,3,0,0,1,.41,1.62,3.23,3.23,0,0,1-.52,1.77,3.56,3.56,0,0,1-1.61,1.31A6.66,6.66,0,0,1,1343.7,753.93Z" transform="translate(-416.13 -685.18)"/><path class="cls-3" d="M1442,723.79v-12.6h1.48l8.33,10.35H1451V711.19h1.8v12.6h-1.48L1443,713.44h.77v10.35Z" transform="translate(-416.13 -685.18)"/><path class="cls-3" d="M1459.62,723.79V719l.41,1.12-5.41-8.89h1.92l4.56,7.5h-1l4.57-7.5h1.79l-5.4,8.89.39-1.12v4.83Z" transform="translate(-416.13 -685.18)"/><path class="cls-3" d="M1468,723.79v-12.6h4.91a6.88,6.88,0,0,1,2.83.52,4,4,0,0,1,1.8,1.51,4.72,4.72,0,0,1,0,4.71,4.05,4.05,0,0,1-1.8,1.5,6.88,6.88,0,0,1-2.83.52H1469l.81-.83v4.67Zm1.8-4.49-.81-.88h3.87a4,4,0,0,0,2.62-.75,2.9,2.9,0,0,0,0-4.18,4.05,4.05,0,0,0-2.62-.74H1469l.81-.9Zm6.62,4.49-3.2-4.58h1.92l3.24,4.58Z" transform="translate(-416.13 -685.18)"/><path class="cls-3" d="M1486.78,723.93a7.08,7.08,0,0,1-2.67-.49,6.22,6.22,0,0,1-2.13-1.36,6.32,6.32,0,0,1-1.41-2,6.78,6.78,0,0,1,0-5.11,6.32,6.32,0,0,1,1.41-2,6.17,6.17,0,0,1,2.12-1.36,7.1,7.1,0,0,1,2.68-.49,7.19,7.19,0,0,1,2.66.48,6.4,6.4,0,0,1,2.12,1.35,6,6,0,0,1,1.4,2,6.88,6.88,0,0,1,0,5.15,6,6,0,0,1-1.4,2,6.4,6.4,0,0,1-2.12,1.35A7.19,7.19,0,0,1,1486.78,723.93Zm0-1.6a5.15,5.15,0,0,0,1.94-.36,4.51,4.51,0,0,0,1.54-1,4.79,4.79,0,0,0,1-1.54,5.19,5.19,0,0,0,0-3.85,4.79,4.79,0,0,0-1-1.54,4.51,4.51,0,0,0-1.54-1,5.43,5.43,0,0,0-3.89,0,4.79,4.79,0,0,0-1.56,1,4.63,4.63,0,0,0-1,1.54,5.19,5.19,0,0,0,0,3.85,4.63,4.63,0,0,0,1,1.54,4.79,4.79,0,0,0,1.56,1A5.13,5.13,0,0,0,1486.78,722.33Z" transform="translate(-416.13 -685.18)"/><path class="cls-3" d="M1499.89,723.93a8.76,8.76,0,0,1-2.76-.44,5.81,5.81,0,0,1-2.07-1.15l.67-1.4a5.94,5.94,0,0,0,1.83,1,6.8,6.8,0,0,0,2.33.41,5.22,5.22,0,0,0,1.78-.25,2.15,2.15,0,0,0,1-.7,1.65,1.65,0,0,0,.32-1,1.36,1.36,0,0,0-.42-1.05,3.26,3.26,0,0,0-1.1-.64,12.69,12.69,0,0,0-1.49-.42q-.81-.18-1.62-.42a7.27,7.27,0,0,1-1.5-.63,3.11,3.11,0,0,1-1.09-1,3.06,3.06,0,0,1-.41-1.65,3.32,3.32,0,0,1,.51-1.79,3.53,3.53,0,0,1,1.58-1.31,6.56,6.56,0,0,1,2.73-.5,8.54,8.54,0,0,1,2.18.29,6,6,0,0,1,1.87.83l-.59,1.44a6,6,0,0,0-1.71-.79,6.76,6.76,0,0,0-1.75-.24,4.74,4.74,0,0,0-1.74.27,2.11,2.11,0,0,0-1,.72,1.73,1.73,0,0,0-.32,1,1.36,1.36,0,0,0,.43,1.06,2.82,2.82,0,0,0,1.09.63,12.69,12.69,0,0,0,1.49.42c.54.13,1.08.27,1.63.43a6.84,6.84,0,0,1,1.49.61,3.11,3.11,0,0,1,1.09,1,2.87,2.87,0,0,1,.41,1.62,3.23,3.23,0,0,1-.52,1.77,3.56,3.56,0,0,1-1.61,1.31A6.61,6.61,0,0,1,1499.89,723.93Z" transform="translate(-416.13 -685.18)"/><path class="cls-3" d="M1509.71,723.79v-11h-4.32v-1.56h10.43v1.56h-4.32v11Z" transform="translate(-416.13 -685.18)"/><path class="cls-3" d="M1519.58,722.22h7.34v1.57h-9.14v-12.6h8.89v1.56h-7.09Zm-.16-5.6h6.48v1.53h-6.48Z" transform="translate(-416.13 -685.18)"/><path class="cls-3" d="M1529.84,723.79v-12.6h1.47l8.34,10.35h-.78V711.19h1.8v12.6h-1.47l-8.34-10.35h.78v10.35Z" transform="translate(-416.13 -685.18)"/><path class="cls-3" d="M1450.19,753.93a7.19,7.19,0,0,1-2.66-.48,6.21,6.21,0,0,1-2.1-1.35,6.29,6.29,0,0,1-1.4-2,6.88,6.88,0,0,1,0-5.15,6.32,6.32,0,0,1,3.52-3.39,7.55,7.55,0,0,1,5.35,0A5.53,5.53,0,0,1,1455,743l-1.17,1.14a4.66,4.66,0,0,0-1.62-1.13,5.13,5.13,0,0,0-1.92-.37,5.27,5.27,0,0,0-2,.36,4.81,4.81,0,0,0-1.58,1,4.53,4.53,0,0,0-1,1.54,5.24,5.24,0,0,0,0,3.87,4.53,4.53,0,0,0,1,1.54,4.81,4.81,0,0,0,1.58,1,5.27,5.27,0,0,0,2,.36,5.13,5.13,0,0,0,1.92-.37,4.69,4.69,0,0,0,1.62-1.14L1455,752a5.44,5.44,0,0,1-2.09,1.47A7,7,0,0,1,1450.19,753.93Z" transform="translate(-416.13 -685.18)"/><path class="cls-3" d="M1457.57,753.79v-12.6h1.8v11h6.82v1.57Z" transform="translate(-416.13 -685.18)"/><path class="cls-3" d="M1477.37,753.93a5.31,5.31,0,0,1-2.86-.74,4.58,4.58,0,0,1-1.81-2.13,8.28,8.28,0,0,1-.62-3.41,7.92,7.92,0,0,1,.75-3.62,5.18,5.18,0,0,1,2.11-2.23A6.15,6.15,0,0,1,1478,741a8,8,0,0,1,1.72.18,4.44,4.44,0,0,1,1.42.56l-.69,1.4a3.11,3.11,0,0,0-1.1-.47,6.94,6.94,0,0,0-1.31-.12,4,4,0,0,0-3.06,1.2,5,5,0,0,0-1.13,3.55q0,.38,0,.9a6,6,0,0,0,.18,1l-.61-.61a3.33,3.33,0,0,1,.85-1.4,3.73,3.73,0,0,1,1.41-.85,5.66,5.66,0,0,1,1.77-.28,5.08,5.08,0,0,1,2.23.47,3.75,3.75,0,0,1,1.53,1.33,3.54,3.54,0,0,1,.56,2,3.8,3.8,0,0,1-.59,2.11,3.9,3.9,0,0,1-1.6,1.38A5.11,5.11,0,0,1,1477.37,753.93Zm-.07-1.46a3.32,3.32,0,0,0,1.45-.3,2.48,2.48,0,0,0,1-.86,2.29,2.29,0,0,0,.36-1.29,2.2,2.2,0,0,0-.78-1.77,3.13,3.13,0,0,0-2.1-.66,3.34,3.34,0,0,0-1.52.33,2.46,2.46,0,0,0-1,.87,2.16,2.16,0,0,0-.37,1.25,2.23,2.23,0,0,0,.34,1.2,2.53,2.53,0,0,0,1,.89A3.52,3.52,0,0,0,1477.3,752.47Z" transform="translate(-416.13 -685.18)"/><path class="cls-3" d="M1487,753.93a8.34,8.34,0,0,1-2.58-.41,5.85,5.85,0,0,1-2-1.12l.83-1.42a4.86,4.86,0,0,0,1.63,1,6.17,6.17,0,0,0,2.16.38,3.46,3.46,0,0,0,2.19-.61,1.94,1.94,0,0,0,.78-1.63,2,2,0,0,0-.74-1.59,3.79,3.79,0,0,0-2.37-.6h-1v-1.26l3.74-4.61.26.72H1483v-1.56h8.32v1.22l-3.73,4.59-.93-.56h.59a5,5,0,0,1,3.43,1,3.35,3.35,0,0,1,1.14,2.61,3.71,3.71,0,0,1-.52,1.94,3.65,3.65,0,0,1-1.57,1.4A6.19,6.19,0,0,1,1487,753.93Z" transform="translate(-416.13 -685.18)"/><path class="cls-3" d="M1497.24,753.93a8.29,8.29,0,0,1-2.58-.41,5.81,5.81,0,0,1-2.05-1.12l.83-1.42a4.92,4.92,0,0,0,1.64,1,6.13,6.13,0,0,0,2.16.38,3.48,3.48,0,0,0,2.19-.61,2.08,2.08,0,0,0,0-3.22,3.75,3.75,0,0,0-2.36-.6h-1v-1.26l3.74-4.61.25.72h-6.89v-1.56h8.32v1.22l-3.73,4.59-.94-.56h.6a5,5,0,0,1,3.43,1,3.35,3.35,0,0,1,1.14,2.61,3.81,3.81,0,0,1-.52,1.94,3.68,3.68,0,0,1-1.58,1.4A6.11,6.11,0,0,1,1497.24,753.93Z" transform="translate(-416.13 -685.18)"/><path class="cls-3" d="M1509.55,753.79v-12.6H1511l5.65,9.52h-.79l5.58-9.52h1.47l0,12.6h-1.73l0-9.89h.42l-5,8.35h-.83l-5-8.35h.45v9.89Z" transform="translate(-416.13 -685.18)"/><path class="cls-3" d="M1532.43,753.93a7.08,7.08,0,0,1-2.67-.49,6.17,6.17,0,0,1-2.14-1.36,6.44,6.44,0,0,1,0-9.19,6.22,6.22,0,0,1,2.13-1.36,7.06,7.06,0,0,1,2.68-.49,7.14,7.14,0,0,1,2.65.48,6.55,6.55,0,0,1,2.13,1.35,6.14,6.14,0,0,1,1.4,2,6.88,6.88,0,0,1,0,5.15,6.14,6.14,0,0,1-1.4,2,6.55,6.55,0,0,1-2.13,1.35A7.14,7.14,0,0,1,1532.43,753.93Zm0-1.6a5.1,5.1,0,0,0,1.93-.36,4.55,4.55,0,0,0,1.55-1,4.79,4.79,0,0,0,1-1.54,5.19,5.19,0,0,0,0-3.85,4.79,4.79,0,0,0-1-1.54,4.55,4.55,0,0,0-1.55-1,5.41,5.41,0,0,0-3.88,0,4.59,4.59,0,0,0-1.56,1,4.81,4.81,0,0,0-1,1.54,5.33,5.33,0,0,0,0,3.85,4.81,4.81,0,0,0,1,1.54,4.59,4.59,0,0,0,1.56,1A5.13,5.13,0,0,0,1532.43,752.33Z" transform="translate(-416.13 -685.18)"/></svg>