<svg id="Слой_1" data-name="Слой 1" xmlns="http://www.w3.org/2000/svg" xmlns:xlink="http://www.w3.org/1999/xlink" viewBox="0 0 1168.28 629.03"><defs><style>.cls-1{fill:none;}.cls-2{fill:#e2e2e2;}.cls-3{fill:#004e97;}.cls-4{fill:#fff;}.cls-5{clip-path:url(#clip-path);}.cls-6{clip-path:url(#clip-path-2);}.cls-7{clip-path:url(#clip-path-3);}.cls-8{clip-path:url(#clip-path-4);}.cls-9{clip-path:url(#clip-path-5);}.cls-10{clip-path:url(#clip-path-6);}.cls-11{clip-path:url(#clip-path-7);}.cls-12{clip-path:url(#clip-path-8);}.cls-13{clip-path:url(#clip-path-9);}.cls-14{clip-path:url(#clip-path-10);}.cls-15{clip-path:url(#clip-path-11);}.cls-16{clip-path:url(#clip-path-12);}.cls-17{clip-path:url(#clip-path-13);}.cls-18{clip-path:url(#clip-path-14);}.cls-19{clip-path:url(#clip-path-15);}.cls-20{clip-path:url(#clip-path-16);}.cls-21{clip-path:url(#clip-path-17);}.cls-22{fill:#e4e4e4;stroke:#000;stroke-miterlimit:22.93;}</style><clipPath id="clip-path" transform="translate(-540.79 -662.97)"><rect class="cls-1" x="924.16" y="811.59" width="156.85" height="59.99"/></clipPath><clipPath id="clip-path-2" transform="translate(-540.79 -662.97)"><rect class="cls-1" x="1394.7" y="811.59" width="156.85" height="59.99"/></clipPath><clipPath id="clip-path-3" transform="translate(-540.79 -662.97)"><rect class="cls-1" x="767.32" y="871.58" width="156.85" height="59.99"/></clipPath><clipPath id="clip-path-4" transform="translate(-540.79 -662.97)"><rect class="cls-1" x="924.16" y="871.58" width="156.85" height="59.99"/></clipPath><clipPath id="clip-path-5" transform="translate(-540.79 -662.97)"><rect class="cls-1" x="767.32" y="931.57" width="156.85" height="59.99"/></clipPath><clipPath id="clip-path-6" transform="translate(-540.79 -662.97)"><rect class="cls-1" x="924.16" y="931.57" width="156.85" height="59.99"/></clipPath><clipPath id="clip-path-7" transform="translate(-540.79 -662.97)"><rect class="cls-1" x="767.32" y="991.56" width="156.85" height="59.99"/></clipPath><clipPath id="clip-path-8" transform="translate(-540.79 -662.97)"><rect class="cls-1" x="924.16" y="991.56" width="156.85" height="59.99"/></clipPath><clipPath id="clip-path-9" transform="translate(-540.79 -662.97)"><rect class="cls-1" x="1237.86" y="991.56" width="156.85" height="59.99"/></clipPath><clipPath id="clip-path-10" transform="translate(-540.79 -662.97)"><rect class="cls-1" x="767.32" y="1051.54" width="156.85" height="59.99"/></clipPath><clipPath id="clip-path-11" transform="translate(-540.79 -662.97)"><rect class="cls-1" x="610.47" y="1111.53" width="156.85" height="59.99"/></clipPath><clipPath id="clip-path-12" transform="translate(-540.79 -662.97)"><rect class="cls-1" x="767.32" y="1111.53" width="156.85" height="59.99"/></clipPath><clipPath id="clip-path-13" transform="translate(-540.79 -662.97)"><rect class="cls-1" x="924.16" y="1111.53" width="156.85" height="59.99"/></clipPath><clipPath id="clip-path-14" transform="translate(-540.79 -662.97)"><rect class="cls-1" x="1237.86" y="1111.53" width="156.85" height="59.99"/></clipPath><clipPath id="clip-path-15" transform="translate(-540.79 -662.97)"><rect class="cls-1" x="767.32" y="1171.52" width="156.85" height="59.99"/></clipPath><clipPath id="clip-path-16" transform="translate(-540.79 -662.97)"><rect class="cls-1" x="924.16" y="1171.52" width="156.85" height="59.99"/></clipPath><clipPath id="clip-path-17" transform="translate(-540.79 -662.97)"><rect class="cls-1" x="924.16" y="1231.51" width="156.85" height="59.99"/></clipPath></defs><rect class="cls-2" x="70" y="89" width="1098" height="539"/><rect class="cls-3" x="69.68" y="88.63" width="156.85" height="59.99"/><path class="cls-4" d="M617.36,767.08h4.73v1.52h-4.73Zm-.74,0h1.19v11.31h-1.19Zm4.83,0h1.2v11.31h-1.2Z" transform="translate(-540.79 -662.97)"/><path class="cls-4" d="M627.57,777a1.48,1.48,0,0,0,.93-.32,2,2,0,0,0,.62-.89,3.73,3.73,0,0,0,.22-1.34v-3.32a3.73,3.73,0,0,0-.22-1.34,1.91,1.91,0,0,0-.62-.89,1.51,1.51,0,0,0-1.86,0,2,2,0,0,0-.61.89,3.73,3.73,0,0,0-.22,1.34v3.32a3.73,3.73,0,0,0,.22,1.34,2,2,0,0,0,.61.89,1.48,1.48,0,0,0,.93.32m0,1.56A2.51,2.51,0,0,1,626,778a3.3,3.3,0,0,1-1-1.46,5.91,5.91,0,0,1-.37-2.19v-3.2A5.91,5.91,0,0,1,625,769a3.3,3.3,0,0,1,1-1.46,2.51,2.51,0,0,1,1.57-.52,2.47,2.47,0,0,1,1.57.52,3.16,3.16,0,0,1,1.05,1.46,5.91,5.91,0,0,1,.38,2.19v3.2a5.91,5.91,0,0,1-.38,2.19,3.16,3.16,0,0,1-1.05,1.46A2.47,2.47,0,0,1,627.57,778.51Z" transform="translate(-540.79 -662.97)"/><path class="cls-4" d="M633.92,767.08h3.85v1.52h-3.85Zm3.22,0h1.2v11.31h-1.2Zm1.14,9.8h1.2v3.85h-1.2Zm-6.72,0h7.38v1.51h-7.38Zm0,0h1.19v3.85h-1.19Zm0,0h0a1.24,1.24,0,0,0,1.14-.79,4.85,4.85,0,0,0,.41-2.23v-6.78h1.2V774a6.54,6.54,0,0,1-.31,2.12,2.84,2.84,0,0,1-.9,1.34,2.25,2.25,0,0,1-1.42.47h-.17Z" transform="translate(-540.79 -662.97)"/><path class="cls-4" d="M642.07,767.08h1.2v11.31h-1.2Zm.62,9.8h2.57a1.14,1.14,0,0,0,.7-.21,1.31,1.31,0,0,0,.44-.64,3.3,3.3,0,0,0,0-2,1.31,1.31,0,0,0-.44-.64,1.09,1.09,0,0,0-.7-.22h-2.57v-1.51h2.53a2.38,2.38,0,0,1,1.38.39,2.49,2.49,0,0,1,.88,1.16,5,5,0,0,1,.3,1.84,4.92,4.92,0,0,1-.3,1.82,2.44,2.44,0,0,1-.88,1.16,2.38,2.38,0,0,1-1.38.39h-2.53Zm-2.57-9.8H643v1.52h-2.9Z" transform="translate(-540.79 -662.97)"/><path class="cls-4" d="M649.91,767.08h4.89v1.52h-4.89Zm0,4.94h4.25v1.51h-4.25Zm0,4.86h4.89v1.51h-4.89Zm-.58-9.8h1.2v11.31h-1.2Z" transform="translate(-540.79 -662.97)"/><polygon class="cls-4" points="121.83 104.12 122.94 104.12 122.94 115.42 121.78 115.42 121.78 106.96 121.84 107.45 119.74 113.85 118.91 113.85 116.81 107.61 116.87 106.96 116.87 115.42 115.7 115.42 115.7 104.12 116.82 104.12 119.32 111.58 121.83 104.12"/><path class="cls-4" d="M666.59,772.07h4.72v1.51h-4.72Zm-.75-5H667v11.31h-1.2Zm4.84,0h1.2v11.31h-1.2Z" transform="translate(-540.79 -662.97)"/><polygon class="cls-4" points="138.3 115.42 138.3 106.53 138.44 106.73 134.17 115.42 133.19 115.42 133.19 104.12 134.37 104.12 134.37 113.14 134.23 112.93 138.51 104.12 139.48 104.12 139.48 115.42 138.3 115.42"/><path class="cls-4" d="M683,772h2.66v1.51H683Zm-.58-4.94h1.19v11.31h-1.19Zm2.19,6.34,1-.82,3.28,5.79h-1.66Zm0-1.23,2.47-5.11h1.5l-3.36,6.5Z" transform="translate(-540.79 -662.97)"/><path class="cls-4" d="M696.08,778.51a2.47,2.47,0,0,1-1.56-.52,3.44,3.44,0,0,1-1-1.48,6.3,6.3,0,0,1-.36-2.22v-3.1a6.3,6.3,0,0,1,.36-2.22,3.5,3.5,0,0,1,1-1.48,2.47,2.47,0,0,1,1.56-.52,2.34,2.34,0,0,1,1.35.42,3.09,3.09,0,0,1,1,1.17,5,5,0,0,1,.56,1.77h-1.22a3.19,3.19,0,0,0-.37-1,2.21,2.21,0,0,0-.61-.64,1.38,1.38,0,0,0-1.64.11,2.05,2.05,0,0,0-.61.94,4,4,0,0,0-.22,1.4v3.1a4,4,0,0,0,.22,1.4,2,2,0,0,0,.61.94,1.36,1.36,0,0,0,.91.33,1.43,1.43,0,0,0,.73-.21,2,2,0,0,0,.61-.62,3,3,0,0,0,.37-1H699a4.92,4.92,0,0,1-.56,1.76,3.24,3.24,0,0,1-1,1.18,2.34,2.34,0,0,1-1.34.42" transform="translate(-540.79 -662.97)"/><path class="cls-4" d="M703.29,777a1.48,1.48,0,0,0,.93-.32,2,2,0,0,0,.62-.89,3.73,3.73,0,0,0,.22-1.34v-3.32a3.73,3.73,0,0,0-.22-1.34,1.91,1.91,0,0,0-.62-.89,1.51,1.51,0,0,0-1.86,0,2,2,0,0,0-.61.89,3.73,3.73,0,0,0-.22,1.34v3.32a3.73,3.73,0,0,0,.22,1.34,2,2,0,0,0,.61.89,1.48,1.48,0,0,0,.93.32m0,1.56a2.51,2.51,0,0,1-1.57-.52,3.3,3.3,0,0,1-1.05-1.46,5.91,5.91,0,0,1-.37-2.19v-3.2a5.91,5.91,0,0,1,.37-2.19,3.3,3.3,0,0,1,1.05-1.46,2.51,2.51,0,0,1,1.57-.52,2.47,2.47,0,0,1,1.57.52,3.16,3.16,0,0,1,1,1.46,5.91,5.91,0,0,1,.38,2.19v3.2a5.91,5.91,0,0,1-.38,2.19,3.16,3.16,0,0,1-1,1.46A2.47,2.47,0,0,1,703.29,778.51Z" transform="translate(-540.79 -662.97)"/><path class="cls-4" d="M715.34,767.08h1.19v11.31h-1.19Zm-3.9,0h1.19v11.31h-1.19Zm.69,9.8h7.69v1.51h-7.69Zm7.11-9.8h1.19v11.31h-1.19Z" transform="translate(-540.79 -662.97)"/><path class="cls-4" d="M723.12,772h2.66v1.51h-2.66Zm-.58-4.94h1.19v11.31h-1.19Zm2.19,6.34,1-.82,3.28,5.79h-1.65Zm0-1.23,2.47-5.11h1.49l-3.36,6.5Z" transform="translate(-540.79 -662.97)"/><polygon class="cls-4" points="194.66 115.42 194.66 106.53 194.8 106.73 190.54 115.42 189.56 115.42 189.56 104.12 190.74 104.12 190.74 113.14 190.6 112.93 194.88 104.12 195.85 104.12 195.85 115.42 194.66 115.42"/><path class="cls-4" d="M738.75,767.08h1.18v11.31h-1.18Zm.7,9.84h2.31a1.69,1.69,0,0,0,1.32-.46,1.82,1.82,0,0,0,.41-1.29v0a3.24,3.24,0,0,0-.14-1,1.27,1.27,0,0,0-.48-.63,1.39,1.39,0,0,0-.82-.22h-2.6v-1.43h2.6a1.22,1.22,0,0,0,1-.42,1.91,1.91,0,0,0,.33-1.22A1.89,1.89,0,0,0,743,769a1.47,1.47,0,0,0-1.12-.41h-2.44v-1.48h2.65a2.41,2.41,0,0,1,1.38.38,2.22,2.22,0,0,1,.83,1.06,4.21,4.21,0,0,1,.28,1.63,3.51,3.51,0,0,1-.17,1.09,2.25,2.25,0,0,1-.52.87.57.57,0,1,0,0,1,2.56,2.56,0,0,1,.57,1,3.64,3.64,0,0,1,.2,1.25v0a4.11,4.11,0,0,1-.3,1.62,2.44,2.44,0,0,1-.88,1.08,2.33,2.33,0,0,1-1.32.38h-2.75Z" transform="translate(-540.79 -662.97)"/><path class="cls-4" d="M749.13,777a1.48,1.48,0,0,0,.93-.32,2,2,0,0,0,.61-.89,3.73,3.73,0,0,0,.22-1.34v-3.32a3.73,3.73,0,0,0-.22-1.34,2,2,0,0,0-.61-.89,1.51,1.51,0,0,0-1.86,0,2,2,0,0,0-.62.89,3.73,3.73,0,0,0-.22,1.34v3.32a3.73,3.73,0,0,0,.22,1.34,2,2,0,0,0,.62.89,1.48,1.48,0,0,0,.93.32m0,1.56a2.47,2.47,0,0,1-1.57-.52,3.3,3.3,0,0,1-1-1.46,5.91,5.91,0,0,1-.38-2.19v-3.2a5.91,5.91,0,0,1,.38-2.19,3.3,3.3,0,0,1,1-1.46,2.47,2.47,0,0,1,1.57-.52,2.51,2.51,0,0,1,1.57.52,3.3,3.3,0,0,1,1,1.46,5.91,5.91,0,0,1,.37,2.19v3.2a5.91,5.91,0,0,1-.37,2.19,3.3,3.3,0,0,1-1,1.46A2.51,2.51,0,0,1,749.13,778.51Z" transform="translate(-540.79 -662.97)"/><polygon class="cls-4" points="219.26 104.12 220.38 104.12 220.38 115.42 219.21 115.42 219.21 106.96 219.27 107.45 217.18 113.85 216.34 113.85 214.25 107.61 214.31 106.96 214.31 115.42 213.14 115.42 213.14 104.12 214.26 104.12 216.76 111.58 219.26 104.12"/><path class="cls-4" d="M654.58,786.2h6v1.51h-6Zm2.4.92h1.2v10.39H657Z" transform="translate(-540.79 -662.97)"/><path class="cls-4" d="M661.75,786.2H663v11.31h-1.2Zm.62,5.41h2.72a1,1,0,0,0,.68-.24,1.55,1.55,0,0,0,.46-.68,3.36,3.36,0,0,0,0-2.05,1.58,1.58,0,0,0-.46-.69,1,1,0,0,0-.68-.24h-2.72V786.2h2.68a2.15,2.15,0,0,1,1.34.43,2.72,2.72,0,0,1,.9,1.22,4.85,4.85,0,0,1,.32,1.82,4.8,4.8,0,0,1-.32,1.81,2.68,2.68,0,0,1-.9,1.21,2.15,2.15,0,0,1-1.34.43h-2.68Z" transform="translate(-540.79 -662.97)"/><path class="cls-4" d="M669.86,786.2h4.89v1.51h-4.89Zm0,4.94h4.24v1.51h-4.24Zm0,4.86h4.89v1.51h-4.89Zm-.58-9.8h1.19v11.31h-1.19Z" transform="translate(-540.79 -662.97)"/><path class="cls-4" d="M677.19,791.18h4.73v1.51h-4.73Zm-.74-5h1.19v11.31h-1.19Zm4.83,0h1.2v11.31h-1.2Z" transform="translate(-540.79 -662.97)"/><polygon class="cls-4" points="148.9 134.53 148.9 125.64 149.04 125.84 144.77 134.53 143.79 134.53 143.79 123.23 144.97 123.23 144.97 132.25 144.84 132.05 149.11 123.23 150.08 123.23 150.08 134.53 148.9 134.53"/><path class="cls-4" d="M697.14,786.19h1.2v11.32h-1.2Zm-2.36,6.06,1.19.36-2.07,4.9h-1.42Zm.24.71a2.08,2.08,0,0,1-1.29-.42,2.63,2.63,0,0,1-.87-1.19,4.62,4.62,0,0,1-.31-1.77,4.84,4.84,0,0,1,.3-1.78,2.78,2.78,0,0,1,.87-1.19,2.11,2.11,0,0,1,1.3-.42h2.8v1.51H695a.88.88,0,0,0-.6.23,1.55,1.55,0,0,0-.41.66,3.54,3.54,0,0,0,0,2,1.55,1.55,0,0,0,.41.66.88.88,0,0,0,.6.23h2.85V793Z" transform="translate(-540.79 -662.97)"/><path class="cls-4" d="M704.24,786.2h4.89v1.51h-4.89Zm0,4.94h4.25v1.51h-4.25Zm0,4.86h4.89v1.51h-4.89Zm-.58-9.8h1.2v11.31h-1.2Z" transform="translate(-540.79 -662.97)"/><polygon class="cls-4" points="169.72 132.87 170.97 132.87 170.97 135.39 169.72 137.12 169.72 132.87"/><path class="cls-4" d="M719.33,797.62a4.47,4.47,0,0,1-1.17-.15,3.84,3.84,0,0,1-1-.47,4.61,4.61,0,0,1-.89-.78L717,795a3.52,3.52,0,0,0,1.08.84,3,3,0,0,0,1.27.28,2,2,0,0,0,1.43-.46,1.62,1.62,0,0,0,.51-1.28h0a1.72,1.72,0,0,0-.23-.94,1.41,1.41,0,0,0-.6-.51,6.07,6.07,0,0,0-.94-.31h-.08l-.09,0a6.93,6.93,0,0,1-1.39-.44,2.11,2.11,0,0,1-.92-.89,3.73,3.73,0,0,1-.38-1.85h0a4.11,4.11,0,0,1,.36-1.79,2.51,2.51,0,0,1,1-1.13,3.26,3.26,0,0,1,1.64-.39,3.36,3.36,0,0,1,.89.13,3.63,3.63,0,0,1,.88.4,4.49,4.49,0,0,1,.84.66l-.68,1.25a3.81,3.81,0,0,0-1-.71,2.25,2.25,0,0,0-1-.23,1.87,1.87,0,0,0-1.36.46,1.73,1.73,0,0,0-.48,1.31h0a1.47,1.47,0,0,0,.25.91,1.44,1.44,0,0,0,.62.5,9.86,9.86,0,0,0,1,.33h.09l.06,0H720a6.1,6.1,0,0,1,1.29.5,2.32,2.32,0,0,1,.87.93,3.73,3.73,0,0,1,.34,1.75v0a3.86,3.86,0,0,1-.37,1.77,2.55,2.55,0,0,1-1.06,1.12,3.54,3.54,0,0,1-1.69.38" transform="translate(-540.79 -662.97)"/><rect class="cls-3" x="226.53" y="88.63" width="156.85" height="59.99"/><path class="cls-4" d="M787.42,767h4.65v1.51h-4.65Zm-.58,0H788v11.31h-1.19Zm.61,9.8h2.72a1.09,1.09,0,0,0,.7-.22,1.28,1.28,0,0,0,.45-.64,3,3,0,0,0,.15-1,3,3,0,0,0-.15-1,1.31,1.31,0,0,0-.45-.65,1.15,1.15,0,0,0-.7-.22h-2.72v-1.51h2.68a2.28,2.28,0,0,1,2.26,1.56,5.73,5.73,0,0,1,0,3.66,2.45,2.45,0,0,1-.87,1.15,2.37,2.37,0,0,1-1.39.4h-2.68Z" transform="translate(-540.79 -662.97)"/><path class="cls-4" d="M794.93,774.34h4.48v1.51h-4.48Zm1.69-7.32h1l3.14,11.31h-1.29l-2.36-9.12-2.36,9.12h-1.29Z" transform="translate(-540.79 -662.97)"/><path class="cls-4" d="M802.07,767h1.19v11.31h-1.19Zm.61,5.41h2.72a1,1,0,0,0,.68-.24,1.55,1.55,0,0,0,.46-.68,3.36,3.36,0,0,0,0-2,1.55,1.55,0,0,0-.46-.68,1,1,0,0,0-.68-.25h-2.72V767h2.68a2.15,2.15,0,0,1,1.34.43,2.77,2.77,0,0,1,.9,1.22,5.34,5.34,0,0,1,0,3.64,2.74,2.74,0,0,1-.9,1.21,2.2,2.2,0,0,1-1.34.42h-2.68Z" transform="translate(-540.79 -662.97)"/><path class="cls-4" d="M809.69,774.34h4.48v1.51h-4.48Zm1.69-7.32h1l3.14,11.31h-1.29l-2.36-9.12-2.36,9.12h-1.29Z" transform="translate(-540.79 -662.97)"/><path class="cls-4" d="M817.41,767h4.65v1.51h-4.65Zm-.58,0H818v11.31h-1.19Zm.61,9.8h2.72a1.09,1.09,0,0,0,.7-.22,1.28,1.28,0,0,0,.45-.64,3,3,0,0,0,.15-1,3,3,0,0,0-.15-1,1.31,1.31,0,0,0-.45-.65,1.15,1.15,0,0,0-.7-.22h-2.72v-1.51h2.68a2.3,2.3,0,0,1,2.26,1.56,5.73,5.73,0,0,1,0,3.66,2.41,2.41,0,0,1-.88,1.15,2.32,2.32,0,0,1-1.38.4h-2.68Z" transform="translate(-540.79 -662.97)"/><path class="cls-4" d="M824.92,774.34h4.48v1.51h-4.48Zm1.69-7.32h1l3.14,11.31h-1.29l-2.36-9.12-2.36,9.12h-1.29Z" transform="translate(-540.79 -662.97)"/><path class="cls-4" d="M832.8,772h4.73v1.51H832.8Zm-.74-5h1.19v11.31h-1.19Zm4.83,0h1.2v11.31h-1.2Z" transform="translate(-540.79 -662.97)"/><path class="cls-4" d="M840.94,772h4.72v1.51h-4.72Zm-.75-5h1.2v11.31h-1.2Zm4.84,0h1.2v11.31H845Z" transform="translate(-540.79 -662.97)"/><path class="cls-4" d="M856.24,778.33h-1.19V767h1.19ZM848.33,767h1.2v11.31h-1.2Zm.62,9.8h2.46a1.12,1.12,0,0,0,.7-.22,1.33,1.33,0,0,0,.44-.64,3,3,0,0,0,.15-1,3,3,0,0,0-.15-1,1.37,1.37,0,0,0-.44-.65,1.19,1.19,0,0,0-.7-.22H849v-1.51h2.42a2.28,2.28,0,0,1,2.25,1.56,5.73,5.73,0,0,1,0,3.66,2.45,2.45,0,0,1-.87,1.15,2.34,2.34,0,0,1-1.38.4H849Z" transform="translate(-540.79 -662.97)"/><path class="cls-4" d="M863.44,763.84a2.71,2.71,0,0,1-.51,1.76,1.76,1.76,0,0,1-1.44.61h0a1.76,1.76,0,0,1-1.44-.61,2.71,2.71,0,0,1-.51-1.76l1,0a1.42,1.42,0,0,0,.26.9.86.86,0,0,0,.72.33h0a.89.89,0,0,0,.73-.33,1.42,1.42,0,0,0,.25-.9Zm0,14.48v-8.89l.14.21-4.27,8.68h-1V767h1.18v9l-.14-.2,4.28-8.82h1v11.3Z" transform="translate(-540.79 -662.97)"/><path class="cls-4" d="M870.55,772h2.66v1.51h-2.66ZM870,767h1.19v11.31H870Zm2.19,6.33,1-.82,3.29,5.8h-1.66Zm0-1.23,2.47-5.1h1.5l-3.36,6.5Z" transform="translate(-540.79 -662.97)"/><path class="cls-4" d="M878.29,774.34h4.48v1.51h-4.48ZM880,767h1l3.14,11.31h-1.29l-2.36-9.12-2.36,9.12h-1.29Z" transform="translate(-540.79 -662.97)"/><path class="cls-4" d="M886.17,772h4.73v1.51h-4.73Zm-.75-5h1.2v11.31h-1.2Zm4.84,0h1.2v11.31h-1.2Z" transform="translate(-540.79 -662.97)"/><path class="cls-4" d="M894.07,774.34h4.48v1.51h-4.48Zm1.7-7.32h1l3.14,11.31h-1.28l-2.37-9.12-2.35,9.12h-1.29Z" transform="translate(-540.79 -662.97)"/><path class="cls-4" d="M899.81,767h6v1.51h-6Zm2.4.93h1.2v10.38h-1.2Z" transform="translate(-540.79 -662.97)"/><path class="cls-4" d="M837.13,786.13H842v1.51h-4.89Zm0,4.94h4.25v1.51h-4.25Zm0,4.86H842v1.51h-4.89Zm-.58-9.8h1.2v11.31h-1.2Z" transform="translate(-540.79 -662.97)"/><polygon class="cls-4" points="302.6 132.81 303.86 132.81 303.86 135.33 302.6 137.06 302.6 132.81"/><path class="cls-4" d="M852.21,797.56a4,4,0,0,1-1.16-.16,3.82,3.82,0,0,1-1-.46,4.34,4.34,0,0,1-.89-.78l.74-1.21a3.48,3.48,0,0,0,1.07.84,3,3,0,0,0,1.27.27,2.11,2.11,0,0,0,1.44-.45,1.63,1.63,0,0,0,.51-1.29h0a1.7,1.7,0,0,0-.23-.94,1.47,1.47,0,0,0-.6-.51,4.41,4.41,0,0,0-1-.31h-.07l-.09,0a7.4,7.4,0,0,1-1.39-.44,2.11,2.11,0,0,1-.92-.89,3.75,3.75,0,0,1-.38-1.85h0a4.05,4.05,0,0,1,.36-1.79,2.51,2.51,0,0,1,1-1.13,3.22,3.22,0,0,1,1.63-.39,3,3,0,0,1,.9.13,3.75,3.75,0,0,1,.87.39,5.58,5.58,0,0,1,.85.66l-.68,1.26a3.74,3.74,0,0,0-1-.71,2.14,2.14,0,0,0-1-.24,1.9,1.9,0,0,0-1.35.46,1.76,1.76,0,0,0-.49,1.32h0a1.39,1.39,0,0,0,.87,1.41,6.81,6.81,0,0,0,1,.33l0,0h.11l.06,0a5.7,5.7,0,0,1,1.29.5,2.19,2.19,0,0,1,.87.93,3.69,3.69,0,0,1,.35,1.75v0a3.84,3.84,0,0,1-.37,1.76,2.52,2.52,0,0,1-1.07,1.12,3.43,3.43,0,0,1-1.69.39" transform="translate(-540.79 -662.97)"/><rect class="cls-3" x="383.37" y="148.62" width="156.85" height="59.99"/><g class="cls-5"><path class="cls-4" d="M987.71,836.34h4.89v1.58h-4.89Zm0,5.15H992v1.57h-4.24Zm0,5.06h4.89v1.57h-4.89Zm-.58-10.21h1.19v11.78h-1.19Z" transform="translate(-540.79 -662.97)"/><polygon class="cls-4" points="453.18 183.42 454.43 183.42 454.43 186.04 453.18 187.84 453.18 183.42"/><path class="cls-4" d="M1002.79,848.24a4,4,0,0,1-1.16-.16,3.87,3.87,0,0,1-1-.48,4.85,4.85,0,0,1-.9-.81l.75-1.27a3.38,3.38,0,0,0,1.07.88,2.85,2.85,0,0,0,1.27.29,2,2,0,0,0,1.43-.48,1.73,1.73,0,0,0,.51-1.34h0a1.74,1.74,0,0,0-.23-1,1.46,1.46,0,0,0-.59-.54,6.14,6.14,0,0,0-.95-.32h-.08l-.08,0a7,7,0,0,1-1.39-.46,2.14,2.14,0,0,1-.92-.94,3.89,3.89,0,0,1-.38-1.92h0a4.54,4.54,0,0,1,.35-1.86,2.56,2.56,0,0,1,1-1.18,3.26,3.26,0,0,1,2.53-.27,3.8,3.8,0,0,1,.87.41,5.17,5.17,0,0,1,.85.68l-.68,1.32a4.17,4.17,0,0,0-1-.75,2.17,2.17,0,0,0-1-.24,1.67,1.67,0,0,0-1.84,1.84h0a1.61,1.61,0,0,0,.25,1,1.52,1.52,0,0,0,.62.51,7.52,7.52,0,0,0,1,.35h.09l.07,0h.06a5.66,5.66,0,0,1,1.29.52,2.25,2.25,0,0,1,.87,1,4,4,0,0,1,.35,1.83h0a4.28,4.28,0,0,1-.37,1.84,2.65,2.65,0,0,1-1.07,1.17,3.33,3.33,0,0,1-1.69.4" transform="translate(-540.79 -662.97)"/><rect class="cls-4" x="472.76" y="173.37" width="1.2" height="11.78"/><rect class="cls-4" x="476.06" y="173.37" width="1.2" height="11.78"/><polygon class="cls-4" points="466.5 183.42 467.75 183.42 467.75 186.04 466.5 187.84 466.5 183.42"/></g><rect class="cls-3" x="853.91" y="148.62" width="156.85" height="59.99"/><g class="cls-6"><rect class="cls-4" x="925.46" y="173.37" width="1.2" height="11.78"/><polygon class="cls-4" points="928.45 183.42 929.7 183.42 929.7 186.04 928.45 187.84 928.45 183.42"/><rect class="cls-4" x="934.7" y="173.37" width="1.2" height="11.78"/><rect class="cls-4" x="938" y="173.37" width="1.2" height="11.78"/></g><rect class="cls-3" x="226.53" y="208.61" width="156.85" height="59.99"/><g class="cls-7"><path class="cls-4" d="M837.13,896.33H842v1.58h-4.89Zm0,5.15h4.25v1.57h-4.25Zm0,5.06H842v1.57h-4.89Zm-.58-10.21h1.2v11.78h-1.2Z" transform="translate(-540.79 -662.97)"/><polygon class="cls-4" points="302.6 243.41 303.86 243.41 303.86 246.03 302.6 247.83 302.6 243.41"/><path class="cls-4" d="M852.21,908.23a4,4,0,0,1-1.16-.16,3.61,3.61,0,0,1-1-.49,4,4,0,0,1-.89-.81l.74-1.26a3.49,3.49,0,0,0,1.07.88,2.89,2.89,0,0,0,1.27.29,2,2,0,0,0,1.44-.48,1.73,1.73,0,0,0,.51-1.34h0a1.81,1.81,0,0,0-.23-1,1.55,1.55,0,0,0-.6-.54,5.79,5.79,0,0,0-1-.32h-.07l-.09,0a6.68,6.68,0,0,1-1.39-.45,2.25,2.25,0,0,1-.92-.94,4,4,0,0,1-.38-1.92h0a4.42,4.42,0,0,1,.36-1.87,2.51,2.51,0,0,1,1-1.17,3.13,3.13,0,0,1,1.63-.41,3,3,0,0,1,.9.14,3.44,3.44,0,0,1,.87.41,5.17,5.17,0,0,1,.85.68l-.68,1.31a4.17,4.17,0,0,0-1-.74,2.14,2.14,0,0,0-1-.24,1.83,1.83,0,0,0-1.35.48,1.85,1.85,0,0,0-.49,1.36h0a1.68,1.68,0,0,0,.25,1,1.59,1.59,0,0,0,.62.51,7.74,7.74,0,0,0,1,.35h.09l.06,0h.06a5.66,5.66,0,0,1,1.29.52,2.25,2.25,0,0,1,.87,1,4,4,0,0,1,.35,1.83h0a4.14,4.14,0,0,1-.37,1.84,2.59,2.59,0,0,1-1.07,1.17,3.33,3.33,0,0,1-1.69.4" transform="translate(-540.79 -662.97)"/></g><rect class="cls-3" x="383.37" y="208.61" width="156.85" height="59.99"/><g class="cls-8"><path class="cls-4" d="M994,896.33h4.89v1.58H994Zm0,5.15h4.24v1.57H994Zm0,5.06h4.89v1.57H994Zm-.58-10.21h1.19v11.78H993.4Z" transform="translate(-540.79 -662.97)"/><polygon class="cls-4" points="459.45 243.41 460.7 243.41 460.7 246.03 459.45 247.83 459.45 243.41"/><path class="cls-4" d="M1009.06,908.23a4.08,4.08,0,0,1-1.17-.16,3.69,3.69,0,0,1-1-.49,4.23,4.23,0,0,1-.9-.81l.75-1.26a3.38,3.38,0,0,0,1.07.88,2.85,2.85,0,0,0,1.27.29,2,2,0,0,0,1.43-.48,1.73,1.73,0,0,0,.51-1.34h0a1.72,1.72,0,0,0-.23-1,1.46,1.46,0,0,0-.59-.54,6.14,6.14,0,0,0-.95-.32h-.08l-.08,0a6.79,6.79,0,0,1-1.4-.45,2.24,2.24,0,0,1-.91-.94,3.89,3.89,0,0,1-.38-1.92h0a4.59,4.59,0,0,1,.35-1.87,2.57,2.57,0,0,1,1-1.17,3.17,3.17,0,0,1,1.64-.41,3.13,3.13,0,0,1,.9.14,3.8,3.8,0,0,1,.87.41,5.17,5.17,0,0,1,.85.68l-.68,1.31a4.39,4.39,0,0,0-1-.74,2.17,2.17,0,0,0-1-.24,1.67,1.67,0,0,0-1.84,1.84h0a1.61,1.61,0,0,0,.25,1,1.46,1.46,0,0,0,.62.51,7.52,7.52,0,0,0,1,.35h.09l.07,0h.06a5.85,5.85,0,0,1,1.29.52,2.25,2.25,0,0,1,.87,1,4,4,0,0,1,.35,1.83h0a4.28,4.28,0,0,1-.37,1.84,2.65,2.65,0,0,1-1.07,1.17,3.33,3.33,0,0,1-1.69.4" transform="translate(-540.79 -662.97)"/></g><rect class="cls-3" x="1010.75" y="208.61" width="156.85" height="59.99"/><rect class="cls-3" x="226.53" y="268.6" width="156.85" height="59.99"/><g class="cls-9"><path class="cls-4" d="M837.13,956.32H842v1.57h-4.89Zm0,5.15h4.25V963h-4.25Zm0,5.06H842v1.57h-4.89Zm-.58-10.21h1.2V968.1h-1.2Z" transform="translate(-540.79 -662.97)"/><polygon class="cls-4" points="302.6 303.4 303.86 303.4 303.86 306.02 302.6 307.82 302.6 303.4"/><path class="cls-4" d="M852.21,968.22a4,4,0,0,1-1.16-.16,3.61,3.61,0,0,1-1-.49,4.22,4.22,0,0,1-.89-.81l.74-1.26a3.31,3.31,0,0,0,1.07.87,2.75,2.75,0,0,0,1.27.29,2,2,0,0,0,1.44-.47,1.73,1.73,0,0,0,.51-1.34h0a1.81,1.81,0,0,0-.23-1,1.47,1.47,0,0,0-.6-.54,5.79,5.79,0,0,0-1-.32h-.07l-.09,0a6.09,6.09,0,0,1-1.39-.46,2.17,2.17,0,0,1-.92-.93,4,4,0,0,1-.38-1.92h0a4.42,4.42,0,0,1,.36-1.87,2.59,2.59,0,0,1,1-1.18,3.13,3.13,0,0,1,1.63-.4,3,3,0,0,1,.9.14,3.44,3.44,0,0,1,.87.41,5.17,5.17,0,0,1,.85.68l-.68,1.31a3.91,3.91,0,0,0-1-.74,2.15,2.15,0,0,0-1-.25,1.7,1.7,0,0,0-1.84,1.85h0a1.65,1.65,0,0,0,.25.95,1.54,1.54,0,0,0,.62.52,6.67,6.67,0,0,0,1,.34l0,0h.05l.06,0h.06a5.66,5.66,0,0,1,1.29.52,2.25,2.25,0,0,1,.87,1,4,4,0,0,1,.35,1.82v0a4.14,4.14,0,0,1-.37,1.84,2.64,2.64,0,0,1-1.07,1.17,3.33,3.33,0,0,1-1.69.4" transform="translate(-540.79 -662.97)"/></g><rect class="cls-3" x="383.37" y="268.6" width="156.85" height="59.99"/><g class="cls-10"><path class="cls-4" d="M994,956.32h4.89v1.57H994Zm0,5.15h4.24V963H994Zm0,5.06h4.89v1.57H994Zm-.58-10.21h1.19V968.1H993.4Z" transform="translate(-540.79 -662.97)"/><polygon class="cls-4" points="459.45 303.4 460.7 303.4 460.7 306.02 459.45 307.82 459.45 303.4"/><path class="cls-4" d="M1009.06,968.22a4.08,4.08,0,0,1-1.17-.16,3.69,3.69,0,0,1-1-.49,4.52,4.52,0,0,1-.9-.81l.75-1.26a3.21,3.21,0,0,0,1.07.87,2.73,2.73,0,0,0,1.27.29,2,2,0,0,0,1.43-.47,1.73,1.73,0,0,0,.51-1.34h0a1.72,1.72,0,0,0-.23-1,1.39,1.39,0,0,0-.59-.54,6.14,6.14,0,0,0-.95-.32h-.08l-.08,0a6.19,6.19,0,0,1-1.4-.46,2.15,2.15,0,0,1-.91-.93,3.89,3.89,0,0,1-.38-1.92h0a4.59,4.59,0,0,1,.35-1.87,2.65,2.65,0,0,1,1-1.18,3.16,3.16,0,0,1,1.64-.4,3.13,3.13,0,0,1,.9.14,3.8,3.8,0,0,1,.87.41,5.17,5.17,0,0,1,.85.68l-.68,1.31a4.1,4.1,0,0,0-1-.74,2.19,2.19,0,0,0-1-.25,1.85,1.85,0,0,0-1.36.49,1.83,1.83,0,0,0-.48,1.36h0a1.58,1.58,0,0,0,.25.95,1.42,1.42,0,0,0,.62.52,6.49,6.49,0,0,0,1,.34l0,0h0l.07,0h.06a5.85,5.85,0,0,1,1.29.52,2.25,2.25,0,0,1,.87,1,4,4,0,0,1,.35,1.82v0a4.28,4.28,0,0,1-.37,1.84,2.7,2.7,0,0,1-1.07,1.17,3.33,3.33,0,0,1-1.69.4" transform="translate(-540.79 -662.97)"/></g><rect class="cls-3" x="1010.75" y="268.6" width="156.85" height="59.99"/><rect class="cls-3" x="226.53" y="328.59" width="156.85" height="59.99"/><g class="cls-11"><path class="cls-4" d="M837.13,1016.31H842v1.57h-4.89Zm0,5.14h4.25V1023h-4.25Zm0,5.07H842v1.57h-4.89Zm-.58-10.21h1.2v11.78h-1.2Z" transform="translate(-540.79 -662.97)"/><polygon class="cls-4" points="302.6 363.38 303.86 363.38 303.86 366.01 302.6 367.81 302.6 363.38"/><path class="cls-4" d="M852.21,1028.21a4.33,4.33,0,0,1-1.16-.16,3.61,3.61,0,0,1-1-.49,4.5,4.5,0,0,1-.89-.81l.74-1.26a3.45,3.45,0,0,0,1.07.87,2.89,2.89,0,0,0,1.27.29,2.06,2.06,0,0,0,1.44-.47,1.74,1.74,0,0,0,.51-1.34h0a1.84,1.84,0,0,0-.23-1,1.52,1.52,0,0,0-.6-.53,5,5,0,0,0-1-.32h-.07l-.09,0a7.26,7.26,0,0,1-1.39-.46,2.17,2.17,0,0,1-.92-.93,4,4,0,0,1-.38-1.92h0a4.42,4.42,0,0,1,.36-1.87,2.59,2.59,0,0,1,1-1.18,3.13,3.13,0,0,1,1.63-.4,2.73,2.73,0,0,1,.9.14,3.41,3.41,0,0,1,.87.4,4.77,4.77,0,0,1,.85.69l-.68,1.31a3.91,3.91,0,0,0-1-.74,2.15,2.15,0,0,0-1-.25,1.83,1.83,0,0,0-1.35.48,1.88,1.88,0,0,0-.49,1.37h0a1.65,1.65,0,0,0,.25.95,1.62,1.62,0,0,0,.62.52,7.94,7.94,0,0,0,1,.34h0l.05,0h.06l.06,0a5.24,5.24,0,0,1,1.29.52,2.25,2.25,0,0,1,.87,1,4,4,0,0,1,.35,1.82v0a4.14,4.14,0,0,1-.37,1.84,2.64,2.64,0,0,1-1.07,1.17,3.33,3.33,0,0,1-1.69.4" transform="translate(-540.79 -662.97)"/></g><rect class="cls-3" x="383.37" y="328.59" width="156.85" height="59.99"/><g class="cls-12"><path class="cls-4" d="M994,1016.31h4.89v1.57H994Zm0,5.14h4.24V1023H994Zm0,5.07h4.89v1.57H994Zm-.58-10.21h1.19v11.78H993.4Z" transform="translate(-540.79 -662.97)"/><polygon class="cls-4" points="459.45 363.38 460.7 363.38 460.7 366.01 459.45 367.81 459.45 363.38"/><path class="cls-4" d="M1009.06,1028.21a4.47,4.47,0,0,1-1.17-.16,3.69,3.69,0,0,1-1-.49,4.85,4.85,0,0,1-.9-.81l.75-1.26a3.34,3.34,0,0,0,1.07.87,2.85,2.85,0,0,0,1.27.29,2,2,0,0,0,1.43-.47,1.74,1.74,0,0,0,.51-1.34h0a1.76,1.76,0,0,0-.23-1,1.43,1.43,0,0,0-.59-.53,5.23,5.23,0,0,0-.95-.32h-.08l-.08,0a7.39,7.39,0,0,1-1.4-.46,2.15,2.15,0,0,1-.91-.93,3.89,3.89,0,0,1-.38-1.92h0a4.59,4.59,0,0,1,.35-1.87,2.65,2.65,0,0,1,1-1.18,3.16,3.16,0,0,1,1.64-.4,2.82,2.82,0,0,1,.9.14,3.75,3.75,0,0,1,.87.4,4.77,4.77,0,0,1,.85.69l-.68,1.31a4.1,4.1,0,0,0-1-.74,2.19,2.19,0,0,0-1-.25,1.85,1.85,0,0,0-1.36.48,1.87,1.87,0,0,0-.48,1.37h0a1.58,1.58,0,0,0,.25.95,1.49,1.49,0,0,0,.62.52,7.72,7.72,0,0,0,1,.34h0l0,0h.07l.06,0a5.4,5.4,0,0,1,1.29.52,2.25,2.25,0,0,1,.87,1,4,4,0,0,1,.35,1.82v0a4.28,4.28,0,0,1-.37,1.84,2.7,2.7,0,0,1-1.07,1.17,3.33,3.33,0,0,1-1.69.4" transform="translate(-540.79 -662.97)"/></g><rect class="cls-3" x="697.06" y="328.59" width="156.85" height="59.99"/><g class="cls-13"><rect class="cls-4" x="771.59" y="353.34" width="1.2" height="11.78"/><rect class="cls-4" x="774.89" y="353.34" width="1.2" height="11.78"/><rect class="cls-4" x="778.19" y="353.34" width="1.2" height="11.78"/></g><rect class="cls-3" x="1010.75" y="328.59" width="156.85" height="59.99"/><rect class="cls-3" x="226.53" y="388.58" width="156.85" height="59.99"/><g class="cls-14"><path class="cls-4" d="M837.13,1076.3H842v1.57h-4.89Zm0,5.14h4.25V1083h-4.25Zm0,5.07H842v1.57h-4.89Zm-.58-10.21h1.2v11.78h-1.2Z" transform="translate(-540.79 -662.97)"/><polygon class="cls-4" points="302.6 423.37 303.86 423.37 303.86 426 302.6 427.8 302.6 423.37"/><path class="cls-4" d="M852.21,1088.2a4,4,0,0,1-1.16-.17,3.34,3.34,0,0,1-1-.48,4.5,4.5,0,0,1-.89-.81l.74-1.26a3.45,3.45,0,0,0,1.07.87,2.89,2.89,0,0,0,1.27.29,2.06,2.06,0,0,0,1.44-.47,1.76,1.76,0,0,0,.51-1.34h0a1.84,1.84,0,0,0-.23-1,1.45,1.45,0,0,0-.6-.53,5,5,0,0,0-1-.32h-.07l-.09,0a7.26,7.26,0,0,1-1.39-.46,2.17,2.17,0,0,1-.92-.93,4,4,0,0,1-.38-1.92h0a4.42,4.42,0,0,1,.36-1.87,2.59,2.59,0,0,1,1-1.18,3.13,3.13,0,0,1,1.63-.4,3,3,0,0,1,.9.13,4.11,4.11,0,0,1,.88.41,5.1,5.1,0,0,1,.84.69l-.68,1.31a3.53,3.53,0,0,0-1-.74,2,2,0,0,0-1-.25,1.83,1.83,0,0,0-1.35.48,1.86,1.86,0,0,0-.48,1.37h0a1.65,1.65,0,0,0,.24,1,1.71,1.71,0,0,0,.62.52,7.94,7.94,0,0,0,1,.34h0l.05,0h.06l.06,0a5.49,5.49,0,0,1,1.3.52,2.32,2.32,0,0,1,.86,1,4.05,4.05,0,0,1,.35,1.83v0a4.17,4.17,0,0,1-.37,1.84,2.64,2.64,0,0,1-1.07,1.17,3.41,3.41,0,0,1-1.69.4" transform="translate(-540.79 -662.97)"/></g><rect class="cls-3" x="540.22" y="388.58" width="156.85" height="59.99"/><rect class="cls-3" x="69.68" y="448.56" width="156.85" height="59.99"/><g class="cls-15"><path class="cls-4" d="M680.29,1136.29h4.89v1.57h-4.89Zm0,5.14h4.24V1143h-4.24Zm0,5.06h4.89v1.57h-4.89Zm-.58-10.2h1.19v11.77h-1.19Z" transform="translate(-540.79 -662.97)"/><polygon class="cls-4" points="145.76 483.36 147.01 483.36 147.01 485.99 145.76 487.79 145.76 483.36"/><path class="cls-4" d="M695.37,1148.19a4.09,4.09,0,0,1-1.17-.17,4,4,0,0,1-1-.48,5.14,5.14,0,0,1-.89-.81l.75-1.26a3.34,3.34,0,0,0,1.07.87,2.85,2.85,0,0,0,1.27.29,2.05,2.05,0,0,0,1.43-.47,1.76,1.76,0,0,0,.51-1.34h0a1.84,1.84,0,0,0-.23-1,1.39,1.39,0,0,0-.6-.53,4.45,4.45,0,0,0-.94-.32h-.08l-.09,0a7.51,7.51,0,0,1-1.39-.46,2.15,2.15,0,0,1-.91-.93,3.9,3.9,0,0,1-.38-1.93h0a4.38,4.38,0,0,1,.35-1.86,2.59,2.59,0,0,1,1-1.18,3.17,3.17,0,0,1,1.64-.41,3.13,3.13,0,0,1,.9.14,3.8,3.8,0,0,1,.87.41,4.72,4.72,0,0,1,.84.69l-.68,1.31a3.65,3.65,0,0,0-1-.74,2.09,2.09,0,0,0-1-.25,1.67,1.67,0,0,0-1.84,1.85h0a1.58,1.58,0,0,0,.25,1,1.46,1.46,0,0,0,.62.51,7.52,7.52,0,0,0,1,.35h.09l.06,0H696a6.64,6.64,0,0,1,1.29.52,2.45,2.45,0,0,1,.87,1,4.06,4.06,0,0,1,.34,1.83v0a4.31,4.31,0,0,1-.36,1.84,2.62,2.62,0,0,1-1.07,1.16,3.33,3.33,0,0,1-1.69.41" transform="translate(-540.79 -662.97)"/></g><rect class="cls-3" x="226.53" y="448.56" width="156.85" height="59.99"/><g class="cls-16"><path class="cls-4" d="M837.13,1136.29H842v1.57h-4.89Zm0,5.14h4.25V1143h-4.25Zm0,5.06H842v1.57h-4.89Zm-.58-10.2h1.2v11.77h-1.2Z" transform="translate(-540.79 -662.97)"/><polygon class="cls-4" points="302.6 483.36 303.86 483.36 303.86 485.99 302.6 487.79 302.6 483.36"/><path class="cls-4" d="M852.21,1148.19a4,4,0,0,1-1.16-.17,3.87,3.87,0,0,1-1-.48,4.5,4.5,0,0,1-.89-.81l.74-1.26a3.45,3.45,0,0,0,1.07.87,2.89,2.89,0,0,0,1.27.29,2.06,2.06,0,0,0,1.44-.47,1.76,1.76,0,0,0,.51-1.34h0a1.84,1.84,0,0,0-.23-1,1.45,1.45,0,0,0-.6-.53,4.36,4.36,0,0,0-1-.32h-.07l-.09,0a7.26,7.26,0,0,1-1.39-.46,2.17,2.17,0,0,1-.92-.93,4,4,0,0,1-.38-1.93h0a4.38,4.38,0,0,1,.36-1.86,2.54,2.54,0,0,1,1-1.18,3.13,3.13,0,0,1,1.63-.41,3,3,0,0,1,.9.14,3.68,3.68,0,0,1,.88.41,5.1,5.1,0,0,1,.84.69l-.68,1.31a3.53,3.53,0,0,0-1-.74,2,2,0,0,0-1-.25,1.83,1.83,0,0,0-1.35.48,1.86,1.86,0,0,0-.48,1.37h0a1.65,1.65,0,0,0,.24,1,1.59,1.59,0,0,0,.62.51,7.74,7.74,0,0,0,1,.35h.09l.06,0h.06a6.5,6.5,0,0,1,1.3.52,2.36,2.36,0,0,1,.86,1,4.05,4.05,0,0,1,.35,1.83v0a4.17,4.17,0,0,1-.37,1.84,2.57,2.57,0,0,1-1.07,1.16,3.3,3.3,0,0,1-1.69.41" transform="translate(-540.79 -662.97)"/></g><rect class="cls-3" x="383.37" y="448.56" width="156.85" height="59.99"/><g class="cls-17"><path class="cls-4" d="M994,1136.29h4.89v1.57H994Zm0,5.14h4.24V1143H994Zm0,5.06h4.89v1.57H994Zm-.58-10.2h1.19v11.77H993.4Z" transform="translate(-540.79 -662.97)"/><polygon class="cls-4" points="459.45 483.36 460.7 483.36 460.7 485.99 459.45 487.79 459.45 483.36"/><path class="cls-4" d="M1009.06,1148.19a4,4,0,0,1-1.16-.17,3.87,3.87,0,0,1-1-.48,4.85,4.85,0,0,1-.9-.81l.75-1.26a3.34,3.34,0,0,0,1.07.87,2.85,2.85,0,0,0,1.27.29,2,2,0,0,0,1.43-.47,1.76,1.76,0,0,0,.51-1.34h0a1.76,1.76,0,0,0-.23-1,1.37,1.37,0,0,0-.59-.53,4.56,4.56,0,0,0-.95-.32h-.08l-.08,0a7,7,0,0,1-1.39-.46,2.12,2.12,0,0,1-.92-.93,3.9,3.9,0,0,1-.38-1.93h0a4.54,4.54,0,0,1,.35-1.86,2.56,2.56,0,0,1,1-1.18,3.26,3.26,0,0,1,2.53-.27,3.8,3.8,0,0,1,.87.41,4.77,4.77,0,0,1,.85.69l-.68,1.31a3.85,3.85,0,0,0-1-.74,2.06,2.06,0,0,0-1-.25,1.67,1.67,0,0,0-1.84,1.85h0a1.58,1.58,0,0,0,.25,1,1.52,1.52,0,0,0,.62.51,7.52,7.52,0,0,0,1,.35h.09l.07,0h.06a6.16,6.16,0,0,1,1.29.52,2.31,2.31,0,0,1,.87,1,4.05,4.05,0,0,1,.35,1.83v0a4.31,4.31,0,0,1-.37,1.84,2.62,2.62,0,0,1-1.07,1.16,3.33,3.33,0,0,1-1.69.41" transform="translate(-540.79 -662.97)"/></g><rect class="cls-3" x="697.06" y="448.56" width="156.85" height="59.99"/><g class="cls-18"><rect class="cls-4" x="771.59" y="473.32" width="1.2" height="11.78"/><rect class="cls-4" x="774.89" y="473.32" width="1.2" height="11.78"/><rect class="cls-4" x="778.19" y="473.32" width="1.2" height="11.78"/></g><rect class="cls-3" x="1010.75" y="448.56" width="156.85" height="59.99"/><rect class="cls-3" x="226.53" y="508.55" width="156.85" height="59.99"/><g class="cls-19"><path class="cls-4" d="M837.13,1196.27H842v1.58h-4.89Zm0,5.15h4.25V1203h-4.25Zm0,5.06H842v1.57h-4.89Zm-.58-10.21h1.2v11.78h-1.2Z" transform="translate(-540.79 -662.97)"/><polygon class="cls-4" points="302.6 543.35 303.86 543.35 303.86 545.97 302.6 547.77 302.6 543.35"/><path class="cls-4" d="M852.21,1208.17a4,4,0,0,1-1.16-.16,3.87,3.87,0,0,1-1-.48,4.5,4.5,0,0,1-.89-.81l.74-1.27a3.49,3.49,0,0,0,1.07.88,2.89,2.89,0,0,0,1.27.29,2,2,0,0,0,1.44-.48,1.73,1.73,0,0,0,.51-1.34h0a1.84,1.84,0,0,0-.23-1,1.45,1.45,0,0,0-.6-.53,4.91,4.91,0,0,0-1-.33h-.07l-.09,0a7.26,7.26,0,0,1-1.39-.46,2.17,2.17,0,0,1-.92-.93,4.07,4.07,0,0,1-.38-1.93h0a4.38,4.38,0,0,1,.36-1.86,2.54,2.54,0,0,1,1-1.18,3.13,3.13,0,0,1,1.63-.41,3,3,0,0,1,.9.14,3.44,3.44,0,0,1,.87.41,4.77,4.77,0,0,1,.85.69l-.68,1.31a4,4,0,0,0-1-.75,2.14,2.14,0,0,0-1-.24,1.83,1.83,0,0,0-1.35.48,1.86,1.86,0,0,0-.49,1.37h0a1.66,1.66,0,0,0,.25,1,1.59,1.59,0,0,0,.62.51,7.74,7.74,0,0,0,1,.35h.09l.06,0h.06a5.66,5.66,0,0,1,1.29.52,2.25,2.25,0,0,1,.87,1,4,4,0,0,1,.35,1.83h0a4.21,4.21,0,0,1-.37,1.85,2.62,2.62,0,0,1-1.07,1.16,3.33,3.33,0,0,1-1.69.4" transform="translate(-540.79 -662.97)"/></g><rect class="cls-3" x="383.37" y="508.55" width="156.85" height="59.99"/><g class="cls-20"><path class="cls-4" d="M994,1196.27h4.89v1.58H994Zm0,5.15h4.24V1203H994Zm0,5.06h4.89v1.57H994Zm-.58-10.21h1.19v11.78H993.4Z" transform="translate(-540.79 -662.97)"/><polygon class="cls-4" points="459.45 543.35 460.7 543.35 460.7 545.97 459.45 547.77 459.45 543.35"/><path class="cls-4" d="M1009.06,1208.17a4.08,4.08,0,0,1-1.17-.16,4,4,0,0,1-1-.48,4.85,4.85,0,0,1-.9-.81l.75-1.27a3.38,3.38,0,0,0,1.07.88,2.85,2.85,0,0,0,1.27.29,2,2,0,0,0,1.43-.48,1.73,1.73,0,0,0,.51-1.34h0a1.76,1.76,0,0,0-.23-1,1.37,1.37,0,0,0-.59-.53,5.17,5.17,0,0,0-.95-.33h-.08l-.08,0a7.39,7.39,0,0,1-1.4-.46,2.15,2.15,0,0,1-.91-.93,4,4,0,0,1-.38-1.93h0a4.54,4.54,0,0,1,.35-1.86,2.59,2.59,0,0,1,1-1.18,3.17,3.17,0,0,1,1.64-.41,3.13,3.13,0,0,1,.9.14,3.8,3.8,0,0,1,.87.41,4.77,4.77,0,0,1,.85.69l-.68,1.31a4.17,4.17,0,0,0-1-.75,2.17,2.17,0,0,0-1-.24,1.67,1.67,0,0,0-1.84,1.85h0a1.59,1.59,0,0,0,.25,1,1.46,1.46,0,0,0,.62.51,7.52,7.52,0,0,0,1,.35h.09l.07,0h.06a5.85,5.85,0,0,1,1.29.52,2.25,2.25,0,0,1,.87,1,4,4,0,0,1,.35,1.83h0a4.36,4.36,0,0,1-.37,1.85,2.68,2.68,0,0,1-1.07,1.16,3.33,3.33,0,0,1-1.69.4" transform="translate(-540.79 -662.97)"/></g><rect class="cls-3" x="1010.75" y="508.55" width="156.85" height="59.99"/><rect class="cls-3" x="383.37" y="568.54" width="156.85" height="59.99"/><g class="cls-21"><path class="cls-4" d="M994,1256.26h4.89v1.58H994Zm0,5.15h4.24V1263H994Zm0,5.06h4.89V1268H994Zm-.58-10.21h1.19V1268H993.4Z" transform="translate(-540.79 -662.97)"/><polygon class="cls-4" points="459.45 603.34 460.7 603.34 460.7 605.96 459.45 607.76 459.45 603.34"/><path class="cls-4" d="M1009.06,1268.16a4.08,4.08,0,0,1-1.17-.16,4,4,0,0,1-1-.48,5.14,5.14,0,0,1-.89-.81l.75-1.27a3.38,3.38,0,0,0,1.07.88,2.85,2.85,0,0,0,1.27.29,2,2,0,0,0,1.43-.48,1.73,1.73,0,0,0,.51-1.34h0a1.72,1.72,0,0,0-.23-1,1.42,1.42,0,0,0-.6-.54,6,6,0,0,0-.94-.32h-.08l-.08,0a7.39,7.39,0,0,1-1.4-.46,2.24,2.24,0,0,1-.91-.94,3.89,3.89,0,0,1-.38-1.92h0a4.43,4.43,0,0,1,.35-1.87,2.62,2.62,0,0,1,1-1.17,3.17,3.17,0,0,1,1.64-.41,3.13,3.13,0,0,1,.9.14,3.8,3.8,0,0,1,.87.41,5.17,5.17,0,0,1,.85.68l-.68,1.32a4.17,4.17,0,0,0-1-.75,2.2,2.2,0,0,0-1-.24,1.67,1.67,0,0,0-1.84,1.84h0a1.61,1.61,0,0,0,.25,1,1.46,1.46,0,0,0,.62.51,7.52,7.52,0,0,0,1,.35h.09l.06,0h.07a6.06,6.06,0,0,1,1.29.52,2.25,2.25,0,0,1,.87,1,4,4,0,0,1,.34,1.83h0a4.28,4.28,0,0,1-.36,1.84,2.65,2.65,0,0,1-1.07,1.17,3.33,3.33,0,0,1-1.69.4" transform="translate(-540.79 -662.97)"/></g><polyline class="cls-22" points="69.68 629 69.68 627.94 69.68 588.71 69.68 521.17 69.68 453.63 69.68 386.09 69.68 318.55 69.68 251.01 69.68 183.47 69.68 115.92 69.68 48.38 69.68 0"/><polyline class="cls-22" points="226.53 628.47 226.53 627.41 226.53 588.71 226.53 521.17 226.53 453.63 226.53 386.09 226.53 318.55 226.53 251.01 226.53 183.47 226.53 115.92 226.53 48.38 226.53 0"/><polyline class="cls-22" points="383.37 628.47 383.37 627.41 383.37 588.71 383.37 521.17 383.37 453.63 383.37 386.09 383.37 318.55 383.37 251.01 383.37 183.47 383.37 115.92 383.37 48.38 383.37 0"/><polyline class="cls-22" points="540.22 629 540.22 627.94 540.22 588.71 540.22 521.17 540.22 453.63 540.22 386.09 540.22 318.55 540.22 251.01 540.22 183.47 540.22 115.92 540.22 48.38 540.22 0"/><polyline class="cls-22" points="697.06 629 697.06 627.94 697.06 588.71 697.06 521.17 697.06 453.63 697.06 386.09 697.06 318.55 697.06 251.01 697.06 183.47 697.06 115.92 697.06 48.38 697.06 0"/><polyline class="cls-22" points="853.91 629 853.91 627.94 853.91 588.71 853.91 521.17 853.91 453.63 853.91 386.09 853.91 318.55 853.91 251.01 853.91 183.47 853.91 115.92 853.91 48.38 853.91 0"/><polyline class="cls-22" points="1010.75 629 1010.75 627.94 1010.75 588.71 1010.75 521.17 1010.75 453.63 1010.75 386.09 1010.75 318.55 1010.75 251.01 1010.75 183.47 1010.75 115.92 1010.75 48.38 1010.75 0"/><polyline class="cls-22" points="1167.6 629 1167.6 627.94 1167.6 588.71 1167.6 521.17 1167.6 453.63 1167.6 386.09 1167.6 318.55 1167.6 251.01 1167.6 183.47 1167.6 115.92 1167.6 48.38 1167.6 0"/><polyline class="cls-22" points="0 628.53 0.72 628.53 167.41 628.53 334.1 628.53 500.79 628.53 667.49 628.53 834.17 628.53 1000.87 628.53 1167.56 628.53 1168.28 628.53"/><polyline class="cls-22" points="0 568.54 0.72 568.54 167.41 568.54 334.1 568.54 500.79 568.54 667.49 568.54 834.17 568.54 1000.87 568.54 1167.56 568.54 1168.28 568.54"/><polyline class="cls-22" points="0 508.55 0.72 508.55 167.41 508.55 334.1 508.55 500.79 508.55 667.49 508.55 834.17 508.55 1000.87 508.55 1167.56 508.55 1168.28 508.55"/><polyline class="cls-22" points="0 448.56 0.72 448.56 167.41 448.56 334.1 448.56 500.79 448.56 667.49 448.56 834.17 448.56 1000.87 448.56 1167.56 448.56 1168.28 448.56"/><polyline class="cls-22" points="0 388.57 0.72 388.57 167.41 388.57 334.1 388.57 500.79 388.57 667.49 388.57 834.17 388.57 1000.87 388.57 1167.56 388.57 1168.28 388.57"/><polyline class="cls-22" points="0 328.59 0.72 328.59 167.41 328.59 334.1 328.59 500.79 328.59 667.49 328.59 834.17 328.59 1000.87 328.59 1167.56 328.59 1168.28 328.59"/><polyline class="cls-22" points="0 268.6 0.72 268.6 167.41 268.6 334.1 268.6 500.79 268.6 667.49 268.6 834.17 268.6 1000.87 268.6 1167.56 268.6 1168.28 268.6"/><polyline class="cls-22" points="0 208.61 0.72 208.61 167.41 208.61 334.1 208.61 500.79 208.61 667.49 208.61 834.17 208.61 1000.87 208.61 1167.56 208.61 1168.28 208.61"/><polyline class="cls-22" points="0 148.62 0.72 148.62 167.41 148.62 334.1 148.62 500.79 148.62 667.49 148.62 834.17 148.62 1000.87 148.62 1167.56 148.62 1168.28 148.62"/><polyline class="cls-22" points="0 88.63 0.72 88.63 167.41 88.63 334.1 88.63 500.79 88.63 667.49 88.63 834.17 88.63 1000.87 88.63 1167.56 88.63 1168.28 88.63"/><path class="cls-3" d="M1580.54,701.57V689H1582l8.34,10.35h-.77V689h1.8v12.6h-1.48l-8.34-10.35h.77v10.35Z" transform="translate(-540.79 -662.97)"/><path class="cls-3" d="M1598.22,701.57v-4.82l.42,1.12-5.43-8.9h1.93l4.56,7.51h-1l4.58-7.51H1605l-5.41,8.9.4-1.12v4.82Z" transform="translate(-540.79 -662.97)"/><path class="cls-3" d="M1606.62,701.57V689h4.93a6.94,6.94,0,0,1,2.83.53,4,4,0,0,1,1.8,1.51,4.29,4.29,0,0,1,.63,2.36,4.22,4.22,0,0,1-.63,2.34,4,4,0,0,1-1.8,1.51,6.94,6.94,0,0,1-2.83.52h-3.93l.81-.83v4.66Zm1.81-4.48-.81-.88h3.87a4,4,0,0,0,2.62-.75,2.56,2.56,0,0,0,.9-2.09,2.54,2.54,0,0,0-.9-2.09,4,4,0,0,0-2.62-.74h-3.87l.81-.9Zm6.63,4.48-3.21-4.57h1.93l3.25,4.57Z" transform="translate(-540.79 -662.97)"/><path class="cls-3" d="M1625.43,701.72a7.14,7.14,0,0,1-2.68-.49,6.41,6.41,0,0,1-2.14-1.36,6.14,6.14,0,0,1-1.4-2,6.34,6.34,0,0,1,3.53-8.51,7.11,7.11,0,0,1,2.69-.49,7.19,7.19,0,0,1,2.66.48,6.1,6.1,0,0,1,2.12,1.35,6,6,0,0,1,1.41,2,6.88,6.88,0,0,1,0,5.15,6,6,0,0,1-1.41,2,6.4,6.4,0,0,1-2.12,1.35A7.19,7.19,0,0,1,1625.43,701.72Zm0-1.6a5,5,0,0,0,1.94-.37,4.47,4.47,0,0,0,1.55-1,4.76,4.76,0,0,0,1-1.54,5.19,5.19,0,0,0,0-3.85,4.76,4.76,0,0,0-1-1.54,4.65,4.65,0,0,0-1.55-1,5.46,5.46,0,0,0-3.9,0,4.79,4.79,0,0,0-1.56,1,4.63,4.63,0,0,0-1,1.54,5.19,5.19,0,0,0,0,3.85,4.59,4.59,0,0,0,2.59,2.55A5,5,0,0,0,1625.43,700.12Z" transform="translate(-540.79 -662.97)"/><path class="cls-3" d="M1638.55,701.72a8.76,8.76,0,0,1-2.76-.44,5.72,5.72,0,0,1-2.07-1.15l.67-1.4a5.68,5.68,0,0,0,1.84,1,6.53,6.53,0,0,0,2.32.42,5.54,5.54,0,0,0,1.79-.25,2.07,2.07,0,0,0,1-.7,1.6,1.6,0,0,0,.33-1,1.36,1.36,0,0,0-.42-1,3.26,3.26,0,0,0-1.1-.64,12.69,12.69,0,0,0-1.49-.42c-.54-.12-1.09-.26-1.63-.43a6.74,6.74,0,0,1-1.5-.62,3.11,3.11,0,0,1-1.09-1,3,3,0,0,1-.41-1.65,3.3,3.3,0,0,1,.51-1.79,3.52,3.52,0,0,1,1.59-1.32,6.51,6.51,0,0,1,2.73-.49,8.54,8.54,0,0,1,2.18.29,5.81,5.81,0,0,1,1.87.83l-.59,1.43a6,6,0,0,0-1.71-.78,6.88,6.88,0,0,0-1.75-.24,4.84,4.84,0,0,0-1.75.27,2.11,2.11,0,0,0-1,.72,1.73,1.73,0,0,0-.32,1,1.36,1.36,0,0,0,.43,1.06,3.15,3.15,0,0,0,1.1.63,12.51,12.51,0,0,0,1.48.42c.54.13,1.09.27,1.63.43a6.29,6.29,0,0,1,1.5.61,3,3,0,0,1,1.09,1,2.85,2.85,0,0,1,.42,1.61,3.25,3.25,0,0,1-.53,1.78,3.63,3.63,0,0,1-1.61,1.31A6.66,6.66,0,0,1,1638.55,701.72Z" transform="translate(-540.79 -662.97)"/><path class="cls-3" d="M1648.39,701.57v-11h-4.32V689h10.43v1.57h-4.32v11Z" transform="translate(-540.79 -662.97)"/><path class="cls-3" d="M1658.27,700h7.36v1.56h-9.16V689h8.91v1.57h-7.11Zm-.16-5.6h6.49v1.53h-6.49Z" transform="translate(-540.79 -662.97)"/><path class="cls-3" d="M1668.55,701.57V689H1670l8.34,10.35h-.77V689h1.8v12.6h-1.48l-8.34-10.35h.77v10.35Z" transform="translate(-540.79 -662.97)"/><path class="cls-3" d="M1588.78,731.72a7.19,7.19,0,0,1-2.66-.48,6.26,6.26,0,0,1-3.51-3.39,6.88,6.88,0,0,1,0-5.15,6.32,6.32,0,0,1,1.41-2,6.1,6.1,0,0,1,2.12-1.35,7.62,7.62,0,0,1,5.35,0,5.55,5.55,0,0,1,2.1,1.47l-1.17,1.13a4.77,4.77,0,0,0-1.62-1.12,5,5,0,0,0-1.93-.37,5.36,5.36,0,0,0-2,.36,4.76,4.76,0,0,0-1.57,1,4.46,4.46,0,0,0-1,1.54,4.92,4.92,0,0,0-.37,1.93,5,5,0,0,0,.37,1.94,4.57,4.57,0,0,0,2.61,2.54,5.35,5.35,0,0,0,3.91,0,4.59,4.59,0,0,0,1.62-1.15l1.17,1.14a5.67,5.67,0,0,1-2.1,1.47A7,7,0,0,1,1588.78,731.72Z" transform="translate(-540.79 -662.97)"/><path class="cls-3" d="M1596.17,731.57V719h1.8v11h6.83v1.56Z" transform="translate(-540.79 -662.97)"/><path class="cls-3" d="M1616,731.72a5.35,5.35,0,0,1-2.87-.74,4.7,4.7,0,0,1-1.81-2.13,8.45,8.45,0,0,1-.62-3.41,7.79,7.79,0,0,1,.76-3.62,5.18,5.18,0,0,1,2.1-2.24,6.33,6.33,0,0,1,3.11-.75,8,8,0,0,1,1.72.18,4.38,4.38,0,0,1,1.41.56l-.68,1.4a3.05,3.05,0,0,0-1.11-.47,6.94,6.94,0,0,0-1.31-.12,4,4,0,0,0-3.06,1.19,5,5,0,0,0-1.14,3.56c0,.25,0,.55,0,.9a4.54,4.54,0,0,0,.18,1l-.62-.62a3.48,3.48,0,0,1,.86-1.39,3.73,3.73,0,0,1,1.41-.85,5.61,5.61,0,0,1,1.77-.28,5.16,5.16,0,0,1,2.24.47,3.55,3.55,0,0,1,2.09,3.35,3.73,3.73,0,0,1-.6,2.11,3.84,3.84,0,0,1-1.6,1.38A5.08,5.08,0,0,1,1616,731.72Zm-.07-1.46a3.19,3.19,0,0,0,1.45-.31,2.46,2.46,0,0,0,1-.85,2.32,2.32,0,0,0,.36-1.29A2.22,2.22,0,0,0,1618,726a3.15,3.15,0,0,0-2.11-.66,3.31,3.31,0,0,0-1.52.33,2.56,2.56,0,0,0-1,.87,2.26,2.26,0,0,0,0,2.45,2.46,2.46,0,0,0,1,.89A3.52,3.52,0,0,0,1615.93,730.26Z" transform="translate(-540.79 -662.97)"/><path class="cls-3" d="M1625.68,731.72a8.12,8.12,0,0,1-2.59-.42,5.68,5.68,0,0,1-2-1.11l.83-1.42a4.82,4.82,0,0,0,1.64,1,6.13,6.13,0,0,0,2.16.38,3.52,3.52,0,0,0,2.19-.61,2.09,2.09,0,0,0,0-3.22,3.79,3.79,0,0,0-2.37-.6h-1v-1.26l3.75-4.61.25.72h-6.91V719H1630v1.23l-3.73,4.59-.94-.56h.6a5,5,0,0,1,3.43,1,3.36,3.36,0,0,1,1.15,2.62,3.75,3.75,0,0,1-.53,1.94,3.57,3.57,0,0,1-1.57,1.39A6,6,0,0,1,1625.68,731.72Z" transform="translate(-540.79 -662.97)"/><path class="cls-3" d="M1635.9,731.72a8.12,8.12,0,0,1-2.59-.42,5.68,5.68,0,0,1-2-1.11l.83-1.42a4.82,4.82,0,0,0,1.64,1,6.13,6.13,0,0,0,2.16.38,3.52,3.52,0,0,0,2.19-.61,2.07,2.07,0,0,0,0-3.22,3.79,3.79,0,0,0-2.37-.6h-1v-1.26l3.75-4.61.25.72h-6.91V719h8.33v1.23l-3.73,4.59-.94-.56h.6a5,5,0,0,1,3.43,1,3.36,3.36,0,0,1,1.15,2.62,3.83,3.83,0,0,1-.52,1.94,3.6,3.6,0,0,1-1.58,1.39A6,6,0,0,1,1635.9,731.72Z" transform="translate(-540.79 -662.97)"/><path class="cls-3" d="M1648.23,731.57V719h1.48l5.66,9.53h-.79l5.59-9.53h1.47l0,12.6h-1.73l0-9.88h.42l-5,8.35h-.83l-5-8.35h.45v9.88Z" transform="translate(-540.79 -662.97)"/><path class="cls-3" d="M1671.14,731.72a7.08,7.08,0,0,1-2.67-.49,6.31,6.31,0,0,1-3.55-3.4,6.44,6.44,0,0,1,1.41-7.16,6.35,6.35,0,0,1,2.13-1.35,7.06,7.06,0,0,1,2.68-.49,7.19,7.19,0,0,1,2.66.48,6.23,6.23,0,0,1,2.13,1.35,6.17,6.17,0,0,1,1.41,2,7,7,0,0,1,0,5.15,6.17,6.17,0,0,1-1.41,2,6.55,6.55,0,0,1-2.13,1.35A7.19,7.19,0,0,1,1671.14,731.72Zm0-1.6a4.93,4.93,0,0,0,1.94-.37,4.38,4.38,0,0,0,1.55-1,4.79,4.79,0,0,0,1-1.54,5.19,5.19,0,0,0,0-3.85,4.79,4.79,0,0,0-1-1.54,4.55,4.55,0,0,0-1.55-1,5.43,5.43,0,0,0-3.89,0,4.59,4.59,0,0,0-1.56,1,4.66,4.66,0,0,0-1,1.54,5.19,5.19,0,0,0,0,3.85,4.66,4.66,0,0,0,1,1.54,4.42,4.42,0,0,0,1.56,1A5,5,0,0,0,1671.14,730.12Z" transform="translate(-540.79 -662.97)"/><path class="cls-3" d="M1254,701.57V689h1.48l8.35,10.35h-.78V689h1.8v12.6h-1.47L1255,691.22h.77v10.35Z" transform="translate(-540.79 -662.97)"/><path class="cls-3" d="M1271.7,701.57v-4.82l.41,1.12-5.43-8.9h1.93l4.56,7.51h-1l4.58-7.51h1.78l-5.41,8.9.4-1.12v4.82Z" transform="translate(-540.79 -662.97)"/><path class="cls-3" d="M1280.1,701.57V689H1285a6.91,6.91,0,0,1,2.83.53,4,4,0,0,1,1.8,1.51,4.29,4.29,0,0,1,.63,2.36,4.22,4.22,0,0,1-.63,2.34,4,4,0,0,1-1.8,1.51,6.91,6.91,0,0,1-2.83.52h-3.93l.81-.83v4.66Zm1.8-4.48-.81-.88H1285a4,4,0,0,0,2.63-.75,2.59,2.59,0,0,0,.89-2.09,2.56,2.56,0,0,0-.89-2.09,4.06,4.06,0,0,0-2.63-.74h-3.87l.81-.9Zm6.63,4.48-3.2-4.57h1.92l3.25,4.57Z" transform="translate(-540.79 -662.97)"/><path class="cls-3" d="M1298.9,701.72a7.17,7.17,0,0,1-2.68-.49,6.49,6.49,0,0,1-3.54-8.51,6.47,6.47,0,0,1,1.41-2.05,6.4,6.4,0,0,1,2.12-1.35,7.62,7.62,0,0,1,5.35,0,6.23,6.23,0,0,1,2.13,1.35,6.14,6.14,0,0,1,1.4,2,6.88,6.88,0,0,1,0,5.15,6.14,6.14,0,0,1-1.4,2,6.55,6.55,0,0,1-2.13,1.35A7.19,7.19,0,0,1,1298.9,701.72Zm0-1.6a5,5,0,0,0,1.94-.37,4.47,4.47,0,0,0,1.55-1,4.79,4.79,0,0,0,1-1.54,5.19,5.19,0,0,0,0-3.85,4.79,4.79,0,0,0-1-1.54,4.65,4.65,0,0,0-1.55-1,5.15,5.15,0,0,0-1.94-.36,5.22,5.22,0,0,0-2,.36,4.79,4.79,0,0,0-1.56,1,4.63,4.63,0,0,0-1,1.54,5.19,5.19,0,0,0,0,3.85,4.59,4.59,0,0,0,2.59,2.55A5,5,0,0,0,1298.9,700.12Z" transform="translate(-540.79 -662.97)"/><path class="cls-3" d="M1312,701.72a8.66,8.66,0,0,1-2.75-.44,5.77,5.77,0,0,1-2.08-1.15l.67-1.4a5.68,5.68,0,0,0,1.84,1,6.53,6.53,0,0,0,2.32.42,5.5,5.5,0,0,0,1.79-.25,2.15,2.15,0,0,0,1-.7,1.66,1.66,0,0,0,.32-1,1.36,1.36,0,0,0-.42-1,3.16,3.16,0,0,0-1.1-.64,12.69,12.69,0,0,0-1.49-.42c-.54-.12-1.08-.26-1.63-.43a7,7,0,0,1-1.5-.62,3.11,3.11,0,0,1-1.09-1,3.06,3.06,0,0,1-.41-1.65,3.3,3.3,0,0,1,.51-1.79,3.58,3.58,0,0,1,1.59-1.32,6.51,6.51,0,0,1,2.73-.49,8.54,8.54,0,0,1,2.18.29,5.87,5.87,0,0,1,1.88.83l-.6,1.43a6,6,0,0,0-1.71-.78,6.82,6.82,0,0,0-1.75-.24,4.84,4.84,0,0,0-1.75.27,2.11,2.11,0,0,0-1,.72,1.72,1.72,0,0,0-.31,1,1.39,1.39,0,0,0,.42,1.06,3.15,3.15,0,0,0,1.1.63,12.69,12.69,0,0,0,1.49.42c.54.13,1.08.27,1.63.43a6.38,6.38,0,0,1,1.49.61,3,3,0,0,1,1.09,1,2.85,2.85,0,0,1,.42,1.61,3.33,3.33,0,0,1-.52,1.78,3.66,3.66,0,0,1-1.62,1.31A6.63,6.63,0,0,1,1312,701.72Z" transform="translate(-540.79 -662.97)"/><path class="cls-3" d="M1321.87,701.57v-11h-4.33V689H1328v1.57h-4.33v11Z" transform="translate(-540.79 -662.97)"/><path class="cls-3" d="M1335.46,701.72a7.14,7.14,0,0,1-2.68-.49,6.37,6.37,0,0,1-2.13-1.36,6.17,6.17,0,0,1-1.41-2,6.44,6.44,0,0,1,1.41-7.16,6.4,6.4,0,0,1,2.12-1.35,7.62,7.62,0,0,1,5.35,0,6.23,6.23,0,0,1,2.13,1.35,6.14,6.14,0,0,1,1.4,2,6.88,6.88,0,0,1,0,5.15,6.14,6.14,0,0,1-1.4,2,6.55,6.55,0,0,1-2.13,1.35A7.19,7.19,0,0,1,1335.46,701.72Zm0-1.6a5,5,0,0,0,1.94-.37,4.47,4.47,0,0,0,1.55-1,4.6,4.6,0,0,0,1-1.54,5.19,5.19,0,0,0,0-3.85,4.62,4.62,0,0,0-2.57-2.56,5.15,5.15,0,0,0-1.94-.36,5.22,5.22,0,0,0-2,.36,4.79,4.79,0,0,0-1.56,1,4.63,4.63,0,0,0-1,1.54,5.19,5.19,0,0,0,0,3.85,4.59,4.59,0,0,0,2.59,2.55A5,5,0,0,0,1335.46,700.12Z" transform="translate(-540.79 -662.97)"/><path class="cls-3" d="M1344.91,701.57V689h1.8v11h6.83v1.56Z" transform="translate(-540.79 -662.97)"/><path class="cls-3" d="M1357.42,700h7.35v1.56h-9.16V689h8.91v1.57h-7.1Zm-.17-5.6h6.49v1.53h-6.49Z" transform="translate(-540.79 -662.97)"/><path class="cls-3" d="M1367.69,701.57V689h1.48l8.35,10.35h-.78V689h1.8v12.6h-1.47l-8.35-10.35h.77v10.35Z" transform="translate(-540.79 -662.97)"/><path class="cls-3" d="M1282.12,731.57V719h1.47l8.35,10.35h-.77V719h1.8v12.6h-1.48l-8.35-10.35h.78v10.35Z" transform="translate(-540.79 -662.97)"/><path class="cls-3" d="M1300.65,731.72a7.07,7.07,0,0,1-2.65-.45,3.84,3.84,0,0,1-1.73-1.29,3.23,3.23,0,0,1-.62-2,3.09,3.09,0,0,1,.59-1.9,3.61,3.61,0,0,1,1.7-1.19,9.38,9.38,0,0,1,5.42,0,3.57,3.57,0,0,1,1.72,1.2,3,3,0,0,1,.6,1.89,3.23,3.23,0,0,1-.62,2,3.82,3.82,0,0,1-1.74,1.29A7.25,7.25,0,0,1,1300.65,731.72Zm0-6.23a6.81,6.81,0,0,1-2.45-.39,3.38,3.38,0,0,1-1.55-1.11,2.86,2.86,0,0,1-.54-1.74,3,3,0,0,1,.56-1.83,3.63,3.63,0,0,1,1.6-1.18,6.45,6.45,0,0,1,2.38-.41,6.56,6.56,0,0,1,2.4.41,3.69,3.69,0,0,1,1.6,1.18,2.92,2.92,0,0,1,.58,1.83,2.86,2.86,0,0,1-.54,1.74,3.44,3.44,0,0,1-1.57,1.11A7,7,0,0,1,1300.65,725.49Zm0,4.77a4,4,0,0,0,2.37-.62,2,2,0,0,0,.86-1.68,1.91,1.91,0,0,0-.86-1.65,4.07,4.07,0,0,0-2.37-.6,4,4,0,0,0-2.35.6,1.92,1.92,0,0,0-.84,1.65,2,2,0,0,0,.84,1.68A4,4,0,0,0,1300.65,730.26Zm0-5.92a3.45,3.45,0,0,0,2.06-.54,1.83,1.83,0,0,0,0-3,3.51,3.51,0,0,0-2-.54,3.37,3.37,0,0,0-2,.54,1.86,1.86,0,0,0,0,3A3.35,3.35,0,0,0,1300.65,724.34Z" transform="translate(-540.79 -662.97)"/><path class="cls-3" d="M1312.49,731.72a4.79,4.79,0,0,1-2.64-.76,5.14,5.14,0,0,1-1.84-2.19,9.45,9.45,0,0,1,0-7,5.23,5.23,0,0,1,1.84-2.2,5,5,0,0,1,5.27,0,5,5,0,0,1,1.84,2.2,9.45,9.45,0,0,1,0,7,4.94,4.94,0,0,1-1.84,2.19A4.79,4.79,0,0,1,1312.49,731.72Zm0-1.6a2.9,2.9,0,0,0,1.74-.54,3.59,3.59,0,0,0,1.17-1.62,8.6,8.6,0,0,0,0-5.37,3.48,3.48,0,0,0-1.17-1.62,2.9,2.9,0,0,0-1.74-.54,3,3,0,0,0-1.75.54,3.5,3.5,0,0,0-1.18,1.62,8.79,8.79,0,0,0,0,5.37,3.6,3.6,0,0,0,1.18,1.62A3,3,0,0,0,1312.49,730.12Z" transform="translate(-540.79 -662.97)"/><path class="cls-3" d="M1325.24,731.57V719h5.66a5.48,5.48,0,0,1,3.35.88,2.8,2.8,0,0,1,1.17,2.38A3.06,3.06,0,0,1,1335,724a2.93,2.93,0,0,1-1.23,1.08,3.83,3.83,0,0,1-1.68.38l.33-.54a4.62,4.62,0,0,1,1.91.37,3,3,0,0,1,1.8,2.92,2.93,2.93,0,0,1-1.22,2.51,6,6,0,0,1-3.61.89Zm1.8-1.45h4.15a4.27,4.27,0,0,0,2.29-.51,1.74,1.74,0,0,0,.79-1.58,1.79,1.79,0,0,0-.79-1.61,4.37,4.37,0,0,0-2.29-.5h-4.31v-1.46h3.86a3.84,3.84,0,0,0,2.12-.5,1.88,1.88,0,0,0,0-3,3.75,3.75,0,0,0-2.12-.51H1327Z" transform="translate(-540.79 -662.97)"/><path class="cls-3" d="M1337,731.57l5.72-12.6h1.78l5.74,12.6h-1.9l-5.1-11.59h.72l-5.1,11.59Zm2.44-3.15.48-1.44H1347l.52,1.44Z" transform="translate(-540.79 -662.97)"/><path class="cls-3" d="M1423.69,701.57V689h1.48l8.35,10.35h-.78V689h1.81v12.6h-1.48l-8.35-10.35h.78v10.35Z" transform="translate(-540.79 -662.97)"/><path class="cls-3" d="M1441.38,701.57v-4.82l.41,1.12-5.42-8.9h1.92l4.57,7.51h-1l4.58-7.51h1.78l-5.4,8.9.39-1.12v4.82Z" transform="translate(-540.79 -662.97)"/><path class="cls-3" d="M1449.78,701.57V689h4.92a6.87,6.87,0,0,1,2.83.53,4,4,0,0,1,1.8,1.51,4.29,4.29,0,0,1,.63,2.36,4.22,4.22,0,0,1-.63,2.34,4,4,0,0,1-1.8,1.51,6.88,6.88,0,0,1-2.83.52h-3.93l.81-.83v4.66Zm1.8-4.48-.81-.88h3.88a4,4,0,0,0,2.62-.75,2.59,2.59,0,0,0,.89-2.09,2.56,2.56,0,0,0-.89-2.09,4.05,4.05,0,0,0-2.62-.74h-3.88l.81-.9Zm6.64,4.48L1455,697h1.93l3.24,4.57Z" transform="translate(-540.79 -662.97)"/><path class="cls-3" d="M1468.58,701.72a7.17,7.17,0,0,1-2.68-.49,6.34,6.34,0,0,1-3.54-3.4,6.44,6.44,0,0,1,1.41-7.16,6.35,6.35,0,0,1,2.13-1.35,7.06,7.06,0,0,1,2.68-.49,7.19,7.19,0,0,1,2.66.48,6.23,6.23,0,0,1,2.13,1.35,6.14,6.14,0,0,1,1.4,2,6.88,6.88,0,0,1,0,5.15,6.14,6.14,0,0,1-1.4,2,6.55,6.55,0,0,1-2.13,1.35A7.19,7.19,0,0,1,1468.58,701.72Zm0-1.6a5,5,0,0,0,1.94-.37,4.47,4.47,0,0,0,1.55-1,4.79,4.79,0,0,0,1-1.54,5.19,5.19,0,0,0,0-3.85,4.79,4.79,0,0,0-1-1.54,4.65,4.65,0,0,0-1.55-1,5.43,5.43,0,0,0-3.89,0,4.59,4.59,0,0,0-1.56,1,4.66,4.66,0,0,0-1,1.54,5.19,5.19,0,0,0,0,3.85,4.66,4.66,0,0,0,1,1.54,4.42,4.42,0,0,0,1.56,1A5,5,0,0,0,1468.58,700.12Z" transform="translate(-540.79 -662.97)"/><path class="cls-3" d="M1481.71,701.72a8.67,8.67,0,0,1-2.76-.44,5.77,5.77,0,0,1-2.08-1.15l.67-1.4a5.68,5.68,0,0,0,1.84,1,6.54,6.54,0,0,0,2.33.42,5.47,5.47,0,0,0,1.78-.25,2.1,2.1,0,0,0,1-.7,1.59,1.59,0,0,0,.32-1,1.36,1.36,0,0,0-.42-1,3.16,3.16,0,0,0-1.1-.64,12.69,12.69,0,0,0-1.49-.42c-.54-.12-1.08-.26-1.63-.43a6.66,6.66,0,0,1-1.49-.62,3.14,3.14,0,0,1-1.1-1,3.06,3.06,0,0,1-.41-1.65,3.3,3.3,0,0,1,.51-1.79,3.63,3.63,0,0,1,1.59-1.32,6.57,6.57,0,0,1,2.73-.49,8.54,8.54,0,0,1,2.18.29,5.87,5.87,0,0,1,1.88.83l-.6,1.43a6,6,0,0,0-1.71-.78,6.76,6.76,0,0,0-1.75-.24,4.84,4.84,0,0,0-1.75.27,2.16,2.16,0,0,0-1,.72,1.72,1.72,0,0,0-.31,1,1.39,1.39,0,0,0,.42,1.06,3.15,3.15,0,0,0,1.1.63,12.69,12.69,0,0,0,1.49.42c.54.13,1.08.27,1.63.43a6.21,6.21,0,0,1,1.49.61,3.06,3.06,0,0,1,1.1,1,2.94,2.94,0,0,1,.41,1.61,3.24,3.24,0,0,1-.52,1.78,3.66,3.66,0,0,1-1.62,1.31A6.61,6.61,0,0,1,1481.71,701.72Z" transform="translate(-540.79 -662.97)"/><path class="cls-3" d="M1491.55,701.57v-11h-4.33V689h10.44v1.57h-4.33v11Z" transform="translate(-540.79 -662.97)"/><path class="cls-3" d="M1501.43,700h7.35v1.56h-9.16V689h8.91v1.57h-7.1Zm-.17-5.6h6.49v1.53h-6.49Z" transform="translate(-540.79 -662.97)"/><path class="cls-3" d="M1511.7,701.57V689h1.48l8.35,10.35h-.78V689h1.8v12.6h-1.47l-8.35-10.35h.77v10.35Z" transform="translate(-540.79 -662.97)"/><path class="cls-3" d="M1450.51,731.72a7.19,7.19,0,0,1-2.66-.48,6.36,6.36,0,0,1-2.11-1.35,6.45,6.45,0,0,1-1.4-2,6.88,6.88,0,0,1,0-5.15,6.32,6.32,0,0,1,1.41-2,6.1,6.1,0,0,1,2.12-1.35,7.62,7.62,0,0,1,5.35,0,5.48,5.48,0,0,1,2.1,1.47l-1.17,1.13a4.77,4.77,0,0,0-1.62-1.12,5,5,0,0,0-1.93-.37,5.36,5.36,0,0,0-2,.36,4.76,4.76,0,0,0-1.57,1,4.46,4.46,0,0,0-1,1.54,4.92,4.92,0,0,0-.37,1.93,5,5,0,0,0,.37,1.94,4.57,4.57,0,0,0,2.61,2.54,5.35,5.35,0,0,0,3.91,0,4.59,4.59,0,0,0,1.62-1.15l1.17,1.14a5.59,5.59,0,0,1-2.1,1.47A7,7,0,0,1,1450.51,731.72Z" transform="translate(-540.79 -662.97)"/><path class="cls-3" d="M1460.68,731.57l-4.22-12.6h1.85l3.88,11.63h-.94l4-11.63h1.66l3.93,11.63h-.9l3.93-11.63h1.71l-4.22,12.6h-1.89l-3.68-10.78h.49l-3.69,10.78Z" transform="translate(-540.79 -662.97)"/><path class="cls-3" d="M1486,718.83a5.37,5.37,0,0,1,2.89.74,4.54,4.54,0,0,1,1.79,2.13,8.45,8.45,0,0,1,.62,3.41,7.91,7.91,0,0,1-.76,3.62,5.19,5.19,0,0,1-2.09,2.23,6.27,6.27,0,0,1-3.12.76,7.84,7.84,0,0,1-1.7-.18,4.65,4.65,0,0,1-1.44-.56l.69-1.4a3.43,3.43,0,0,0,1.13.45,6,6,0,0,0,1.3.14,4,4,0,0,0,3-1.2,5,5,0,0,0,1.13-3.55q0-.37,0-.9a7.12,7.12,0,0,0-.16-1l.59.61a3.21,3.21,0,0,1-.84,1.4,3.62,3.62,0,0,1-1.4.84,5.48,5.48,0,0,1-1.8.28,5.09,5.09,0,0,1-2.22-.46,3.81,3.81,0,0,1-1.53-1.33,3.62,3.62,0,0,1-.56-2,3.79,3.79,0,0,1,.59-2.12,3.83,3.83,0,0,1,1.6-1.37A5.14,5.14,0,0,1,1486,718.83Zm.07,1.46a3.31,3.31,0,0,0-1.44.3,2.5,2.5,0,0,0-1,.85,2.36,2.36,0,0,0-.35,1.3,2.2,2.2,0,0,0,.78,1.77,3.1,3.1,0,0,0,2.09.66,3.34,3.34,0,0,0,1.52-.33,2.62,2.62,0,0,0,1-.88,2.29,2.29,0,0,0,0-2.45,2.58,2.58,0,0,0-1-.88A3.61,3.61,0,0,0,1486.06,720.29Z" transform="translate(-540.79 -662.97)"/><path class="cls-3" d="M1497.11,718.83a5.35,5.35,0,0,1,2.89.74,4.62,4.62,0,0,1,1.8,2.13,8.45,8.45,0,0,1,.61,3.41,7.79,7.79,0,0,1-.76,3.62,5.19,5.19,0,0,1-2.09,2.23,6.27,6.27,0,0,1-3.12.76,7.91,7.91,0,0,1-1.7-.18,4.5,4.5,0,0,1-1.43-.56l.68-1.4a3.52,3.52,0,0,0,1.13.45,6.09,6.09,0,0,0,1.3.14,4,4,0,0,0,3-1.2,5,5,0,0,0,1.14-3.55c0-.25,0-.55,0-.9a6,6,0,0,0-.16-1l.59.61a3.19,3.19,0,0,1-.83,1.4,3.66,3.66,0,0,1-1.41.84,5.46,5.46,0,0,1-1.79.28,5.09,5.09,0,0,1-2.22-.46,3.75,3.75,0,0,1-1.53-1.33,3.54,3.54,0,0,1-.56-2,3.78,3.78,0,0,1,.58-2.12,3.86,3.86,0,0,1,1.61-1.37A5.09,5.09,0,0,1,1497.11,718.83Zm.07,1.46a3.31,3.31,0,0,0-1.44.3,2.4,2.4,0,0,0-1,.85,2.28,2.28,0,0,0-.35,1.3,2.19,2.19,0,0,0,.77,1.77,3.12,3.12,0,0,0,2.09.66,3.38,3.38,0,0,0,1.53-.33,2.59,2.59,0,0,0,1-.88,2.29,2.29,0,0,0,0-2.45,2.51,2.51,0,0,0-1-.88A3.58,3.58,0,0,0,1497.18,720.29Z" transform="translate(-540.79 -662.97)"/><path class="cls-3" d="M567.75,1195.4h-8.62v12.49h8.62l2.65-4.27Zm-1.09,11.45h-4.74v-10.41h4.74l2.22,6.85Z" transform="translate(-540.79 -662.97)"/><path class="cls-3" d="M573.06,1208.63H559.31v4.47h13.75a2.24,2.24,0,1,0,0-4.47" transform="translate(-540.79 -662.97)"/><polygon class="cls-3" points="27.99 544.92 45.62 523.57 46.14 523.55 32.46 544.92 27.99 544.92"/><rect class="cls-3" x="582.94" y="1190.02" width="0.83" height="20.48" transform="translate(-1000.78 -294.8) rotate(-25.51)"/><polygon class="cls-3" points="48.77 547.41 46.63 543.03 47.98 542.37 47.76 541.91 42.6 544.43 45.53 550.43 50.7 547.91 50.13 546.75 48.77 547.41"/><path class="cls-3" d="M576.61,831.74a1.12,1.12,0,1,1,1.13-1.12,1.12,1.12,0,0,1-1.13,1.12m0-1.62a.5.5,0,1,0,.51.5A.5.5,0,0,0,576.61,830.12Z" transform="translate(-540.79 -662.97)"/><path class="cls-3" d="M574.18,832.61a1.12,1.12,0,1,1,1.12-1.12,1.13,1.13,0,0,1-1.12,1.12m0-1.62a.5.5,0,0,0-.5.5.5.5,0,0,0,1,0A.5.5,0,0,0,574.18,831Z" transform="translate(-540.79 -662.97)"/><path class="cls-3" d="M564.12,836.06l-.12-.61a91.18,91.18,0,0,0,13.65-3.88c6.31-2.45,12-5.18,12-5.21l.28.56c-.06,0-5.73,2.77-12.07,5.23a91.82,91.82,0,0,1-13.75,3.91" transform="translate(-540.79 -662.97)"/><path class="cls-3" d="M585.59,838.08h-6.17v-1h-2.24V834.9a1.12,1.12,0,1,0-1.69-1,1.1,1.1,0,0,0,.53.94v2.21h-2.16v1h-6.73a13,13,0,0,0-1.49,5.76,32.14,32.14,0,0,0,1.49,7.75h18.46a32,32,0,0,0,1.5-7.75,12.93,12.93,0,0,0-1.5-5.76m-9-4.65a.51.51,0,1,1-.5.51A.51.51,0,0,1,576.61,833.43Zm4.15,13.49h-8.69v-6.21h8.69Zm-12.48-6.21h3.17v6.21h-3.17Zm16.28,6.21h-3.18v-6.21h3.18Z" transform="translate(-540.79 -662.97)"/><rect class="cls-3" x="29.6" y="290.79" width="0.35" height="12.52"/><polygon class="cls-3" points="51.55 286.96 50.34 286.96 20.01 286.96 20.01 292.3 22.66 292.3 48.12 292.3 51.55 304.04 51.55 286.96"/><path class="cls-3" d="M578.88,955.91l2.8,8.74,5.65-1.64v-7.1Zm7,6.14-3.67,1.07-1.82-5.68h5.49Z" transform="translate(-540.79 -662.97)"/><path class="cls-3" d="M572,965.88a1.41,1.41,0,1,1-1.41-1.41,1.41,1.41,0,0,1,1.41,1.41" transform="translate(-540.79 -662.97)"/><path class="cls-3" d="M567.45,964.9a3.4,3.4,0,0,1,2.29.88,3.27,3.27,0,0,1,.8-.27,4.22,4.22,0,1,0-4,6.11,3.43,3.43,0,0,1,1-6.72" transform="translate(-540.79 -662.97)"/><path class="cls-3" d="M574.38,963.2a4.21,4.21,0,0,0-3.89,2.58,4.06,4.06,0,0,1,.8.11,3.43,3.43,0,1,1,3.36,5.73,4.21,4.21,0,0,0-.27-8.42" transform="translate(-540.79 -662.97)"/><rect class="cls-3" x="25.92" y="306.83" width="7.87" height="2.37"/><rect class="cls-3" x="25.92" y="309.57" width="7.87" height="1.04"/><polygon class="cls-3" points="29.43 225.23 28.32 221.33 27.63 221.33 27.18 221.33 26.14 225.09 24.36 225.01 24.36 224.19 19.76 224.19 19.76 232.77 24.36 232.77 24.36 227.83 25.63 227.83 25.63 250.72 29.9 250.72 29.9 229.97 31.6 229.97 31.6 227.83 40.51 227.84 40.51 233.67 41.03 233.67 41.03 227.84 49.04 227.84 49.04 226.07 29.43 225.23"/><rect class="cls-3" x="37.82" y="246.77" width="11.32" height="4.04"/><rect class="cls-3" x="37.82" y="240.94" width="4.52" height="4.94"/><rect class="cls-3" x="37.35" y="233.94" width="6.98" height="2.1"/><rect class="cls-3" x="37.35" y="236.37" width="6.98" height="0.92"/><path class="cls-3" d="M592.19,1263.16l-1.81.44.21-1.14,1.6.39v-.37l-1.53-.37.15-.85,1.38-.34v-.3l-1.32.32.18-1,1.14.28v-.3l-1.09-.27.16-.89.93-.23v-.25l-.88.21.15-.81.73.18v-.26l-.69-.17.17-.93.52-.13v-.21l-.48.12.12-.67.36.08v-.2l-.32-.08.14-.78.18,0v-.18l-.15,0,.1-.55h.05v-.17h0l0-.1v-1.54l-.35,1.92-.08,0-.42-1,.69-.86h.16V1252l-1.22,0h0l-3.36.12h0l-.55.17h0v.26h-.14v1.46H587v.11h-.23v.37h.12c0,.63.16,4.92-.47,6.79-.07.23-.21.51-.41.55a.49.49,0,0,1-.28-.07h.15V1261h-.45v-.23h.27v-3h-.27v-.55h0l-1.12-.36h0l-6.91-.25h0l-2.56-.1-.63-3.47-1.89-4.64h-.54l-1.9,4.64-.63,3.48-2.46.09h0l-6.92.25h0l-1.12.36v.13l1,.64h0l.87.3,0,0h0l.77.25h0l7.07,2.37-2.91,16h.57l.26-1.38,5.66-1.38,5.69,1.38L578,1277h.58l-2.91-16,7.18-2.4h0l.77-.25h0l0,0,.87-.3h0l.8-.51v.29H585v3h.28v.23h-.46v.76h.48a1.06,1.06,0,0,0,.69.35h.1c.27-.05.49-.3.63-.74.65-1.93.51-6.18.48-6.88h.14v-.37h-.22v-.11h.13v-1.46h-.13v-.14l.38.25h0l.43.14h0l.38.12h0l3.49,1.17-2.21,12.19.27.05.44-2.4,1.87-.46Zm-8.87-6.05-.2.51-.42-.53Zm-6-.22,0,.14-.75-.17Zm-.14.35-.44,1.11-1.17-1.47Zm-2.6,1-1.91-.46,1.75-.43Zm-.54-3-1.47-.36,1.35-.32Zm-3.61-2,1.63-4,1.62,4,.19,1.09-1.8.44-1.84-.44Zm-.24,1.3,1.38.34-1.51.36Zm-.17,1,2-.5,2,.49.28,1.53-2.31.57-2.32-.56Zm-.33,1.81,1.75.43-1.91.47Zm-.22,1.21,2.59-.63,2.58.63.29,1.63-2.87.7-2.89-.7Zm2.59,2.69,3.21.78.29,1.6-3.5.86-3.51-.86.29-1.59Zm-3.15.41.2-1.13,2.21.54Zm3.89-.59,2.2-.54.2,1.13Zm-5.11-4.23-.74.17-.06-.14Zm1,0-1.16,1.47-.45-1.11Zm-7.14.21-.41.53-.21-.51Zm-1.67.76h0l-.72-.46.82-.25.86,0,.23.59-.34.44Zm1.4.47-.46-.15.29-.38.21.53Zm.13,0-.24-.59.5-.63,5-.18.08.18Zm.29.16,5.16-1.17.51,1.27-1.13,1.42Zm4.77,1.6,1-1.26.74,1.84Zm2,.67-.86-2.14,1.41-1.78h.24l-.72,4Zm0,3.33,2.72.66-3,.72Zm-.77,4.25,3.29.8-3.59.88Zm-1.21,6.65.37-2,3.9,1Zm11.12,0-4.28-1,3.92-1Zm-.47-2.6-5.1,1.24-5.07-1.23.33-1.83,4.77-1.17,4.74,1.15Zm-.43-2.38-3.57-.87,3.27-.8Zm-.39-2.17-4.26,1-4.27-1,.35-1.93h0l3.91-1,3.9,1Zm-.44-2.37-3-.72,2.7-.66Zm-.27-4.65-.72-4h.35l1.4,1.78-.86,2.14Zm.46-.15.73-1.84,1,1.26Zm2-.66-1.12-1.42.5-1.27,5.17,1.17Zm-.53-2.9.07-.18,5,.18.5.63-.23.59Zm5.49,1.24h0l.21-.53.29.38Zm1.41-.46h0l-.84.29-.35-.44.24-.59.85,0,.82.25Zm6.92-5-.22-.54.78-.18Zm.1-.73-.36.08,0-.07Zm-3,.11-.2.26-.1-.25Zm-.81.37h0l-.35-.22.4-.12.42,0,.11.29-.17.21Zm.68.23-.23-.07.15-.19.1.26Zm.06,0-.11-.29.24-.3,2.45-.09,0,.09Zm.14.08,2.52-.57.25.62-.55.69Zm2.33.78.48-.62.36.9Z" transform="translate(-540.79 -662.97)"/><path class="cls-3" d="M565.6,1155.12H569v-3.18H571v3.18h.71v-3.18h1.93v3.18H577v-3.18h3.24v3.18h3.42v-3.18H585v-6.38h1v-1h-7.21l4.56-6-.19-.18-7.3,6.22h-.08l-3.24-17.76h0v-.27H570v.25h0l-3.24,17.78H564v7.4h1.58Zm6.06-28.18h.52l.19,1h-.71Zm0,1.42h.78l.19,1h-1Zm0,1.42h1l.19,1h-1.23Zm0,1.43H573l.24,1.28h-1.54Zm0,1.71h1.61l.26,1.42h-1.87Zm0,1.85h2l.29,1.56h-2.24Zm0,2H574l.32,1.71h-2.63Zm0,2.14h2.7l.34,1.85h-3Zm0,2.28h3.12l.36,2h-3.48Zm0,2.42h3.56l.17.94h-3.73Zm-1.23-16.66H571v1h-.71Zm-.26,1.42H571v1h-1Zm-.26,1.42h1v1h-1.23Zm-.26,1.43H571v1.28h-1.54Zm-.31,1.71H571v1.42h-1.87Zm-.34,1.85h2v1.56h-2.24Zm-.36,2H571v1.71h-2.63Zm-.39,2.14H571v1.85h-3Zm-.42,2.28H571v2h-3.48Zm-.44,2.42H571v.94h-3.73Z" transform="translate(-540.79 -662.97)"/><polygon class="cls-3" points="44.39 410.57 44.39 411.46 45.45 411.46 45.45 431.26 25.34 431.26 25.34 411.46 26.85 411.46 26.85 410.57 24.51 410.57 24.51 432.15 46.29 432.15 46.29 410.57 44.39 410.57"/><polygon class="cls-3" points="41 410.57 39.21 410.57 39.21 408.74 35.64 408.74 35.64 403.53 35.08 403.53 35.08 408.74 31.55 408.74 31.55 410.57 29.27 410.57 29.27 411.46 41 411.46 41 410.57"/><path class="cls-3" d="M583.63,1081.93v0a.59.59,0,0,0,0-.14,1.38,1.38,0,0,0-.47-.86,1.85,1.85,0,0,0-1.21-.37H579.5a1.92,1.92,0,0,0-1.21.37,1.34,1.34,0,0,0-.46.85.39.39,0,0,0,0,.15v0a1.16,1.16,0,0,0,0,.13h0v4.31a.57.57,0,0,0,.56.57.57.57,0,0,0,.56-.57v-3.79h.14v10.47a.76.76,0,0,0,.73.77.75.75,0,0,0,.72-.77v-5.49h.26v5.49a.73.73,0,1,0,1.45,0v-6.9h0v-3.56h.13v3.79a.57.57,0,0,0,.56.57h.15a.57.57,0,0,0,.56-.57v-4.31h0v-.14" transform="translate(-540.79 -662.97)"/><path class="cls-3" d="M580.73,1080.14a1.33,1.33,0,1,0-1.26-1.33,1.29,1.29,0,0,0,1.26,1.33" transform="translate(-540.79 -662.97)"/><path class="cls-3" d="M574.7,1081.9a.68.68,0,0,0,0-.14,1.36,1.36,0,0,0-.46-.86,1.86,1.86,0,0,0-1.21-.37h-2.43a2,2,0,0,0-1.22.37,1.34,1.34,0,0,0-.46.86.59.59,0,0,0,0,.14v.17h0v4.31a.56.56,0,1,0,1.12,0v-3.79h.15v3.84l-1.12,2h1.12v4.58a.72.72,0,1,0,1.44,0v-4.58h.27v4.58a.72.72,0,1,0,1.44,0v-4.58h1.1l-1.1-2v-3.88h.14v3.79a.57.57,0,0,0,.56.57h.14a.57.57,0,0,0,.56-.57v-4.31h0v-.17Z" transform="translate(-540.79 -662.97)"/><path class="cls-3" d="M571.81,1080.14a1.33,1.33,0,1,0-1.26-1.33,1.29,1.29,0,0,0,1.26,1.33" transform="translate(-540.79 -662.97)"/><polygon class="cls-3" points="28.03 408.03 29.43 409.63 29.43 409.66 28.7 409.66 28.7 412.29 27.36 412.29 27.36 409.66 26.63 409.66 26.63 409.63 28.03 408.03"/><polygon class="cls-3" points="42.7 412.25 41.3 410.64 41.3 410.61 42.03 410.61 42.03 407.98 43.37 407.98 43.37 410.61 44.1 410.61 44.1 410.64 42.7 412.25"/><path class="cls-3" d="M579,1023v0a2.77,2.77,0,0,1-2.64-2.77,2.38,2.38,0,0,1,0-.39h-3.17v-4.66H576v-1.9h-8.31v-2h-2.74l-1.42,8.56h-3.85a28.71,28.71,0,0,0,.78,4.06,19.24,19.24,0,0,0,2.07,4.39h29.09V1023Z" transform="translate(-540.79 -662.97)"/><rect class="cls-3" x="40.1" y="357.15" width="5.21" height="2.29"/><rect class="cls-3" x="40.1" y="354.55" width="5.21" height="2.29"/><rect class="cls-3" x="45.59" y="357.15" width="5.21" height="2.29"/><rect class="cls-3" x="45.59" y="354.55" width="5.21" height="2.29"/><path class="cls-3" d="M587.77,793.5h3.3L583.72,779a4.81,4.81,0,0,0-.92-8v-2.53h2.85l1.39-2.38H563.81l1.39,2.38h2.64V771a4.82,4.82,0,0,0-1,8l-7.36,14.48h3.31l3.65-6.18h6.85v6.18h3.9v-6.18h6.88Zm-5-18.67v-3a4.1,4.1,0,0,1,.58,6.49l-.59-1.16h0v-2.37Zm-13.36-6.31h11.77v2a4.35,4.35,0,0,0-.63,0,4.84,4.84,0,0,0-4.81,4.32h-.93a4.84,4.84,0,0,0-4.81-4.32,3.81,3.81,0,0,0-.59,0Zm7.06,6.31a4.12,4.12,0,0,1,4.08-3.61,4.34,4.34,0,0,1,.63,0v3.56Zm2.88,4.45a4.16,4.16,0,0,1-2.14-1.53v-.55h.92Zm-6-1.5a4.11,4.11,0,0,1-2.11,1.5l1.22-2.08h.89Zm-3.9-6.51a3.7,3.7,0,0,1,.59,0,4.12,4.12,0,0,1,4.08,3.61h-4.67Zm-3.54,4.07a4.13,4.13,0,0,1,1.94-3.49v3h0v2.37l-.59,1.16A4.11,4.11,0,0,1,565.9,775.34ZM567.25,786l3.48-5.9a4.89,4.89,0,0,0,2.61-1.26V786Zm10,0v-7.19a4.81,4.81,0,0,0,2.64,1.29l3.48,5.9Z" transform="translate(-540.79 -662.97)"/><path class="cls-3" d="M637,701.57V689h1.48l8.35,10.35H646V689h1.8v12.6h-1.47L638,691.22h.77v10.35Z" transform="translate(-540.79 -662.97)"/><path class="cls-3" d="M654.65,701.57v-4.82l.41,1.11L649.63,689h1.93l4.56,7.51h-1l4.58-7.51h1.78L656,697.86l.4-1.11v4.82Z" transform="translate(-540.79 -662.97)"/><path class="cls-3" d="M663.05,701.57V689H668a7.08,7.08,0,0,1,2.83.52,4,4,0,0,1,1.8,1.52,4.28,4.28,0,0,1,.63,2.35,4.23,4.23,0,0,1-.63,2.35,4,4,0,0,1-1.8,1.51,7.08,7.08,0,0,1-2.83.52H664l.81-.83v4.66Zm1.8-4.48-.81-.88h3.87a4,4,0,0,0,2.63-.75,2.59,2.59,0,0,0,.89-2.1,2.55,2.55,0,0,0-.89-2.08,4,4,0,0,0-2.63-.74H664l.81-.9Zm6.63,4.48L668.27,697h1.93l3.25,4.57Z" transform="translate(-540.79 -662.97)"/><path class="cls-3" d="M681.85,701.72a7.14,7.14,0,0,1-2.68-.49,6.37,6.37,0,0,1-2.13-1.36,6.17,6.17,0,0,1-1.41-2,6.44,6.44,0,0,1,1.41-7.16,6.59,6.59,0,0,1,2.12-1.36,7.35,7.35,0,0,1,2.69-.48,7.19,7.19,0,0,1,2.66.48,6.23,6.23,0,0,1,2.13,1.35,6.14,6.14,0,0,1,1.4,2,6.88,6.88,0,0,1,0,5.15,6.14,6.14,0,0,1-1.4,2,6.55,6.55,0,0,1-2.13,1.35A7.19,7.19,0,0,1,681.85,701.72Zm0-1.61a5.15,5.15,0,0,0,1.94-.36,4.47,4.47,0,0,0,1.55-1,4.6,4.6,0,0,0,1-1.54,5.19,5.19,0,0,0,0-3.85,4.62,4.62,0,0,0-2.57-2.56,5.15,5.15,0,0,0-1.94-.36,5.22,5.22,0,0,0-2,.36,4.79,4.79,0,0,0-1.56,1,4.63,4.63,0,0,0-1,1.54,5.19,5.19,0,0,0,0,3.85,4.59,4.59,0,0,0,2.59,2.55A5.22,5.22,0,0,0,681.85,700.11Z" transform="translate(-540.79 -662.97)"/><path class="cls-3" d="M695,701.72a8.76,8.76,0,0,1-2.76-.44,5.81,5.81,0,0,1-2.07-1.15l.67-1.4a5.68,5.68,0,0,0,1.84,1,6.53,6.53,0,0,0,2.32.42,5.5,5.5,0,0,0,1.79-.25,2.15,2.15,0,0,0,1-.7,1.68,1.68,0,0,0,.32-1,1.36,1.36,0,0,0-.42-1,3.16,3.16,0,0,0-1.1-.64,12.69,12.69,0,0,0-1.49-.42c-.54-.12-1.08-.26-1.63-.43a6.74,6.74,0,0,1-1.5-.62,3.11,3.11,0,0,1-1.09-1,3.06,3.06,0,0,1-.41-1.65,3.3,3.3,0,0,1,.51-1.79,3.52,3.52,0,0,1,1.59-1.32,6.51,6.51,0,0,1,2.73-.49,8.54,8.54,0,0,1,2.18.29,6.08,6.08,0,0,1,1.88.82l-.6,1.44a5.73,5.73,0,0,0-1.71-.78,6.82,6.82,0,0,0-1.75-.24,4.84,4.84,0,0,0-1.75.27,2.11,2.11,0,0,0-1,.72,1.71,1.71,0,0,0-.32,1,1.41,1.41,0,0,0,.43,1.06,3.15,3.15,0,0,0,1.1.63,14.25,14.25,0,0,0,1.49.42c.54.13,1.08.27,1.63.43a6.38,6.38,0,0,1,1.49.61,3,3,0,0,1,1.09,1,2.85,2.85,0,0,1,.42,1.61,3.33,3.33,0,0,1-.52,1.78,3.66,3.66,0,0,1-1.62,1.31A6.66,6.66,0,0,1,695,701.72Z" transform="translate(-540.79 -662.97)"/><path class="cls-3" d="M704.82,701.57v-11h-4.33V689h10.44v1.57H706.6v11Z" transform="translate(-540.79 -662.97)"/><path class="cls-3" d="M714.69,700h7.36v1.56h-9.16V689h8.91v1.57h-7.11Zm-.16-5.6H721v1.53h-6.49Z" transform="translate(-540.79 -662.97)"/><path class="cls-3" d="M725,701.57V689h1.48l8.34,10.35H734V689h1.8v12.6h-1.48L726,691.22h.77v10.35Z" transform="translate(-540.79 -662.97)"/><path class="cls-3" d="M666.72,731.57V719h1.47l8.35,10.35h-.78V719h1.81v12.6h-1.48l-8.35-10.35h.78v10.35Z" transform="translate(-540.79 -662.97)"/><path class="cls-3" d="M687.3,731.57V719.69l.78.85h-3.63V719h4.64v12.6Z" transform="translate(-540.79 -662.97)"/><path class="cls-3" d="M694,731.57V719.69l.78.85h-3.63V719h4.64v12.6Z" transform="translate(-540.79 -662.97)"/><path class="cls-3" d="M702.37,731.72a8,8,0,0,1-2.58-.42,5.8,5.8,0,0,1-2-1.11l.83-1.42a5.09,5.09,0,0,0,1.64,1,6.13,6.13,0,0,0,2.16.37,3.52,3.52,0,0,0,2.19-.6,2.07,2.07,0,0,0,0-3.22,3.79,3.79,0,0,0-2.37-.6h-1v-1.26l3.75-4.61.25.72h-6.9V719h8.33v1.23l-3.74,4.59-.93-.56h.59a5,5,0,0,1,3.44,1,3.37,3.37,0,0,1,1.14,2.61,3.75,3.75,0,0,1-.52,1.95,3.6,3.6,0,0,1-1.58,1.39A6,6,0,0,1,702.37,731.72Z" transform="translate(-540.79 -662.97)"/><path class="cls-3" d="M794.49,701.57V689H796l8.35,10.35h-.78V689h1.8v12.6h-1.47l-8.35-10.35h.77v10.35Z" transform="translate(-540.79 -662.97)"/><path class="cls-3" d="M812.18,701.57v-4.82l.41,1.11L807.16,689h1.93l4.56,7.51h-1l4.58-7.51H819l-5.41,8.89.4-1.11v4.82Z" transform="translate(-540.79 -662.97)"/><path class="cls-3" d="M820.58,701.57V689h4.92a7.08,7.08,0,0,1,2.83.52,4,4,0,0,1,1.8,1.52,4.28,4.28,0,0,1,.63,2.35,4.23,4.23,0,0,1-.63,2.35,4,4,0,0,1-1.8,1.51,7.08,7.08,0,0,1-2.83.52h-3.93l.81-.83v4.66Zm1.8-4.48-.81-.88h3.87a4,4,0,0,0,2.63-.75,2.59,2.59,0,0,0,.89-2.1,2.55,2.55,0,0,0-.89-2.08,4,4,0,0,0-2.63-.74h-3.87l.81-.9Zm6.63,4.48-3.2-4.57h1.92l3.25,4.57Z" transform="translate(-540.79 -662.97)"/><path class="cls-3" d="M839.38,701.72a7.17,7.17,0,0,1-2.68-.49,6.49,6.49,0,0,1-3.54-8.51,6.47,6.47,0,0,1,1.41-2.05,6.59,6.59,0,0,1,2.12-1.36,7.35,7.35,0,0,1,2.69-.48,7.19,7.19,0,0,1,2.66.48,6.23,6.23,0,0,1,2.13,1.35,6.14,6.14,0,0,1,1.4,2,6.88,6.88,0,0,1,0,5.15,6.14,6.14,0,0,1-1.4,2,6.55,6.55,0,0,1-2.13,1.35A7.19,7.19,0,0,1,839.38,701.72Zm0-1.61a5.15,5.15,0,0,0,1.94-.36,4.47,4.47,0,0,0,1.55-1,4.79,4.79,0,0,0,1-1.54,5.19,5.19,0,0,0,0-3.85,4.79,4.79,0,0,0-1-1.54,4.65,4.65,0,0,0-1.55-1,5.15,5.15,0,0,0-1.94-.36,5.22,5.22,0,0,0-2,.36,4.79,4.79,0,0,0-1.56,1,4.63,4.63,0,0,0-1,1.54,5.19,5.19,0,0,0,0,3.85,4.59,4.59,0,0,0,2.59,2.55A5.22,5.22,0,0,0,839.38,700.11Z" transform="translate(-540.79 -662.97)"/><path class="cls-3" d="M852.5,701.72a8.66,8.66,0,0,1-2.75-.44,5.77,5.77,0,0,1-2.08-1.15l.67-1.4a5.68,5.68,0,0,0,1.84,1,6.53,6.53,0,0,0,2.32.42,5.5,5.5,0,0,0,1.79-.25,2.15,2.15,0,0,0,1-.7,1.68,1.68,0,0,0,.32-1,1.36,1.36,0,0,0-.42-1,3.16,3.16,0,0,0-1.1-.64,12.69,12.69,0,0,0-1.49-.42c-.54-.12-1.08-.26-1.63-.43a7,7,0,0,1-1.5-.62,3.11,3.11,0,0,1-1.09-1,3.06,3.06,0,0,1-.41-1.65,3.3,3.3,0,0,1,.51-1.79,3.58,3.58,0,0,1,1.59-1.32,6.51,6.51,0,0,1,2.73-.49,8.54,8.54,0,0,1,2.18.29,6.08,6.08,0,0,1,1.88.82l-.6,1.44a5.73,5.73,0,0,0-1.71-.78,6.82,6.82,0,0,0-1.75-.24,4.84,4.84,0,0,0-1.75.27,2.11,2.11,0,0,0-1,.72,1.7,1.7,0,0,0-.31,1,1.4,1.4,0,0,0,.42,1.06,3.15,3.15,0,0,0,1.1.63,15,15,0,0,0,1.49.42c.54.13,1.08.27,1.63.43a6.38,6.38,0,0,1,1.49.61,3,3,0,0,1,1.09,1,2.85,2.85,0,0,1,.42,1.61,3.33,3.33,0,0,1-.52,1.78,3.66,3.66,0,0,1-1.62,1.31A6.63,6.63,0,0,1,852.5,701.72Z" transform="translate(-540.79 -662.97)"/><path class="cls-3" d="M862.35,701.57v-11H858V689h10.44v1.57h-4.33v11Z" transform="translate(-540.79 -662.97)"/><path class="cls-3" d="M872.23,700h7.35v1.56h-9.16V689h8.91v1.57h-7.1Zm-.17-5.6h6.49v1.53h-6.49Z" transform="translate(-540.79 -662.97)"/><path class="cls-3" d="M882.5,701.57V689H884l8.35,10.35h-.78V689h1.8v12.6h-1.47l-8.35-10.35h.77v10.35Z" transform="translate(-540.79 -662.97)"/><path class="cls-3" d="M789.49,731.57v-11h-4.33V719H795.6v1.57h-4.33v11Z" transform="translate(-540.79 -662.97)"/><path class="cls-3" d="M805.46,731.72a8.12,8.12,0,0,1-2.59-.42,5.83,5.83,0,0,1-2-1.11l.83-1.42a5,5,0,0,0,1.64,1,6.1,6.1,0,0,0,2.14.37,3.51,3.51,0,0,0,2.22-.61,2,2,0,0,0,.78-1.64,2,2,0,0,0-1.53-2,7.4,7.4,0,0,0-2.3-.28h-2.86l.66-6.59h7.13v1.57h-6.46l.94-.88-.52,5.2-.94-.87H805a8.07,8.07,0,0,1,3,.49,3.5,3.5,0,0,1,1.68,1.34,3.79,3.79,0,0,1,.52,2,3.89,3.89,0,0,1-.52,2,3.74,3.74,0,0,1-1.58,1.43A6,6,0,0,1,805.46,731.72Z" transform="translate(-540.79 -662.97)"/><path class="cls-3" d="M815.72,731.72a8.12,8.12,0,0,1-2.59-.42,5.75,5.75,0,0,1-2-1.11l.82-1.42a5.14,5.14,0,0,0,1.65,1,6.06,6.06,0,0,0,2.14.37,3.51,3.51,0,0,0,2.22-.61,2,2,0,0,0,.77-1.64,2,2,0,0,0-1.52-2,7.44,7.44,0,0,0-2.3-.28H812l.67-6.59h7.12v1.57h-6.45l.94-.88-.53,5.2-.93-.87h2.43a8.07,8.07,0,0,1,3,.49,3.52,3.52,0,0,1,1.67,1.34,3.7,3.7,0,0,1,.53,2,3.8,3.8,0,0,1-.53,2,3.71,3.71,0,0,1-1.57,1.43A6,6,0,0,1,815.72,731.72Z" transform="translate(-540.79 -662.97)"/><path class="cls-3" d="M822.15,727.38v-1.5H827v1.5Z" transform="translate(-540.79 -662.97)"/><path class="cls-3" d="M830.7,731.57V719.69l.77.85h-3.62V719h4.63v12.6Z" transform="translate(-540.79 -662.97)"/><path class="cls-3" d="M839.1,731.72a8.12,8.12,0,0,1-2.59-.42,5.83,5.83,0,0,1-2-1.11l.83-1.42a5,5,0,0,0,1.64,1,6.13,6.13,0,0,0,2.16.37,3.52,3.52,0,0,0,2.19-.6,2.09,2.09,0,0,0,0-3.22,3.79,3.79,0,0,0-2.37-.6h-1v-1.26l3.75-4.61.25.72H835V719h8.33v1.23l-3.73,4.59-.94-.56h.6a5,5,0,0,1,3.43,1,3.35,3.35,0,0,1,1.15,2.61,3.76,3.76,0,0,1-.53,1.95,3.52,3.52,0,0,1-1.57,1.39A6,6,0,0,1,839.1,731.72Z" transform="translate(-540.79 -662.97)"/><path class="cls-3" d="M845.72,727.38v-1.5h4.84v1.5Z" transform="translate(-540.79 -662.97)"/><path class="cls-3" d="M852,731.57v-1.22l5.13-5a6.88,6.88,0,0,0,1-1.14,3.37,3.37,0,0,0,.45-.92,3,3,0,0,0,.12-.82,1.86,1.86,0,0,0-.69-1.53,3.1,3.1,0,0,0-2-.56,4.8,4.8,0,0,0-1.82.33,3.65,3.65,0,0,0-1.4,1l-1.23-1.06a4.57,4.57,0,0,1,1.94-1.42,7,7,0,0,1,2.68-.49,5.78,5.78,0,0,1,2.29.42,3.37,3.37,0,0,1,1.5,1.22,3.21,3.21,0,0,1,.53,1.87,4.17,4.17,0,0,1-.77,2.47,10.47,10.47,0,0,1-1.3,1.49l-4.58,4.41-.43-.7h7.62v1.56Z" transform="translate(-540.79 -662.97)"/><path class="cls-3" d="M867.71,731.72a4.75,4.75,0,0,1-2.64-.76,5.07,5.07,0,0,1-1.84-2.19,9.32,9.32,0,0,1,0-7,5.16,5.16,0,0,1,1.84-2.2,5,5,0,0,1,5.27,0,5.16,5.16,0,0,1,1.84,2.2,9.45,9.45,0,0,1,0,7,5.07,5.07,0,0,1-1.84,2.19A4.79,4.79,0,0,1,867.71,731.72Zm0-1.61a2.83,2.83,0,0,0,1.74-.54,3.48,3.48,0,0,0,1.17-1.62,8.76,8.76,0,0,0,0-5.36,3.48,3.48,0,0,0-1.17-1.62,2.9,2.9,0,0,0-1.74-.54A3,3,0,0,0,866,721a3.5,3.5,0,0,0-1.18,1.62,8.76,8.76,0,0,0,0,5.36,3.5,3.5,0,0,0,1.18,1.62A2.88,2.88,0,0,0,867.71,730.11Z" transform="translate(-540.79 -662.97)"/><path class="cls-3" d="M878.65,731.72a8.12,8.12,0,0,1-2.59-.42,5.83,5.83,0,0,1-2-1.11l.83-1.42a5,5,0,0,0,1.64,1,6.1,6.1,0,0,0,2.14.37,3.49,3.49,0,0,0,2.22-.61,2,2,0,0,0,.78-1.64,2.18,2.18,0,0,0-.35-1.22,2.14,2.14,0,0,0-1.18-.8,7.4,7.4,0,0,0-2.3-.28h-2.86l.66-6.59h7.13v1.57h-6.46l.94-.88-.52,5.2-.94-.87h2.43a8.07,8.07,0,0,1,3.05.49,3.5,3.5,0,0,1,1.68,1.34,3.79,3.79,0,0,1,.52,2,3.89,3.89,0,0,1-.52,2,3.74,3.74,0,0,1-1.58,1.43A6,6,0,0,1,878.65,731.72Z" transform="translate(-540.79 -662.97)"/><path class="cls-3" d="M887.05,731.57V719.69l.78.85H884.2V719h4.64v12.6Z" transform="translate(-540.79 -662.97)"/><path class="cls-3" d="M896.75,731.72a4.79,4.79,0,0,1-2.64-.76,5.07,5.07,0,0,1-1.84-2.19,9.45,9.45,0,0,1,0-7,5.16,5.16,0,0,1,1.84-2.2,5,5,0,0,1,5.27,0,5.09,5.09,0,0,1,1.84,2.2,9.45,9.45,0,0,1,0,7,5,5,0,0,1-1.84,2.19A4.79,4.79,0,0,1,896.75,731.72Zm0-1.61a2.83,2.83,0,0,0,1.74-.54,3.48,3.48,0,0,0,1.17-1.62,8.57,8.57,0,0,0,0-5.36,3.48,3.48,0,0,0-1.17-1.62,2.9,2.9,0,0,0-1.74-.54A3,3,0,0,0,895,721a3.5,3.5,0,0,0-1.18,1.62,8.76,8.76,0,0,0,0,5.36,3.5,3.5,0,0,0,1.18,1.62A2.88,2.88,0,0,0,896.75,730.11Z" transform="translate(-540.79 -662.97)"/><path class="cls-3" d="M952,701.57V689h1.48l8.35,10.35h-.78V689h1.8v12.6H961.4l-8.35-10.35h.77v10.35Z" transform="translate(-540.79 -662.97)"/><path class="cls-3" d="M969.71,701.57v-4.82l.41,1.12-5.43-8.9h1.93l4.57,7.51h-1.05l4.58-7.51h1.78l-5.41,8.9.4-1.12v4.82Z" transform="translate(-540.79 -662.97)"/><path class="cls-3" d="M978.11,701.57V689H983a6.91,6.91,0,0,1,2.83.53,4,4,0,0,1,1.8,1.51,4.29,4.29,0,0,1,.63,2.36,4.22,4.22,0,0,1-.63,2.34,4,4,0,0,1-1.8,1.51,6.91,6.91,0,0,1-2.83.52H979.1l.81-.83v4.66Zm1.8-4.48-.81-.88H983a4,4,0,0,0,2.62-.75,2.9,2.9,0,0,0,0-4.18,4.05,4.05,0,0,0-2.62-.74H979.1l.81-.9Zm6.63,4.48-3.2-4.57h1.92l3.25,4.57Z" transform="translate(-540.79 -662.97)"/><path class="cls-3" d="M996.91,701.72a7.17,7.17,0,0,1-2.68-.49,6.49,6.49,0,0,1-3.54-8.51,6.47,6.47,0,0,1,1.41-2.05,6.4,6.4,0,0,1,2.12-1.35,7.62,7.62,0,0,1,5.35,0,6.23,6.23,0,0,1,2.13,1.35,6.14,6.14,0,0,1,1.4,2,6.88,6.88,0,0,1,0,5.15,6.14,6.14,0,0,1-1.4,2,6.55,6.55,0,0,1-2.13,1.35A7.19,7.19,0,0,1,996.91,701.72Zm0-1.6a5.15,5.15,0,0,0,1.94-.36,4.65,4.65,0,0,0,1.55-1,4.79,4.79,0,0,0,1-1.54,5.19,5.19,0,0,0,0-3.85,4.79,4.79,0,0,0-1-1.54,4.65,4.65,0,0,0-1.55-1,5.15,5.15,0,0,0-1.94-.36,5.22,5.22,0,0,0-2,.36,4.65,4.65,0,0,0-1.55,1,4.51,4.51,0,0,0-1,1.54,5.19,5.19,0,0,0,0,3.85,4.51,4.51,0,0,0,1,1.54,4.65,4.65,0,0,0,1.55,1A5.22,5.22,0,0,0,996.91,700.12Z" transform="translate(-540.79 -662.97)"/><path class="cls-3" d="M1010,701.72a8.66,8.66,0,0,1-2.75-.44,5.77,5.77,0,0,1-2.08-1.15l.67-1.4a5.68,5.68,0,0,0,1.84,1,6.53,6.53,0,0,0,2.32.42,5.5,5.5,0,0,0,1.79-.25,2.1,2.1,0,0,0,1-.7,1.66,1.66,0,0,0,.32-1,1.36,1.36,0,0,0-.42-1,3.16,3.16,0,0,0-1.1-.64,12.69,12.69,0,0,0-1.49-.42c-.54-.12-1.08-.26-1.63-.43a7,7,0,0,1-1.5-.62,3.11,3.11,0,0,1-1.09-1,3.06,3.06,0,0,1-.41-1.65,3.32,3.32,0,0,1,.51-1.79,3.58,3.58,0,0,1,1.59-1.32,6.54,6.54,0,0,1,2.73-.49,8.54,8.54,0,0,1,2.18.29,6.1,6.1,0,0,1,1.88.83l-.6,1.44a6,6,0,0,0-1.71-.79,6.76,6.76,0,0,0-1.75-.24,4.84,4.84,0,0,0-1.75.27,2.11,2.11,0,0,0-1,.72,1.72,1.72,0,0,0-.31,1,1.39,1.39,0,0,0,.42,1.06,3.15,3.15,0,0,0,1.1.63,12.69,12.69,0,0,0,1.49.42c.54.13,1.08.27,1.63.43a6.84,6.84,0,0,1,1.49.61,3,3,0,0,1,1.09,1,2.87,2.87,0,0,1,.42,1.62,3.23,3.23,0,0,1-.52,1.77,3.66,3.66,0,0,1-1.62,1.31A6.63,6.63,0,0,1,1010,701.72Z" transform="translate(-540.79 -662.97)"/><path class="cls-3" d="M1019.88,701.57v-11h-4.33V689H1026v1.57h-4.33v11Z" transform="translate(-540.79 -662.97)"/><path class="cls-3" d="M1029.76,700h7.35v1.56H1028V689h8.91v1.57h-7.1Zm-.17-5.6h6.49v1.53h-6.49Z" transform="translate(-540.79 -662.97)"/><path class="cls-3" d="M1040,701.57V689h1.48l8.35,10.35h-.78V689h1.8v12.6h-1.47l-8.35-10.35h.77v10.35Z" transform="translate(-540.79 -662.97)"/><path class="cls-3" d="M963.33,731.57l5.72-12.6h1.78l5.74,12.6h-1.9L969.57,720h.72l-5.1,11.59Zm2.44-3.15.48-1.44h7.11l.52,1.44Z" transform="translate(-540.79 -662.97)"/><path class="cls-3" d="M984.39,731.57V719.69l.77.85h-3.62V719h4.63v12.6Z" transform="translate(-540.79 -662.97)"/><path class="cls-3" d="M993,718.83a5.39,5.39,0,0,1,2.9.74,4.66,4.66,0,0,1,1.79,2.13,8.45,8.45,0,0,1,.61,3.41,7.92,7.92,0,0,1-.75,3.62,5.25,5.25,0,0,1-2.09,2.23,6.16,6.16,0,0,1-3.12.76,8,8,0,0,1-1.71-.18,4.69,4.69,0,0,1-1.43-.56l.69-1.4A3.47,3.47,0,0,0,991,730a6.19,6.19,0,0,0,1.31.14,4,4,0,0,0,3-1.2,5,5,0,0,0,1.13-3.55q0-.37,0-.9a6,6,0,0,0-.17-1l.6.61a3.21,3.21,0,0,1-.84,1.4,3.73,3.73,0,0,1-1.41.85,5.65,5.65,0,0,1-1.79.27,5.09,5.09,0,0,1-2.22-.46,3.75,3.75,0,0,1-1.53-1.33,3.62,3.62,0,0,1-.56-2,3.79,3.79,0,0,1,.59-2.12,3.83,3.83,0,0,1,1.6-1.37A5.09,5.09,0,0,1,993,718.83Zm.08,1.46a3.36,3.36,0,0,0-1.45.3,2.47,2.47,0,0,0-1,.85,2.36,2.36,0,0,0-.35,1.3,2.2,2.2,0,0,0,.78,1.77,3.1,3.1,0,0,0,2.09.66,3.37,3.37,0,0,0,1.52-.33,2.54,2.54,0,0,0,1-.88,2.25,2.25,0,0,0,.37-1.24,2.2,2.2,0,0,0-.35-1.21,2.48,2.48,0,0,0-1-.88A3.61,3.61,0,0,0,993.1,720.29Z" transform="translate(-540.79 -662.97)"/><path class="cls-3" d="M998.32,733.37l5.95-17h1.57l-6,17Z" transform="translate(-540.79 -662.97)"/><path class="cls-3" d="M1005.84,731.57v-1.22l5.14-5a6.88,6.88,0,0,0,1-1.14,3.37,3.37,0,0,0,.45-.92,3,3,0,0,0,.12-.82,1.86,1.86,0,0,0-.69-1.53,3.12,3.12,0,0,0-2-.56,4.61,4.61,0,0,0-1.82.34,3.63,3.63,0,0,0-1.41,1l-1.22-1.06a4.59,4.59,0,0,1,1.94-1.42,7,7,0,0,1,2.67-.49,5.74,5.74,0,0,1,2.29.42,3.4,3.4,0,0,1,1.51,1.22,3.31,3.31,0,0,1,.53,1.87,4.52,4.52,0,0,1-.16,1.21,4.57,4.57,0,0,1-.62,1.26,10.32,10.32,0,0,1-1.29,1.49l-4.58,4.41-.43-.7h7.62v1.56Z" transform="translate(-540.79 -662.97)"/><path class="cls-3" d="M1021.53,731.72a4.72,4.72,0,0,1-2.65-.76,5.12,5.12,0,0,1-1.83-2.19,9.32,9.32,0,0,1,0-7,5.12,5.12,0,0,1,1.83-2.19,5,5,0,0,1,5.28,0,5.07,5.07,0,0,1,1.84,2.19,9.58,9.58,0,0,1,0,7,5.07,5.07,0,0,1-1.84,2.19A4.7,4.7,0,0,1,1021.53,731.72Zm0-1.6a2.9,2.9,0,0,0,1.74-.54,3.55,3.55,0,0,0,1.17-1.62,8.79,8.79,0,0,0,0-5.37,3.55,3.55,0,0,0-1.17-1.62,2.9,2.9,0,0,0-1.74-.54,2.93,2.93,0,0,0-1.75.54,3.43,3.43,0,0,0-1.18,1.62,8.6,8.6,0,0,0,0,5.37,3.43,3.43,0,0,0,1.18,1.62A2.93,2.93,0,0,0,1021.53,730.12Z" transform="translate(-540.79 -662.97)"/><path class="cls-3" d="M1033.55,731.72a4.67,4.67,0,0,1-2.64-.76,5.07,5.07,0,0,1-1.84-2.19,9.32,9.32,0,0,1,0-7,5.07,5.07,0,0,1,1.84-2.19,4.95,4.95,0,0,1,5.27,0,5,5,0,0,1,1.84,2.19,9.45,9.45,0,0,1,0,7,5,5,0,0,1-1.84,2.19A4.7,4.7,0,0,1,1033.55,731.72Zm0-1.6a2.9,2.9,0,0,0,1.74-.54,3.48,3.48,0,0,0,1.17-1.62,8.6,8.6,0,0,0,0-5.37,3.48,3.48,0,0,0-1.17-1.62,2.9,2.9,0,0,0-1.74-.54,3,3,0,0,0-1.75.54,3.5,3.5,0,0,0-1.18,1.62,8.79,8.79,0,0,0,0,5.37,3.5,3.5,0,0,0,1.18,1.62A3,3,0,0,0,1033.55,730.12Z" transform="translate(-540.79 -662.97)"/><path class="cls-3" d="M1111.27,701.57V689h1.48l8.35,10.35h-.78V689h1.81v12.6h-1.48l-8.35-10.35h.78v10.35Z" transform="translate(-540.79 -662.97)"/><path class="cls-3" d="M1129,701.57v-4.82l.41,1.11L1124,689h1.93l4.56,7.51h-1L1134,689h1.78l-5.4,8.89.39-1.11v4.82Z" transform="translate(-540.79 -662.97)"/><path class="cls-3" d="M1137.36,701.57V689h4.92a7,7,0,0,1,2.83.52,4,4,0,0,1,1.8,1.52,4.28,4.28,0,0,1,.63,2.35,4.23,4.23,0,0,1-.63,2.35,4,4,0,0,1-1.8,1.51,7,7,0,0,1-2.83.52h-3.93l.81-.83v4.66Zm1.8-4.48-.81-.88h3.88a4,4,0,0,0,2.62-.75,2.56,2.56,0,0,0,.89-2.1,2.52,2.52,0,0,0-.89-2.08,4,4,0,0,0-2.62-.74h-3.88l.81-.9Zm6.64,4.48-3.21-4.57h1.93l3.24,4.57Z" transform="translate(-540.79 -662.97)"/><path class="cls-3" d="M1156.16,701.72a7.08,7.08,0,0,1-2.67-.49,6.31,6.31,0,0,1-3.55-3.4,6.38,6.38,0,0,1,3.54-8.52,7.67,7.67,0,0,1,5.34,0,6.23,6.23,0,0,1,2.13,1.35,6.17,6.17,0,0,1,1.41,2,7,7,0,0,1,0,5.15,6.17,6.17,0,0,1-1.41,2,6.55,6.55,0,0,1-2.13,1.35A7.19,7.19,0,0,1,1156.16,701.72Zm0-1.61a5.11,5.11,0,0,0,1.94-.36,4.38,4.38,0,0,0,1.55-1,4.79,4.79,0,0,0,1-1.54,5.19,5.19,0,0,0,0-3.85,4.79,4.79,0,0,0-1-1.54,4.55,4.55,0,0,0-1.55-1,5.43,5.43,0,0,0-3.89,0,4.59,4.59,0,0,0-1.56,1,4.66,4.66,0,0,0-1,1.54,5.19,5.19,0,0,0,0,3.85,4.66,4.66,0,0,0,1,1.54,4.42,4.42,0,0,0,1.56,1A5.13,5.13,0,0,0,1156.16,700.11Z" transform="translate(-540.79 -662.97)"/><path class="cls-3" d="M1169.29,701.72a8.72,8.72,0,0,1-2.76-.44,5.64,5.64,0,0,1-2.07-1.15l.66-1.4a5.79,5.79,0,0,0,1.84,1,6.58,6.58,0,0,0,2.33.42,5.47,5.47,0,0,0,1.78-.25,2.1,2.1,0,0,0,1-.7,1.62,1.62,0,0,0,.33-1,1.36,1.36,0,0,0-.43-1,3.16,3.16,0,0,0-1.1-.64,12.16,12.16,0,0,0-1.49-.42c-.54-.12-1.08-.26-1.63-.43a6.86,6.86,0,0,1-1.49-.62,3,3,0,0,1-1.09-1,3,3,0,0,1-.42-1.65,3.23,3.23,0,0,1,.52-1.79,3.55,3.55,0,0,1,1.58-1.32,6.57,6.57,0,0,1,2.73-.49,8.48,8.48,0,0,1,2.18.29,6,6,0,0,1,1.88.82l-.6,1.44a5.73,5.73,0,0,0-1.71-.78,6.76,6.76,0,0,0-1.75-.24,4.84,4.84,0,0,0-1.75.27,2.16,2.16,0,0,0-1,.72,1.7,1.7,0,0,0-.31,1,1.4,1.4,0,0,0,.42,1.06,3.15,3.15,0,0,0,1.1.63,15,15,0,0,0,1.49.42c.54.13,1.08.27,1.63.43a6.29,6.29,0,0,1,1.5.61,3.11,3.11,0,0,1,1.09,1,2.94,2.94,0,0,1,.41,1.61,3.24,3.24,0,0,1-.52,1.78,3.69,3.69,0,0,1-1.61,1.31A6.69,6.69,0,0,1,1169.29,701.72Z" transform="translate(-540.79 -662.97)"/><path class="cls-3" d="M1179.13,701.57v-11h-4.33V689h10.44v1.57h-4.33v11Z" transform="translate(-540.79 -662.97)"/><path class="cls-3" d="M1184.66,701.57l5.72-12.6h1.78l5.74,12.6H1196L1190.9,690h.72l-5.1,11.59Zm2.44-3.15.48-1.44h7.11l.52,1.44Z" transform="translate(-540.79 -662.97)"/><path class="cls-3" d="M1199.77,701.57V689h1.8v11h6.84v1.56Z" transform="translate(-540.79 -662.97)"/><path class="cls-3" d="M1154.41,731.72a5.34,5.34,0,0,1-2.86-.74,4.58,4.58,0,0,1-1.81-2.13,8.27,8.27,0,0,1-.63-3.41,7.91,7.91,0,0,1,.76-3.62,5.26,5.26,0,0,1,2.11-2.24,6.29,6.29,0,0,1,3.1-.75,8,8,0,0,1,1.72.18,4.22,4.22,0,0,1,1.42.56l-.69,1.4a2.91,2.91,0,0,0-1.11-.47,6.83,6.83,0,0,0-1.3-.12,4.06,4.06,0,0,0-3.07,1.19,5,5,0,0,0-1.13,3.56q0,.38,0,.9a6,6,0,0,0,.18,1l-.61-.62a3.37,3.37,0,0,1,.86-1.39,3.77,3.77,0,0,1,1.4-.85,5.68,5.68,0,0,1,1.78-.28,5.11,5.11,0,0,1,2.23.47,3.74,3.74,0,0,1,1.54,1.32,3.65,3.65,0,0,1,.55,2,3.75,3.75,0,0,1-.59,2.11,3.94,3.94,0,0,1-1.61,1.38A5.08,5.08,0,0,1,1154.41,731.72Zm-.07-1.46a3.16,3.16,0,0,0,1.45-.31,2.49,2.49,0,0,0,1-.85,2.32,2.32,0,0,0,.36-1.29,2.2,2.2,0,0,0-.78-1.77,3.15,3.15,0,0,0-2.11-.66,3.39,3.39,0,0,0-1.51.32,2.52,2.52,0,0,0-1,.88,2.14,2.14,0,0,0-.37,1.25,2.23,2.23,0,0,0,.34,1.2,2.6,2.6,0,0,0,1,.89A3.55,3.55,0,0,0,1154.34,730.26Z" transform="translate(-540.79 -662.97)"/><path class="cls-3" d="M1164.31,731.72a8.12,8.12,0,0,1-2.59-.42,5.83,5.83,0,0,1-2-1.11l.83-1.42a5,5,0,0,0,1.64,1,6.1,6.1,0,0,0,2.14.37,3.51,3.51,0,0,0,2.22-.61,2,2,0,0,0,.78-1.64,2,2,0,0,0-1.53-2,7.4,7.4,0,0,0-2.3-.28h-2.86l.66-6.59h7.12v1.57h-6.45l.94-.88-.52,5.2-.94-.87h2.43a8.07,8.07,0,0,1,3.05.49,3.5,3.5,0,0,1,1.68,1.34,3.79,3.79,0,0,1,.52,2,3.89,3.89,0,0,1-.52,2,3.74,3.74,0,0,1-1.58,1.43A6,6,0,0,1,1164.31,731.72Z" transform="translate(-540.79 -662.97)"/></svg>