<svg id="Слой_1" data-name="Слой 1" xmlns="http://www.w3.org/2000/svg" viewBox="0 0 31.54 27.35"><defs><style>.cls-1{fill:#004e97;}</style></defs><path class="cls-1" d="M796.38,840.14h3.3l-7.36-14.47a4.82,4.82,0,0,0-.91-8v-2.53h2.85l1.39-2.37H772.42l1.39,2.37h2.64v2.51a4.83,4.83,0,0,0-1,8l-7.36,14.47h3.31l3.64-6.18H782v6.18h3.9V834h6.88Zm-5-18.67v-3A4.09,4.09,0,0,1,792,825l-.59-1.16h0v-2.37Zm-13.36-6.31h11.77v2c-.21,0-.41,0-.63,0a4.85,4.85,0,0,0-4.81,4.32h-.93a4.85,4.85,0,0,0-4.82-4.32,5.46,5.46,0,0,0-.58,0Zm7.05,6.31a4.13,4.13,0,0,1,4.09-3.6,4.34,4.34,0,0,1,.63,0v3.55Zm2.89,4.45a4.1,4.1,0,0,1-2.14-1.53v-.55h.92Zm-6-1.49a4.15,4.15,0,0,1-2.11,1.49l1.22-2.08H782Zm-3.9-6.52a3.69,3.69,0,0,1,.58,0,4.12,4.12,0,0,1,4.09,3.6h-4.67ZM774.51,822a4.1,4.1,0,0,1,1.94-3.48v3h0v2.37l-.59,1.16A4.07,4.07,0,0,1,774.51,822Zm1.35,10.68,3.48-5.9A4.89,4.89,0,0,0,782,825.5v7.16Zm10,0v-7.19a4.81,4.81,0,0,0,2.64,1.29l3.48,5.9Z" transform="translate(-768.14 -812.79)"/></svg>