<svg id="Слой_1" data-name="Слой 1" xmlns="http://www.w3.org/2000/svg" viewBox="0 0 25.93 25.23"><defs><style>.cls-1{fill:#004e97;}</style></defs><path class="cls-1" d="M785.22,878.79a1.12,1.12,0,1,1,1.13-1.12,1.12,1.12,0,0,1-1.13,1.12m0-1.62a.5.5,0,0,0-.5.5.51.51,0,0,0,.5.5.5.5,0,0,0,.5-.5A.5.5,0,0,0,785.22,877.17Z" transform="translate(-772.61 -873.41)"/><path class="cls-1" d="M782.79,879.66a1.12,1.12,0,1,1,1.12-1.12,1.13,1.13,0,0,1-1.12,1.12m0-1.62a.5.5,0,0,0-.5.5.5.5,0,0,0,.5.5.51.51,0,0,0,.5-.5A.5.5,0,0,0,782.79,878Z" transform="translate(-772.61 -873.41)"/><path class="cls-1" d="M772.73,883.11l-.12-.61a91.53,91.53,0,0,0,13.65-3.88c6.3-2.45,12-5.19,12-5.21l.28.56c-.06,0-5.74,2.77-12.07,5.23a91.82,91.82,0,0,1-13.75,3.91" transform="translate(-772.61 -873.41)"/><path class="cls-1" d="M794.2,885.13H788v-1h-2.24V882a1.14,1.14,0,0,0,.56-1,1.13,1.13,0,1,0-1.72.95v2.2h-2.16v1h-6.73a13,13,0,0,0-1.49,5.76,32.14,32.14,0,0,0,1.49,7.75H794.2a32.14,32.14,0,0,0,1.49-7.75,13,13,0,0,0-1.49-5.76m-9-4.65a.5.5,0,0,1,.5.5.5.5,0,0,1-.5.5.5.5,0,0,1-.5-.5A.51.51,0,0,1,785.22,880.48ZM789.37,894h-8.69v-6.22h8.69Zm-12.48-6.22h3.17V894h-3.17ZM793.17,894H790v-6.22h3.18Z" transform="translate(-772.61 -873.41)"/></svg>