<svg id="Слой_1" data-name="Слой 1" xmlns="http://www.w3.org/2000/svg" viewBox="0 0 29.38 29.49"><defs><style>.cls-1{fill:#004e97;}</style></defs><polygon class="cls-1" points="9.67 3.9 8.57 0 7.88 0 7.43 0 6.38 3.76 4.6 3.68 4.6 2.85 0 2.85 0 11.44 4.6 11.44 4.6 6.5 5.88 6.5 5.88 29.39 10.14 29.39 10.14 8.64 11.85 8.64 11.85 6.5 20.75 6.51 20.75 12.34 21.28 12.34 21.28 6.51 29.29 6.51 29.29 4.74 9.67 3.9"/><rect class="cls-1" x="18.06" y="25.44" width="11.32" height="4.04"/><rect class="cls-1" x="18.06" y="19.61" width="4.52" height="4.94"/><rect class="cls-1" x="17.59" y="12.6" width="6.98" height="2.1"/><rect class="cls-1" x="17.59" y="15.04" width="6.98" height="0.92"/></svg>