<svg id="Слой_1" data-name="Слой 1" xmlns="http://www.w3.org/2000/svg" viewBox="0 0 31.54 23.65"><defs><style>.cls-1{fill:#004e97;}</style></defs><rect class="cls-1" x="9.59" y="3.83" width="0.35" height="12.52"/><polygon class="cls-1" points="31.55 0 30.34 0 0 0 0 5.34 2.65 5.34 28.11 5.34 31.55 17.08 31.55 0"/><path class="cls-1" d="M787.49,1003.76l2.8,8.75,5.65-1.64v-7.11Zm7,6.15-3.67,1.06L789,1005.3h5.49Z" transform="translate(-769.41 -997.78)"/><path class="cls-1" d="M780.58,1013.74a1.41,1.41,0,1,1-1.41-1.41,1.41,1.41,0,0,1,1.41,1.41" transform="translate(-769.41 -997.78)"/><path class="cls-1" d="M776.06,1012.75a3.45,3.45,0,0,1,2.29.88,3.75,3.75,0,0,1,.8-.26,4.22,4.22,0,1,0-4,6.11,3.43,3.43,0,0,1,.95-6.73" transform="translate(-769.41 -997.78)"/><path class="cls-1" d="M783,1011.05a4.21,4.21,0,0,0-3.89,2.58,4.06,4.06,0,0,1,.8.11,3.43,3.43,0,1,1,3.36,5.74,4.22,4.22,0,0,0-.27-8.43" transform="translate(-769.41 -997.78)"/><rect class="cls-1" x="5.92" y="19.87" width="7.87" height="2.37"/><rect class="cls-1" x="5.92" y="22.61" width="7.87" height="1.04"/></svg>