<svg id="Слой_1" data-name="Слой 1" xmlns="http://www.w3.org/2000/svg" viewBox="0 0 21.78 28.62"><defs><style>.cls-1{fill:#004e97;}</style></defs><polygon class="cls-1" points="19.88 7.05 19.88 7.93 20.95 7.93 20.95 27.74 0.83 27.74 0.83 7.93 2.34 7.93 2.34 7.05 0 7.05 0 28.62 21.78 28.62 21.78 7.05 19.88 7.05"/><polygon class="cls-1" points="16.49 7.05 14.7 7.05 14.7 5.21 11.13 5.21 11.13 0 10.57 0 10.57 5.21 7.04 5.21 7.04 7.05 4.76 7.05 4.76 7.93 16.49 7.93 16.49 7.05"/><path class="cls-1" d="M792.23,1130.59v0a.66.66,0,0,0,0-.14,1.38,1.38,0,0,0-.47-.86,1.92,1.92,0,0,0-1.21-.37h-2.43a1.92,1.92,0,0,0-1.21.37,1.3,1.3,0,0,0-.46.86.32.32,0,0,0,0,.14v0a1.16,1.16,0,0,0,0,.13h0V1135a.56.56,0,1,0,1.11,0v-3.79h.15v10.47a.73.73,0,1,0,1.45,0v-5.49h.26v5.49a.73.73,0,1,0,1.45,0v-6.9h0v-3.56H791V1135a.56.56,0,0,0,.56.57h.15a.56.56,0,0,0,.55-.57v-4.31h0s0,0,0-.14" transform="translate(-773.91 -1115.16)"/><path class="cls-1" d="M789.34,1128.81a1.34,1.34,0,1,0-1.26-1.34,1.3,1.3,0,0,0,1.26,1.34" transform="translate(-773.91 -1115.16)"/><path class="cls-1" d="M783.31,1130.56a.68.68,0,0,0,0-.14,1.36,1.36,0,0,0-.46-.86,1.93,1.93,0,0,0-1.21-.37h-2.44a1.92,1.92,0,0,0-1.21.37,1.36,1.36,0,0,0-.46.86.59.59,0,0,0,0,.14v0a.45.45,0,0,0,0,.13h0V1135a.56.56,0,1,0,1.12,0v-3.79h.15v3.84l-1.12,2.06h1.12v4.57a.72.72,0,1,0,1.44,0v-4.57h.27v4.57a.72.72,0,1,0,1.44,0v-4.57H783l-1.1-2v-3.88h.14V1135a.56.56,0,0,0,.56.57h.14a.56.56,0,0,0,.56-.57v-4.31h0v-.17Z" transform="translate(-773.91 -1115.16)"/><path class="cls-1" d="M780.41,1128.81a1.34,1.34,0,1,0-1.25-1.34,1.3,1.3,0,0,0,1.25,1.34" transform="translate(-773.91 -1115.16)"/><polygon class="cls-1" points="3.52 4.5 4.92 6.1 4.92 6.13 4.19 6.13 4.19 8.76 2.85 8.76 2.85 6.13 2.12 6.13 2.12 6.1 3.52 4.5"/><polygon class="cls-1" points="18.19 8.72 16.79 7.12 16.79 7.09 17.52 7.09 17.52 4.45 18.86 4.45 18.86 7.09 19.59 7.09 19.59 7.12 18.19 8.72"/></svg>