<svg id="Слой_1" data-name="Слой 1" xmlns="http://www.w3.org/2000/svg" viewBox="0 0 33.48 28.53"><defs><style>.cls-1{fill:#004e97;}</style></defs><path class="cls-1" d="M800.8,1313l-1.81.44.21-1.14,1.6.39v-.36l-1.53-.38.15-.85,1.38-.33v-.31l-1.32.32.17-1,1.15.28v-.31l-1.09-.26.16-.9.93-.22v-.26l-.88.22.15-.82.73.18v-.25l-.69-.17.17-.94.52-.13v-.2l-.48.11.12-.67.36.09v-.21l-.32-.08.14-.77.18,0v-.17l-.15,0,.1-.55,0,0v-.18h0l0-.11V1302l-.35,1.92-.08,0-.42-1,.69-.87h.16v-.1l-1.22,0h0l-3.37.12h0l-.54.17h0v.27h-.14v1.45h.14v.11h-.23v.37h.12c0,.64.16,4.92-.47,6.8-.08.22-.21.5-.41.54a.48.48,0,0,1-.28-.06h.15v-.76h-.45v-.23h.27v-3h-.27v-.55h0l-1.12-.36h0l-6.91-.26h0l-2.56-.09-.63-3.47-1.89-4.64h-.54l-1.9,4.64-.63,3.47-2.46.09h0l-6.92.26h0l-1.12.36v.13l1,.64h0l.87.29,0,0h0l.77.26h0l7.07,2.36-2.91,16h.57l.25-1.38,5.67-1.39,5.69,1.39.25,1.38h.57l-2.9-16,7.18-2.39h0l.77-.26h0l0,0,.87-.29h0l.8-.52v.3h-.28v3h.28v.23h-.46v.76h.48a1.08,1.08,0,0,0,.68.35h.11c.27,0,.49-.3.63-.73.65-1.94.51-6.18.48-6.89H796V1304h-.23v-.11h.14v-1.45h-.14v-.14l.39.25h0l.42.14h0l.38.13h0l3.49,1.17-2.21,12.19.27,0,.44-2.41,1.87-.46Zm-8.87-6-.2.5-.42-.53Zm-6-.23,0,.14-.75-.17Zm-.14.36-.44,1.11-1.17-1.48Zm-2.6,1-1.91-.47,1.75-.42Zm-.54-3-1.47-.36,1.35-.33Zm-3.61-2,1.63-4,1.62,4,.19,1.09-1.8.44-1.84-.45Zm-.24,1.3,1.37.33-1.5.37Zm-.17,1,2-.5,2,.49L783,1307l-2.31.56-2.32-.56Zm-.33,1.82,1.75.42-1.91.47Zm-.22,1.21,2.59-.64,2.58.63.29,1.63-2.87.71-2.89-.71Zm2.59,2.69,3.21.78.29,1.6-3.5.85-3.51-.85.29-1.6Zm-3.16.41.21-1.13,2.21.54Zm3.9-.59,2.2-.54.2,1.12Zm-5.11-4.24-.74.17-.06-.14Zm1,0-1.16,1.48-.45-1.11Zm-7.14.21-.42.53-.2-.5Zm-1.67.77h0l-.72-.46.82-.25.86,0,.23.58-.35.44Zm1.4.47-.47-.16.3-.37.21.52Zm.13,0-.24-.58.5-.63,5-.19.07.18Zm.29.17,5.16-1.17.51,1.26-1.13,1.43Zm4.77,1.59,1-1.26.74,1.84Zm2,.67-.86-2.13,1.41-1.78h.24l-.72,4Zm0,3.33,2.72.66-3,.73Zm-.77,4.25,3.29.8-3.59.88Zm-1.21,6.66.37-2,3.9,1Zm11.12,0-4.28-1,3.92-1Zm-.47-2.6-5.1,1.25-5.08-1.24.34-1.83,4.77-1.17,4.74,1.16Zm-.43-2.38-3.57-.87,3.26-.8Zm-.4-2.17-4.25,1-4.27-1,.35-1.93h0l3.92-1,3.9,1Zm-.43-2.37-3-.72,2.7-.66Zm-.27-4.65-.72-4,.35,0,1.4,1.78-.86,2.13Zm.45-.15.74-1.84,1,1.26Zm2-.65-1.12-1.43.5-1.26,5.17,1.17Zm-.53-2.91.07-.18,5,.19.5.63-.23.58Zm5.49,1.25h0l.21-.52.29.37Zm1.4-.47h0l-.84.28-.35-.44.24-.58.85,0,.82.25Zm6.92-5-.21-.54.78-.18Zm.11-.73-.36.09,0-.07Zm-3,.11-.2.26-.1-.24Zm-.81.38h0l-.35-.22.4-.13h.41l.12.28-.17.22Zm.68.23-.23-.08.15-.18.1.25Zm.06,0-.11-.28.24-.31,2.45-.09,0,.09Zm.14.08,2.52-.57.25.62-.55.7Zm2.33.78.48-.61.36.89Z" transform="translate(-767.32 -1298.34)"/></svg>